%TF.GenerationSoftware,KiCad,Pcbnew,9.0.6*%
%TF.CreationDate,2026-02-05T15:53:56-08:00*%
%TF.ProjectId,BHL S1 copied,42484c20-5331-4206-936f-706965642e6b,rev?*%
%TF.SameCoordinates,Original*%
%TF.FileFunction,Copper,L1,Top*%
%TF.FilePolarity,Positive*%
%FSLAX46Y46*%
G04 Gerber Fmt 4.6, Leading zero omitted, Abs format (unit mm)*
G04 Created by KiCad (PCBNEW 9.0.6) date 2026-02-05 15:53:56*
%MOMM*%
%LPD*%
G01*
G04 APERTURE LIST*
G04 Aperture macros list*
%AMRoundRect*
0 Rectangle with rounded corners*
0 $1 Rounding radius*
0 $2 $3 $4 $5 $6 $7 $8 $9 X,Y pos of 4 corners*
0 Add a 4 corners polygon primitive as box body*
4,1,4,$2,$3,$4,$5,$6,$7,$8,$9,$2,$3,0*
0 Add four circle primitives for the rounded corners*
1,1,$1+$1,$2,$3*
1,1,$1+$1,$4,$5*
1,1,$1+$1,$6,$7*
1,1,$1+$1,$8,$9*
0 Add four rect primitives between the rounded corners*
20,1,$1+$1,$2,$3,$4,$5,0*
20,1,$1+$1,$4,$5,$6,$7,0*
20,1,$1+$1,$6,$7,$8,$9,0*
20,1,$1+$1,$8,$9,$2,$3,0*%
%AMRotRect*
0 Rectangle, with rotation*
0 The origin of the aperture is its center*
0 $1 length*
0 $2 width*
0 $3 Rotation angle, in degrees counterclockwise*
0 Add horizontal line*
21,1,$1,$2,0,0,$3*%
G04 Aperture macros list end*
%TA.AperFunction,SMDPad,CuDef*%
%ADD10RoundRect,0.155000X0.259862X-0.040659X-0.040659X0.259862X-0.259862X0.040659X0.040659X-0.259862X0*%
%TD*%
%TA.AperFunction,SMDPad,CuDef*%
%ADD11RoundRect,0.250000X-0.337500X-0.475000X0.337500X-0.475000X0.337500X0.475000X-0.337500X0.475000X0*%
%TD*%
%TA.AperFunction,SMDPad,CuDef*%
%ADD12RoundRect,0.160000X-0.197500X-0.160000X0.197500X-0.160000X0.197500X0.160000X-0.197500X0.160000X0*%
%TD*%
%TA.AperFunction,SMDPad,CuDef*%
%ADD13RoundRect,0.155000X0.212500X0.155000X-0.212500X0.155000X-0.212500X-0.155000X0.212500X-0.155000X0*%
%TD*%
%TA.AperFunction,SMDPad,CuDef*%
%ADD14RoundRect,0.160000X-0.026517X-0.252791X0.252791X0.026517X0.026517X0.252791X-0.252791X-0.026517X0*%
%TD*%
%TA.AperFunction,SMDPad,CuDef*%
%ADD15RoundRect,0.155000X0.252698X0.072973X-0.146672X0.218332X-0.252698X-0.072973X0.146672X-0.218332X0*%
%TD*%
%TA.AperFunction,SMDPad,CuDef*%
%ADD16RoundRect,0.249999X0.450001X1.425001X-0.450001X1.425001X-0.450001X-1.425001X0.450001X-1.425001X0*%
%TD*%
%TA.AperFunction,SMDPad,CuDef*%
%ADD17R,4.100000X2.000000*%
%TD*%
%TA.AperFunction,SMDPad,CuDef*%
%ADD18RoundRect,0.160000X0.160000X-0.197500X0.160000X0.197500X-0.160000X0.197500X-0.160000X-0.197500X0*%
%TD*%
%TA.AperFunction,SMDPad,CuDef*%
%ADD19RoundRect,0.150000X-0.035355X0.247487X-0.247487X0.035355X0.035355X-0.247487X0.247487X-0.035355X0*%
%TD*%
%TA.AperFunction,ComponentPad*%
%ADD20R,1.700000X1.700000*%
%TD*%
%TA.AperFunction,ComponentPad*%
%ADD21C,1.700000*%
%TD*%
%TA.AperFunction,SMDPad,CuDef*%
%ADD22RotRect,2.450000X2.550000X30.000000*%
%TD*%
%TA.AperFunction,SMDPad,CuDef*%
%ADD23R,1.400000X0.600000*%
%TD*%
%TA.AperFunction,SMDPad,CuDef*%
%ADD24RoundRect,0.150000X-0.512500X-0.150000X0.512500X-0.150000X0.512500X0.150000X-0.512500X0.150000X0*%
%TD*%
%TA.AperFunction,SMDPad,CuDef*%
%ADD25R,1.250000X0.600000*%
%TD*%
%TA.AperFunction,SMDPad,CuDef*%
%ADD26RoundRect,0.155000X-0.155000X0.212500X-0.155000X-0.212500X0.155000X-0.212500X0.155000X0.212500X0*%
%TD*%
%TA.AperFunction,SMDPad,CuDef*%
%ADD27RoundRect,0.160000X0.252791X-0.026517X-0.026517X0.252791X-0.252791X0.026517X0.026517X-0.252791X0*%
%TD*%
%TA.AperFunction,SMDPad,CuDef*%
%ADD28R,0.710000X1.372000*%
%TD*%
%TA.AperFunction,SMDPad,CuDef*%
%ADD29R,0.710000X0.590000*%
%TD*%
%TA.AperFunction,SMDPad,CuDef*%
%ADD30R,4.520000X3.850000*%
%TD*%
%TA.AperFunction,SMDPad,CuDef*%
%ADD31RoundRect,0.155000X-0.259862X0.040659X0.040659X-0.259862X0.259862X-0.040659X-0.040659X0.259862X0*%
%TD*%
%TA.AperFunction,SMDPad,CuDef*%
%ADD32RoundRect,0.075000X0.212500X0.075000X-0.212500X0.075000X-0.212500X-0.075000X0.212500X-0.075000X0*%
%TD*%
%TA.AperFunction,SMDPad,CuDef*%
%ADD33RoundRect,0.160000X0.222500X0.160000X-0.222500X0.160000X-0.222500X-0.160000X0.222500X-0.160000X0*%
%TD*%
%TA.AperFunction,SMDPad,CuDef*%
%ADD34RotRect,0.300000X0.800000X225.000000*%
%TD*%
%TA.AperFunction,SMDPad,CuDef*%
%ADD35RotRect,0.300000X0.800000X135.000000*%
%TD*%
%TA.AperFunction,SMDPad,CuDef*%
%ADD36RotRect,2.800000X2.800000X135.000000*%
%TD*%
%TA.AperFunction,SMDPad,CuDef*%
%ADD37RoundRect,0.150000X-0.150000X-0.200000X0.150000X-0.200000X0.150000X0.200000X-0.150000X0.200000X0*%
%TD*%
%TA.AperFunction,SMDPad,CuDef*%
%ADD38RoundRect,0.160000X0.197500X0.160000X-0.197500X0.160000X-0.197500X-0.160000X0.197500X-0.160000X0*%
%TD*%
%TA.AperFunction,SMDPad,CuDef*%
%ADD39RoundRect,0.075000X-0.212500X-0.075000X0.212500X-0.075000X0.212500X0.075000X-0.212500X0.075000X0*%
%TD*%
%TA.AperFunction,SMDPad,CuDef*%
%ADD40RoundRect,0.155000X0.155000X-0.212500X0.155000X0.212500X-0.155000X0.212500X-0.155000X-0.212500X0*%
%TD*%
%TA.AperFunction,ComponentPad*%
%ADD41R,2.150000X2.150000*%
%TD*%
%TA.AperFunction,ComponentPad*%
%ADD42C,2.150000*%
%TD*%
%TA.AperFunction,SMDPad,CuDef*%
%ADD43RoundRect,0.155000X-0.212500X-0.155000X0.212500X-0.155000X0.212500X0.155000X-0.212500X0.155000X0*%
%TD*%
%TA.AperFunction,SMDPad,CuDef*%
%ADD44RoundRect,0.160000X0.026517X0.252791X-0.252791X-0.026517X-0.026517X-0.252791X0.252791X0.026517X0*%
%TD*%
%TA.AperFunction,SMDPad,CuDef*%
%ADD45RoundRect,0.249999X-0.450001X-1.425001X0.450001X-1.425001X0.450001X1.425001X-0.450001X1.425001X0*%
%TD*%
%TA.AperFunction,SMDPad,CuDef*%
%ADD46RoundRect,0.250000X0.475000X-0.337500X0.475000X0.337500X-0.475000X0.337500X-0.475000X-0.337500X0*%
%TD*%
%TA.AperFunction,SMDPad,CuDef*%
%ADD47RoundRect,0.150000X-0.200000X0.150000X-0.200000X-0.150000X0.200000X-0.150000X0.200000X0.150000X0*%
%TD*%
%TA.AperFunction,SMDPad,CuDef*%
%ADD48RoundRect,0.075000X0.075000X-0.212500X0.075000X0.212500X-0.075000X0.212500X-0.075000X-0.212500X0*%
%TD*%
%TA.AperFunction,SMDPad,CuDef*%
%ADD49RoundRect,0.160000X-0.160000X0.197500X-0.160000X-0.197500X0.160000X-0.197500X0.160000X0.197500X0*%
%TD*%
%TA.AperFunction,SMDPad,CuDef*%
%ADD50RotRect,0.889000X1.397000X338.000000*%
%TD*%
%TA.AperFunction,SMDPad,CuDef*%
%ADD51RotRect,0.860000X0.270000X135.000000*%
%TD*%
%TA.AperFunction,SMDPad,CuDef*%
%ADD52RotRect,0.270000X0.860000X135.000000*%
%TD*%
%TA.AperFunction,SMDPad,CuDef*%
%ADD53RotRect,5.600000X5.600000X135.000000*%
%TD*%
%TA.AperFunction,SMDPad,CuDef*%
%ADD54RotRect,0.650000X1.528000X225.000000*%
%TD*%
%TA.AperFunction,SMDPad,CuDef*%
%ADD55R,2.000000X1.300000*%
%TD*%
%TA.AperFunction,SMDPad,CuDef*%
%ADD56R,2.000000X2.000000*%
%TD*%
%TA.AperFunction,SMDPad,CuDef*%
%ADD57RoundRect,0.237500X-0.044194X-0.380070X0.380070X0.044194X0.044194X0.380070X-0.380070X-0.044194X0*%
%TD*%
%TA.AperFunction,SMDPad,CuDef*%
%ADD58RoundRect,0.155000X-0.040659X-0.259862X0.259862X0.040659X0.040659X0.259862X-0.259862X-0.040659X0*%
%TD*%
%TA.AperFunction,SMDPad,CuDef*%
%ADD59RoundRect,0.237500X0.300000X0.237500X-0.300000X0.237500X-0.300000X-0.237500X0.300000X-0.237500X0*%
%TD*%
%TA.AperFunction,SMDPad,CuDef*%
%ADD60RoundRect,0.450000X-1.050000X-1.550000X1.050000X-1.550000X1.050000X1.550000X-1.050000X1.550000X0*%
%TD*%
%TA.AperFunction,SMDPad,CuDef*%
%ADD61RoundRect,0.150000X0.150000X0.200000X-0.150000X0.200000X-0.150000X-0.200000X0.150000X-0.200000X0*%
%TD*%
%TA.AperFunction,SMDPad,CuDef*%
%ADD62RotRect,0.400000X1.900000X225.000000*%
%TD*%
%TA.AperFunction,SMDPad,CuDef*%
%ADD63RoundRect,0.237500X-0.237500X0.250000X-0.237500X-0.250000X0.237500X-0.250000X0.237500X0.250000X0*%
%TD*%
%TA.AperFunction,ViaPad*%
%ADD64C,0.600000*%
%TD*%
%TA.AperFunction,Conductor*%
%ADD65C,0.200000*%
%TD*%
%TA.AperFunction,Conductor*%
%ADD66C,0.500000*%
%TD*%
%TA.AperFunction,Conductor*%
%ADD67C,0.400000*%
%TD*%
%TA.AperFunction,Conductor*%
%ADD68C,0.600000*%
%TD*%
%TA.AperFunction,Conductor*%
%ADD69C,0.800000*%
%TD*%
%TA.AperFunction,Conductor*%
%ADD70C,1.000000*%
%TD*%
G04 APERTURE END LIST*
D10*
%TO.P,C27,1*%
%TO.N,+3.3V*%
X155876886Y-102851283D03*
%TO.P,C27,2*%
%TO.N,GND*%
X155074320Y-102048717D03*
%TD*%
D11*
%TO.P,C23,1*%
%TO.N,DCBUS*%
X132038103Y-101650000D03*
%TO.P,C23,2*%
%TO.N,GND*%
X134113103Y-101650000D03*
%TD*%
D12*
%TO.P,R21,1*%
%TO.N,Net-(Q2-G)*%
X138002500Y-86400000D03*
%TO.P,R21,2*%
%TO.N,GH_B*%
X139197500Y-86400000D03*
%TD*%
D13*
%TO.P,C35,1*%
%TO.N,GND*%
X169543103Y-114100000D03*
%TO.P,C35,2*%
%TO.N,Net-(U5-PG10-~{RST})*%
X168408103Y-114100000D03*
%TD*%
D14*
%TO.P,R38,1*%
%TO.N,Net-(U5-PF0-OSC_IN)*%
X164653107Y-109072496D03*
%TO.P,R38,2*%
%TO.N,Net-(U5-PF1-OSC_OUT)*%
X165498099Y-108227504D03*
%TD*%
D15*
%TO.P,C11,1*%
%TO.N,BUTTON*%
X133408879Y-120644095D03*
%TO.P,C11,2*%
%TO.N,GND*%
X132342327Y-120255905D03*
%TD*%
D16*
%TO.P,R20,1*%
%TO.N,Vshunt_1+*%
X132150000Y-82070000D03*
%TO.P,R20,2*%
%TO.N,GND*%
X126050000Y-82070000D03*
%TD*%
D17*
%TO.P,C22,1*%
%TO.N,DCBUS*%
X134450000Y-92800000D03*
%TO.P,C22,2*%
%TO.N,GND*%
X143150000Y-92800000D03*
%TD*%
D18*
%TO.P,R12,1*%
%TO.N,Curr_fdbk2_OPAmp+*%
X172475603Y-94645000D03*
%TO.P,R12,2*%
%TO.N,Vshunt_2+*%
X172475603Y-93450000D03*
%TD*%
D19*
%TO.P,D5,1,K*%
%TO.N,VB2*%
X157630628Y-88094975D03*
%TO.P,D5,2,A*%
%TO.N,VCC_12V*%
X158620578Y-87105025D03*
%TD*%
D20*
%TO.P,J2,1,Pin_1*%
%TO.N,GND*%
X145665603Y-124850000D03*
D21*
%TO.P,J2,2,Pin_2*%
%TO.N,SWCLK*%
X143125603Y-124850000D03*
%TO.P,J2,3,Pin_3*%
%TO.N,SWDIO*%
X140585603Y-124850000D03*
%TD*%
D13*
%TO.P,C18,1*%
%TO.N,VBUS*%
X165845603Y-80460000D03*
%TO.P,C18,2*%
%TO.N,GND*%
X164710603Y-80460000D03*
%TD*%
D22*
%TO.P,L1,1,1*%
%TO.N,Net-(D2-K)*%
X155113648Y-121325000D03*
%TO.P,L1,2,2*%
%TO.N,VCC_12V*%
X158837558Y-119175000D03*
%TD*%
D23*
%TO.P,ME3116,1,BS*%
%TO.N,Net-(ME3116-BS)*%
X146125603Y-103200000D03*
%TO.P,ME3116,2,GND*%
%TO.N,GND*%
X146125603Y-102250000D03*
%TO.P,ME3116,3,FB*%
%TO.N,Net-(ME3116-FB)*%
X146125603Y-101300000D03*
%TO.P,ME3116,4,EN*%
%TO.N,Net-(ME3116-EN)*%
X143625603Y-101300000D03*
%TO.P,ME3116,5,IN*%
%TO.N,Net-(D3-K)*%
X143625603Y-102250000D03*
%TO.P,ME3116,6,SW*%
%TO.N,Net-(D2-K)*%
X143625603Y-103200000D03*
%TD*%
D24*
%TO.P,U1,1,V_{IN}*%
%TO.N,VCC_5V*%
X149738103Y-112300000D03*
%TO.P,U1,2,V_{SS}*%
%TO.N,GND*%
X149738103Y-113250000D03*
%TO.P,U1,3,CE*%
%TO.N,VCC_5V*%
X149738103Y-114200000D03*
%TO.P,U1,4,NC*%
%TO.N,unconnected-(U1-NC-Pad4)*%
X152013103Y-114200000D03*
%TO.P,U1,5,V_{OUT}*%
%TO.N,+3.3V*%
X152013103Y-112300000D03*
%TD*%
D25*
%TO.P,IC2,1,A_1*%
%TO.N,CAN_H*%
X134325603Y-116295000D03*
%TO.P,IC2,2,A_2*%
X134325603Y-118205000D03*
%TO.P,IC2,3,A_3*%
%TO.N,GND*%
X136425603Y-117250000D03*
%TD*%
D26*
%TO.P,C1,1*%
%TO.N,+3.3V*%
X154475603Y-115482500D03*
%TO.P,C1,2*%
%TO.N,GND*%
X154475603Y-116617500D03*
%TD*%
D11*
%TO.P,C25,1*%
%TO.N,DCBUS*%
X132000603Y-105650000D03*
%TO.P,C25,2*%
%TO.N,GND*%
X134075603Y-105650000D03*
%TD*%
D27*
%TO.P,R29,1*%
%TO.N,VCC_5V*%
X129098099Y-110272496D03*
%TO.P,R29,2*%
%TO.N,Net-(TCAN1051HGVDR1-VIO)*%
X128253107Y-109427504D03*
%TD*%
D28*
%TO.P,Q5,1,S_1*%
%TO.N,Vshunt_3+*%
X153775000Y-79040000D03*
%TO.P,Q5,2,S_2*%
X155045000Y-79040000D03*
%TO.P,Q5,3,S_3*%
X156315000Y-79040000D03*
%TO.P,Q5,4,G*%
%TO.N,Net-(Q5-G)*%
X157585000Y-79040000D03*
D29*
%TO.P,Q5,5,D_1*%
%TO.N,SH_C*%
X157585000Y-73109000D03*
%TO.P,Q5,6,D_2*%
X156315000Y-73109000D03*
%TO.P,Q5,7,D_3*%
X155045000Y-73109000D03*
%TO.P,Q5,8,D_4*%
X153775000Y-73109000D03*
D30*
%TO.P,Q5,9,Thermo_Pad*%
X155680000Y-75334000D03*
%TD*%
D31*
%TO.P,C34,1*%
%TO.N,+3.3V*%
X163274320Y-110848717D03*
%TO.P,C34,2*%
%TO.N,GND*%
X164076886Y-111651283D03*
%TD*%
D12*
%TO.P,R24,1*%
%TO.N,Net-(Q4-G)*%
X148778103Y-86000000D03*
%TO.P,R24,2*%
%TO.N,GH_C*%
X149973103Y-86000000D03*
%TD*%
D32*
%TO.P,R35,1*%
%TO.N,Net-(U5-VDDA)*%
X168413103Y-97850000D03*
%TO.P,R35,2*%
%TO.N,+3.3V*%
X167738103Y-97850000D03*
%TD*%
D33*
%TO.P,D1,1,K*%
%TO.N,GND*%
X170048103Y-95850000D03*
%TO.P,D1,2,A*%
%TO.N,Net-(D1-A)*%
X168903103Y-95850000D03*
%TD*%
D34*
%TO.P,IC4,1,LIN1*%
%TO.N,LIN1*%
X162905933Y-93898097D03*
%TO.P,IC4,2,LIN2*%
%TO.N,LIN2*%
X163259486Y-93544544D03*
%TO.P,IC4,3,LIN3*%
%TO.N,LIN3*%
X163613040Y-93190990D03*
%TO.P,IC4,4,VCC*%
%TO.N,VCC_12V*%
X163966593Y-92837437D03*
%TO.P,IC4,5,NC_1*%
%TO.N,unconnected-(IC4-NC_1-Pad5)*%
X164320147Y-92483883D03*
%TO.P,IC4,6,COM*%
%TO.N,GND*%
X164673700Y-92130330D03*
D35*
%TO.P,IC4,7,NC_2*%
%TO.N,unconnected-(IC4-NC_2-Pad7)*%
X164673700Y-91069670D03*
%TO.P,IC4,8,NC_3*%
%TO.N,unconnected-(IC4-NC_3-Pad8)*%
X164320147Y-90716117D03*
%TO.P,IC4,9,LO3*%
%TO.N,GL_C*%
X163966593Y-90362563D03*
%TO.P,IC4,10,LO2*%
%TO.N,GL_B*%
X163613040Y-90009010D03*
%TO.P,IC4,11,LO1*%
%TO.N,GL_A*%
X163259486Y-89655456D03*
%TO.P,IC4,12,VS3*%
%TO.N,SH_C*%
X162905933Y-89301903D03*
D34*
%TO.P,IC4,13,HO3*%
%TO.N,GH_C*%
X161845273Y-89301903D03*
%TO.P,IC4,14,VB3*%
%TO.N,VB3*%
X161491720Y-89655456D03*
%TO.P,IC4,15,VS2*%
%TO.N,SH_B*%
X161138166Y-90009010D03*
%TO.P,IC4,16,HO2*%
%TO.N,GH_B*%
X160784613Y-90362563D03*
%TO.P,IC4,17,VB2*%
%TO.N,VB2*%
X160431059Y-90716117D03*
%TO.P,IC4,18,VS1*%
%TO.N,SH_A*%
X160077506Y-91069670D03*
D35*
%TO.P,IC4,19,HO1*%
%TO.N,GH_A*%
X160077506Y-92130330D03*
%TO.P,IC4,20,VB1*%
%TO.N,VB1*%
X160431059Y-92483883D03*
%TO.P,IC4,21,NC_4*%
%TO.N,unconnected-(IC4-NC_4-Pad21)*%
X160784613Y-92837437D03*
%TO.P,IC4,22,HIN1*%
%TO.N,HIN1*%
X161138166Y-93190990D03*
%TO.P,IC4,23,HIN2*%
%TO.N,HIN2*%
X161491720Y-93544544D03*
%TO.P,IC4,24,HIN3*%
%TO.N,HIN3*%
X161845273Y-93898097D03*
D36*
%TO.P,IC4,25,EP*%
%TO.N,GND*%
X162375603Y-91600000D03*
%TD*%
D25*
%TO.P,IC1,1,A_1*%
%TO.N,CAN_L*%
X134325603Y-112495000D03*
%TO.P,IC1,2,A_2*%
X134325603Y-114405000D03*
%TO.P,IC1,3,A_3*%
%TO.N,GND*%
X136425603Y-113450000D03*
%TD*%
D14*
%TO.P,R13,1*%
%TO.N,Curr_fdbk2_OPAmp+*%
X171753107Y-101972496D03*
%TO.P,R13,2*%
%TO.N,+3.3V*%
X172598099Y-101127504D03*
%TD*%
D12*
%TO.P,R8,1*%
%TO.N,GND*%
X146278103Y-99650000D03*
%TO.P,R8,2*%
%TO.N,Net-(ME3116-FB)*%
X147473103Y-99650000D03*
%TD*%
D37*
%TO.P,D2,1,K*%
%TO.N,Net-(D2-K)*%
X141575603Y-107450000D03*
%TO.P,D2,2,A*%
%TO.N,GND*%
X140175603Y-107450000D03*
%TD*%
D38*
%TO.P,R31,1*%
%TO.N,VBUS*%
X165873103Y-79450000D03*
%TO.P,R31,2*%
%TO.N,DCBUS*%
X164678103Y-79450000D03*
%TD*%
D26*
%TO.P,C4,1*%
%TO.N,VCC_5V*%
X146675603Y-115515000D03*
%TO.P,C4,2*%
%TO.N,GND*%
X146675603Y-116650000D03*
%TD*%
D39*
%TO.P,R37,1*%
%TO.N,+3.3V*%
X165338103Y-112850000D03*
%TO.P,R37,2*%
%TO.N,Net-(U5-PG10-~{RST})*%
X166013103Y-112850000D03*
%TD*%
D28*
%TO.P,Q2,1,S_1*%
%TO.N,SH_B*%
X141085000Y-73320000D03*
%TO.P,Q2,2,S_2*%
X139815000Y-73320000D03*
%TO.P,Q2,3,S_3*%
X138545000Y-73320000D03*
%TO.P,Q2,4,G*%
%TO.N,Net-(Q2-G)*%
X137275000Y-73320000D03*
D29*
%TO.P,Q2,5,D_1*%
%TO.N,DCBUS*%
X137275000Y-79251000D03*
%TO.P,Q2,6,D_2*%
X138545000Y-79251000D03*
%TO.P,Q2,7,D_3*%
X139815000Y-79251000D03*
%TO.P,Q2,8,D_4*%
X141085000Y-79251000D03*
D30*
%TO.P,Q2,9,Thermo_Pad*%
X139180000Y-77026000D03*
%TD*%
D40*
%TO.P,C12,1*%
%TO.N,VCC_12V*%
X136675603Y-108417500D03*
%TO.P,C12,2*%
%TO.N,GND*%
X136675603Y-107282500D03*
%TD*%
D41*
%TO.P,J1,1,1*%
%TO.N,CAN_L*%
X122070000Y-91710000D03*
D42*
%TO.P,J1,2,2*%
%TO.N,CAN_H*%
X122070000Y-87510000D03*
%TO.P,J1,3,3*%
%TO.N,GND*%
X127570000Y-91710000D03*
%TO.P,J1,4,4*%
%TO.N,DCBUS*%
X127570000Y-87510000D03*
%TD*%
D43*
%TO.P,C21,1*%
%TO.N,VB3*%
X162058103Y-87100000D03*
%TO.P,C21,2*%
%TO.N,SH_C*%
X163193103Y-87100000D03*
%TD*%
D11*
%TO.P,C24,1*%
%TO.N,DCBUS*%
X132038103Y-103650000D03*
%TO.P,C24,2*%
%TO.N,GND*%
X134113103Y-103650000D03*
%TD*%
D43*
%TO.P,C31,1*%
%TO.N,Net-(U5-VDDA)*%
X168708103Y-98650000D03*
%TO.P,C31,2*%
%TO.N,GND*%
X169843103Y-98650000D03*
%TD*%
D44*
%TO.P,R16,1*%
%TO.N,GND*%
X171898099Y-100427504D03*
%TO.P,R16,2*%
%TO.N,Curr_fdbk2_OPAmp+*%
X171053107Y-101272496D03*
%TD*%
D45*
%TO.P,R23,1*%
%TO.N,GND*%
X138150000Y-82760000D03*
%TO.P,R23,2*%
%TO.N,Vshunt_2+*%
X144250000Y-82760000D03*
%TD*%
D26*
%TO.P,C33,1*%
%TO.N,VCC_5V*%
X152725603Y-95682500D03*
%TO.P,C33,2*%
%TO.N,GND*%
X152725603Y-96817500D03*
%TD*%
D28*
%TO.P,Q1,1,S_1*%
%TO.N,Vshunt_1+*%
X131770000Y-78900000D03*
%TO.P,Q1,2,S_2*%
X133040000Y-78900000D03*
%TO.P,Q1,3,S_3*%
X134310000Y-78900000D03*
%TO.P,Q1,4,G*%
%TO.N,Net-(Q1-G)*%
X135580000Y-78900000D03*
D29*
%TO.P,Q1,5,D_1*%
%TO.N,SH_A*%
X135580000Y-72969000D03*
%TO.P,Q1,6,D_2*%
X134310000Y-72969000D03*
%TO.P,Q1,7,D_3*%
X133040000Y-72969000D03*
%TO.P,Q1,8,D_4*%
X131770000Y-72969000D03*
D30*
%TO.P,Q1,9,Thermo_Pad*%
X133675000Y-75194000D03*
%TD*%
D32*
%TO.P,R4,1*%
%TO.N,Net-(D1-A)*%
X167613103Y-95850000D03*
%TO.P,R4,2*%
%TO.N,STATUS*%
X166938103Y-95850000D03*
%TD*%
D46*
%TO.P,C16,1*%
%TO.N,GND*%
X140875603Y-104487500D03*
%TO.P,C16,2*%
%TO.N,Net-(D3-K)*%
X140875603Y-102412500D03*
%TD*%
D18*
%TO.P,R14,1*%
%TO.N,Curr_fdbk3_OPAmp+*%
X172875603Y-98647500D03*
%TO.P,R14,2*%
%TO.N,+3.3V*%
X172875603Y-97452500D03*
%TD*%
D28*
%TO.P,Q7,1,S_1*%
%TO.N,SH_A*%
X130085603Y-73330000D03*
%TO.P,Q7,2,S_2*%
X128815603Y-73330000D03*
%TO.P,Q7,3,S_3*%
X127545603Y-73330000D03*
%TO.P,Q7,4,G*%
%TO.N,Net-(Q7-G)*%
X126275603Y-73330000D03*
D29*
%TO.P,Q7,5,D_1*%
%TO.N,DCBUS*%
X126275603Y-79261000D03*
%TO.P,Q7,6,D_2*%
X127545603Y-79261000D03*
%TO.P,Q7,7,D_3*%
X128815603Y-79261000D03*
%TO.P,Q7,8,D_4*%
X130085603Y-79261000D03*
D30*
%TO.P,Q7,9,Thermo_Pad*%
X128180603Y-77036000D03*
%TD*%
D18*
%TO.P,R9,1*%
%TO.N,Curr_fdbk1_OPAmp+*%
X173475603Y-94645000D03*
%TO.P,R9,2*%
%TO.N,Vshunt_1+*%
X173475603Y-93450000D03*
%TD*%
D47*
%TO.P,D4,1,K*%
%TO.N,VB1*%
X155625603Y-92550000D03*
%TO.P,D4,2,A*%
%TO.N,VCC_12V*%
X155625603Y-91150000D03*
%TD*%
D24*
%TO.P,U2,1,IN*%
%TO.N,VCC_12V*%
X142600603Y-112750000D03*
%TO.P,U2,2,GND*%
%TO.N,GND*%
X142600603Y-113700000D03*
%TO.P,U2,3,EN*%
%TO.N,VCC_12V*%
X142600603Y-114650000D03*
%TO.P,U2,4,BP*%
%TO.N,unconnected-(U2-BP-Pad4)*%
X144875603Y-114650000D03*
%TO.P,U2,5,OUT*%
%TO.N,VCC_5V*%
X144875603Y-112750000D03*
%TD*%
D48*
%TO.P,R5,1*%
%TO.N,BUTTON*%
X137075603Y-121925000D03*
%TO.P,R5,2*%
%TO.N,+3.3V*%
X137075603Y-121250000D03*
%TD*%
D31*
%TO.P,C28,1*%
%TO.N,VCC_5V*%
X129074320Y-115448717D03*
%TO.P,C28,2*%
%TO.N,GND*%
X129876886Y-116251283D03*
%TD*%
D49*
%TO.P,R34,1*%
%TO.N,SDA*%
X159075603Y-110252500D03*
%TO.P,R34,2*%
%TO.N,VCC_5V*%
X159075603Y-111447500D03*
%TD*%
D50*
%TO.P,SW1,1,1*%
%TO.N,GND*%
X128862255Y-121632528D03*
%TO.P,SW1,2,2*%
%TO.N,BUTTON*%
X134888951Y-124067472D03*
%TD*%
D43*
%TO.P,C32,1*%
%TO.N,Net-(U5-VDDA)*%
X168708103Y-99650000D03*
%TO.P,C32,2*%
%TO.N,GND*%
X169843103Y-99650000D03*
%TD*%
D49*
%TO.P,R19,1*%
%TO.N,Net-(Q1-G)*%
X165125603Y-86002500D03*
%TO.P,R19,2*%
%TO.N,GL_A*%
X165125603Y-87197500D03*
%TD*%
D51*
%TO.P,U5,1,VBAT*%
%TO.N,+3.3V*%
X162864971Y-108763455D03*
%TO.P,U5,2,PC13*%
%TO.N,LIN1*%
X163218525Y-108409902D03*
%TO.P,U5,3,PC14-OSC32_IN*%
%TO.N,unconnected-(U5-PC14-OSC32_IN-Pad3)*%
X163572078Y-108056349D03*
%TO.P,U5,4,PC15-OSC32_OUT*%
%TO.N,unconnected-(U5-PC15-OSC32_OUT-Pad4)*%
X163925631Y-107702795D03*
%TO.P,U5,5,PF0-OSC_IN*%
%TO.N,Net-(U5-PF0-OSC_IN)*%
X164279185Y-107349242D03*
%TO.P,U5,6,PF1-OSC_OUT*%
%TO.N,Net-(U5-PF1-OSC_OUT)*%
X164632738Y-106995688D03*
%TO.P,U5,7,PG10-~{RST}*%
%TO.N,Net-(U5-PG10-~{RST})*%
X164986291Y-106642135D03*
%TO.P,U5,8,PA0*%
%TO.N,VBUS*%
X165339845Y-106288582D03*
%TO.P,U5,9,PA1*%
%TO.N,Curr_fdbk1_OPAmp+*%
X165693398Y-105935028D03*
%TO.P,U5,10,PA2*%
%TO.N,unconnected-(U5-PA2-Pad10)*%
X166046952Y-105581475D03*
%TO.P,U5,11,PA3*%
%TO.N,GND*%
X166400505Y-105227922D03*
%TO.P,U5,12,PA4*%
%TO.N,unconnected-(U5-PA4-Pad12)*%
X166754058Y-104874368D03*
D52*
%TO.P,U5,13,PA5*%
%TO.N,GND*%
X166754058Y-103905632D03*
%TO.P,U5,14,PA6*%
%TO.N,unconnected-(U5-PA6-Pad14)*%
X166400505Y-103552078D03*
%TO.P,U5,15,PA7*%
%TO.N,Curr_fdbk2_OPAmp+*%
X166046952Y-103198525D03*
%TO.P,U5,16,PC4*%
%TO.N,unconnected-(U5-PC4-Pad16)*%
X165693398Y-102844972D03*
%TO.P,U5,17,PB0*%
%TO.N,Curr_fdbk3_OPAmp+*%
X165339845Y-102491418D03*
%TO.P,U5,18,PB1*%
%TO.N,unconnected-(U5-PB1-Pad18)*%
X164986291Y-102137865D03*
%TO.P,U5,19,PB2*%
%TO.N,GND*%
X164632738Y-101784312D03*
%TO.P,U5,20,VREF+*%
%TO.N,Net-(U5-VDDA)*%
X164279185Y-101430758D03*
%TO.P,U5,21,VDDA*%
X163925631Y-101077205D03*
%TO.P,U5,22,PB10*%
%TO.N,unconnected-(U5-PB10-Pad22)*%
X163572078Y-100723651D03*
%TO.P,U5,23,VDD*%
%TO.N,+3.3V*%
X163218525Y-100370098D03*
%TO.P,U5,24,PB11*%
%TO.N,unconnected-(U5-PB11-Pad24)*%
X162864971Y-100016545D03*
D51*
%TO.P,U5,25,PB12*%
%TO.N,unconnected-(U5-PB12-Pad25)*%
X161896235Y-100016545D03*
%TO.P,U5,26,PB13*%
%TO.N,unconnected-(U5-PB13-Pad26)*%
X161542681Y-100370098D03*
%TO.P,U5,27,PB14*%
%TO.N,TEMP_FEEDBACK*%
X161189128Y-100723651D03*
%TO.P,U5,28,PB15*%
%TO.N,LIN3*%
X160835575Y-101077205D03*
%TO.P,U5,29,PC6*%
%TO.N,STATUS*%
X160482021Y-101430758D03*
%TO.P,U5,30,PA8*%
%TO.N,HIN1*%
X160128468Y-101784312D03*
%TO.P,U5,31,PA9*%
%TO.N,HIN2*%
X159774915Y-102137865D03*
%TO.P,U5,32,PA10*%
%TO.N,HIN3*%
X159421361Y-102491418D03*
%TO.P,U5,33,PA11*%
%TO.N,CAN_RX*%
X159067808Y-102844972D03*
%TO.P,U5,34,PA12*%
%TO.N,LIN2*%
X158714254Y-103198525D03*
%TO.P,U5,35,VDD__1*%
%TO.N,+3.3V*%
X158360701Y-103552078D03*
%TO.P,U5,36,PA13*%
%TO.N,SWDIO*%
X158007148Y-103905632D03*
D52*
%TO.P,U5,37,PA14*%
%TO.N,SWCLK*%
X158007148Y-104874368D03*
%TO.P,U5,38,PA15*%
%TO.N,unconnected-(U5-PA15-Pad38)*%
X158360701Y-105227922D03*
%TO.P,U5,39,PC10*%
%TO.N,BUTTON*%
X158714254Y-105581475D03*
%TO.P,U5,40,PC11*%
%TO.N,unconnected-(U5-PC11-Pad40)*%
X159067808Y-105935028D03*
%TO.P,U5,41,PB3*%
%TO.N,USART2_TX*%
X159421361Y-106288582D03*
%TO.P,U5,42,PB4*%
%TO.N,Net-(J3-Pin_2)*%
X159774915Y-106642135D03*
%TO.P,U5,43,PB5*%
%TO.N,unconnected-(U5-PB5-Pad43)*%
X160128468Y-106995688D03*
%TO.P,U5,44,PB6*%
%TO.N,unconnected-(U5-PB6-Pad44)*%
X160482021Y-107349242D03*
%TO.P,U5,45,PB7*%
%TO.N,SCLK*%
X160835575Y-107702795D03*
%TO.P,U5,46,PB8-BOOT0*%
%TO.N,SDA*%
X161189128Y-108056349D03*
%TO.P,U5,47,PB9*%
%TO.N,CAN_TX*%
X161542681Y-108409902D03*
%TO.P,U5,48,VDD__2*%
%TO.N,+3.3V*%
X161896235Y-108763455D03*
D53*
%TO.P,U5,49,VSS*%
%TO.N,GND*%
X162380603Y-104390000D03*
%TD*%
D12*
%TO.P,R36,1*%
%TO.N,GND*%
X115232500Y-77380000D03*
%TO.P,R36,2*%
%TO.N,TEMP_FEEDBACK*%
X116427500Y-77380000D03*
%TD*%
D13*
%TO.P,C30,1*%
%TO.N,TEMP_FEEDBACK*%
X116397500Y-76380000D03*
%TO.P,C30,2*%
%TO.N,GND*%
X115262500Y-76380000D03*
%TD*%
D54*
%TO.P,TCAN1051HGVDR1,1,TXD*%
%TO.N,CAN_TX*%
X125845531Y-116114005D03*
%TO.P,TCAN1051HGVDR1,2,GND*%
%TO.N,GND*%
X126743557Y-115215979D03*
%TO.P,TCAN1051HGVDR1,3,VCC*%
%TO.N,VCC_5V*%
X127641582Y-114317954D03*
%TO.P,TCAN1051HGVDR1,4,RXD*%
%TO.N,CAN_RX*%
X128539608Y-113419928D03*
%TO.P,TCAN1051HGVDR1,5,VIO*%
%TO.N,Net-(TCAN1051HGVDR1-VIO)*%
X124705675Y-109585995D03*
%TO.P,TCAN1051HGVDR1,6,CANL*%
%TO.N,CAN_L*%
X123807649Y-110484021D03*
%TO.P,TCAN1051HGVDR1,7,CANH*%
%TO.N,CAN_H*%
X122909624Y-111382046D03*
%TO.P,TCAN1051HGVDR1,8,STB*%
%TO.N,GND*%
X122011598Y-112280072D03*
%TD*%
D18*
%TO.P,R15,1*%
%TO.N,Curr_fdbk3_OPAmp+*%
X171475603Y-94645000D03*
%TO.P,R15,2*%
%TO.N,Vshunt_3+*%
X171475603Y-93450000D03*
%TD*%
D55*
%TO.P,VR1,1,CCW*%
%TO.N,DCBUS*%
X115830000Y-81780000D03*
D56*
%TO.P,VR1,2,WIPER*%
%TO.N,TEMP_FEEDBACK*%
X119830000Y-80630000D03*
D55*
%TO.P,VR1,3,CW*%
%TO.N,unconnected-(VR1-CW-Pad3)*%
X115830000Y-79480000D03*
%TD*%
D26*
%TO.P,C3,1*%
%TO.N,VCC_5V*%
X147645603Y-115515000D03*
%TO.P,C3,2*%
%TO.N,GND*%
X147645603Y-116650000D03*
%TD*%
D16*
%TO.P,R26,1*%
%TO.N,Vshunt_3+*%
X157254397Y-82525712D03*
%TO.P,R26,2*%
%TO.N,GND*%
X151154397Y-82525712D03*
%TD*%
D57*
%TO.P,C5,1*%
%TO.N,VCC_12V*%
X167015723Y-93209880D03*
%TO.P,C5,2*%
%TO.N,GND*%
X168235483Y-91990120D03*
%TD*%
D49*
%TO.P,R22,1*%
%TO.N,Net-(Q3-G)*%
X166125603Y-86002500D03*
%TO.P,R22,2*%
%TO.N,GL_B*%
X166125603Y-87197500D03*
%TD*%
D40*
%TO.P,C19,1*%
%TO.N,VB1*%
X157625603Y-92417500D03*
%TO.P,C19,2*%
%TO.N,SH_A*%
X157625603Y-91282500D03*
%TD*%
D13*
%TO.P,C17,1*%
%TO.N,Net-(ME3116-BS)*%
X145525603Y-105450000D03*
%TO.P,C17,2*%
%TO.N,Net-(D2-K)*%
X144390603Y-105450000D03*
%TD*%
D26*
%TO.P,C2,1*%
%TO.N,+3.3V*%
X153475603Y-115482500D03*
%TO.P,C2,2*%
%TO.N,GND*%
X153475603Y-116617500D03*
%TD*%
D38*
%TO.P,R33,1*%
%TO.N,SCLK*%
X157873103Y-108450000D03*
%TO.P,R33,2*%
%TO.N,VCC_5V*%
X156678103Y-108450000D03*
%TD*%
D20*
%TO.P,J3,1,Pin_1*%
%TO.N,GND*%
X145665603Y-121100000D03*
D21*
%TO.P,J3,2,Pin_2*%
%TO.N,Net-(J3-Pin_2)*%
X143125603Y-121100000D03*
%TO.P,J3,3,Pin_3*%
%TO.N,USART2_TX*%
X140585603Y-121100000D03*
%TD*%
D44*
%TO.P,R11,1*%
%TO.N,GND*%
X171198099Y-103727504D03*
%TO.P,R11,2*%
%TO.N,Curr_fdbk1_OPAmp+*%
X170353107Y-104572496D03*
%TD*%
D49*
%TO.P,R17,1*%
%TO.N,GND*%
X171875603Y-97452500D03*
%TO.P,R17,2*%
%TO.N,Curr_fdbk3_OPAmp+*%
X171875603Y-98647500D03*
%TD*%
%TO.P,R25,1*%
%TO.N,Net-(Q5-G)*%
X167125603Y-86002500D03*
%TO.P,R25,2*%
%TO.N,GL_C*%
X167125603Y-87197500D03*
%TD*%
D46*
%TO.P,C14,1*%
%TO.N,VCC_12V*%
X138275603Y-109487500D03*
%TO.P,C14,2*%
%TO.N,GND*%
X138275603Y-107412500D03*
%TD*%
D58*
%TO.P,C20,1*%
%TO.N,VB2*%
X158724320Y-89001283D03*
%TO.P,C20,2*%
%TO.N,SH_B*%
X159526886Y-88198717D03*
%TD*%
D41*
%TO.P,J4,1,1*%
%TO.N,CAN_L*%
X121960000Y-103050000D03*
D42*
%TO.P,J4,2,2*%
%TO.N,CAN_H*%
X121960000Y-98850000D03*
%TO.P,J4,3,3*%
%TO.N,GND*%
X127460000Y-103050000D03*
%TO.P,J4,4,4*%
%TO.N,DCBUS*%
X127460000Y-98850000D03*
%TD*%
D12*
%TO.P,R32,1*%
%TO.N,GND*%
X164680603Y-78460000D03*
%TO.P,R32,2*%
%TO.N,VBUS*%
X165875603Y-78460000D03*
%TD*%
D14*
%TO.P,R10,1*%
%TO.N,Curr_fdbk1_OPAmp+*%
X171053107Y-105272496D03*
%TO.P,R10,2*%
%TO.N,+3.3V*%
X171898099Y-104427504D03*
%TD*%
D47*
%TO.P,D3,1,K*%
%TO.N,Net-(D3-K)*%
X136875603Y-102150000D03*
%TO.P,D3,2,A*%
%TO.N,DCBUS*%
X136875603Y-100750000D03*
%TD*%
D59*
%TO.P,C15,1*%
%TO.N,VCC_12V*%
X151788103Y-100250000D03*
%TO.P,C15,2*%
%TO.N,Net-(ME3116-FB)*%
X150063103Y-100250000D03*
%TD*%
D28*
%TO.P,Q3,1,S_1*%
%TO.N,Vshunt_2+*%
X142775000Y-78870421D03*
%TO.P,Q3,2,S_2*%
X144045000Y-78870421D03*
%TO.P,Q3,3,S_3*%
X145315000Y-78870421D03*
%TO.P,Q3,4,G*%
%TO.N,Net-(Q3-G)*%
X146585000Y-78870421D03*
D29*
%TO.P,Q3,5,D_1*%
%TO.N,SH_B*%
X146585000Y-72939421D03*
%TO.P,Q3,6,D_2*%
X145315000Y-72939421D03*
%TO.P,Q3,7,D_3*%
X144045000Y-72939421D03*
%TO.P,Q3,8,D_4*%
X142775000Y-72939421D03*
D30*
%TO.P,Q3,9,Thermo_Pad*%
X144680000Y-75164421D03*
%TD*%
D11*
%TO.P,C26,1*%
%TO.N,DCBUS*%
X132000603Y-107650000D03*
%TO.P,C26,2*%
%TO.N,GND*%
X134075603Y-107650000D03*
%TD*%
D60*
%TO.P,U3,1,A*%
%TO.N,SH_A*%
X137275603Y-64750000D03*
%TO.P,U3,2,B*%
%TO.N,SH_B*%
X142275603Y-64750000D03*
%TO.P,U3,3,C*%
%TO.N,SH_C*%
X147275603Y-64750000D03*
%TD*%
D61*
%TO.P,D6,1,K*%
%TO.N,VB3*%
X161925603Y-85850000D03*
%TO.P,D6,2,A*%
%TO.N,VCC_12V*%
X163325603Y-85850000D03*
%TD*%
D62*
%TO.P,Y1,1,1*%
%TO.N,Net-(U5-PF1-OSC_OUT)*%
X166675603Y-110650000D03*
%TO.P,Y1,2,2*%
%TO.N,Net-(U5-PF0-OSC_IN)*%
X167524131Y-109801472D03*
%TO.P,Y1,3,3*%
%TO.N,GND*%
X168372659Y-108952944D03*
%TD*%
D63*
%TO.P,R7,1*%
%TO.N,Net-(ME3116-EN)*%
X139075603Y-100337500D03*
%TO.P,R7,2*%
%TO.N,Net-(D3-K)*%
X139075603Y-102162500D03*
%TD*%
D28*
%TO.P,Q4,1,S_1*%
%TO.N,SH_C*%
X152085000Y-73400000D03*
%TO.P,Q4,2,S_2*%
X150815000Y-73400000D03*
%TO.P,Q4,3,S_3*%
X149545000Y-73400000D03*
%TO.P,Q4,4,G*%
%TO.N,Net-(Q4-G)*%
X148275000Y-73400000D03*
D29*
%TO.P,Q4,5,D_1*%
%TO.N,DCBUS*%
X148275000Y-79331000D03*
%TO.P,Q4,6,D_2*%
X149545000Y-79331000D03*
%TO.P,Q4,7,D_3*%
X150815000Y-79331000D03*
%TO.P,Q4,8,D_4*%
X152085000Y-79331000D03*
D30*
%TO.P,Q4,9,Thermo_Pad*%
X150180000Y-77106000D03*
%TD*%
D12*
%TO.P,R6,1*%
%TO.N,Net-(ME3116-FB)*%
X150328103Y-101650000D03*
%TO.P,R6,2*%
%TO.N,VCC_12V*%
X151523103Y-101650000D03*
%TD*%
%TO.P,R30,1*%
%TO.N,GND*%
X130678103Y-117450000D03*
%TO.P,R30,2*%
X131873103Y-117450000D03*
%TD*%
D49*
%TO.P,R18,1*%
%TO.N,Net-(Q7-G)*%
X124120000Y-77015000D03*
%TO.P,R18,2*%
%TO.N,GH_A*%
X124120000Y-78210000D03*
%TD*%
D13*
%TO.P,C13,1*%
%TO.N,Net-(ME3116-BS)*%
X145525603Y-106450000D03*
%TO.P,C13,2*%
%TO.N,Net-(D2-K)*%
X144390603Y-106450000D03*
%TD*%
D58*
%TO.P,C36,1*%
%TO.N,+3.3V*%
X165074320Y-98451283D03*
%TO.P,C36,2*%
%TO.N,GND*%
X165876886Y-97648717D03*
%TD*%
D64*
%TO.N,SDA*%
X159835540Y-109409937D03*
%TO.N,+3.3V*%
X142075603Y-118650000D03*
X157475603Y-110450000D03*
X161675603Y-111050000D03*
X155199868Y-103525735D03*
X170899868Y-106274265D03*
X163475603Y-98850000D03*
X137875603Y-119850000D03*
%TO.N,SCLK*%
X159275603Y-108450000D03*
%TO.N,GND*%
X149475603Y-94450000D03*
X165075603Y-112050000D03*
X144275603Y-104450000D03*
X148675603Y-92850000D03*
X147900000Y-92050000D03*
X136800000Y-83160000D03*
X124700000Y-81070000D03*
X165625603Y-91600000D03*
X151425603Y-97350000D03*
X136875603Y-106050000D03*
X162380603Y-104390000D03*
X163200000Y-105200000D03*
X147900000Y-94450000D03*
X128476590Y-116949013D03*
X142275603Y-101050000D03*
X114230000Y-77380000D03*
X163200000Y-104400000D03*
X161600000Y-103600000D03*
X148675603Y-93650000D03*
X124700000Y-81820000D03*
X136800000Y-82360000D03*
X162400000Y-105200000D03*
X147475603Y-103450000D03*
X162400000Y-90700000D03*
X132275603Y-115250000D03*
X149475603Y-92850000D03*
X163078103Y-77860000D03*
X149475603Y-91250000D03*
X124700000Y-83370000D03*
X162778103Y-81260000D03*
X161600000Y-105200000D03*
X147475603Y-100650000D03*
X137075603Y-104550000D03*
X124700000Y-82570000D03*
X149475603Y-93650000D03*
X161600000Y-104400000D03*
X136800000Y-81560000D03*
X136800000Y-83960000D03*
X147900000Y-93650000D03*
X149604397Y-82525712D03*
X137075603Y-115250000D03*
X169843103Y-97250000D03*
X142275603Y-102850000D03*
X143675603Y-113850000D03*
X148675603Y-91250000D03*
X172743349Y-99985072D03*
X149604397Y-83325712D03*
X161400000Y-91600000D03*
X142451338Y-104425735D03*
X163300000Y-91600000D03*
X143275603Y-100050000D03*
X170320000Y-112500000D03*
X149475603Y-92050000D03*
X169875603Y-92100000D03*
X148675603Y-92050000D03*
X146875603Y-104450000D03*
X145475603Y-104450000D03*
X127675603Y-119850000D03*
X120475603Y-111650000D03*
X147725603Y-102250000D03*
X154475603Y-96800000D03*
X149604397Y-81725712D03*
X162400000Y-103600000D03*
X168075603Y-105250000D03*
X171875603Y-103050000D03*
X167475603Y-100450000D03*
X162375603Y-91600000D03*
X144475603Y-100050000D03*
X147900000Y-91250000D03*
X154125603Y-101574265D03*
X145475603Y-99650000D03*
X163200000Y-103600000D03*
X149604397Y-80925712D03*
X149075603Y-117250000D03*
X169675603Y-109050000D03*
X162400000Y-92500000D03*
X139475603Y-104650000D03*
X148675603Y-94450000D03*
X147900000Y-92850000D03*
X169075603Y-103450000D03*
%TO.N,BUTTON*%
X138075603Y-112050000D03*
X148675603Y-106450000D03*
%TO.N,VCC_12V*%
X168625603Y-93600000D03*
X163875603Y-83450000D03*
X153525603Y-100050000D03*
X159575603Y-86600000D03*
X139675603Y-109050000D03*
X155075603Y-90450000D03*
X159875603Y-115050000D03*
X140875603Y-112650000D03*
%TO.N,Net-(D2-K)*%
X142875603Y-107050000D03*
X151475603Y-119650000D03*
%TO.N,SH_B*%
X146500000Y-81453554D03*
X145880000Y-72200421D03*
%TO.N,DCBUS*%
X139179397Y-77840000D03*
X130250000Y-91300000D03*
X162078103Y-79460000D03*
X127330000Y-76150000D03*
X129770000Y-100950000D03*
X148354397Y-78520000D03*
X114030000Y-82230000D03*
X149304397Y-77920000D03*
X139179397Y-76190000D03*
X150154397Y-77920000D03*
X138304397Y-77840000D03*
X131850000Y-94400000D03*
X114030000Y-81430000D03*
X150204397Y-76270000D03*
X129955000Y-78500000D03*
X140029397Y-76190000D03*
X141004397Y-78490000D03*
X113430000Y-81830000D03*
X137354397Y-75540000D03*
X129980000Y-75550000D03*
X131050000Y-91300000D03*
X150180000Y-77106000D03*
X128180000Y-77900000D03*
X129030000Y-76175000D03*
X126380000Y-78500000D03*
X137329397Y-78490000D03*
X129030000Y-77875000D03*
X131850000Y-92050000D03*
X131050000Y-92050000D03*
X128180603Y-77036000D03*
X151004397Y-77120000D03*
X130300000Y-94400000D03*
X131850000Y-91300000D03*
X131850000Y-92850000D03*
X151004397Y-76270000D03*
X136275603Y-99450000D03*
X131050000Y-94400000D03*
X140029397Y-77015000D03*
X140029397Y-77840000D03*
X126380000Y-75550000D03*
X127330000Y-77900000D03*
X139180000Y-77026000D03*
X149304397Y-77120000D03*
X138304397Y-76190000D03*
X129030000Y-77025000D03*
X131050000Y-92850000D03*
X130275603Y-93650000D03*
X130275603Y-92050000D03*
X152004397Y-75620000D03*
X148379397Y-75595000D03*
X131050000Y-93650000D03*
X152029397Y-78570000D03*
X128180000Y-76150000D03*
X131850000Y-93650000D03*
X130275603Y-92850000D03*
X127330000Y-77025000D03*
X151004397Y-77920000D03*
X138304397Y-77015000D03*
X141004397Y-75540000D03*
X149304397Y-76270000D03*
%TO.N,SH_A*%
X135075000Y-72030000D03*
X156375603Y-89600000D03*
%TO.N,GH_C*%
X160375603Y-86850000D03*
X161475603Y-88100000D03*
%TO.N,SH_C*%
X156690000Y-72060000D03*
X159400000Y-81440000D03*
%TO.N,GH_B*%
X146875603Y-86850000D03*
X159625603Y-89100000D03*
%TO.N,GH_A*%
X159125603Y-91850000D03*
X122080000Y-80580000D03*
%TO.N,Vshunt_1+*%
X169275603Y-82850000D03*
X134400000Y-84200000D03*
%TO.N,Net-(Q1-G)*%
X134200000Y-82200000D03*
X164875603Y-84350000D03*
%TO.N,Vshunt_2+*%
X145875000Y-84125000D03*
X168275603Y-82250000D03*
%TO.N,Net-(Q3-G)*%
X147000000Y-85325000D03*
X165875603Y-83600000D03*
%TO.N,Vshunt_3+*%
X167075603Y-81650000D03*
X159800000Y-84397000D03*
%TO.N,STATUS*%
X163375603Y-97950000D03*
X159684267Y-100225000D03*
%TO.N,Curr_fdbk1_OPAmp+*%
X169075603Y-104650000D03*
X172675603Y-96250000D03*
%TO.N,Curr_fdbk2_OPAmp+*%
X171875603Y-96050000D03*
X170375603Y-102750000D03*
%TO.N,Curr_fdbk3_OPAmp+*%
X169375603Y-100950000D03*
X171075603Y-95850000D03*
%TO.N,VCC_5V*%
X144875603Y-113850000D03*
X130275603Y-111450000D03*
X130675603Y-114850000D03*
X151475603Y-96250000D03*
X147875603Y-110250000D03*
%TO.N,CAN_TX*%
X158275603Y-114650000D03*
X127475603Y-117250000D03*
%TO.N,CAN_RX*%
X131875603Y-113650000D03*
X148151338Y-104525735D03*
%TO.N,VBUS*%
X170875603Y-107650000D03*
X167978103Y-80460000D03*
%TO.N,TEMP_FEEDBACK*%
X156075603Y-94450000D03*
X163475603Y-96850000D03*
X121520000Y-82460000D03*
%TO.N,HIN2*%
X156275603Y-97850000D03*
X157475603Y-98900000D03*
%TO.N,LIN2*%
X162125603Y-96350000D03*
X157275603Y-102350000D03*
%TO.N,HIN1*%
X158214067Y-98592307D03*
X156875603Y-96850000D03*
%TO.N,LIN1*%
X163801310Y-110175707D03*
X162125603Y-95350000D03*
%TD*%
D65*
%TO.N,SDA*%
X159835540Y-109409937D02*
X159075603Y-110169874D01*
X159075603Y-110169874D02*
X159075603Y-110252500D01*
X161189128Y-108056349D02*
X159835540Y-109409937D01*
%TO.N,+3.3V*%
X153475603Y-113762500D02*
X154475603Y-114762500D01*
X172675603Y-101205008D02*
X172675603Y-103650000D01*
X152709503Y-117851000D02*
X153809203Y-117851000D01*
X153863103Y-110450000D02*
X157475603Y-110450000D01*
X155475603Y-116634176D02*
X155475603Y-114650000D01*
X172675603Y-103650000D02*
X171898099Y-104427504D01*
X158360701Y-103552078D02*
X157858623Y-103050000D01*
X149324546Y-117851000D02*
X149325546Y-117850000D01*
X137075603Y-120450000D02*
X137075603Y-121250000D01*
X162286235Y-110439368D02*
X162864971Y-110439368D01*
X155675603Y-103050000D02*
X156475603Y-103050000D01*
X165074320Y-98451283D02*
X166274320Y-98451283D01*
X153475603Y-113762500D02*
X153475603Y-115482500D01*
X162864971Y-108763455D02*
X162864971Y-110439368D01*
X165338103Y-112850000D02*
X163475603Y-112850000D01*
X161675603Y-111050000D02*
X162286235Y-110439368D01*
X142075603Y-118650000D02*
X142875603Y-117850000D01*
X161896235Y-108763455D02*
X161896235Y-109470632D01*
X172598099Y-101127504D02*
X172675603Y-101205008D01*
X172598099Y-101127504D02*
X173496603Y-100229000D01*
X163475603Y-98850000D02*
X164675603Y-98850000D01*
X173496603Y-98073500D02*
X172875603Y-97452500D01*
X172075603Y-104605008D02*
X171898099Y-104427504D01*
X137675603Y-119850000D02*
X137075603Y-120450000D01*
X166875603Y-97850000D02*
X167738103Y-97850000D01*
X147109503Y-118051000D02*
X148841703Y-118051000D01*
X163475603Y-112850000D02*
X161675603Y-111050000D01*
X166274320Y-98451283D02*
X166875603Y-97850000D01*
X155199868Y-103525735D02*
X155675603Y-103050000D01*
X146908503Y-117850000D02*
X147109503Y-118051000D01*
X172075603Y-105850000D02*
X172075603Y-105250000D01*
X162864971Y-110439368D02*
X163274320Y-110848717D01*
X142875603Y-117850000D02*
X146908503Y-117850000D01*
X172075603Y-105250000D02*
X172075603Y-104605008D01*
X153809203Y-117851000D02*
X154374203Y-117286000D01*
X172598099Y-101127504D02*
X172676603Y-101206008D01*
X156475603Y-103050000D02*
X156075603Y-103050000D01*
X148841703Y-118051000D02*
X149041703Y-117851000D01*
X152013103Y-112300000D02*
X153475603Y-113762500D01*
X154823779Y-117286000D02*
X155475603Y-116634176D01*
X170899868Y-106274265D02*
X171651338Y-106274265D01*
X152708503Y-117850000D02*
X152709503Y-117851000D01*
X173496603Y-100229000D02*
X173496603Y-98073500D01*
X152013103Y-112300000D02*
X153863103Y-110450000D01*
X149041703Y-117851000D02*
X149324546Y-117851000D01*
X164675603Y-98850000D02*
X165074320Y-98451283D01*
X163218525Y-100307078D02*
X164675603Y-98850000D01*
X156075603Y-103050000D02*
X155876886Y-102851283D01*
X153125603Y-112300000D02*
X152013103Y-112300000D01*
X171651338Y-106274265D02*
X172075603Y-105850000D01*
X154374203Y-117286000D02*
X154823779Y-117286000D01*
X149325546Y-117850000D02*
X152708503Y-117850000D01*
X155475603Y-114650000D02*
X153125603Y-112300000D01*
X161896235Y-109470632D02*
X162864971Y-110439368D01*
X157858623Y-103050000D02*
X156475603Y-103050000D01*
X154475603Y-114762500D02*
X154475603Y-115482500D01*
X137875603Y-119850000D02*
X137675603Y-119850000D01*
X163218525Y-100370098D02*
X163218525Y-100307078D01*
%TO.N,SCLK*%
X160088370Y-108450000D02*
X159275603Y-108450000D01*
X160835575Y-107702795D02*
X160088370Y-108450000D01*
X159275603Y-108450000D02*
X157873103Y-108450000D01*
%TO.N,GND*%
X164632738Y-101784312D02*
X165967050Y-100450000D01*
X168075603Y-105250000D02*
X167877603Y-105448000D01*
X154475603Y-116617500D02*
X153643103Y-117450000D01*
X172475603Y-99850000D02*
X171898099Y-100427504D01*
X167141403Y-105650000D02*
X166822583Y-105650000D01*
X132275603Y-115250000D02*
X131675603Y-115850000D01*
X133399603Y-115426000D02*
X133399603Y-116326000D01*
X133575603Y-115250000D02*
X133399603Y-115426000D01*
X169843103Y-97850000D02*
X169843103Y-97250000D01*
X154201338Y-101650000D02*
X154675603Y-101650000D01*
X136425603Y-117250000D02*
X136425603Y-115900000D01*
X154675603Y-101650000D02*
X155074320Y-102048717D01*
X169843103Y-96055000D02*
X170048103Y-95850000D01*
X169578547Y-108952944D02*
X169675603Y-109050000D01*
D66*
X135475603Y-104450000D02*
X135475603Y-104650000D01*
X135075603Y-107650000D02*
X134075603Y-107650000D01*
D65*
X165625603Y-91600000D02*
X165095273Y-92130330D01*
X137875603Y-107412500D02*
X136605603Y-107412500D01*
X153643103Y-117450000D02*
X152875603Y-117450000D01*
X169248103Y-96650000D02*
X170048103Y-95850000D01*
X149708103Y-116617500D02*
X150701603Y-115624000D01*
D66*
X163910603Y-81260000D02*
X164710603Y-80460000D01*
X136175603Y-103650000D02*
X137075603Y-104550000D01*
X135475603Y-107250000D02*
X135075603Y-107650000D01*
D65*
X169843103Y-97250000D02*
X169843103Y-96055000D01*
X151425603Y-97350000D02*
X151958103Y-96817500D01*
X169843103Y-98650000D02*
X169843103Y-97850000D01*
X153475603Y-116617500D02*
X152475603Y-116617500D01*
X146125603Y-102250000D02*
X147725603Y-102250000D01*
X139638103Y-104487500D02*
X139475603Y-104650000D01*
X141275603Y-104487500D02*
X139638103Y-104487500D01*
D66*
X135475603Y-102050000D02*
X135475603Y-103650000D01*
D65*
X147645603Y-116650000D02*
X148645603Y-117650000D01*
X128862254Y-121632528D02*
X127675603Y-120445877D01*
X130238879Y-120255903D02*
X128862254Y-121632528D01*
D66*
X162778103Y-81260000D02*
X163910603Y-81260000D01*
D65*
X164475603Y-111450000D02*
X164278169Y-111450000D01*
X130674320Y-116251283D02*
X129876886Y-116251283D01*
D67*
X169765723Y-91990120D02*
X169875603Y-92100000D01*
D65*
X131075603Y-115850000D02*
X130674320Y-116251283D01*
X142600603Y-113700000D02*
X143525603Y-113700000D01*
X165876886Y-97648717D02*
X166875603Y-96650000D01*
X166754058Y-103905632D02*
X168619971Y-103905632D01*
X167343403Y-105448000D02*
X167141403Y-105650000D01*
X171875603Y-103050000D02*
X171198099Y-103727504D01*
X133399603Y-116326000D02*
X132275603Y-117450000D01*
X121381526Y-111650000D02*
X122011598Y-112280072D01*
X132342327Y-120255903D02*
X130238879Y-120255903D01*
X115232500Y-77380000D02*
X114230000Y-77380000D01*
X168372659Y-108952944D02*
X169578547Y-108952944D01*
D66*
X135475603Y-103650000D02*
X136175603Y-103650000D01*
D65*
X165095273Y-92130330D02*
X164673700Y-92130330D01*
X128777577Y-117250000D02*
X128476590Y-116949013D01*
X170675603Y-99450000D02*
X170675603Y-98450000D01*
X130678103Y-117450000D02*
X130478103Y-117250000D01*
X154458103Y-96817500D02*
X154475603Y-96800000D01*
X165967050Y-100450000D02*
X166475603Y-100450000D01*
X136425603Y-115900000D02*
X137075603Y-115250000D01*
X169543103Y-113276897D02*
X169543103Y-114100000D01*
X170075603Y-97850000D02*
X169843103Y-97850000D01*
X165075603Y-112050000D02*
X164475603Y-111450000D01*
X148675603Y-117650000D02*
X149075603Y-117250000D01*
X172608277Y-99850000D02*
X172475603Y-99850000D01*
X130478103Y-117250000D02*
X128777577Y-117250000D01*
X146675603Y-117050000D02*
X147275603Y-117650000D01*
X140175603Y-107450000D02*
X137913103Y-107450000D01*
X152725603Y-96817500D02*
X154458103Y-96817500D01*
X137913103Y-107450000D02*
X137875603Y-107412500D01*
X115262500Y-76380000D02*
X115262500Y-77350000D01*
X136425603Y-114600000D02*
X137075603Y-115250000D01*
X136425603Y-113450000D02*
X136425603Y-114600000D01*
X171875603Y-97452500D02*
X170045603Y-97452500D01*
X150701603Y-113551001D02*
X150400602Y-113250000D01*
X120475603Y-111650000D02*
X121381526Y-111650000D01*
X136675603Y-107282500D02*
X136675603Y-106250000D01*
D66*
X135475603Y-105650000D02*
X134075603Y-105650000D01*
D65*
X146278103Y-99650000D02*
X145475603Y-99650000D01*
X146675603Y-116650000D02*
X146675603Y-117050000D01*
X147275603Y-117650000D02*
X148675603Y-117650000D01*
D67*
X168235483Y-91990120D02*
X169765723Y-91990120D01*
D65*
X150701603Y-115624000D02*
X150701603Y-113551001D01*
X152475603Y-117050000D02*
X152475603Y-116617500D01*
D66*
X135475603Y-103650000D02*
X134113103Y-103650000D01*
D65*
X143525603Y-113700000D02*
X143675603Y-113850000D01*
X150400602Y-113250000D02*
X149738103Y-113250000D01*
X137075603Y-115250000D02*
X133575603Y-115250000D01*
X152475603Y-116617500D02*
X149708103Y-116617500D01*
X172743349Y-99985072D02*
X172608277Y-99850000D01*
X166822583Y-105650000D02*
X166400505Y-105227922D01*
D66*
X135475603Y-104450000D02*
X135475603Y-105650000D01*
D65*
X126743557Y-115215980D02*
X126743557Y-115215979D01*
X152875603Y-117450000D02*
X152475603Y-117050000D01*
X170675603Y-98450000D02*
X170075603Y-97850000D01*
X170320000Y-112500000D02*
X169543103Y-113276897D01*
X131675603Y-115850000D02*
X131075603Y-115850000D01*
D67*
X163678103Y-78460000D02*
X163078103Y-77860000D01*
D65*
X169843103Y-99650000D02*
X170475603Y-99650000D01*
X148645603Y-117650000D02*
X148675603Y-117650000D01*
X132275603Y-117450000D02*
X131873103Y-117450000D01*
X136675603Y-106250000D02*
X136875603Y-106050000D01*
X166475603Y-100450000D02*
X167475603Y-100450000D01*
D66*
X135075603Y-101650000D02*
X135475603Y-102050000D01*
D65*
X170045603Y-97452500D02*
X169843103Y-97250000D01*
X164278169Y-111450000D02*
X164076886Y-111651283D01*
X170048103Y-92272500D02*
X169875603Y-92100000D01*
D66*
X134113103Y-101650000D02*
X135075603Y-101650000D01*
X135475603Y-103650000D02*
X135475603Y-104450000D01*
D65*
X149075603Y-117250000D02*
X149708103Y-116617500D01*
X154125603Y-101574265D02*
X154201338Y-101650000D01*
X151958103Y-96817500D02*
X152725603Y-96817500D01*
X166875603Y-96650000D02*
X169248103Y-96650000D01*
X170048103Y-95850000D02*
X170048103Y-92272500D01*
X127675603Y-120445877D02*
X127675603Y-119850000D01*
D66*
X135475603Y-105650000D02*
X135475603Y-107250000D01*
D65*
X167877603Y-105448000D02*
X167343403Y-105448000D01*
X128476590Y-116949013D02*
X126743557Y-115215980D01*
X170475603Y-99650000D02*
X170675603Y-99450000D01*
D66*
X135475603Y-104650000D02*
X136875603Y-106050000D01*
D65*
X168619971Y-103905632D02*
X169075603Y-103450000D01*
D67*
X164680603Y-78460000D02*
X163678103Y-78460000D01*
D65*
%TO.N,BUTTON*%
X134933131Y-121942529D02*
X134933131Y-122168349D01*
X134888952Y-124067472D02*
X134933131Y-124023293D01*
X135458131Y-124067472D02*
X134888952Y-124067472D01*
X138075603Y-118800057D02*
X134933131Y-121942529D01*
X137075603Y-121925000D02*
X137075603Y-122450000D01*
X148675603Y-106450000D02*
X157845729Y-106450000D01*
X138075603Y-112050000D02*
X138075603Y-118800057D01*
X157845729Y-106450000D02*
X158714254Y-105581475D01*
X134933131Y-122168349D02*
X133408879Y-120644097D01*
X134933131Y-124023293D02*
X134933131Y-122168349D01*
X137075603Y-122450000D02*
X135458131Y-124067472D01*
D67*
%TO.N,VCC_12V*%
X163475603Y-85850000D02*
X163875603Y-85450000D01*
D65*
X164479156Y-93350000D02*
X164625603Y-93350000D01*
X151788103Y-100250000D02*
X153325603Y-100250000D01*
X136805603Y-108417500D02*
X137875603Y-109487500D01*
X153325603Y-100250000D02*
X153525603Y-100050000D01*
D67*
X158837558Y-116088045D02*
X159875603Y-115050000D01*
D65*
X142600603Y-114650000D02*
X141938104Y-114650000D01*
X151523103Y-101650000D02*
X151925603Y-101650000D01*
D67*
X168375603Y-93350000D02*
X168625603Y-93600000D01*
X155625603Y-91000000D02*
X155075603Y-90450000D01*
X164625603Y-93350000D02*
X165875603Y-93350000D01*
D65*
X137875603Y-109487500D02*
X139238103Y-109487500D01*
D67*
X159020578Y-87105025D02*
X158620578Y-87105025D01*
D65*
X141475603Y-114187499D02*
X141475603Y-112750000D01*
D67*
X163325603Y-85850000D02*
X163475603Y-85850000D01*
X165875603Y-93350000D02*
X166875603Y-93350000D01*
X166875603Y-93350000D02*
X167015723Y-93209880D01*
D65*
X151925603Y-101650000D02*
X153325603Y-100250000D01*
D67*
X165875603Y-93350000D02*
X168375603Y-93350000D01*
D65*
X140975603Y-112750000D02*
X140875603Y-112650000D01*
D67*
X159525603Y-86600000D02*
X159020578Y-87105025D01*
D65*
X142600603Y-112750000D02*
X141475603Y-112750000D01*
D67*
X158837558Y-119175000D02*
X158837558Y-116088045D01*
X159575603Y-86600000D02*
X159525603Y-86600000D01*
D65*
X141938104Y-114650000D02*
X141475603Y-114187499D01*
D67*
X155625603Y-91150000D02*
X155625603Y-91000000D01*
D65*
X163966593Y-92837437D02*
X164479156Y-93350000D01*
X139238103Y-109487500D02*
X139675603Y-109050000D01*
D67*
X163875603Y-85450000D02*
X163875603Y-83450000D01*
D65*
X141475603Y-112750000D02*
X140975603Y-112750000D01*
%TO.N,Net-(ME3116-BS)*%
X146125603Y-104850000D02*
X146125603Y-106250000D01*
X146125603Y-106250000D02*
X145925603Y-106450000D01*
X146125603Y-104850000D02*
X145525603Y-105450000D01*
X145925603Y-106450000D02*
X145525603Y-106450000D01*
X146125603Y-103200000D02*
X146125603Y-104850000D01*
D67*
%TO.N,Net-(D2-K)*%
X153150603Y-121325000D02*
X151475603Y-119650000D01*
D65*
X143625603Y-104685000D02*
X144390603Y-105450000D01*
X143625603Y-104685000D02*
X143625603Y-106150000D01*
X143625603Y-104100000D02*
X141575603Y-106150000D01*
D67*
X155113648Y-121325000D02*
X153150603Y-121325000D01*
D65*
X143625603Y-106150000D02*
X143925603Y-106450000D01*
X142875603Y-107050000D02*
X143625603Y-106300000D01*
X143625603Y-103200000D02*
X143625603Y-104100000D01*
X143925603Y-106450000D02*
X144390603Y-106450000D01*
X143625603Y-103200000D02*
X143625603Y-104685000D01*
X141575603Y-106150000D02*
X141575603Y-107450000D01*
X151475603Y-119650000D02*
X151675603Y-119650000D01*
X143625603Y-106300000D02*
X143625603Y-106150000D01*
%TO.N,Net-(ME3116-FB)*%
X149013103Y-101300000D02*
X149094353Y-101218750D01*
X148073103Y-100250000D02*
X147473103Y-99650000D01*
X149525603Y-101650000D02*
X150328103Y-101650000D01*
X149094353Y-101218750D02*
X150063103Y-100250000D01*
X149094353Y-101218750D02*
X149525603Y-101650000D01*
X146125603Y-101300000D02*
X149013103Y-101300000D01*
X150063103Y-100250000D02*
X148073103Y-100250000D01*
%TO.N,Net-(D3-K)*%
X136975603Y-102250000D02*
X138988103Y-102250000D01*
X141513103Y-102412500D02*
X141675603Y-102250000D01*
X141025603Y-102162500D02*
X141275603Y-102412500D01*
X141675603Y-102250000D02*
X143625603Y-102250000D01*
X138988103Y-102250000D02*
X139075603Y-102162500D01*
X139075603Y-102162500D02*
X141025603Y-102162500D01*
X141275603Y-102412500D02*
X141513103Y-102412500D01*
%TO.N,VB1*%
X160431059Y-92483883D02*
X160431059Y-92544544D01*
X158209103Y-93001000D02*
X158110103Y-93100000D01*
X158209103Y-93001000D02*
X157625603Y-92417500D01*
X159913942Y-93001000D02*
X158209103Y-93001000D01*
X156175603Y-93100000D02*
X155625603Y-92550000D01*
X158110103Y-93100000D02*
X156175603Y-93100000D01*
X160431059Y-92483883D02*
X159913942Y-93001000D01*
%TO.N,SH_B*%
X146500000Y-85550000D02*
X147750000Y-86800000D01*
X146500000Y-81453554D02*
X146500000Y-85550000D01*
X160375603Y-88600000D02*
X159974320Y-88198717D01*
X159974320Y-88198717D02*
X159526886Y-88198717D01*
X161138166Y-90009010D02*
X160375603Y-89246447D01*
X159526886Y-88397730D02*
X159526886Y-88198717D01*
X147750000Y-86800000D02*
X157185595Y-86800000D01*
X160375603Y-89246447D02*
X160375603Y-88600000D01*
X157185595Y-86800000D02*
X158584312Y-88198717D01*
X158584312Y-88198717D02*
X159526886Y-88198717D01*
%TO.N,VB2*%
X157630628Y-88855025D02*
X157630628Y-88094975D01*
X159564942Y-89850000D02*
X158625603Y-89850000D01*
X158625603Y-89850000D02*
X158625603Y-89100000D01*
X160431059Y-90716117D02*
X159564942Y-89850000D01*
X158625603Y-89850000D02*
X157630628Y-88855025D01*
X158625603Y-89100000D02*
X158724320Y-89001283D01*
%TO.N,VB3*%
X161125603Y-87100000D02*
X161125603Y-86350000D01*
X160875603Y-89039339D02*
X161491720Y-89655456D01*
X160875603Y-87350000D02*
X160875603Y-89039339D01*
X161125603Y-87100000D02*
X160875603Y-87350000D01*
X162058103Y-87100000D02*
X161125603Y-87100000D01*
X161625603Y-85850000D02*
X161925603Y-85850000D01*
X161125603Y-86350000D02*
X161625603Y-85850000D01*
%TO.N,Net-(D1-A)*%
X167613103Y-95850000D02*
X168903103Y-95850000D01*
%TO.N,CAN_L*%
X124347879Y-111024251D02*
X128849854Y-111024251D01*
D67*
X122961814Y-109638186D02*
X121100000Y-107776372D01*
D65*
X128849854Y-111024251D02*
X130320603Y-112495000D01*
D67*
X123807649Y-110484021D02*
X122961814Y-109638186D01*
X121100000Y-92680000D02*
X122070000Y-91710000D01*
X121100000Y-95500000D02*
X121100000Y-92680000D01*
D65*
X133075603Y-112650000D02*
X134325603Y-113900000D01*
D67*
X121100000Y-103910000D02*
X121960000Y-103050000D01*
D65*
X130320603Y-112495000D02*
X133075603Y-112495000D01*
X133075603Y-112495000D02*
X134325603Y-112495000D01*
X133075603Y-112495000D02*
X133075603Y-112650000D01*
D67*
X123940000Y-98340000D02*
X121100000Y-95500000D01*
X121960000Y-103050000D02*
X123940000Y-101070000D01*
D65*
X134325603Y-113900000D02*
X134325603Y-114405000D01*
D67*
X123940000Y-101070000D02*
X123940000Y-98340000D01*
X121100000Y-107776372D02*
X121100000Y-103910000D01*
D65*
X123807649Y-110484021D02*
X124347879Y-111024251D01*
D66*
%TO.N,DCBUS*%
X131025603Y-103450000D02*
X131025603Y-105450000D01*
D68*
X127545603Y-79261000D02*
X127545603Y-78115603D01*
D65*
X152085000Y-78625603D02*
X152029397Y-78570000D01*
D66*
X131025603Y-105450000D02*
X131225603Y-105650000D01*
D65*
X113480000Y-81780000D02*
X113430000Y-81830000D01*
D68*
X149545000Y-79331000D02*
X149545000Y-78160603D01*
D65*
X130085603Y-78630603D02*
X129955000Y-78500000D01*
D66*
X129770000Y-100950000D02*
X130550000Y-100950000D01*
D68*
X126275603Y-79261000D02*
X126275603Y-78604397D01*
D66*
X164678103Y-79450000D02*
X162088103Y-79450000D01*
X131025603Y-101650000D02*
X131025603Y-103450000D01*
X131025603Y-105450000D02*
X131025603Y-107400000D01*
D68*
X130085603Y-79261000D02*
X130085603Y-78630603D01*
D69*
X114630000Y-81780000D02*
X113480000Y-81780000D01*
D68*
X141085000Y-79251000D02*
X141085000Y-78570603D01*
D65*
X141085000Y-78570603D02*
X141004397Y-78490000D01*
D66*
X131225603Y-105650000D02*
X132000603Y-105650000D01*
X114480000Y-81780000D02*
X114030000Y-82230000D01*
D65*
X128815603Y-78089397D02*
X129030000Y-77875000D01*
D68*
X128815603Y-79261000D02*
X128815603Y-78089397D01*
D65*
X138545000Y-78080603D02*
X138304397Y-77840000D01*
D66*
X131025603Y-101650000D02*
X132038103Y-101650000D01*
X131025603Y-107400000D02*
X131275603Y-107650000D01*
D65*
X139815000Y-78054397D02*
X140029397Y-77840000D01*
X149545000Y-78160603D02*
X149304397Y-77920000D01*
D68*
X137275000Y-79251000D02*
X137275000Y-78544397D01*
D65*
X126275603Y-78604397D02*
X126380000Y-78500000D01*
X127545603Y-78115603D02*
X127330000Y-77900000D01*
D66*
X131025603Y-103450000D02*
X131225603Y-103650000D01*
X130550000Y-100950000D02*
X131025603Y-101425603D01*
D65*
X150815000Y-78109397D02*
X151004397Y-77920000D01*
D68*
X152085000Y-79331000D02*
X152085000Y-78625603D01*
X139815000Y-79251000D02*
X139815000Y-78054397D01*
D66*
X114380000Y-81780000D02*
X114030000Y-81430000D01*
X136875603Y-100050000D02*
X136275603Y-99450000D01*
X131225603Y-103650000D02*
X132038103Y-103650000D01*
D65*
X148275000Y-78599397D02*
X148354397Y-78520000D01*
D70*
X115830000Y-81780000D02*
X114630000Y-81780000D01*
D68*
X148275000Y-79331000D02*
X148275000Y-78599397D01*
D66*
X136875603Y-100750000D02*
X136875603Y-100050000D01*
D68*
X150815000Y-79331000D02*
X150815000Y-78109397D01*
D66*
X114480000Y-81780000D02*
X114380000Y-81780000D01*
X131025603Y-101425603D02*
X131025603Y-101650000D01*
D68*
X138545000Y-79251000D02*
X138545000Y-78080603D01*
D66*
X114630000Y-81780000D02*
X114480000Y-81780000D01*
D65*
X137275000Y-78544397D02*
X137329397Y-78490000D01*
D66*
X131275603Y-107650000D02*
X132000603Y-107650000D01*
D67*
%TO.N,CAN_H*%
X118400000Y-101800000D02*
X119675000Y-100525000D01*
X118400000Y-106872422D02*
X118400000Y-101800000D01*
D65*
X132875603Y-117745000D02*
X134325603Y-116295000D01*
D67*
X119675000Y-100525000D02*
X120285000Y-100525000D01*
D65*
X132875603Y-118205000D02*
X134325603Y-118205000D01*
X123449854Y-111922276D02*
X123449854Y-114603626D01*
D67*
X118400000Y-101800000D02*
X118400000Y-91180000D01*
X120285000Y-100525000D02*
X121960000Y-98850000D01*
X118400000Y-91180000D02*
X122070000Y-87510000D01*
D65*
X122909624Y-111382046D02*
X123449854Y-111922276D01*
X121960000Y-98850000D02*
X121960000Y-99665000D01*
X132875603Y-118205000D02*
X132875603Y-117745000D01*
D67*
X122909624Y-111382046D02*
X118400000Y-106872422D01*
D65*
X127296228Y-118450000D02*
X132630603Y-118450000D01*
X132630603Y-118450000D02*
X132875603Y-118205000D01*
X123449854Y-114603626D02*
X127296228Y-118450000D01*
%TO.N,GL_B*%
X166125603Y-87496447D02*
X166125603Y-87197500D01*
X163613040Y-90009010D02*
X166125603Y-87496447D01*
%TO.N,GL_C*%
X167125603Y-87211386D02*
X167125603Y-87197500D01*
X163966593Y-90362563D02*
X163974426Y-90362563D01*
X163974426Y-90362563D02*
X167125603Y-87211386D01*
%TO.N,GL_A*%
X165125603Y-87789339D02*
X165125603Y-87197500D01*
X163259486Y-89655456D02*
X165125603Y-87789339D01*
%TO.N,SH_A*%
X156375603Y-90032500D02*
X156375603Y-89600000D01*
X157838433Y-91069670D02*
X157625603Y-91282500D01*
X157625603Y-91282500D02*
X156375603Y-90032500D01*
X160077506Y-91069670D02*
X157838433Y-91069670D01*
%TO.N,GH_C*%
X160375603Y-86400000D02*
X160375603Y-86850000D01*
X161375603Y-88850000D02*
X161827506Y-89301903D01*
X159975603Y-86000000D02*
X160375603Y-86400000D01*
X161475603Y-88100000D02*
X161475603Y-88500000D01*
X161475603Y-88500000D02*
X161375603Y-88600000D01*
X161375603Y-88600000D02*
X161375603Y-88850000D01*
X161827506Y-89301903D02*
X161845273Y-89301903D01*
X159975603Y-86000000D02*
X149973103Y-86000000D01*
%TO.N,SH_C*%
X163625603Y-88600000D02*
X163625603Y-87532500D01*
X162625603Y-86532500D02*
X163193103Y-87100000D01*
X162905933Y-89301903D02*
X162923700Y-89301903D01*
X162625603Y-84825603D02*
X162625603Y-86532500D01*
X159400000Y-81600000D02*
X162625603Y-84825603D01*
X162923700Y-89301903D02*
X163625603Y-88600000D01*
X163625603Y-87532500D02*
X163193103Y-87100000D01*
X159400000Y-81440000D02*
X159400000Y-81600000D01*
%TO.N,GH_B*%
X146625603Y-86850000D02*
X146175603Y-86400000D01*
X159625603Y-89203553D02*
X159625603Y-89100000D01*
X146175603Y-86400000D02*
X139197500Y-86400000D01*
X160784613Y-90362563D02*
X159625603Y-89203553D01*
X146875603Y-86850000D02*
X146625603Y-86850000D01*
%TO.N,GH_A*%
X122080000Y-80580000D02*
X122080000Y-79140000D01*
X123010000Y-78210000D02*
X124120000Y-78210000D01*
X122080000Y-79140000D02*
X123010000Y-78210000D01*
X159797176Y-91850000D02*
X160077506Y-92130330D01*
X159125603Y-91850000D02*
X159797176Y-91850000D01*
%TO.N,USART2_TX*%
X140078603Y-115849000D02*
X139677603Y-116250000D01*
X140078603Y-114653000D02*
X140078603Y-115849000D01*
X158458943Y-107251000D02*
X147408803Y-107251000D01*
X139677603Y-112250000D02*
X139677603Y-114252000D01*
X159421361Y-106288582D02*
X158458943Y-107251000D01*
X146607803Y-108052000D02*
X143875603Y-108052000D01*
X143875603Y-108052000D02*
X139677603Y-112250000D01*
X139677603Y-116250000D02*
X139677603Y-120192000D01*
X147408803Y-107251000D02*
X146607803Y-108052000D01*
X139677603Y-120192000D02*
X140585603Y-121100000D01*
X139677603Y-114252000D02*
X140078603Y-114653000D01*
%TO.N,SWDIO*%
X146275603Y-107250000D02*
X143476603Y-107250000D01*
X138875603Y-123017100D02*
X138875603Y-123140000D01*
X138924546Y-115851000D02*
X138875603Y-115851000D01*
X156675603Y-103450000D02*
X155652235Y-104473368D01*
X138875603Y-115851000D02*
X138875603Y-122682900D01*
X138924546Y-114649000D02*
X139276603Y-115001057D01*
X151954807Y-104473368D02*
X151387071Y-103905632D01*
X139276603Y-115498943D02*
X138924546Y-115851000D01*
X138874603Y-123016100D02*
X138875603Y-123017100D01*
X138875603Y-114649000D02*
X138924546Y-114649000D01*
X155652235Y-104473368D02*
X151954807Y-104473368D01*
X143476603Y-107298943D02*
X138875603Y-111899943D01*
X139276603Y-115001057D02*
X139276603Y-115498943D01*
X157551516Y-103450000D02*
X156675603Y-103450000D01*
X138875603Y-122682900D02*
X138874603Y-122683900D01*
X143476603Y-107250000D02*
X143476603Y-107298943D01*
X138875603Y-123140000D02*
X140585603Y-124850000D01*
X138875603Y-111899943D02*
X138875603Y-114649000D01*
X151387071Y-103905632D02*
X149619971Y-103905632D01*
X149619971Y-103905632D02*
X146275603Y-107250000D01*
X138874603Y-122683900D02*
X138874603Y-123016100D01*
X158007148Y-103905632D02*
X157551516Y-103450000D01*
%TO.N,SWCLK*%
X148842703Y-105250000D02*
X146441703Y-107651000D01*
X141124603Y-122849000D02*
X143125603Y-124850000D01*
X139677603Y-115665043D02*
X139276603Y-116066043D01*
X139677603Y-114834957D02*
X139677603Y-115665043D01*
X139276603Y-122849000D02*
X141124603Y-122849000D01*
X158007148Y-104874368D02*
X157631516Y-105250000D01*
X146441703Y-107651000D02*
X143691646Y-107651000D01*
X157631516Y-105250000D02*
X148842703Y-105250000D01*
X139276603Y-114433957D02*
X139677603Y-114834957D01*
X143691646Y-107651000D02*
X139276603Y-112066043D01*
X139276603Y-112066043D02*
X139276603Y-114433957D01*
X139276603Y-116066043D02*
X139276603Y-122849000D01*
%TO.N,Net-(ME3116-EN)*%
X141363103Y-100337500D02*
X141475603Y-100450000D01*
X141475603Y-100450000D02*
X142775603Y-100450000D01*
X139075603Y-100337500D02*
X141363103Y-100337500D01*
X142775603Y-100450000D02*
X143625603Y-101300000D01*
%TO.N,Vshunt_1+*%
X169876603Y-84100350D02*
X169275603Y-83499350D01*
X169876603Y-86051000D02*
X169876603Y-84100350D01*
X132150000Y-82070000D02*
X133090000Y-83010000D01*
X169275603Y-83499350D02*
X169275603Y-82850000D01*
X173475603Y-93450000D02*
X173475603Y-89650000D01*
X133090000Y-83010000D02*
X134100000Y-83010000D01*
X134400000Y-83310000D02*
X134400000Y-84200000D01*
X173475603Y-89650000D02*
X169876603Y-86051000D01*
X134100000Y-83010000D02*
X134400000Y-83310000D01*
%TO.N,Net-(Q1-G)*%
X135580000Y-80820000D02*
X135580000Y-78900000D01*
X165125603Y-84600000D02*
X164875603Y-84350000D01*
X135580000Y-79599397D02*
X135580000Y-78900000D01*
X165125603Y-86002500D02*
X165125603Y-84600000D01*
X134200000Y-82200000D02*
X135580000Y-80820000D01*
%TO.N,Net-(Q2-G)*%
X135000000Y-85000000D02*
X136400000Y-86400000D01*
X137275000Y-73320000D02*
X136404397Y-74190603D01*
X136404397Y-80595603D02*
X135000000Y-82000000D01*
X136404397Y-77036000D02*
X136404397Y-80595603D01*
X136404397Y-74190603D02*
X136404397Y-79340000D01*
X135000000Y-82000000D02*
X135000000Y-85000000D01*
X136400000Y-86400000D02*
X138002500Y-86400000D01*
%TO.N,Vshunt_2+*%
X145875000Y-84125000D02*
X145575000Y-84125000D01*
X169475603Y-84266450D02*
X168275603Y-83066450D01*
X145575000Y-84125000D02*
X144650000Y-83200000D01*
X168275603Y-83066450D02*
X168275603Y-82250000D01*
X172475603Y-89217100D02*
X169475603Y-86217100D01*
X172475603Y-93450000D02*
X172475603Y-89217100D01*
X169475603Y-86217100D02*
X169475603Y-84266450D01*
%TO.N,Net-(Q3-G)*%
X147000000Y-85325000D02*
X147000000Y-81200000D01*
X166125603Y-83850000D02*
X166125603Y-86002500D01*
X147000000Y-79946024D02*
X146585000Y-79531024D01*
X147000000Y-81200000D02*
X147000000Y-79946024D01*
X165875603Y-83600000D02*
X166125603Y-83850000D01*
X146585000Y-79531024D02*
X146585000Y-78870421D01*
%TO.N,Net-(Q4-G)*%
X147375603Y-83850000D02*
X147600000Y-84074397D01*
X147600000Y-84074397D02*
X147600000Y-85400000D01*
X147600000Y-85400000D02*
X148200000Y-86000000D01*
X147375603Y-74299397D02*
X147375603Y-83850000D01*
X148275000Y-73400000D02*
X147375603Y-74299397D01*
X148200000Y-86000000D02*
X148778103Y-86000000D01*
%TO.N,Vshunt_3+*%
X167075603Y-82433550D02*
X169074603Y-84432550D01*
X171475603Y-88784200D02*
X171475603Y-93450000D01*
X167075603Y-81650000D02*
X167075603Y-82433550D01*
X159800000Y-84397000D02*
X159800000Y-83600000D01*
X159800000Y-83600000D02*
X158725712Y-82525712D01*
X169074603Y-84432550D02*
X169074603Y-86383200D01*
X158725712Y-82525712D02*
X157254397Y-82525712D01*
X169074603Y-86383200D02*
X171475603Y-88784200D01*
%TO.N,Net-(Q5-G)*%
X158240000Y-79040000D02*
X161850000Y-82650000D01*
X161850000Y-82650000D02*
X165875603Y-82650000D01*
X167125603Y-83900000D02*
X167125603Y-86002500D01*
X157585000Y-79040000D02*
X158240000Y-79040000D01*
X165875603Y-82650000D02*
X167125603Y-83900000D01*
%TO.N,STATUS*%
X163375603Y-97950000D02*
X165475603Y-95850000D01*
X159875603Y-100733829D02*
X160482021Y-101340247D01*
X165475603Y-95850000D02*
X166938103Y-95850000D01*
X159875603Y-100416336D02*
X159875603Y-100733829D01*
X159684267Y-100225000D02*
X159875603Y-100416336D01*
X160482021Y-101340247D02*
X160482021Y-101430758D01*
%TO.N,Curr_fdbk1_OPAmp+*%
X166040360Y-106281990D02*
X167076513Y-106281990D01*
X168675603Y-105050000D02*
X169075603Y-104650000D01*
X169475603Y-105850000D02*
X169475603Y-105450000D01*
X168675603Y-105850000D02*
X168675603Y-105050000D01*
X170475603Y-105850000D02*
X171053107Y-105272496D01*
X168675603Y-105850000D02*
X169475603Y-105850000D01*
X167508503Y-105850000D02*
X168675603Y-105850000D01*
X167076513Y-106281990D02*
X167508503Y-105850000D01*
X169475603Y-105850000D02*
X170475603Y-105850000D01*
X173475603Y-95450000D02*
X172675603Y-96250000D01*
X169475603Y-105450000D02*
X170353107Y-104572496D01*
X165693398Y-105935028D02*
X166040360Y-106281990D01*
X173475603Y-94645000D02*
X173475603Y-95450000D01*
%TO.N,Curr_fdbk2_OPAmp+*%
X172475603Y-95450000D02*
X171875603Y-96050000D01*
X169775603Y-102550000D02*
X169675603Y-102650000D01*
X169675603Y-102650000D02*
X169875603Y-102450000D01*
X171575603Y-102150000D02*
X171753107Y-101972496D01*
X166046952Y-103198525D02*
X166595477Y-102650000D01*
X169875603Y-102450000D02*
X171053107Y-101272496D01*
X170375603Y-102750000D02*
X170175603Y-102550000D01*
X170075603Y-102250000D02*
X170175603Y-102150000D01*
X170175603Y-102150000D02*
X171575603Y-102150000D01*
X166595477Y-102650000D02*
X169675603Y-102650000D01*
X172475603Y-94645000D02*
X172475603Y-95450000D01*
X170175603Y-102550000D02*
X169775603Y-102550000D01*
%TO.N,Curr_fdbk3_OPAmp+*%
X169275603Y-102050000D02*
X169275603Y-101050000D01*
X165781263Y-102050000D02*
X169275603Y-102050000D01*
X169275603Y-101050000D02*
X169375603Y-100950000D01*
X171876853Y-99448750D02*
X172474353Y-99448750D01*
X169275603Y-102050000D02*
X171876853Y-99448750D01*
X171475603Y-95450000D02*
X171475603Y-94645000D01*
X171876853Y-99448750D02*
X171875603Y-99447500D01*
X165339845Y-102491418D02*
X165781263Y-102050000D01*
X171075603Y-95850000D02*
X171475603Y-95450000D01*
X171875603Y-99447500D02*
X171875603Y-98647500D01*
X172474353Y-99448750D02*
X172875603Y-99047500D01*
X172875603Y-99047500D02*
X172875603Y-98647500D01*
%TO.N,VCC_5V*%
X130076886Y-115448717D02*
X130675603Y-114850000D01*
X148275603Y-112300000D02*
X148275603Y-113399999D01*
X146675603Y-114550000D02*
X146680603Y-114550000D01*
X156678103Y-108450000D02*
X155275603Y-108450000D01*
X149075604Y-114200000D02*
X149738103Y-114200000D01*
X148275603Y-113399999D02*
X149075604Y-114200000D01*
X157125546Y-109250000D02*
X156075603Y-109250000D01*
X127641582Y-114317954D02*
X127943557Y-114317954D01*
X147875603Y-110850000D02*
X147875603Y-110250000D01*
X144875603Y-112750000D02*
X146675603Y-114550000D01*
X149675603Y-108450000D02*
X147875603Y-110250000D01*
X158454603Y-110579057D02*
X157125546Y-109250000D01*
X155275603Y-108450000D02*
X149675603Y-108450000D01*
X158454603Y-110826500D02*
X158454603Y-110579057D01*
X127943557Y-114317954D02*
X129074320Y-115448717D01*
X129074320Y-115448717D02*
X130076886Y-115448717D01*
X152158103Y-96250000D02*
X152725603Y-95682500D01*
X145975603Y-112750000D02*
X146425603Y-112300000D01*
X151475603Y-96250000D02*
X152158103Y-96250000D01*
X148275603Y-112300000D02*
X149738103Y-112300000D01*
X159075603Y-111447500D02*
X158454603Y-110826500D01*
X156075603Y-109250000D02*
X155275603Y-108450000D01*
X144875603Y-113850000D02*
X144875603Y-112750000D01*
X130275603Y-111450000D02*
X129098099Y-110272496D01*
X146675603Y-114550000D02*
X146675603Y-115515000D01*
X146475603Y-112250000D02*
X147875603Y-110850000D01*
X145975603Y-112750000D02*
X146475603Y-112250000D01*
X146425603Y-112300000D02*
X148275603Y-112300000D01*
X146680603Y-114550000D02*
X147645603Y-115515000D01*
X144875603Y-112750000D02*
X145975603Y-112750000D01*
%TO.N,CAN_TX*%
X127475603Y-117250000D02*
X126981526Y-117250000D01*
X160675603Y-112250000D02*
X158275603Y-114650000D01*
X126981526Y-117250000D02*
X125845531Y-116114005D01*
X161542681Y-108409902D02*
X160675603Y-109276980D01*
X160675603Y-109276980D02*
X160675603Y-112250000D01*
%TO.N,CAN_RX*%
X154075603Y-100650000D02*
X156872836Y-100650000D01*
X131875603Y-113650000D02*
X131275603Y-114250000D01*
X148151338Y-104525735D02*
X148432768Y-104525735D01*
X148432768Y-104525735D02*
X149453871Y-103504632D01*
X149453871Y-103504632D02*
X151220971Y-103504632D01*
X156872836Y-100650000D02*
X159067808Y-102844972D01*
X131275603Y-114250000D02*
X129369680Y-114250000D01*
X151220971Y-103504632D02*
X154075603Y-100650000D01*
X129369680Y-114250000D02*
X128539608Y-113419928D01*
%TO.N,VBUS*%
X165873103Y-79455000D02*
X165873103Y-79450000D01*
X167674603Y-106251000D02*
X169076603Y-106251000D01*
X166878103Y-80460000D02*
X166878103Y-79060000D01*
X167075603Y-106850000D02*
X167674603Y-106251000D01*
X167978103Y-80460000D02*
X166878103Y-80460000D01*
X169076603Y-106251000D02*
X170475603Y-107650000D01*
X165339845Y-106288582D02*
X165901263Y-106850000D01*
X166278103Y-78460000D02*
X165875603Y-78460000D01*
X166878103Y-80460000D02*
X165873103Y-79455000D01*
X166878103Y-79060000D02*
X166278103Y-78460000D01*
X170475603Y-107650000D02*
X170875603Y-107650000D01*
X166878103Y-80460000D02*
X165845603Y-80460000D01*
X165901263Y-106850000D02*
X167075603Y-106850000D01*
%TO.N,TEMP_FEEDBACK*%
X119830000Y-80630000D02*
X119830000Y-79232500D01*
X116447500Y-76430000D02*
X116397500Y-76380000D01*
X118628750Y-77031250D02*
X118630000Y-77030000D01*
X121520000Y-82460000D02*
X119830000Y-80770000D01*
X118628750Y-78031250D02*
X117977500Y-77380000D01*
X156075603Y-94300000D02*
X156075603Y-94450000D01*
X160842166Y-100376689D02*
X161189128Y-100723651D01*
X118030000Y-76430000D02*
X116447500Y-76430000D01*
X119830000Y-79232500D02*
X118628750Y-78031250D01*
X118628750Y-78031250D02*
X118628750Y-77031250D01*
X163475603Y-96850000D02*
X160842166Y-99483437D01*
X118630000Y-77030000D02*
X118030000Y-76430000D01*
X117977500Y-77380000D02*
X116427500Y-77380000D01*
X119830000Y-80770000D02*
X119830000Y-80630000D01*
X160842166Y-99483437D02*
X160842166Y-100376689D01*
%TO.N,Net-(U5-VDDA)*%
X166275603Y-99650000D02*
X167275603Y-98650000D01*
X166275603Y-99650000D02*
X168708103Y-99650000D01*
X164294845Y-101430758D02*
X166075603Y-99650000D01*
X167275603Y-98650000D02*
X167763102Y-98650000D01*
X167763102Y-98650000D02*
X168708103Y-98650000D01*
X163925631Y-101077205D02*
X165352836Y-99650000D01*
X164279185Y-101430758D02*
X164294845Y-101430758D01*
X167763102Y-98650000D02*
X168413103Y-97999999D01*
X166075603Y-99650000D02*
X166275603Y-99650000D01*
X168508103Y-98850000D02*
X168708103Y-98650000D01*
X168413103Y-97999999D02*
X168413103Y-97850000D01*
X165352836Y-99650000D02*
X166075603Y-99650000D01*
%TO.N,Net-(U5-PG10-~{RST})*%
X170275603Y-108650000D02*
X168475603Y-106850000D01*
X166675603Y-113082500D02*
X167593103Y-114000000D01*
X168475603Y-106850000D02*
X167642703Y-106850000D01*
X166675603Y-112850000D02*
X166675603Y-113082500D01*
X167642703Y-106850000D02*
X167241703Y-107251000D01*
X167475603Y-112850000D02*
X170275603Y-110050000D01*
X167593103Y-114000000D02*
X168308103Y-114000000D01*
X166675603Y-112850000D02*
X166013103Y-112850000D01*
X170275603Y-110050000D02*
X170275603Y-108650000D01*
X166675603Y-112850000D02*
X167475603Y-112850000D01*
X168308103Y-114000000D02*
X168408103Y-114100000D01*
X165595156Y-107251000D02*
X164986291Y-106642135D01*
X167241703Y-107251000D02*
X165595156Y-107251000D01*
%TO.N,HIN2*%
X157324546Y-97251000D02*
X157709503Y-97251000D01*
X161155364Y-93950194D02*
X161491720Y-93613838D01*
X158250603Y-100373565D02*
X159125603Y-101248565D01*
X156275603Y-97850000D02*
X156674603Y-97451000D01*
X157475603Y-98900000D02*
X158250603Y-99675000D01*
X159125603Y-101248565D02*
X159125603Y-101488553D01*
X159657503Y-97501000D02*
X160974603Y-96183900D01*
X157124546Y-97451000D02*
X157324546Y-97251000D01*
X156674603Y-97451000D02*
X157124546Y-97451000D01*
X161155364Y-94020906D02*
X161155364Y-93950194D01*
X158250603Y-99675000D02*
X158250603Y-100373565D01*
X157959503Y-97501000D02*
X159657503Y-97501000D01*
X160974603Y-96183900D02*
X160974603Y-94201667D01*
X157709503Y-97251000D02*
X157959503Y-97501000D01*
X160974603Y-94201667D02*
X161155364Y-94020906D01*
X161491720Y-93613838D02*
X161491720Y-93544544D01*
X159125603Y-101488553D02*
X159774915Y-102137865D01*
%TO.N,LIN3*%
X160276603Y-100518233D02*
X160276603Y-100482607D01*
X160285267Y-100473943D02*
X160285267Y-99976057D01*
X164375603Y-93953553D02*
X163613040Y-93190990D01*
X160835575Y-101077205D02*
X160276603Y-100518233D01*
X160285267Y-99976057D02*
X160125603Y-99816393D01*
X160276603Y-100482607D02*
X160285267Y-100473943D01*
X160125603Y-99816393D02*
X160125603Y-99350000D01*
X164375603Y-95100000D02*
X164375603Y-93953553D01*
X160125603Y-99350000D02*
X164375603Y-95100000D01*
%TO.N,LIN2*%
X158714254Y-103188651D02*
X158714254Y-103198525D01*
X157875603Y-102350000D02*
X158714254Y-103188651D01*
X163259486Y-93544544D02*
X163595842Y-93880900D01*
X163595842Y-95312661D02*
X162558503Y-96350000D01*
X162558503Y-96350000D02*
X162125603Y-96350000D01*
X157275603Y-102350000D02*
X157875603Y-102350000D01*
X163595842Y-93880900D02*
X163595842Y-95312661D01*
%TO.N,Net-(Q7-G)*%
X124120000Y-74860000D02*
X124120000Y-77015000D01*
X125650000Y-73330000D02*
X124120000Y-74860000D01*
X126275603Y-73330000D02*
X125650000Y-73330000D01*
%TO.N,HIN1*%
X159781506Y-101255903D02*
X159781506Y-101437350D01*
X160801811Y-93736647D02*
X160801811Y-93596641D01*
X159491403Y-97100000D02*
X160573603Y-96017800D01*
X160754364Y-93784094D02*
X160801811Y-93736647D01*
X160573603Y-96017800D02*
X160573603Y-94035567D01*
X158125603Y-97100000D02*
X159491403Y-97100000D01*
X160754364Y-93854806D02*
X160754364Y-93784094D01*
X159084267Y-100558664D02*
X159781506Y-101255903D01*
X161138166Y-93260286D02*
X161138166Y-93190990D01*
X159084267Y-99458664D02*
X159084267Y-100558664D01*
X159781506Y-101437350D02*
X160128468Y-101784312D01*
X157875603Y-96850000D02*
X158125603Y-97100000D01*
X160801811Y-93596641D02*
X161138166Y-93260286D01*
X158214067Y-98592307D02*
X158217910Y-98592307D01*
X156875603Y-96850000D02*
X157875603Y-96850000D01*
X160573603Y-94035567D02*
X160754364Y-93854806D01*
X158217910Y-98592307D02*
X159084267Y-99458664D01*
%TO.N,HIN3*%
X161375603Y-96350000D02*
X161375603Y-94367767D01*
X159421361Y-102491418D02*
X156875603Y-99945660D01*
X157223603Y-97902000D02*
X159823603Y-97902000D01*
X161375603Y-94367767D02*
X161845273Y-93898097D01*
X159823603Y-97902000D02*
X161375603Y-96350000D01*
X156875603Y-98250000D02*
X157223603Y-97902000D01*
X156875603Y-99945660D02*
X156875603Y-98250000D01*
%TO.N,LIN1*%
X163875603Y-110101414D02*
X163875603Y-109066980D01*
X163801310Y-110175707D02*
X163875603Y-110101414D01*
X162905933Y-93898097D02*
X162125603Y-94678427D01*
X162125603Y-94678427D02*
X162125603Y-95350000D01*
X163875603Y-109066980D02*
X163218525Y-108409902D01*
%TO.N,Net-(U5-PF0-OSC_IN)*%
X164653107Y-107723164D02*
X164653107Y-109072496D01*
X164653107Y-109072496D02*
X164653107Y-110427504D01*
X164279185Y-107349242D02*
X164653107Y-107723164D01*
X168475603Y-111250000D02*
X168475603Y-110752944D01*
X166275603Y-112050000D02*
X167675603Y-112050000D01*
X168475603Y-110752944D02*
X167524131Y-109801472D01*
X167675603Y-112050000D02*
X168475603Y-111250000D01*
X164653107Y-110427504D02*
X166275603Y-112050000D01*
%TO.N,Net-(U5-PF1-OSC_OUT)*%
X165498099Y-107861049D02*
X165498099Y-108227504D01*
X164632738Y-106995688D02*
X165498099Y-107861049D01*
X165498099Y-108227504D02*
X165498099Y-109472496D01*
X165498099Y-109472496D02*
X166675603Y-110650000D01*
%TO.N,Net-(J3-Pin_2)*%
X140078603Y-119253000D02*
X140475603Y-119650000D01*
X159774915Y-106642135D02*
X158765050Y-107652000D01*
X140475603Y-119650000D02*
X141675603Y-119650000D01*
X147574903Y-107652000D02*
X146773903Y-108453000D01*
X140479603Y-114486900D02*
X140479603Y-116015100D01*
X140078603Y-112416100D02*
X140078603Y-114085900D01*
X159774915Y-106642135D02*
X159683468Y-106642135D01*
X140078603Y-116416100D02*
X140078603Y-119253000D01*
X141675603Y-119650000D02*
X143125603Y-121100000D01*
X140479603Y-116015100D02*
X140078603Y-116416100D01*
X144041703Y-108453000D02*
X140078603Y-112416100D01*
X158765050Y-107652000D02*
X147574903Y-107652000D01*
X146773903Y-108453000D02*
X144041703Y-108453000D01*
X140078603Y-114085900D02*
X140479603Y-114486900D01*
%TO.N,Net-(TCAN1051HGVDR1-VIO)*%
X128253107Y-109427504D02*
X124864166Y-109427504D01*
X124864166Y-109427504D02*
X124705675Y-109585995D01*
%TD*%
%TA.AperFunction,Conductor*%
%TO.N,GND*%
G36*
X148837987Y-88950592D02*
G01*
X149014161Y-88967873D01*
X149037900Y-88972575D01*
X149201524Y-89021996D01*
X149223904Y-89031225D01*
X149374795Y-89111493D01*
X149394956Y-89124895D01*
X149527381Y-89232957D01*
X149544554Y-89250021D01*
X149653453Y-89381748D01*
X149666980Y-89401818D01*
X149748211Y-89552203D01*
X149757582Y-89574525D01*
X149808044Y-89737828D01*
X149812899Y-89761546D01*
X149831301Y-89937600D01*
X149831970Y-89949701D01*
X149869154Y-95787512D01*
X149868630Y-95799719D01*
X149852200Y-95977409D01*
X149847572Y-96001373D01*
X149798409Y-96166512D01*
X149789177Y-96189105D01*
X149708620Y-96341417D01*
X149695141Y-96361764D01*
X149586315Y-96495341D01*
X149569113Y-96512654D01*
X149436225Y-96622334D01*
X149415964Y-96635942D01*
X149264166Y-96717469D01*
X149241640Y-96726841D01*
X149076814Y-96777056D01*
X149052882Y-96781836D01*
X148875300Y-96799398D01*
X148863097Y-96800000D01*
X141225324Y-96800000D01*
X141213219Y-96799408D01*
X141037049Y-96782127D01*
X141013301Y-96777423D01*
X140849684Y-96728004D01*
X140827301Y-96718774D01*
X140676410Y-96638506D01*
X140656249Y-96625104D01*
X140523824Y-96517042D01*
X140506651Y-96499978D01*
X140397752Y-96368251D01*
X140384226Y-96348183D01*
X140302991Y-96197789D01*
X140293623Y-96175474D01*
X140243161Y-96012171D01*
X140238306Y-95988453D01*
X140219904Y-95812399D01*
X140219235Y-95800298D01*
X140182051Y-89962467D01*
X140182574Y-89950300D01*
X140199006Y-89772580D01*
X140203631Y-89748635D01*
X140252799Y-89583477D01*
X140262023Y-89560903D01*
X140342589Y-89408575D01*
X140356059Y-89388241D01*
X140464895Y-89254652D01*
X140482085Y-89237351D01*
X140614987Y-89127659D01*
X140635233Y-89114061D01*
X140787050Y-89032525D01*
X140809553Y-89023162D01*
X140974403Y-88972940D01*
X140998318Y-88968163D01*
X141175906Y-88950602D01*
X141188109Y-88950000D01*
X148825882Y-88950000D01*
X148837987Y-88950592D01*
G37*
%TD.AperFunction*%
%TD*%
%TA.AperFunction,Conductor*%
%TO.N,SH_B*%
G36*
X143631664Y-62000597D02*
G01*
X143808544Y-62018018D01*
X143832372Y-62022757D01*
X143996604Y-62072576D01*
X144019056Y-62081877D01*
X144170401Y-62162772D01*
X144190613Y-62176277D01*
X144323269Y-62285145D01*
X144340457Y-62302333D01*
X144449325Y-62434989D01*
X144462830Y-62455201D01*
X144543724Y-62606543D01*
X144553027Y-62629001D01*
X144602843Y-62793223D01*
X144607585Y-62817065D01*
X144617162Y-62914309D01*
X144617368Y-62936301D01*
X144615472Y-62960112D01*
X144614803Y-62972263D01*
X144614050Y-62996924D01*
X144572994Y-69771399D01*
X144573583Y-69799061D01*
X144574245Y-69812639D01*
X144576351Y-69840259D01*
X144596840Y-70037465D01*
X144596842Y-70037477D01*
X144596843Y-70037487D01*
X144605569Y-70092145D01*
X144605571Y-70092156D01*
X144611297Y-70118620D01*
X144611304Y-70118650D01*
X144621180Y-70154628D01*
X144625603Y-70187451D01*
X144625603Y-70350000D01*
X144703951Y-70419294D01*
X144731378Y-70454138D01*
X144744357Y-70478644D01*
X144843094Y-70642667D01*
X144874214Y-70688483D01*
X144884202Y-70701581D01*
X144890657Y-70710046D01*
X144926585Y-70752164D01*
X145063335Y-70895745D01*
X145082045Y-70914342D01*
X145082978Y-70915270D01*
X145092867Y-70924575D01*
X145113540Y-70942986D01*
X145605583Y-71357577D01*
X146740480Y-72313831D01*
X146743395Y-72317293D01*
X146745650Y-72318440D01*
X146767620Y-72346062D01*
X146780684Y-72368403D01*
X146791445Y-72392285D01*
X146849174Y-72567964D01*
X146854677Y-72593576D01*
X146874909Y-72784028D01*
X146875603Y-72797127D01*
X146875603Y-73931195D01*
X146871453Y-73946683D01*
X146872108Y-73960426D01*
X146858992Y-73993192D01*
X146844965Y-74017489D01*
X146844962Y-74017493D01*
X146816028Y-74067606D01*
X146816027Y-74067607D01*
X146805723Y-74106062D01*
X146775102Y-74220340D01*
X146775102Y-74220342D01*
X146775102Y-74388443D01*
X146775103Y-74388456D01*
X146775103Y-76877234D01*
X146771593Y-76891245D01*
X146772500Y-76902510D01*
X146760461Y-76935687D01*
X146712830Y-77024798D01*
X146699325Y-77045010D01*
X146590457Y-77177666D01*
X146573269Y-77194854D01*
X146440613Y-77303722D01*
X146420401Y-77317227D01*
X146269059Y-77398121D01*
X146246601Y-77407424D01*
X146082378Y-77457240D01*
X146058537Y-77461982D01*
X145881664Y-77479403D01*
X145869510Y-77480000D01*
X143381696Y-77480000D01*
X143369542Y-77479403D01*
X143192668Y-77461982D01*
X143168827Y-77457240D01*
X143004604Y-77407424D01*
X142982146Y-77398121D01*
X142830804Y-77317227D01*
X142810592Y-77303722D01*
X142677936Y-77194854D01*
X142660748Y-77177666D01*
X142551880Y-77045010D01*
X142538375Y-77024798D01*
X142473011Y-76902510D01*
X142457480Y-76873453D01*
X142448178Y-76850998D01*
X142398360Y-76686769D01*
X142393621Y-76662941D01*
X142376200Y-76486061D01*
X142375603Y-76473907D01*
X142375603Y-75350000D01*
X142064499Y-75350000D01*
X141997460Y-75330315D01*
X141951705Y-75277511D01*
X141940499Y-75226000D01*
X141940499Y-75053129D01*
X141940498Y-75053123D01*
X141934091Y-74993516D01*
X141883797Y-74858671D01*
X141883793Y-74858664D01*
X141797547Y-74743455D01*
X141797544Y-74743452D01*
X141682335Y-74657206D01*
X141682328Y-74657202D01*
X141547482Y-74606908D01*
X141547483Y-74606908D01*
X141487883Y-74600501D01*
X141487881Y-74600500D01*
X141487873Y-74600500D01*
X141487865Y-74600500D01*
X138249603Y-74600500D01*
X138182564Y-74580815D01*
X138136809Y-74528011D01*
X138125603Y-74476500D01*
X138125603Y-74106062D01*
X138126094Y-74095040D01*
X138126192Y-74093940D01*
X138130500Y-74053873D01*
X138130499Y-74045668D01*
X138130990Y-74040178D01*
X138131164Y-74039734D01*
X138131329Y-74036887D01*
X138150684Y-73870650D01*
X138157274Y-73842740D01*
X138228725Y-73645615D01*
X138234387Y-73632430D01*
X139770030Y-70561146D01*
X139875603Y-70350000D01*
X139875603Y-63006092D01*
X139876200Y-62993938D01*
X139878335Y-62972263D01*
X139893621Y-62817056D01*
X139898360Y-62793232D01*
X139948180Y-62628994D01*
X139957478Y-62606549D01*
X140038378Y-62455195D01*
X140051875Y-62434995D01*
X140160752Y-62302328D01*
X140177931Y-62285149D01*
X140310598Y-62176272D01*
X140330798Y-62162775D01*
X140482152Y-62081875D01*
X140504597Y-62072577D01*
X140668835Y-62022757D01*
X140692659Y-62018018D01*
X140869542Y-62000597D01*
X140881696Y-62000000D01*
X143619510Y-62000000D01*
X143631664Y-62000597D01*
G37*
%TD.AperFunction*%
%TD*%
%TA.AperFunction,Conductor*%
%TO.N,SH_A*%
G36*
X138428526Y-62050598D02*
G01*
X138605761Y-62068089D01*
X138629638Y-62072849D01*
X138794157Y-62122861D01*
X138816649Y-62132199D01*
X138968216Y-62213404D01*
X138988453Y-62226960D01*
X139121226Y-62336230D01*
X139138421Y-62353480D01*
X139247268Y-62486589D01*
X139260760Y-62506867D01*
X139341489Y-62658689D01*
X139350757Y-62681214D01*
X139380081Y-62778778D01*
X139384732Y-62826623D01*
X139373133Y-62944394D01*
X139371309Y-62969125D01*
X139370712Y-62981284D01*
X139370103Y-63006108D01*
X139370103Y-70148687D01*
X139365899Y-70180702D01*
X139343942Y-70262861D01*
X139336695Y-70282892D01*
X139271314Y-70424277D01*
X139266427Y-70433752D01*
X138488916Y-71794398D01*
X138330845Y-72071021D01*
X138280493Y-72119462D01*
X138223184Y-72133500D01*
X138142130Y-72133500D01*
X138142123Y-72133501D01*
X138082516Y-72139908D01*
X137953333Y-72188091D01*
X137883641Y-72193075D01*
X137866667Y-72188091D01*
X137737482Y-72139908D01*
X137737483Y-72139908D01*
X137677883Y-72133501D01*
X137677881Y-72133500D01*
X137677873Y-72133500D01*
X137677864Y-72133500D01*
X136872129Y-72133500D01*
X136872123Y-72133501D01*
X136812516Y-72139908D01*
X136677671Y-72190202D01*
X136677664Y-72190206D01*
X136562455Y-72276452D01*
X136562452Y-72276455D01*
X136476206Y-72391664D01*
X136476202Y-72391671D01*
X136425908Y-72526517D01*
X136419501Y-72586116D01*
X136419500Y-72586135D01*
X136419500Y-72876000D01*
X136399815Y-72943039D01*
X136347011Y-72988794D01*
X136295500Y-73000000D01*
X136199999Y-73000000D01*
X136163549Y-73538935D01*
X136154330Y-73563945D01*
X136148665Y-73589992D01*
X136140914Y-73600345D01*
X136139386Y-73604493D01*
X136127515Y-73618247D01*
X136068946Y-73676817D01*
X136035683Y-73710081D01*
X136035681Y-73710082D01*
X136035680Y-73710083D01*
X136035681Y-73710083D01*
X135923878Y-73821885D01*
X135923872Y-73821893D01*
X135877035Y-73903019D01*
X135877035Y-73903020D01*
X135844820Y-73958817D01*
X135844820Y-73958818D01*
X135803896Y-74111546D01*
X135803896Y-74111548D01*
X135803896Y-74279649D01*
X135803897Y-74279662D01*
X135803897Y-77102105D01*
X135803411Y-77103757D01*
X135803853Y-77105425D01*
X135793601Y-77137167D01*
X135784212Y-77169144D01*
X135782740Y-77170797D01*
X135782380Y-77171913D01*
X135758562Y-77197959D01*
X135690613Y-77253723D01*
X135670401Y-77267227D01*
X135519059Y-77348121D01*
X135496601Y-77357424D01*
X135332378Y-77407240D01*
X135308537Y-77411982D01*
X135131664Y-77429403D01*
X135119510Y-77430000D01*
X132381696Y-77430000D01*
X132369542Y-77429403D01*
X132192668Y-77411982D01*
X132168827Y-77407240D01*
X132004604Y-77357424D01*
X131982146Y-77348121D01*
X131830804Y-77267227D01*
X131810592Y-77253722D01*
X131677936Y-77144854D01*
X131660748Y-77127666D01*
X131551880Y-76995010D01*
X131538375Y-76974798D01*
X131457481Y-76823456D01*
X131448178Y-76800998D01*
X131398360Y-76636769D01*
X131393621Y-76612941D01*
X131376200Y-76436061D01*
X131375603Y-76423907D01*
X131375603Y-74430000D01*
X129863071Y-74441839D01*
X127436009Y-74460837D01*
X127413797Y-74459008D01*
X127313204Y-74441518D01*
X127271533Y-74426207D01*
X127193344Y-74380173D01*
X127159738Y-74351164D01*
X127122059Y-74304448D01*
X127095293Y-74239909D01*
X127102394Y-74183270D01*
X127124694Y-74123483D01*
X127131103Y-74063873D01*
X127131102Y-72596128D01*
X127124694Y-72536517D01*
X127120964Y-72526517D01*
X127074400Y-72401671D01*
X127074398Y-72401668D01*
X127066909Y-72391664D01*
X127041539Y-72357774D01*
X127017122Y-72292312D01*
X127016814Y-72282112D01*
X127020150Y-71980132D01*
X127020780Y-71968952D01*
X127037452Y-71805604D01*
X127041741Y-71783581D01*
X127086013Y-71631353D01*
X127094208Y-71610455D01*
X127165201Y-71468715D01*
X127177031Y-71449633D01*
X127275831Y-71318488D01*
X127282962Y-71309865D01*
X135373584Y-62383226D01*
X135382730Y-62374135D01*
X135523402Y-62248202D01*
X135544327Y-62233078D01*
X135702377Y-62142257D01*
X135725978Y-62131794D01*
X135899414Y-62075677D01*
X135924667Y-62070331D01*
X136112435Y-62050673D01*
X136125346Y-62050000D01*
X138416349Y-62050000D01*
X138428526Y-62050598D01*
G37*
%TD.AperFunction*%
%TD*%
%TA.AperFunction,Conductor*%
%TO.N,Vshunt_3+*%
G36*
X153903511Y-78155338D02*
G01*
X153922089Y-78160974D01*
X153970214Y-78173028D01*
X153994055Y-78177770D01*
X154043119Y-78185048D01*
X154219993Y-78202469D01*
X154244742Y-78204294D01*
X154256896Y-78204891D01*
X154281696Y-78205500D01*
X156605500Y-78205500D01*
X156672539Y-78225185D01*
X156718294Y-78277989D01*
X156729500Y-78329500D01*
X156729500Y-79773870D01*
X156729501Y-79773876D01*
X156735908Y-79833483D01*
X156786202Y-79968328D01*
X156786203Y-79968329D01*
X156786204Y-79968331D01*
X156813903Y-80005332D01*
X156877769Y-80090646D01*
X156875723Y-80092176D01*
X156902765Y-80141679D01*
X156905603Y-80168057D01*
X156905603Y-80310000D01*
X158283387Y-80311930D01*
X158350398Y-80331709D01*
X158396078Y-80384577D01*
X158407210Y-80436698D01*
X158400000Y-81600061D01*
X158400000Y-84496000D01*
X158380315Y-84563039D01*
X158327511Y-84608794D01*
X158276000Y-84620000D01*
X156331952Y-84620000D01*
X156264913Y-84600315D01*
X156219158Y-84547511D01*
X156216821Y-84542052D01*
X155200000Y-82000001D01*
X155200000Y-82000000D01*
X153472579Y-81232257D01*
X153419313Y-81187042D01*
X153398952Y-81120582D01*
X153361435Y-78275635D01*
X153380234Y-78208342D01*
X153432430Y-78161895D01*
X153485424Y-78150000D01*
X153867518Y-78150000D01*
X153903511Y-78155338D01*
G37*
%TD.AperFunction*%
%TD*%
%TA.AperFunction,Conductor*%
%TO.N,GND*%
G36*
X151973039Y-80595397D02*
G01*
X152018794Y-80648201D01*
X152030000Y-80699712D01*
X152030000Y-84451712D01*
X152010315Y-84518751D01*
X151957511Y-84564506D01*
X151906000Y-84575712D01*
X149254000Y-84575712D01*
X149186961Y-84556027D01*
X149141206Y-84503223D01*
X149130000Y-84451712D01*
X149130000Y-80699712D01*
X149149685Y-80632673D01*
X149202489Y-80586918D01*
X149254000Y-80575712D01*
X151906000Y-80575712D01*
X151973039Y-80595397D01*
G37*
%TD.AperFunction*%
%TD*%
%TA.AperFunction,Conductor*%
%TO.N,Vshunt_2+*%
G36*
X145568642Y-78019685D02*
G01*
X145614397Y-78072489D01*
X145625603Y-78124000D01*
X145625603Y-80845049D01*
X145625208Y-80854937D01*
X145525603Y-82099994D01*
X145501535Y-85276939D01*
X145481344Y-85343828D01*
X145428194Y-85389181D01*
X145377539Y-85400000D01*
X143324000Y-85400000D01*
X143256961Y-85380315D01*
X143211206Y-85327511D01*
X143200000Y-85276000D01*
X143200000Y-81799999D01*
X142405949Y-80884969D01*
X142376878Y-80821435D01*
X142375603Y-80803698D01*
X142375603Y-78124000D01*
X142395288Y-78056961D01*
X142448092Y-78011206D01*
X142499603Y-78000000D01*
X145501603Y-78000000D01*
X145568642Y-78019685D01*
G37*
%TD.AperFunction*%
%TD*%
%TA.AperFunction,Conductor*%
%TO.N,GND*%
G36*
X139142737Y-80830175D02*
G01*
X139188938Y-80882590D01*
X139200584Y-80935074D01*
X139200018Y-84659963D01*
X139180323Y-84726999D01*
X139127512Y-84772746D01*
X139074967Y-84783940D01*
X136372949Y-84761041D01*
X136306079Y-84740789D01*
X136260773Y-84687599D01*
X136250000Y-84637045D01*
X136250000Y-81650596D01*
X136269685Y-81583557D01*
X136286319Y-81562915D01*
X136773110Y-81076124D01*
X136773113Y-81076123D01*
X136884917Y-80964319D01*
X136927619Y-80890353D01*
X136978184Y-80842139D01*
X137033952Y-80828357D01*
X139075535Y-80811059D01*
X139142737Y-80830175D01*
G37*
%TD.AperFunction*%
%TD*%
%TA.AperFunction,Conductor*%
%TO.N,SH_C*%
G36*
X149070875Y-62000586D02*
G01*
X149246224Y-62017705D01*
X149269851Y-62022362D01*
X149431657Y-62070989D01*
X149432773Y-62071325D01*
X149455063Y-62080467D01*
X149605442Y-62160018D01*
X149625534Y-62173294D01*
X149757682Y-62280420D01*
X149774837Y-62297341D01*
X149883773Y-62428004D01*
X149897327Y-62447915D01*
X149981851Y-62602512D01*
X149987111Y-62613356D01*
X152475601Y-68449998D01*
X152475602Y-68449999D01*
X152475603Y-68450000D01*
X157277324Y-71931247D01*
X157657834Y-72207117D01*
X157666969Y-72214421D01*
X157795211Y-72327276D01*
X157811217Y-72344294D01*
X157846723Y-72390000D01*
X157912409Y-72474558D01*
X157924934Y-72494268D01*
X157999898Y-72641208D01*
X158008507Y-72662927D01*
X158054575Y-72821317D01*
X158058957Y-72844265D01*
X158075051Y-73014327D01*
X158075603Y-73026010D01*
X158075603Y-76693907D01*
X158075006Y-76706061D01*
X158057585Y-76882934D01*
X158052843Y-76906775D01*
X158003027Y-77070998D01*
X157993724Y-77093456D01*
X157912830Y-77244798D01*
X157899325Y-77265010D01*
X157790457Y-77397666D01*
X157773269Y-77414854D01*
X157640613Y-77523722D01*
X157620401Y-77537227D01*
X157469059Y-77618121D01*
X157446601Y-77627424D01*
X157282378Y-77677240D01*
X157258537Y-77681982D01*
X157081664Y-77699403D01*
X157069510Y-77700000D01*
X154281696Y-77700000D01*
X154269542Y-77699403D01*
X154092668Y-77681982D01*
X154068827Y-77677240D01*
X153904604Y-77627424D01*
X153882146Y-77618121D01*
X153730804Y-77537227D01*
X153710592Y-77523722D01*
X153577936Y-77414854D01*
X153560748Y-77397666D01*
X153451880Y-77265010D01*
X153438375Y-77244798D01*
X153357481Y-77093456D01*
X153348178Y-77070998D01*
X153298360Y-76906769D01*
X153293621Y-76882941D01*
X153276200Y-76706061D01*
X153275603Y-76693907D01*
X153275603Y-75450000D01*
X153064499Y-75450000D01*
X152997460Y-75430315D01*
X152951705Y-75377511D01*
X152940499Y-75326000D01*
X152940499Y-75133129D01*
X152940498Y-75133123D01*
X152934091Y-75073516D01*
X152883797Y-74938671D01*
X152883793Y-74938664D01*
X152797547Y-74823455D01*
X152797544Y-74823452D01*
X152682335Y-74737206D01*
X152682328Y-74737202D01*
X152547482Y-74686908D01*
X152547483Y-74686908D01*
X152487883Y-74680501D01*
X152487881Y-74680500D01*
X152487873Y-74680500D01*
X152487865Y-74680500D01*
X149210693Y-74680500D01*
X149207944Y-74679693D01*
X149205162Y-74680377D01*
X149174617Y-74669906D01*
X149143654Y-74660815D01*
X149141778Y-74658650D01*
X149139067Y-74657721D01*
X149119027Y-74632394D01*
X149097899Y-74608011D01*
X149096950Y-74604493D01*
X149095713Y-74602929D01*
X149087290Y-74568655D01*
X149076200Y-74456062D01*
X149075603Y-74443907D01*
X149075603Y-74345857D01*
X149083420Y-74302526D01*
X149124091Y-74193483D01*
X149130500Y-74133873D01*
X149130499Y-72666128D01*
X149124091Y-72606517D01*
X149075603Y-72476513D01*
X149075603Y-72390000D01*
X149004487Y-72379084D01*
X148987546Y-72356454D01*
X148978844Y-72349940D01*
X148978844Y-72349939D01*
X148928185Y-72312016D01*
X148872331Y-72270204D01*
X148872329Y-72270203D01*
X148872328Y-72270202D01*
X148737482Y-72219908D01*
X148737483Y-72219908D01*
X148677883Y-72213501D01*
X148677881Y-72213500D01*
X148677873Y-72213500D01*
X148677865Y-72213500D01*
X147935097Y-72213500D01*
X147916286Y-72212065D01*
X147573512Y-72159456D01*
X147562414Y-72157230D01*
X147401944Y-72117347D01*
X147380586Y-72109914D01*
X147235201Y-72043898D01*
X147215554Y-72032712D01*
X147079911Y-71938138D01*
X147070931Y-71931247D01*
X145439270Y-70556423D01*
X145429379Y-70547116D01*
X145292629Y-70403535D01*
X145276183Y-70381967D01*
X145177448Y-70217946D01*
X145166087Y-70193324D01*
X145105369Y-70011742D01*
X145099637Y-69985249D01*
X145079146Y-69788021D01*
X145078485Y-69774458D01*
X145119542Y-63000007D01*
X145120208Y-62987903D01*
X145138563Y-62811801D01*
X145143410Y-62788095D01*
X145193842Y-62624740D01*
X145203209Y-62602417D01*
X145284424Y-62451987D01*
X145297948Y-62431910D01*
X145406854Y-62300126D01*
X145424025Y-62283061D01*
X145556457Y-62174963D01*
X145576613Y-62161560D01*
X145727543Y-62081253D01*
X145749921Y-62072024D01*
X145913569Y-62022584D01*
X145937312Y-62017879D01*
X146113527Y-62000592D01*
X146125634Y-62000000D01*
X149058828Y-62000000D01*
X149070875Y-62000586D01*
G37*
%TD.AperFunction*%
%TD*%
%TA.AperFunction,Conductor*%
%TO.N,DCBUS*%
G36*
X130190569Y-85836377D02*
G01*
X130384737Y-85857415D01*
X130410828Y-85863137D01*
X130595970Y-85925266D01*
X130608398Y-85930196D01*
X132185844Y-86656885D01*
X136491247Y-88640273D01*
X136501684Y-88645696D01*
X136650261Y-88732077D01*
X136669371Y-88745764D01*
X136794522Y-88854751D01*
X136810705Y-88871798D01*
X136913041Y-89002444D01*
X136925717Y-89022240D01*
X137001557Y-89169846D01*
X137010270Y-89191678D01*
X137056893Y-89350948D01*
X137061329Y-89374032D01*
X137077620Y-89545131D01*
X137078178Y-89556884D01*
X137078178Y-93427021D01*
X137077412Y-93440784D01*
X137055078Y-93640763D01*
X137049006Y-93667608D01*
X136985383Y-93851171D01*
X136973538Y-93876018D01*
X136870986Y-94041025D01*
X136853952Y-94062645D01*
X136712652Y-94205905D01*
X136702443Y-94215165D01*
X128777448Y-100637888D01*
X128766264Y-100645964D01*
X128596696Y-100754597D01*
X128571995Y-100766788D01*
X128389164Y-100832939D01*
X128362379Y-100839376D01*
X128162559Y-100864393D01*
X128148797Y-100865343D01*
X126297563Y-100889866D01*
X126285301Y-100889421D01*
X126106741Y-100874072D01*
X126082646Y-100869569D01*
X125957042Y-100832939D01*
X125916516Y-100821120D01*
X125893778Y-100811965D01*
X125740424Y-100731783D01*
X125719931Y-100718334D01*
X125585350Y-100609554D01*
X125567902Y-100592336D01*
X125457347Y-100459206D01*
X125443627Y-100438892D01*
X125361421Y-100286613D01*
X125351966Y-100263998D01*
X125301321Y-100098527D01*
X125296500Y-100074498D01*
X125278785Y-99896147D01*
X125278178Y-99883891D01*
X125278178Y-97800848D01*
X125278780Y-97788649D01*
X125296330Y-97611123D01*
X125301103Y-97587216D01*
X125351289Y-97422426D01*
X125360654Y-97399909D01*
X125442130Y-97248148D01*
X125455728Y-97227894D01*
X125510535Y-97161457D01*
X125565346Y-97095017D01*
X125582638Y-97077826D01*
X125716152Y-96968986D01*
X125736471Y-96955515D01*
X125888727Y-96874918D01*
X125911293Y-96865688D01*
X126076365Y-96816469D01*
X126100305Y-96811834D01*
X126277955Y-96795320D01*
X126290125Y-96794791D01*
X127140678Y-96799765D01*
X129003178Y-96810657D01*
X129003178Y-89810657D01*
X126265199Y-89793858D01*
X126253243Y-89793206D01*
X126079275Y-89775270D01*
X126055828Y-89770533D01*
X125894293Y-89721281D01*
X125872197Y-89712132D01*
X125723122Y-89632778D01*
X125703191Y-89619556D01*
X125572125Y-89513053D01*
X125555103Y-89496248D01*
X125446930Y-89366567D01*
X125433451Y-89346806D01*
X125352189Y-89198766D01*
X125342756Y-89176789D01*
X125291431Y-89015895D01*
X125286393Y-88992511D01*
X125266221Y-88818777D01*
X125265416Y-88806830D01*
X125264256Y-88745764D01*
X125262300Y-88642734D01*
X125228467Y-86860804D01*
X125228845Y-86848496D01*
X125243286Y-86669207D01*
X125247682Y-86645007D01*
X125295532Y-86478041D01*
X125304616Y-86455196D01*
X125384487Y-86300957D01*
X125397896Y-86280363D01*
X125506648Y-86144925D01*
X125523866Y-86127377D01*
X125657214Y-86016076D01*
X125677554Y-86002275D01*
X125830241Y-85919493D01*
X125852912Y-85909976D01*
X126018941Y-85858965D01*
X126043053Y-85854110D01*
X126212865Y-85837182D01*
X126222030Y-85836269D01*
X126234330Y-85835657D01*
X130177213Y-85835657D01*
X130190569Y-85836377D01*
G37*
%TD.AperFunction*%
%TD*%
%TA.AperFunction,Conductor*%
%TO.N,GND*%
G36*
X127316428Y-80164685D02*
G01*
X127362183Y-80217489D01*
X127373379Y-80270600D01*
X127326579Y-83897600D01*
X127306031Y-83964380D01*
X127252641Y-84009450D01*
X127202589Y-84020000D01*
X124150611Y-84020000D01*
X124083572Y-84000315D01*
X124037817Y-83947511D01*
X124026621Y-83894400D01*
X124073421Y-80267400D01*
X124093969Y-80200620D01*
X124147359Y-80155550D01*
X124197411Y-80145000D01*
X127249389Y-80145000D01*
X127316428Y-80164685D01*
G37*
%TD.AperFunction*%
%TD*%
%TA.AperFunction,Conductor*%
%TO.N,Vshunt_1+*%
G36*
X132068695Y-77902852D02*
G01*
X132068720Y-77902731D01*
X132070135Y-77903012D01*
X132070149Y-77903014D01*
X132070195Y-77903024D01*
X132070209Y-77903026D01*
X132070214Y-77903028D01*
X132094055Y-77907770D01*
X132143119Y-77915048D01*
X132319993Y-77932469D01*
X132344742Y-77934294D01*
X132356896Y-77934891D01*
X132381696Y-77935500D01*
X134616101Y-77935500D01*
X134683140Y-77955185D01*
X134728895Y-78007989D01*
X134738839Y-78077147D01*
X134732282Y-78102835D01*
X134730908Y-78106516D01*
X134724501Y-78166116D01*
X134724500Y-78166135D01*
X134724500Y-79633870D01*
X134724501Y-79633876D01*
X134730908Y-79693481D01*
X134742785Y-79725323D01*
X134750603Y-79768657D01*
X134750603Y-80748799D01*
X134741958Y-80778236D01*
X134735435Y-80808227D01*
X134731679Y-80813243D01*
X134730918Y-80815838D01*
X134714286Y-80836478D01*
X134682478Y-80868285D01*
X134650818Y-80899946D01*
X134623336Y-80920671D01*
X133400000Y-81600000D01*
X133400000Y-82118644D01*
X133399500Y-82121158D01*
X133399500Y-82278842D01*
X133400000Y-82281355D01*
X133400000Y-84007031D01*
X133380315Y-84074070D01*
X133327511Y-84119825D01*
X133277036Y-84131027D01*
X132203583Y-84139996D01*
X132202547Y-84140000D01*
X130934147Y-84140000D01*
X130867108Y-84120315D01*
X130821353Y-84067511D01*
X130810530Y-84006266D01*
X130998099Y-81624140D01*
X131010843Y-81578348D01*
X131185603Y-81229390D01*
X131185603Y-78024000D01*
X131205288Y-77956961D01*
X131258092Y-77911206D01*
X131309603Y-77900000D01*
X132042978Y-77900000D01*
X132068695Y-77902852D01*
G37*
%TD.AperFunction*%
%TD*%
M02*
