%TF.GenerationSoftware,KiCad,Pcbnew,9.0.6*%
%TF.CreationDate,2026-02-05T15:53:57-08:00*%
%TF.ProjectId,BHL S1 copied,42484c20-5331-4206-936f-706965642e6b,rev?*%
%TF.SameCoordinates,Original*%
%TF.FileFunction,Soldermask,Top*%
%TF.FilePolarity,Negative*%
%FSLAX46Y46*%
G04 Gerber Fmt 4.6, Leading zero omitted, Abs format (unit mm)*
G04 Created by KiCad (PCBNEW 9.0.6) date 2026-02-05 15:53:57*
%MOMM*%
%LPD*%
G01*
G04 APERTURE LIST*
G04 Aperture macros list*
%AMRoundRect*
0 Rectangle with rounded corners*
0 $1 Rounding radius*
0 $2 $3 $4 $5 $6 $7 $8 $9 X,Y pos of 4 corners*
0 Add a 4 corners polygon primitive as box body*
4,1,4,$2,$3,$4,$5,$6,$7,$8,$9,$2,$3,0*
0 Add four circle primitives for the rounded corners*
1,1,$1+$1,$2,$3*
1,1,$1+$1,$4,$5*
1,1,$1+$1,$6,$7*
1,1,$1+$1,$8,$9*
0 Add four rect primitives between the rounded corners*
20,1,$1+$1,$2,$3,$4,$5,0*
20,1,$1+$1,$4,$5,$6,$7,0*
20,1,$1+$1,$6,$7,$8,$9,0*
20,1,$1+$1,$8,$9,$2,$3,0*%
%AMRotRect*
0 Rectangle, with rotation*
0 The origin of the aperture is its center*
0 $1 length*
0 $2 width*
0 $3 Rotation angle, in degrees counterclockwise*
0 Add horizontal line*
21,1,$1,$2,0,0,$3*%
G04 Aperture macros list end*
%ADD10C,0.010000*%
%ADD11RoundRect,0.155000X0.259862X-0.040659X-0.040659X0.259862X-0.259862X0.040659X0.040659X-0.259862X0*%
%ADD12RoundRect,0.250000X-0.337500X-0.475000X0.337500X-0.475000X0.337500X0.475000X-0.337500X0.475000X0*%
%ADD13RoundRect,0.160000X-0.197500X-0.160000X0.197500X-0.160000X0.197500X0.160000X-0.197500X0.160000X0*%
%ADD14RoundRect,0.155000X0.212500X0.155000X-0.212500X0.155000X-0.212500X-0.155000X0.212500X-0.155000X0*%
%ADD15RoundRect,0.160000X-0.026517X-0.252791X0.252791X0.026517X0.026517X0.252791X-0.252791X-0.026517X0*%
%ADD16RoundRect,0.155000X0.252698X0.072973X-0.146672X0.218332X-0.252698X-0.072973X0.146672X-0.218332X0*%
%ADD17RoundRect,0.249999X0.450001X1.425001X-0.450001X1.425001X-0.450001X-1.425001X0.450001X-1.425001X0*%
%ADD18R,4.100000X2.000000*%
%ADD19RoundRect,0.160000X0.160000X-0.197500X0.160000X0.197500X-0.160000X0.197500X-0.160000X-0.197500X0*%
%ADD20RoundRect,0.150000X-0.035355X0.247487X-0.247487X0.035355X0.035355X-0.247487X0.247487X-0.035355X0*%
%ADD21R,1.700000X1.700000*%
%ADD22C,1.700000*%
%ADD23RotRect,2.450000X2.550000X30.000000*%
%ADD24R,1.400000X0.600000*%
%ADD25RoundRect,0.150000X-0.512500X-0.150000X0.512500X-0.150000X0.512500X0.150000X-0.512500X0.150000X0*%
%ADD26R,1.250000X0.600000*%
%ADD27RoundRect,0.155000X-0.155000X0.212500X-0.155000X-0.212500X0.155000X-0.212500X0.155000X0.212500X0*%
%ADD28RoundRect,0.160000X0.252791X-0.026517X-0.026517X0.252791X-0.252791X0.026517X0.026517X-0.252791X0*%
%ADD29R,0.710000X1.372000*%
%ADD30R,0.710000X0.590000*%
%ADD31R,4.520000X3.850000*%
%ADD32RoundRect,0.155000X-0.259862X0.040659X0.040659X-0.259862X0.259862X-0.040659X-0.040659X0.259862X0*%
%ADD33RoundRect,0.075000X0.212500X0.075000X-0.212500X0.075000X-0.212500X-0.075000X0.212500X-0.075000X0*%
%ADD34RoundRect,0.160000X0.222500X0.160000X-0.222500X0.160000X-0.222500X-0.160000X0.222500X-0.160000X0*%
%ADD35RotRect,0.300000X0.800000X225.000000*%
%ADD36RotRect,0.300000X0.800000X135.000000*%
%ADD37RotRect,2.800000X2.800000X135.000000*%
%ADD38RoundRect,0.150000X-0.150000X-0.200000X0.150000X-0.200000X0.150000X0.200000X-0.150000X0.200000X0*%
%ADD39RoundRect,0.160000X0.197500X0.160000X-0.197500X0.160000X-0.197500X-0.160000X0.197500X-0.160000X0*%
%ADD40RoundRect,0.075000X-0.212500X-0.075000X0.212500X-0.075000X0.212500X0.075000X-0.212500X0.075000X0*%
%ADD41RoundRect,0.155000X0.155000X-0.212500X0.155000X0.212500X-0.155000X0.212500X-0.155000X-0.212500X0*%
%ADD42C,3.000000*%
%ADD43R,2.150000X2.150000*%
%ADD44C,2.150000*%
%ADD45RoundRect,0.155000X-0.212500X-0.155000X0.212500X-0.155000X0.212500X0.155000X-0.212500X0.155000X0*%
%ADD46RoundRect,0.160000X0.026517X0.252791X-0.252791X-0.026517X-0.026517X-0.252791X0.252791X0.026517X0*%
%ADD47RoundRect,0.249999X-0.450001X-1.425001X0.450001X-1.425001X0.450001X1.425001X-0.450001X1.425001X0*%
%ADD48RoundRect,0.250000X0.475000X-0.337500X0.475000X0.337500X-0.475000X0.337500X-0.475000X-0.337500X0*%
%ADD49RoundRect,0.150000X-0.200000X0.150000X-0.200000X-0.150000X0.200000X-0.150000X0.200000X0.150000X0*%
%ADD50RoundRect,0.075000X0.075000X-0.212500X0.075000X0.212500X-0.075000X0.212500X-0.075000X-0.212500X0*%
%ADD51RoundRect,0.160000X-0.160000X0.197500X-0.160000X-0.197500X0.160000X-0.197500X0.160000X0.197500X0*%
%ADD52RotRect,0.889000X1.397000X338.000000*%
%ADD53RotRect,0.650000X1.528000X225.000000*%
%ADD54R,2.000000X1.300000*%
%ADD55R,2.000000X2.000000*%
%ADD56RoundRect,0.237500X-0.044194X-0.380070X0.380070X0.044194X0.044194X0.380070X-0.380070X-0.044194X0*%
%ADD57RoundRect,0.155000X-0.040659X-0.259862X0.259862X0.040659X0.040659X0.259862X-0.259862X-0.040659X0*%
%ADD58RoundRect,0.237500X0.300000X0.237500X-0.300000X0.237500X-0.300000X-0.237500X0.300000X-0.237500X0*%
%ADD59RoundRect,0.450000X-1.050000X-1.550000X1.050000X-1.550000X1.050000X1.550000X-1.050000X1.550000X0*%
%ADD60RoundRect,0.150000X0.150000X0.200000X-0.150000X0.200000X-0.150000X-0.200000X0.150000X-0.200000X0*%
%ADD61RotRect,0.400000X1.900000X225.000000*%
%ADD62RoundRect,0.237500X-0.237500X0.250000X-0.237500X-0.250000X0.237500X-0.250000X0.237500X0.250000X0*%
G04 APERTURE END LIST*
D10*
%TO.C,U5*%
X158477374Y-104665772D02*
X157798551Y-105344594D01*
X157536922Y-105082965D01*
X158215744Y-104404142D01*
X158477374Y-104665772D01*
G36*
X158477374Y-104665772D02*
G01*
X157798551Y-105344594D01*
X157536922Y-105082965D01*
X158215744Y-104404142D01*
X158477374Y-104665772D01*
G37*
X158830927Y-105019325D02*
X158152104Y-105698148D01*
X157890475Y-105436518D01*
X158569297Y-104757696D01*
X158830927Y-105019325D01*
G36*
X158830927Y-105019325D02*
G01*
X158152104Y-105698148D01*
X157890475Y-105436518D01*
X158569297Y-104757696D01*
X158830927Y-105019325D01*
G37*
X158477374Y-104114228D02*
X158215744Y-104375858D01*
X157536922Y-103697035D01*
X157798551Y-103435406D01*
X158477374Y-104114228D01*
G36*
X158477374Y-104114228D02*
G01*
X158215744Y-104375858D01*
X157536922Y-103697035D01*
X157798551Y-103435406D01*
X158477374Y-104114228D01*
G37*
X159184480Y-105372878D02*
X158505658Y-106051701D01*
X158244028Y-105790071D01*
X158922851Y-105111249D01*
X159184480Y-105372878D01*
G36*
X159184480Y-105372878D02*
G01*
X158505658Y-106051701D01*
X158244028Y-105790071D01*
X158922851Y-105111249D01*
X159184480Y-105372878D01*
G37*
X158830927Y-103760675D02*
X158569297Y-104022304D01*
X157890475Y-103343482D01*
X158152104Y-103081852D01*
X158830927Y-103760675D01*
G36*
X158830927Y-103760675D02*
G01*
X158569297Y-104022304D01*
X157890475Y-103343482D01*
X158152104Y-103081852D01*
X158830927Y-103760675D01*
G37*
X159538034Y-105726432D02*
X158859211Y-106405254D01*
X158597582Y-106143625D01*
X159276404Y-105464802D01*
X159538034Y-105726432D01*
G36*
X159538034Y-105726432D02*
G01*
X158859211Y-106405254D01*
X158597582Y-106143625D01*
X159276404Y-105464802D01*
X159538034Y-105726432D01*
G37*
X159184480Y-103407122D02*
X158922851Y-103668751D01*
X158244028Y-102989929D01*
X158505658Y-102728299D01*
X159184480Y-103407122D01*
G36*
X159184480Y-103407122D02*
G01*
X158922851Y-103668751D01*
X158244028Y-102989929D01*
X158505658Y-102728299D01*
X159184480Y-103407122D01*
G37*
X159891587Y-106079985D02*
X159212765Y-106758808D01*
X158951135Y-106497178D01*
X159629958Y-105818356D01*
X159891587Y-106079985D01*
G36*
X159891587Y-106079985D02*
G01*
X159212765Y-106758808D01*
X158951135Y-106497178D01*
X159629958Y-105818356D01*
X159891587Y-106079985D01*
G37*
X159538034Y-103053568D02*
X159276404Y-103315198D01*
X158597582Y-102636375D01*
X158859211Y-102374746D01*
X159538034Y-103053568D01*
G36*
X159538034Y-103053568D02*
G01*
X159276404Y-103315198D01*
X158597582Y-102636375D01*
X158859211Y-102374746D01*
X159538034Y-103053568D01*
G37*
X160245141Y-106433539D02*
X159566318Y-107112361D01*
X159304689Y-106850732D01*
X159983511Y-106171909D01*
X160245141Y-106433539D01*
G36*
X160245141Y-106433539D02*
G01*
X159566318Y-107112361D01*
X159304689Y-106850732D01*
X159983511Y-106171909D01*
X160245141Y-106433539D01*
G37*
X159891587Y-102700015D02*
X159629958Y-102961644D01*
X158951135Y-102282822D01*
X159212765Y-102021192D01*
X159891587Y-102700015D01*
G36*
X159891587Y-102700015D02*
G01*
X159629958Y-102961644D01*
X158951135Y-102282822D01*
X159212765Y-102021192D01*
X159891587Y-102700015D01*
G37*
X160598694Y-106787092D02*
X159919871Y-107465914D01*
X159658242Y-107204285D01*
X160337064Y-106525462D01*
X160598694Y-106787092D01*
G36*
X160598694Y-106787092D02*
G01*
X159919871Y-107465914D01*
X159658242Y-107204285D01*
X160337064Y-106525462D01*
X160598694Y-106787092D01*
G37*
X160245141Y-102346461D02*
X159983511Y-102608091D01*
X159304689Y-101929268D01*
X159566318Y-101667639D01*
X160245141Y-102346461D01*
G36*
X160245141Y-102346461D02*
G01*
X159983511Y-102608091D01*
X159304689Y-101929268D01*
X159566318Y-101667639D01*
X160245141Y-102346461D01*
G37*
X160952247Y-107140645D02*
X160273425Y-107819468D01*
X160011795Y-107557838D01*
X160690618Y-106879016D01*
X160952247Y-107140645D01*
G36*
X160952247Y-107140645D02*
G01*
X160273425Y-107819468D01*
X160011795Y-107557838D01*
X160690618Y-106879016D01*
X160952247Y-107140645D01*
G37*
X160598694Y-101992908D02*
X160337064Y-102254538D01*
X159658242Y-101575715D01*
X159919871Y-101314086D01*
X160598694Y-101992908D01*
G36*
X160598694Y-101992908D02*
G01*
X160337064Y-102254538D01*
X159658242Y-101575715D01*
X159919871Y-101314086D01*
X160598694Y-101992908D01*
G37*
X161305801Y-107494199D02*
X160626978Y-108173021D01*
X160365349Y-107911392D01*
X161044171Y-107232569D01*
X161305801Y-107494199D01*
G36*
X161305801Y-107494199D02*
G01*
X160626978Y-108173021D01*
X160365349Y-107911392D01*
X161044171Y-107232569D01*
X161305801Y-107494199D01*
G37*
X160952247Y-101639355D02*
X160690618Y-101900984D01*
X160011795Y-101222162D01*
X160273425Y-100960532D01*
X160952247Y-101639355D01*
G36*
X160952247Y-101639355D02*
G01*
X160690618Y-101900984D01*
X160011795Y-101222162D01*
X160273425Y-100960532D01*
X160952247Y-101639355D01*
G37*
X161659354Y-107847752D02*
X160980532Y-108526575D01*
X160718902Y-108264945D01*
X161397725Y-107586123D01*
X161659354Y-107847752D01*
G36*
X161659354Y-107847752D02*
G01*
X160980532Y-108526575D01*
X160718902Y-108264945D01*
X161397725Y-107586123D01*
X161659354Y-107847752D01*
G37*
X161305801Y-101285801D02*
X161044171Y-101547431D01*
X160365349Y-100868608D01*
X160626978Y-100606979D01*
X161305801Y-101285801D01*
G36*
X161305801Y-101285801D02*
G01*
X161044171Y-101547431D01*
X160365349Y-100868608D01*
X160626978Y-100606979D01*
X161305801Y-101285801D01*
G37*
X162012907Y-108201306D02*
X161334085Y-108880128D01*
X161072455Y-108618499D01*
X161751278Y-107939676D01*
X162012907Y-108201306D01*
G36*
X162012907Y-108201306D02*
G01*
X161334085Y-108880128D01*
X161072455Y-108618499D01*
X161751278Y-107939676D01*
X162012907Y-108201306D01*
G37*
X161659354Y-100932248D02*
X161397725Y-101193877D01*
X160718902Y-100515055D01*
X160980532Y-100253425D01*
X161659354Y-100932248D01*
G36*
X161659354Y-100932248D02*
G01*
X161397725Y-101193877D01*
X160718902Y-100515055D01*
X160980532Y-100253425D01*
X161659354Y-100932248D01*
G37*
X162366461Y-108554859D02*
X161687638Y-109233681D01*
X161426009Y-108972052D01*
X162104831Y-108293229D01*
X162366461Y-108554859D01*
G36*
X162366461Y-108554859D02*
G01*
X161687638Y-109233681D01*
X161426009Y-108972052D01*
X162104831Y-108293229D01*
X162366461Y-108554859D01*
G37*
X162012907Y-100578694D02*
X161751278Y-100840324D01*
X161072455Y-100161501D01*
X161334085Y-99899872D01*
X162012907Y-100578694D01*
G36*
X162012907Y-100578694D02*
G01*
X161751278Y-100840324D01*
X161072455Y-100161501D01*
X161334085Y-99899872D01*
X162012907Y-100578694D01*
G37*
X162366461Y-100225141D02*
X162104831Y-100486771D01*
X161426009Y-99807948D01*
X161687638Y-99546319D01*
X162366461Y-100225141D01*
G36*
X162366461Y-100225141D02*
G01*
X162104831Y-100486771D01*
X161426009Y-99807948D01*
X161687638Y-99546319D01*
X162366461Y-100225141D01*
G37*
X166411112Y-104390000D02*
X162380603Y-108420509D01*
X158350094Y-104390000D01*
X162380603Y-100359491D01*
X166411112Y-104390000D01*
G36*
X166411112Y-104390000D02*
G01*
X162380603Y-108420509D01*
X158350094Y-104390000D01*
X162380603Y-100359491D01*
X166411112Y-104390000D01*
G37*
X163335197Y-99807948D02*
X162656375Y-100486771D01*
X162394745Y-100225141D01*
X163073568Y-99546319D01*
X163335197Y-99807948D01*
G36*
X163335197Y-99807948D02*
G01*
X162656375Y-100486771D01*
X162394745Y-100225141D01*
X163073568Y-99546319D01*
X163335197Y-99807948D01*
G37*
X163688751Y-100161501D02*
X163009928Y-100840324D01*
X162748299Y-100578694D01*
X163427121Y-99899872D01*
X163688751Y-100161501D01*
G36*
X163688751Y-100161501D02*
G01*
X163009928Y-100840324D01*
X162748299Y-100578694D01*
X163427121Y-99899872D01*
X163688751Y-100161501D01*
G37*
X163335197Y-108972052D02*
X163073568Y-109233681D01*
X162394745Y-108554859D01*
X162656375Y-108293229D01*
X163335197Y-108972052D01*
G36*
X163335197Y-108972052D02*
G01*
X163073568Y-109233681D01*
X162394745Y-108554859D01*
X162656375Y-108293229D01*
X163335197Y-108972052D01*
G37*
X164042304Y-100515055D02*
X163363481Y-101193877D01*
X163101852Y-100932248D01*
X163780674Y-100253425D01*
X164042304Y-100515055D01*
G36*
X164042304Y-100515055D02*
G01*
X163363481Y-101193877D01*
X163101852Y-100932248D01*
X163780674Y-100253425D01*
X164042304Y-100515055D01*
G37*
X163688751Y-108618499D02*
X163427121Y-108880128D01*
X162748299Y-108201306D01*
X163009928Y-107939676D01*
X163688751Y-108618499D01*
G36*
X163688751Y-108618499D02*
G01*
X163427121Y-108880128D01*
X162748299Y-108201306D01*
X163009928Y-107939676D01*
X163688751Y-108618499D01*
G37*
X164395857Y-100868608D02*
X163717035Y-101547431D01*
X163455405Y-101285801D01*
X164134228Y-100606979D01*
X164395857Y-100868608D01*
G36*
X164395857Y-100868608D02*
G01*
X163717035Y-101547431D01*
X163455405Y-101285801D01*
X164134228Y-100606979D01*
X164395857Y-100868608D01*
G37*
X164042304Y-108264945D02*
X163780674Y-108526575D01*
X163101852Y-107847752D01*
X163363481Y-107586123D01*
X164042304Y-108264945D01*
G36*
X164042304Y-108264945D02*
G01*
X163780674Y-108526575D01*
X163101852Y-107847752D01*
X163363481Y-107586123D01*
X164042304Y-108264945D01*
G37*
X164749411Y-101222162D02*
X164070588Y-101900984D01*
X163808959Y-101639355D01*
X164487781Y-100960532D01*
X164749411Y-101222162D01*
G36*
X164749411Y-101222162D02*
G01*
X164070588Y-101900984D01*
X163808959Y-101639355D01*
X164487781Y-100960532D01*
X164749411Y-101222162D01*
G37*
X164395857Y-107911392D02*
X164134228Y-108173021D01*
X163455405Y-107494199D01*
X163717035Y-107232569D01*
X164395857Y-107911392D01*
G36*
X164395857Y-107911392D02*
G01*
X164134228Y-108173021D01*
X163455405Y-107494199D01*
X163717035Y-107232569D01*
X164395857Y-107911392D01*
G37*
X165102964Y-101575715D02*
X164424142Y-102254538D01*
X164162512Y-101992908D01*
X164841335Y-101314086D01*
X165102964Y-101575715D01*
G36*
X165102964Y-101575715D02*
G01*
X164424142Y-102254538D01*
X164162512Y-101992908D01*
X164841335Y-101314086D01*
X165102964Y-101575715D01*
G37*
X164749411Y-107557838D02*
X164487781Y-107819468D01*
X163808959Y-107140645D01*
X164070588Y-106879016D01*
X164749411Y-107557838D01*
G36*
X164749411Y-107557838D02*
G01*
X164487781Y-107819468D01*
X163808959Y-107140645D01*
X164070588Y-106879016D01*
X164749411Y-107557838D01*
G37*
X165456517Y-101929268D02*
X164777695Y-102608091D01*
X164516065Y-102346461D01*
X165194888Y-101667639D01*
X165456517Y-101929268D01*
G36*
X165456517Y-101929268D02*
G01*
X164777695Y-102608091D01*
X164516065Y-102346461D01*
X165194888Y-101667639D01*
X165456517Y-101929268D01*
G37*
X165102964Y-107204285D02*
X164841335Y-107465914D01*
X164162512Y-106787092D01*
X164424142Y-106525462D01*
X165102964Y-107204285D01*
G36*
X165102964Y-107204285D02*
G01*
X164841335Y-107465914D01*
X164162512Y-106787092D01*
X164424142Y-106525462D01*
X165102964Y-107204285D01*
G37*
X165810071Y-102282822D02*
X165131248Y-102961644D01*
X164869619Y-102700015D01*
X165548441Y-102021192D01*
X165810071Y-102282822D01*
G36*
X165810071Y-102282822D02*
G01*
X165131248Y-102961644D01*
X164869619Y-102700015D01*
X165548441Y-102021192D01*
X165810071Y-102282822D01*
G37*
X165456517Y-106850732D02*
X165194888Y-107112361D01*
X164516065Y-106433539D01*
X164777695Y-106171909D01*
X165456517Y-106850732D01*
G36*
X165456517Y-106850732D02*
G01*
X165194888Y-107112361D01*
X164516065Y-106433539D01*
X164777695Y-106171909D01*
X165456517Y-106850732D01*
G37*
X166163624Y-102636375D02*
X165484802Y-103315198D01*
X165223172Y-103053568D01*
X165901995Y-102374746D01*
X166163624Y-102636375D01*
G36*
X166163624Y-102636375D02*
G01*
X165484802Y-103315198D01*
X165223172Y-103053568D01*
X165901995Y-102374746D01*
X166163624Y-102636375D01*
G37*
X165810071Y-106497178D02*
X165548441Y-106758808D01*
X164869619Y-106079985D01*
X165131248Y-105818356D01*
X165810071Y-106497178D01*
G36*
X165810071Y-106497178D02*
G01*
X165548441Y-106758808D01*
X164869619Y-106079985D01*
X165131248Y-105818356D01*
X165810071Y-106497178D01*
G37*
X166517178Y-102989929D02*
X165838355Y-103668751D01*
X165576726Y-103407122D01*
X166255548Y-102728299D01*
X166517178Y-102989929D01*
G36*
X166517178Y-102989929D02*
G01*
X165838355Y-103668751D01*
X165576726Y-103407122D01*
X166255548Y-102728299D01*
X166517178Y-102989929D01*
G37*
X166163624Y-106143625D02*
X165901995Y-106405254D01*
X165223172Y-105726432D01*
X165484802Y-105464802D01*
X166163624Y-106143625D01*
G36*
X166163624Y-106143625D02*
G01*
X165901995Y-106405254D01*
X165223172Y-105726432D01*
X165484802Y-105464802D01*
X166163624Y-106143625D01*
G37*
X166870731Y-103343482D02*
X166191909Y-104022304D01*
X165930279Y-103760675D01*
X166609102Y-103081852D01*
X166870731Y-103343482D01*
G36*
X166870731Y-103343482D02*
G01*
X166191909Y-104022304D01*
X165930279Y-103760675D01*
X166609102Y-103081852D01*
X166870731Y-103343482D01*
G37*
X166517178Y-105790071D02*
X166255548Y-106051701D01*
X165576726Y-105372878D01*
X165838355Y-105111249D01*
X166517178Y-105790071D01*
G36*
X166517178Y-105790071D02*
G01*
X166255548Y-106051701D01*
X165576726Y-105372878D01*
X165838355Y-105111249D01*
X166517178Y-105790071D01*
G37*
X167224284Y-103697035D02*
X166545462Y-104375858D01*
X166283832Y-104114228D01*
X166962655Y-103435406D01*
X167224284Y-103697035D01*
G36*
X167224284Y-103697035D02*
G01*
X166545462Y-104375858D01*
X166283832Y-104114228D01*
X166962655Y-103435406D01*
X167224284Y-103697035D01*
G37*
X166870731Y-105436518D02*
X166609102Y-105698148D01*
X165930279Y-105019325D01*
X166191909Y-104757696D01*
X166870731Y-105436518D01*
G36*
X166870731Y-105436518D02*
G01*
X166609102Y-105698148D01*
X165930279Y-105019325D01*
X166191909Y-104757696D01*
X166870731Y-105436518D01*
G37*
X167224284Y-105082965D02*
X166962655Y-105344594D01*
X166283832Y-104665772D01*
X166545462Y-104404142D01*
X167224284Y-105082965D01*
G36*
X167224284Y-105082965D02*
G01*
X166962655Y-105344594D01*
X166283832Y-104665772D01*
X166545462Y-104404142D01*
X167224284Y-105082965D01*
G37*
%TD*%
D11*
%TO.C,C27*%
X155876886Y-102851283D03*
X155074320Y-102048717D03*
%TD*%
D12*
%TO.C,C23*%
X132038103Y-101650000D03*
X134113103Y-101650000D03*
%TD*%
D13*
%TO.C,R21*%
X138002500Y-86400000D03*
X139197500Y-86400000D03*
%TD*%
D14*
%TO.C,C35*%
X169543103Y-114100000D03*
X168408103Y-114100000D03*
%TD*%
D15*
%TO.C,R38*%
X164653107Y-109072496D03*
X165498099Y-108227504D03*
%TD*%
D16*
%TO.C,C11*%
X133408879Y-120644095D03*
X132342327Y-120255905D03*
%TD*%
D17*
%TO.C,R20*%
X132150000Y-82070000D03*
X126050000Y-82070000D03*
%TD*%
D18*
%TO.C,C22*%
X134450000Y-92800000D03*
X143150000Y-92800000D03*
%TD*%
D19*
%TO.C,R12*%
X172475603Y-94645000D03*
X172475603Y-93450000D03*
%TD*%
D20*
%TO.C,D5*%
X157630628Y-88094975D03*
X158620578Y-87105025D03*
%TD*%
D21*
%TO.C,J2*%
X145665603Y-124850000D03*
D22*
X143125603Y-124850000D03*
X140585603Y-124850000D03*
%TD*%
D14*
%TO.C,C18*%
X165845603Y-80460000D03*
X164710603Y-80460000D03*
%TD*%
D23*
%TO.C,L1*%
X155113648Y-121325000D03*
X158837558Y-119175000D03*
%TD*%
D24*
%TO.C,ME3116*%
X146125603Y-103200000D03*
X146125603Y-102250000D03*
X146125603Y-101300000D03*
X143625603Y-101300000D03*
X143625603Y-102250000D03*
X143625603Y-103200000D03*
%TD*%
D25*
%TO.C,U1*%
X149738103Y-112300000D03*
X149738103Y-113250000D03*
X149738103Y-114200000D03*
X152013103Y-114200000D03*
X152013103Y-112300000D03*
%TD*%
D26*
%TO.C,IC2*%
X134325603Y-116295000D03*
X134325603Y-118205000D03*
X136425603Y-117250000D03*
%TD*%
D27*
%TO.C,C1*%
X154475603Y-115482500D03*
X154475603Y-116617500D03*
%TD*%
D12*
%TO.C,C25*%
X132000603Y-105650000D03*
X134075603Y-105650000D03*
%TD*%
D28*
%TO.C,R29*%
X129098099Y-110272496D03*
X128253107Y-109427504D03*
%TD*%
D29*
%TO.C,Q5*%
X153775000Y-79040000D03*
X155045000Y-79040000D03*
X156315000Y-79040000D03*
X157585000Y-79040000D03*
D30*
X157585000Y-73109000D03*
X156315000Y-73109000D03*
X155045000Y-73109000D03*
X153775000Y-73109000D03*
D31*
X155680000Y-75334000D03*
%TD*%
D32*
%TO.C,C34*%
X163274320Y-110848717D03*
X164076886Y-111651283D03*
%TD*%
D13*
%TO.C,R24*%
X148778103Y-86000000D03*
X149973103Y-86000000D03*
%TD*%
D33*
%TO.C,R35*%
X168413103Y-97850000D03*
X167738103Y-97850000D03*
%TD*%
D34*
%TO.C,D1*%
X170048103Y-95850000D03*
X168903103Y-95850000D03*
%TD*%
D35*
%TO.C,IC4*%
X162905933Y-93898097D03*
X163259486Y-93544544D03*
X163613040Y-93190990D03*
X163966593Y-92837437D03*
X164320147Y-92483883D03*
X164673700Y-92130330D03*
D36*
X164673700Y-91069670D03*
X164320147Y-90716117D03*
X163966593Y-90362563D03*
X163613040Y-90009010D03*
X163259486Y-89655456D03*
X162905933Y-89301903D03*
D35*
X161845273Y-89301903D03*
X161491720Y-89655456D03*
X161138166Y-90009010D03*
X160784613Y-90362563D03*
X160431059Y-90716117D03*
X160077506Y-91069670D03*
D36*
X160077506Y-92130330D03*
X160431059Y-92483883D03*
X160784613Y-92837437D03*
X161138166Y-93190990D03*
X161491720Y-93544544D03*
X161845273Y-93898097D03*
D37*
X162375603Y-91600000D03*
%TD*%
D26*
%TO.C,IC1*%
X134325603Y-112495000D03*
X134325603Y-114405000D03*
X136425603Y-113450000D03*
%TD*%
D15*
%TO.C,R13*%
X171753107Y-101972496D03*
X172598099Y-101127504D03*
%TD*%
D13*
%TO.C,R8*%
X146278103Y-99650000D03*
X147473103Y-99650000D03*
%TD*%
D38*
%TO.C,D2*%
X141575603Y-107450000D03*
X140175603Y-107450000D03*
%TD*%
D39*
%TO.C,R31*%
X165873103Y-79450000D03*
X164678103Y-79450000D03*
%TD*%
D27*
%TO.C,C4*%
X146675603Y-115515000D03*
X146675603Y-116650000D03*
%TD*%
D40*
%TO.C,R37*%
X165338103Y-112850000D03*
X166013103Y-112850000D03*
%TD*%
D29*
%TO.C,Q2*%
X141085000Y-73320000D03*
X139815000Y-73320000D03*
X138545000Y-73320000D03*
X137275000Y-73320000D03*
D30*
X137275000Y-79251000D03*
X138545000Y-79251000D03*
X139815000Y-79251000D03*
X141085000Y-79251000D03*
D31*
X139180000Y-77026000D03*
%TD*%
D41*
%TO.C,C12*%
X136675603Y-108417500D03*
X136675603Y-107282500D03*
%TD*%
D42*
%TO.C,J1*%
X114770000Y-89610000D03*
D43*
X122070000Y-91710000D03*
D44*
X122070000Y-87510000D03*
X127570000Y-91710000D03*
X127570000Y-87510000D03*
%TD*%
D45*
%TO.C,C21*%
X162058103Y-87100000D03*
X163193103Y-87100000D03*
%TD*%
D12*
%TO.C,C24*%
X132038103Y-103650000D03*
X134113103Y-103650000D03*
%TD*%
D45*
%TO.C,C31*%
X168708103Y-98650000D03*
X169843103Y-98650000D03*
%TD*%
D46*
%TO.C,R16*%
X171898099Y-100427504D03*
X171053107Y-101272496D03*
%TD*%
D47*
%TO.C,R23*%
X138150000Y-82760000D03*
X144250000Y-82760000D03*
%TD*%
D27*
%TO.C,C33*%
X152725603Y-95682500D03*
X152725603Y-96817500D03*
%TD*%
D29*
%TO.C,Q1*%
X131770000Y-78900000D03*
X133040000Y-78900000D03*
X134310000Y-78900000D03*
X135580000Y-78900000D03*
D30*
X135580000Y-72969000D03*
X134310000Y-72969000D03*
X133040000Y-72969000D03*
X131770000Y-72969000D03*
D31*
X133675000Y-75194000D03*
%TD*%
D33*
%TO.C,R4*%
X167613103Y-95850000D03*
X166938103Y-95850000D03*
%TD*%
D48*
%TO.C,C16*%
X140875603Y-104487500D03*
X140875603Y-102412500D03*
%TD*%
D19*
%TO.C,R14*%
X172875603Y-98647500D03*
X172875603Y-97452500D03*
%TD*%
D29*
%TO.C,Q7*%
X130085603Y-73330000D03*
X128815603Y-73330000D03*
X127545603Y-73330000D03*
X126275603Y-73330000D03*
D30*
X126275603Y-79261000D03*
X127545603Y-79261000D03*
X128815603Y-79261000D03*
X130085603Y-79261000D03*
D31*
X128180603Y-77036000D03*
%TD*%
D19*
%TO.C,R9*%
X173475603Y-94645000D03*
X173475603Y-93450000D03*
%TD*%
D49*
%TO.C,D4*%
X155625603Y-92550000D03*
X155625603Y-91150000D03*
%TD*%
D25*
%TO.C,U2*%
X142600603Y-112750000D03*
X142600603Y-113700000D03*
X142600603Y-114650000D03*
X144875603Y-114650000D03*
X144875603Y-112750000D03*
%TD*%
D50*
%TO.C,R5*%
X137075603Y-121925000D03*
X137075603Y-121250000D03*
%TD*%
D32*
%TO.C,C28*%
X129074320Y-115448717D03*
X129876886Y-116251283D03*
%TD*%
D51*
%TO.C,R34*%
X159075603Y-110252500D03*
X159075603Y-111447500D03*
%TD*%
D52*
%TO.C,SW1*%
X128862255Y-121632528D03*
X134888951Y-124067472D03*
%TD*%
D45*
%TO.C,C32*%
X168708103Y-99650000D03*
X169843103Y-99650000D03*
%TD*%
D51*
%TO.C,R19*%
X165125603Y-86002500D03*
X165125603Y-87197500D03*
%TD*%
D13*
%TO.C,R36*%
X115232500Y-77380000D03*
X116427500Y-77380000D03*
%TD*%
D14*
%TO.C,C30*%
X116397500Y-76380000D03*
X115262500Y-76380000D03*
%TD*%
D53*
%TO.C,TCAN1051HGVDR1*%
X125845531Y-116114005D03*
X126743557Y-115215979D03*
X127641582Y-114317954D03*
X128539608Y-113419928D03*
X124705675Y-109585995D03*
X123807649Y-110484021D03*
X122909624Y-111382046D03*
X122011598Y-112280072D03*
%TD*%
D19*
%TO.C,R15*%
X171475603Y-94645000D03*
X171475603Y-93450000D03*
%TD*%
D54*
%TO.C,VR1*%
X115830000Y-81780000D03*
D55*
X119830000Y-80630000D03*
D54*
X115830000Y-79480000D03*
%TD*%
D27*
%TO.C,C3*%
X147645603Y-115515000D03*
X147645603Y-116650000D03*
%TD*%
D17*
%TO.C,R26*%
X157254397Y-82525712D03*
X151154397Y-82525712D03*
%TD*%
D56*
%TO.C,C5*%
X167015723Y-93209880D03*
X168235483Y-91990120D03*
%TD*%
D51*
%TO.C,R22*%
X166125603Y-86002500D03*
X166125603Y-87197500D03*
%TD*%
D41*
%TO.C,C19*%
X157625603Y-92417500D03*
X157625603Y-91282500D03*
%TD*%
D14*
%TO.C,C17*%
X145525603Y-105450000D03*
X144390603Y-105450000D03*
%TD*%
D27*
%TO.C,C2*%
X153475603Y-115482500D03*
X153475603Y-116617500D03*
%TD*%
D39*
%TO.C,R33*%
X157873103Y-108450000D03*
X156678103Y-108450000D03*
%TD*%
D21*
%TO.C,J3*%
X145665603Y-121100000D03*
D22*
X143125603Y-121100000D03*
X140585603Y-121100000D03*
%TD*%
D46*
%TO.C,R11*%
X171198099Y-103727504D03*
X170353107Y-104572496D03*
%TD*%
D51*
%TO.C,R17*%
X171875603Y-97452500D03*
X171875603Y-98647500D03*
%TD*%
%TO.C,R25*%
X167125603Y-86002500D03*
X167125603Y-87197500D03*
%TD*%
D48*
%TO.C,C14*%
X138275603Y-109487500D03*
X138275603Y-107412500D03*
%TD*%
D57*
%TO.C,C20*%
X158724320Y-89001283D03*
X159526886Y-88198717D03*
%TD*%
D42*
%TO.C,J4*%
X114660000Y-100950000D03*
D43*
X121960000Y-103050000D03*
D44*
X121960000Y-98850000D03*
X127460000Y-103050000D03*
X127460000Y-98850000D03*
%TD*%
D13*
%TO.C,R32*%
X164680603Y-78460000D03*
X165875603Y-78460000D03*
%TD*%
D15*
%TO.C,R10*%
X171053107Y-105272496D03*
X171898099Y-104427504D03*
%TD*%
D49*
%TO.C,D3*%
X136875603Y-102150000D03*
X136875603Y-100750000D03*
%TD*%
D58*
%TO.C,C15*%
X151788103Y-100250000D03*
X150063103Y-100250000D03*
%TD*%
D29*
%TO.C,Q3*%
X142775000Y-78870421D03*
X144045000Y-78870421D03*
X145315000Y-78870421D03*
X146585000Y-78870421D03*
D30*
X146585000Y-72939421D03*
X145315000Y-72939421D03*
X144045000Y-72939421D03*
X142775000Y-72939421D03*
D31*
X144680000Y-75164421D03*
%TD*%
D12*
%TO.C,C26*%
X132000603Y-107650000D03*
X134075603Y-107650000D03*
%TD*%
D59*
%TO.C,U3*%
X137275603Y-64750000D03*
X142275603Y-64750000D03*
X147275603Y-64750000D03*
%TD*%
D60*
%TO.C,D6*%
X161925603Y-85850000D03*
X163325603Y-85850000D03*
%TD*%
D61*
%TO.C,Y1*%
X166675603Y-110650000D03*
X167524131Y-109801472D03*
X168372659Y-108952944D03*
%TD*%
D62*
%TO.C,R7*%
X139075603Y-100337500D03*
X139075603Y-102162500D03*
%TD*%
D29*
%TO.C,Q4*%
X152085000Y-73400000D03*
X150815000Y-73400000D03*
X149545000Y-73400000D03*
X148275000Y-73400000D03*
D30*
X148275000Y-79331000D03*
X149545000Y-79331000D03*
X150815000Y-79331000D03*
X152085000Y-79331000D03*
D31*
X150180000Y-77106000D03*
%TD*%
D13*
%TO.C,R6*%
X150328103Y-101650000D03*
X151523103Y-101650000D03*
%TD*%
%TO.C,R30*%
X130678103Y-117450000D03*
X131873103Y-117450000D03*
%TD*%
D51*
%TO.C,R18*%
X124120000Y-77015000D03*
X124120000Y-78210000D03*
%TD*%
D14*
%TO.C,C13*%
X145525603Y-106450000D03*
X144390603Y-106450000D03*
%TD*%
D57*
%TO.C,C36*%
X165074320Y-98451283D03*
X165876886Y-97648717D03*
%TD*%
M02*
