%TF.GenerationSoftware,KiCad,Pcbnew,9.0.6*%
%TF.CreationDate,2026-02-05T15:53:57-08:00*%
%TF.ProjectId,BHL S1 copied,42484c20-5331-4206-936f-706965642e6b,rev?*%
%TF.SameCoordinates,Original*%
%TF.FileFunction,Legend,Bot*%
%TF.FilePolarity,Positive*%
%FSLAX46Y46*%
G04 Gerber Fmt 4.6, Leading zero omitted, Abs format (unit mm)*
G04 Created by KiCad (PCBNEW 9.0.6) date 2026-02-05 15:53:57*
%MOMM*%
%LPD*%
G01*
G04 APERTURE LIST*
%ADD10C,0.254000*%
%ADD11C,0.200000*%
%ADD12R,1.700000X1.700000*%
%ADD13C,1.700000*%
%ADD14C,3.000000*%
%ADD15R,2.150000X2.150000*%
%ADD16C,2.150000*%
%ADD17R,1.500000X0.650000*%
G04 APERTURE END LIST*
D10*
X145561793Y-99301461D02*
X144957031Y-99301461D01*
X145682745Y-99664318D02*
X145259412Y-98394318D01*
X145259412Y-98394318D02*
X144836078Y-99664318D01*
X144473222Y-99603842D02*
X144291793Y-99664318D01*
X144291793Y-99664318D02*
X143989412Y-99664318D01*
X143989412Y-99664318D02*
X143868460Y-99603842D01*
X143868460Y-99603842D02*
X143807984Y-99543365D01*
X143807984Y-99543365D02*
X143747507Y-99422413D01*
X143747507Y-99422413D02*
X143747507Y-99301461D01*
X143747507Y-99301461D02*
X143807984Y-99180508D01*
X143807984Y-99180508D02*
X143868460Y-99120032D01*
X143868460Y-99120032D02*
X143989412Y-99059556D01*
X143989412Y-99059556D02*
X144231317Y-98999080D01*
X144231317Y-98999080D02*
X144352269Y-98938603D01*
X144352269Y-98938603D02*
X144412746Y-98878127D01*
X144412746Y-98878127D02*
X144473222Y-98757175D01*
X144473222Y-98757175D02*
X144473222Y-98636222D01*
X144473222Y-98636222D02*
X144412746Y-98515270D01*
X144412746Y-98515270D02*
X144352269Y-98454794D01*
X144352269Y-98454794D02*
X144231317Y-98394318D01*
X144231317Y-98394318D02*
X143928936Y-98394318D01*
X143928936Y-98394318D02*
X143747507Y-98454794D01*
X142598460Y-98394318D02*
X143203222Y-98394318D01*
X143203222Y-98394318D02*
X143263698Y-98999080D01*
X143263698Y-98999080D02*
X143203222Y-98938603D01*
X143203222Y-98938603D02*
X143082269Y-98878127D01*
X143082269Y-98878127D02*
X142779888Y-98878127D01*
X142779888Y-98878127D02*
X142658936Y-98938603D01*
X142658936Y-98938603D02*
X142598460Y-98999080D01*
X142598460Y-98999080D02*
X142537983Y-99120032D01*
X142537983Y-99120032D02*
X142537983Y-99422413D01*
X142537983Y-99422413D02*
X142598460Y-99543365D01*
X142598460Y-99543365D02*
X142658936Y-99603842D01*
X142658936Y-99603842D02*
X142779888Y-99664318D01*
X142779888Y-99664318D02*
X143082269Y-99664318D01*
X143082269Y-99664318D02*
X143203222Y-99603842D01*
X143203222Y-99603842D02*
X143263698Y-99543365D01*
X141449412Y-98394318D02*
X141691317Y-98394318D01*
X141691317Y-98394318D02*
X141812269Y-98454794D01*
X141812269Y-98454794D02*
X141872745Y-98515270D01*
X141872745Y-98515270D02*
X141993698Y-98696699D01*
X141993698Y-98696699D02*
X142054174Y-98938603D01*
X142054174Y-98938603D02*
X142054174Y-99422413D01*
X142054174Y-99422413D02*
X141993698Y-99543365D01*
X141993698Y-99543365D02*
X141933221Y-99603842D01*
X141933221Y-99603842D02*
X141812269Y-99664318D01*
X141812269Y-99664318D02*
X141570364Y-99664318D01*
X141570364Y-99664318D02*
X141449412Y-99603842D01*
X141449412Y-99603842D02*
X141388936Y-99543365D01*
X141388936Y-99543365D02*
X141328459Y-99422413D01*
X141328459Y-99422413D02*
X141328459Y-99120032D01*
X141328459Y-99120032D02*
X141388936Y-98999080D01*
X141388936Y-98999080D02*
X141449412Y-98938603D01*
X141449412Y-98938603D02*
X141570364Y-98878127D01*
X141570364Y-98878127D02*
X141812269Y-98878127D01*
X141812269Y-98878127D02*
X141933221Y-98938603D01*
X141933221Y-98938603D02*
X141993698Y-98999080D01*
X141993698Y-98999080D02*
X142054174Y-99120032D01*
X140542269Y-98394318D02*
X140421316Y-98394318D01*
X140421316Y-98394318D02*
X140300364Y-98454794D01*
X140300364Y-98454794D02*
X140239888Y-98515270D01*
X140239888Y-98515270D02*
X140179412Y-98636222D01*
X140179412Y-98636222D02*
X140118935Y-98878127D01*
X140118935Y-98878127D02*
X140118935Y-99180508D01*
X140118935Y-99180508D02*
X140179412Y-99422413D01*
X140179412Y-99422413D02*
X140239888Y-99543365D01*
X140239888Y-99543365D02*
X140300364Y-99603842D01*
X140300364Y-99603842D02*
X140421316Y-99664318D01*
X140421316Y-99664318D02*
X140542269Y-99664318D01*
X140542269Y-99664318D02*
X140663221Y-99603842D01*
X140663221Y-99603842D02*
X140723697Y-99543365D01*
X140723697Y-99543365D02*
X140784174Y-99422413D01*
X140784174Y-99422413D02*
X140844650Y-99180508D01*
X140844650Y-99180508D02*
X140844650Y-98878127D01*
X140844650Y-98878127D02*
X140784174Y-98636222D01*
X140784174Y-98636222D02*
X140723697Y-98515270D01*
X140723697Y-98515270D02*
X140663221Y-98454794D01*
X140663221Y-98454794D02*
X140542269Y-98394318D01*
X139332745Y-98394318D02*
X139211792Y-98394318D01*
X139211792Y-98394318D02*
X139090840Y-98454794D01*
X139090840Y-98454794D02*
X139030364Y-98515270D01*
X139030364Y-98515270D02*
X138969888Y-98636222D01*
X138969888Y-98636222D02*
X138909411Y-98878127D01*
X138909411Y-98878127D02*
X138909411Y-99180508D01*
X138909411Y-99180508D02*
X138969888Y-99422413D01*
X138969888Y-99422413D02*
X139030364Y-99543365D01*
X139030364Y-99543365D02*
X139090840Y-99603842D01*
X139090840Y-99603842D02*
X139211792Y-99664318D01*
X139211792Y-99664318D02*
X139332745Y-99664318D01*
X139332745Y-99664318D02*
X139453697Y-99603842D01*
X139453697Y-99603842D02*
X139514173Y-99543365D01*
X139514173Y-99543365D02*
X139574650Y-99422413D01*
X139574650Y-99422413D02*
X139635126Y-99180508D01*
X139635126Y-99180508D02*
X139635126Y-98878127D01*
X139635126Y-98878127D02*
X139574650Y-98636222D01*
X139574650Y-98636222D02*
X139514173Y-98515270D01*
X139514173Y-98515270D02*
X139453697Y-98454794D01*
X139453697Y-98454794D02*
X139332745Y-98394318D01*
D11*
%TO.C,AS5600*%
X140775603Y-92900000D02*
X140775603Y-97800000D01*
X140775603Y-97800000D02*
X143975603Y-97800000D01*
X143975603Y-92900000D02*
X140775603Y-92900000D01*
X143975603Y-97800000D02*
X143975603Y-92900000D01*
X145825603Y-92770000D02*
X144325603Y-92770000D01*
%TD*%
%LPC*%
D12*
%TO.C,J2*%
X145665603Y-124850000D03*
D13*
X143125603Y-124850000D03*
X140585603Y-124850000D03*
%TD*%
D14*
%TO.C,J1*%
X114770000Y-89610000D03*
D15*
X122070000Y-91710000D03*
D16*
X122070000Y-87510000D03*
X127570000Y-91710000D03*
X127570000Y-87510000D03*
%TD*%
D12*
%TO.C,J3*%
X145665603Y-121100000D03*
D13*
X143125603Y-121100000D03*
X140585603Y-121100000D03*
%TD*%
D14*
%TO.C,J4*%
X114660000Y-100950000D03*
D15*
X121960000Y-103050000D03*
D16*
X121960000Y-98850000D03*
X127460000Y-103050000D03*
X127460000Y-98850000D03*
%TD*%
D17*
%TO.C,AS5600*%
X145075603Y-93445000D03*
X145075603Y-94715000D03*
X145075603Y-95985000D03*
X145075603Y-97255000D03*
X139675603Y-97255000D03*
X139675603Y-95985000D03*
X139675603Y-94715000D03*
X139675603Y-93445000D03*
%TD*%
%LPD*%
M02*
