%TF.GenerationSoftware,KiCad,Pcbnew,9.0.6*%
%TF.CreationDate,2026-02-05T15:53:56-08:00*%
%TF.ProjectId,BHL S1 copied,42484c20-5331-4206-936f-706965642e6b,rev?*%
%TF.SameCoordinates,Original*%
%TF.FileFunction,Copper,L4,Bot*%
%TF.FilePolarity,Positive*%
%FSLAX46Y46*%
G04 Gerber Fmt 4.6, Leading zero omitted, Abs format (unit mm)*
G04 Created by KiCad (PCBNEW 9.0.6) date 2026-02-05 15:53:56*
%MOMM*%
%LPD*%
G01*
G04 APERTURE LIST*
%TA.AperFunction,ComponentPad*%
%ADD10R,1.700000X1.700000*%
%TD*%
%TA.AperFunction,ComponentPad*%
%ADD11C,1.700000*%
%TD*%
%TA.AperFunction,ComponentPad*%
%ADD12R,2.150000X2.150000*%
%TD*%
%TA.AperFunction,ComponentPad*%
%ADD13C,2.150000*%
%TD*%
%TA.AperFunction,SMDPad,CuDef*%
%ADD14R,1.500000X0.650000*%
%TD*%
%TA.AperFunction,ViaPad*%
%ADD15C,0.600000*%
%TD*%
%TA.AperFunction,Conductor*%
%ADD16C,0.200000*%
%TD*%
%TA.AperFunction,Conductor*%
%ADD17C,0.400000*%
%TD*%
G04 APERTURE END LIST*
D10*
%TO.P,J2,1,Pin_1*%
%TO.N,GND*%
X145665603Y-124850000D03*
D11*
%TO.P,J2,2,Pin_2*%
%TO.N,SWCLK*%
X143125603Y-124850000D03*
%TO.P,J2,3,Pin_3*%
%TO.N,SWDIO*%
X140585603Y-124850000D03*
%TD*%
D12*
%TO.P,J1,1,1*%
%TO.N,CAN_L*%
X122070000Y-91710000D03*
D13*
%TO.P,J1,2,2*%
%TO.N,CAN_H*%
X122070000Y-87510000D03*
%TO.P,J1,3,3*%
%TO.N,GND*%
X127570000Y-91710000D03*
%TO.P,J1,4,4*%
%TO.N,DCBUS*%
X127570000Y-87510000D03*
%TD*%
D10*
%TO.P,J3,1,Pin_1*%
%TO.N,GND*%
X145665603Y-121100000D03*
D11*
%TO.P,J3,2,Pin_2*%
%TO.N,Net-(J3-Pin_2)*%
X143125603Y-121100000D03*
%TO.P,J3,3,Pin_3*%
%TO.N,USART2_TX*%
X140585603Y-121100000D03*
%TD*%
D12*
%TO.P,J4,1,1*%
%TO.N,CAN_L*%
X121960000Y-103050000D03*
D13*
%TO.P,J4,2,2*%
%TO.N,CAN_H*%
X121960000Y-98850000D03*
%TO.P,J4,3,3*%
%TO.N,GND*%
X127460000Y-103050000D03*
%TO.P,J4,4,4*%
%TO.N,DCBUS*%
X127460000Y-98850000D03*
%TD*%
D14*
%TO.P,AS5600,1,VDD5V*%
%TO.N,VCC_5V*%
X145075603Y-93445000D03*
%TO.P,AS5600,2,VDD3V3*%
%TO.N,unconnected-(AS5600-VDD3V3-Pad2)*%
X145075603Y-94715000D03*
%TO.P,AS5600,3,OUT*%
%TO.N,unconnected-(AS5600-OUT-Pad3)*%
X145075603Y-95985000D03*
%TO.P,AS5600,4,GND*%
%TO.N,GND*%
X145075603Y-97255000D03*
%TO.P,AS5600,5,PGO*%
%TO.N,unconnected-(AS5600-PGO-Pad5)*%
X139675603Y-97255000D03*
%TO.P,AS5600,6,SDA*%
%TO.N,SDA*%
X139675603Y-95985000D03*
%TO.P,AS5600,7,SCLK*%
%TO.N,SCLK*%
X139675603Y-94715000D03*
%TO.P,AS5600,8,DIR*%
%TO.N,VCC_5V*%
X139675603Y-93445000D03*
%TD*%
D15*
%TO.N,SDA*%
X159835540Y-109409937D03*
%TO.N,+3.3V*%
X142075603Y-118650000D03*
X157475603Y-110450000D03*
X161675603Y-111050000D03*
X155199868Y-103525735D03*
X170899868Y-106274265D03*
X163475603Y-98850000D03*
X137875603Y-119850000D03*
%TO.N,SCLK*%
X159275603Y-108450000D03*
%TO.N,GND*%
X149475603Y-94450000D03*
X165075603Y-112050000D03*
X144275603Y-104450000D03*
X148675603Y-92850000D03*
X147900000Y-92050000D03*
X136800000Y-83160000D03*
X124700000Y-81070000D03*
X165625603Y-91600000D03*
X151425603Y-97350000D03*
X136875603Y-106050000D03*
X162380603Y-104390000D03*
X163200000Y-105200000D03*
X147900000Y-94450000D03*
X128476590Y-116949013D03*
X142275603Y-101050000D03*
X114230000Y-77380000D03*
X163200000Y-104400000D03*
X161600000Y-103600000D03*
X148675603Y-93650000D03*
X124700000Y-81820000D03*
X136800000Y-82360000D03*
X162400000Y-105200000D03*
X147475603Y-103450000D03*
X162400000Y-90700000D03*
X132275603Y-115250000D03*
X149475603Y-92850000D03*
X163078103Y-77860000D03*
X149475603Y-91250000D03*
X124700000Y-83370000D03*
X162778103Y-81260000D03*
X161600000Y-105200000D03*
X147475603Y-100650000D03*
X137075603Y-104550000D03*
X124700000Y-82570000D03*
X149475603Y-93650000D03*
X161600000Y-104400000D03*
X136800000Y-81560000D03*
X136800000Y-83960000D03*
X147900000Y-93650000D03*
X149604397Y-82525712D03*
X137075603Y-115250000D03*
X169843103Y-97250000D03*
X142275603Y-102850000D03*
X143675603Y-113850000D03*
X148675603Y-91250000D03*
X172743349Y-99985072D03*
X149604397Y-83325712D03*
X161400000Y-91600000D03*
X142451338Y-104425735D03*
X163300000Y-91600000D03*
X143275603Y-100050000D03*
X170320000Y-112500000D03*
X149475603Y-92050000D03*
X169875603Y-92100000D03*
X148675603Y-92050000D03*
X146875603Y-104450000D03*
X145475603Y-104450000D03*
X127675603Y-119850000D03*
X120475603Y-111650000D03*
X147725603Y-102250000D03*
X154475603Y-96800000D03*
X149604397Y-81725712D03*
X162400000Y-103600000D03*
X168075603Y-105250000D03*
X171875603Y-103050000D03*
X167475603Y-100450000D03*
X162375603Y-91600000D03*
X144475603Y-100050000D03*
X147900000Y-91250000D03*
X154125603Y-101574265D03*
X145475603Y-99650000D03*
X163200000Y-103600000D03*
X149604397Y-80925712D03*
X149075603Y-117250000D03*
X169675603Y-109050000D03*
X162400000Y-92500000D03*
X139475603Y-104650000D03*
X148675603Y-94450000D03*
X147900000Y-92850000D03*
X169075603Y-103450000D03*
%TO.N,BUTTON*%
X138075603Y-112050000D03*
X148675603Y-106450000D03*
%TO.N,VCC_12V*%
X168625603Y-93600000D03*
X163875603Y-83450000D03*
X153525603Y-100050000D03*
X159575603Y-86600000D03*
X139675603Y-109050000D03*
X155075603Y-90450000D03*
X159875603Y-115050000D03*
X140875603Y-112650000D03*
%TO.N,Net-(D2-K)*%
X142875603Y-107050000D03*
X151475603Y-119650000D03*
%TO.N,SH_B*%
X146500000Y-81453554D03*
X145880000Y-72200421D03*
%TO.N,DCBUS*%
X139179397Y-77840000D03*
X130250000Y-91300000D03*
X162078103Y-79460000D03*
X127330000Y-76150000D03*
X129770000Y-100950000D03*
X148354397Y-78520000D03*
X114030000Y-82230000D03*
X149304397Y-77920000D03*
X139179397Y-76190000D03*
X150154397Y-77920000D03*
X138304397Y-77840000D03*
X131850000Y-94400000D03*
X114030000Y-81430000D03*
X150204397Y-76270000D03*
X129955000Y-78500000D03*
X140029397Y-76190000D03*
X141004397Y-78490000D03*
X113430000Y-81830000D03*
X137354397Y-75540000D03*
X129980000Y-75550000D03*
X131050000Y-91300000D03*
X150180000Y-77106000D03*
X128180000Y-77900000D03*
X129030000Y-76175000D03*
X126380000Y-78500000D03*
X137329397Y-78490000D03*
X129030000Y-77875000D03*
X131850000Y-92050000D03*
X131050000Y-92050000D03*
X128180603Y-77036000D03*
X151004397Y-77120000D03*
X130300000Y-94400000D03*
X131850000Y-91300000D03*
X131850000Y-92850000D03*
X151004397Y-76270000D03*
X136275603Y-99450000D03*
X131050000Y-94400000D03*
X140029397Y-77015000D03*
X140029397Y-77840000D03*
X126380000Y-75550000D03*
X127330000Y-77900000D03*
X139180000Y-77026000D03*
X149304397Y-77120000D03*
X138304397Y-76190000D03*
X129030000Y-77025000D03*
X131050000Y-92850000D03*
X130275603Y-93650000D03*
X130275603Y-92050000D03*
X152004397Y-75620000D03*
X148379397Y-75595000D03*
X131050000Y-93650000D03*
X152029397Y-78570000D03*
X128180000Y-76150000D03*
X131850000Y-93650000D03*
X130275603Y-92850000D03*
X127330000Y-77025000D03*
X151004397Y-77920000D03*
X138304397Y-77015000D03*
X141004397Y-75540000D03*
X149304397Y-76270000D03*
%TO.N,SH_A*%
X135075000Y-72030000D03*
X156375603Y-89600000D03*
%TO.N,GH_C*%
X160375603Y-86850000D03*
X161475603Y-88100000D03*
%TO.N,SH_C*%
X156690000Y-72060000D03*
X159400000Y-81440000D03*
%TO.N,GH_B*%
X146875603Y-86850000D03*
X159625603Y-89100000D03*
%TO.N,GH_A*%
X159125603Y-91850000D03*
X122080000Y-80580000D03*
%TO.N,Vshunt_1+*%
X169275603Y-82850000D03*
X134400000Y-84200000D03*
%TO.N,Net-(Q1-G)*%
X134200000Y-82200000D03*
X164875603Y-84350000D03*
%TO.N,Vshunt_2+*%
X145875000Y-84125000D03*
X168275603Y-82250000D03*
%TO.N,Net-(Q3-G)*%
X147000000Y-85325000D03*
X165875603Y-83600000D03*
%TO.N,Vshunt_3+*%
X167075603Y-81650000D03*
X159800000Y-84397000D03*
%TO.N,STATUS*%
X163375603Y-97950000D03*
X159684267Y-100225000D03*
%TO.N,Curr_fdbk1_OPAmp+*%
X169075603Y-104650000D03*
X172675603Y-96250000D03*
%TO.N,Curr_fdbk2_OPAmp+*%
X171875603Y-96050000D03*
X170375603Y-102750000D03*
%TO.N,Curr_fdbk3_OPAmp+*%
X169375603Y-100950000D03*
X171075603Y-95850000D03*
%TO.N,VCC_5V*%
X144875603Y-113850000D03*
X130275603Y-111450000D03*
X130675603Y-114850000D03*
X151475603Y-96250000D03*
X147875603Y-110250000D03*
%TO.N,CAN_TX*%
X158275603Y-114650000D03*
X127475603Y-117250000D03*
%TO.N,CAN_RX*%
X131875603Y-113650000D03*
X148151338Y-104525735D03*
%TO.N,VBUS*%
X170875603Y-107650000D03*
X167978103Y-80460000D03*
%TO.N,TEMP_FEEDBACK*%
X156075603Y-94450000D03*
X163475603Y-96850000D03*
X121520000Y-82460000D03*
%TO.N,HIN2*%
X156275603Y-97850000D03*
X157475603Y-98900000D03*
%TO.N,LIN2*%
X162125603Y-96350000D03*
X157275603Y-102350000D03*
%TO.N,HIN1*%
X158214067Y-98592307D03*
X156875603Y-96850000D03*
%TO.N,LIN1*%
X163801310Y-110175707D03*
X162125603Y-95350000D03*
%TD*%
D16*
%TO.N,SDA*%
X148476603Y-98251000D02*
X143349503Y-98251000D01*
X158192053Y-107933550D02*
X148908503Y-98650000D01*
X159835540Y-109409937D02*
X158835540Y-109409937D01*
X141043503Y-95945000D02*
X139915603Y-95945000D01*
X143349503Y-98251000D02*
X141043503Y-95945000D01*
X148875603Y-98650000D02*
X148476603Y-98251000D01*
X148908503Y-98650000D02*
X148875603Y-98650000D01*
X158192053Y-108766450D02*
X158192053Y-107933550D01*
X158835540Y-109409937D02*
X158192053Y-108766450D01*
%TO.N,+3.3V*%
X163475603Y-98850000D02*
X164726603Y-100101000D01*
X164726603Y-110098943D02*
X163775546Y-111050000D01*
X161675603Y-108850000D02*
X161675603Y-111050000D01*
X164726603Y-100101000D02*
X164726603Y-110098943D01*
X170899868Y-106274265D02*
X170875603Y-106250000D01*
X155199868Y-103525735D02*
X156351338Y-103525735D01*
X158075603Y-111050000D02*
X161675603Y-111050000D01*
X142075603Y-118650000D02*
X139075603Y-118650000D01*
X168575546Y-106250000D02*
X164726603Y-110098943D01*
X139075603Y-118650000D02*
X137875603Y-119850000D01*
X157475603Y-110450000D02*
X158075603Y-111050000D01*
X156351338Y-103525735D02*
X161675603Y-108850000D01*
X163775546Y-111050000D02*
X161675603Y-111050000D01*
X170875603Y-106250000D02*
X168575546Y-106250000D01*
%TO.N,SCLK*%
X159275603Y-108450000D02*
X148675603Y-97850000D01*
X143515603Y-97850000D02*
X140340603Y-94675000D01*
X140340603Y-94675000D02*
X139915603Y-94675000D01*
X148675603Y-97850000D02*
X143515603Y-97850000D01*
%TO.N,GND*%
X150525603Y-97350000D02*
X150390603Y-97215000D01*
X151425603Y-97350000D02*
X150525603Y-97350000D01*
X150390603Y-97215000D02*
X145315603Y-97215000D01*
%TO.N,BUTTON*%
X142625660Y-106450000D02*
X142274603Y-106801057D01*
X142274603Y-107851000D02*
X138075603Y-112050000D01*
X148675603Y-106450000D02*
X142625660Y-106450000D01*
X142274603Y-106801057D02*
X142274603Y-107851000D01*
D17*
%TO.N,Net-(D2-K)*%
X142875603Y-107050000D02*
X151475603Y-115650000D01*
X151475603Y-115650000D02*
X151475603Y-119650000D01*
D16*
%TO.N,SH_B*%
X145880000Y-80833554D02*
X145880000Y-77036000D01*
X146500000Y-81453554D02*
X145880000Y-80833554D01*
X145880000Y-79579578D02*
X145880000Y-72200421D01*
%TO.N,SH_A*%
X156375603Y-89600000D02*
X154425603Y-87650000D01*
X133400000Y-73705000D02*
X135075000Y-72030000D01*
X154425603Y-87650000D02*
X146424603Y-87650000D01*
X135101000Y-86501000D02*
X133400000Y-84800000D01*
X133400000Y-84800000D02*
X133400000Y-73705000D01*
X146424603Y-87650000D02*
X145275603Y-86501000D01*
X145275603Y-86501000D02*
X135101000Y-86501000D01*
%TO.N,GH_C*%
X161475603Y-88100000D02*
X160375603Y-87000000D01*
X160375603Y-87000000D02*
X160375603Y-86850000D01*
%TO.N,SH_C*%
X158370000Y-72060000D02*
X156690000Y-72060000D01*
X159400000Y-81440000D02*
X159400000Y-73090000D01*
X159400000Y-73090000D02*
X158370000Y-72060000D01*
%TO.N,GH_B*%
X157026603Y-86501000D02*
X147224603Y-86501000D01*
X159625603Y-89100000D02*
X157026603Y-86501000D01*
X147224603Y-86501000D02*
X146875603Y-86850000D01*
%TO.N,GH_A*%
X153876603Y-88051000D02*
X157675603Y-91850000D01*
X146258503Y-88051000D02*
X153876603Y-88051000D01*
X122750000Y-81250000D02*
X122750000Y-84375000D01*
X157675603Y-91850000D02*
X159125603Y-91850000D01*
X133100000Y-85100000D02*
X134902000Y-86902000D01*
X122750000Y-84375000D02*
X123475000Y-85100000D01*
X123475000Y-85100000D02*
X133100000Y-85100000D01*
X145109503Y-86902000D02*
X146258503Y-88051000D01*
X122080000Y-80580000D02*
X122750000Y-81250000D01*
X134902000Y-86902000D02*
X145109503Y-86902000D01*
%TO.N,Vshunt_1+*%
X134400000Y-84200000D02*
X134400000Y-84400000D01*
X146275603Y-84650000D02*
X147400000Y-84650000D01*
X148048000Y-85298000D02*
X161075603Y-85298000D01*
X135650000Y-85650000D02*
X145275603Y-85650000D01*
X147400000Y-84650000D02*
X148048000Y-85298000D01*
X145275603Y-85650000D02*
X146275603Y-84650000D01*
X163523603Y-82850000D02*
X169275603Y-82850000D01*
X134400000Y-84400000D02*
X135650000Y-85650000D01*
X161075603Y-85298000D02*
X163523603Y-82850000D01*
%TO.N,Net-(Q1-G)*%
X133800000Y-84600000D02*
X135300000Y-86100000D01*
X133800000Y-82600000D02*
X133800000Y-84600000D01*
X134200000Y-82200000D02*
X133800000Y-82600000D01*
X135300000Y-86100000D02*
X163125603Y-86100000D01*
X163125603Y-86100000D02*
X164875603Y-84350000D01*
%TO.N,Vshunt_2+*%
X146109503Y-84249000D02*
X147674000Y-84249000D01*
X148322000Y-84897000D02*
X160909503Y-84897000D01*
X163357503Y-82449000D02*
X168076603Y-82449000D01*
X146000000Y-84250000D02*
X146108503Y-84250000D01*
X160909503Y-84897000D02*
X163357503Y-82449000D01*
X147674000Y-84249000D02*
X148322000Y-84897000D01*
X168076603Y-82449000D02*
X168275603Y-82250000D01*
X146108503Y-84250000D02*
X146109503Y-84249000D01*
X145875000Y-84125000D02*
X146000000Y-84250000D01*
%TO.N,Net-(Q3-G)*%
X164725546Y-83600000D02*
X165875603Y-83600000D01*
X147000000Y-85325000D02*
X147374000Y-85699000D01*
X147374000Y-85699000D02*
X162626546Y-85699000D01*
X162626546Y-85699000D02*
X164725546Y-83600000D01*
%TO.N,Vshunt_3+*%
X159899000Y-84496000D02*
X160743403Y-84496000D01*
X163191403Y-82048000D02*
X166677603Y-82048000D01*
X166677603Y-82048000D02*
X167075603Y-81650000D01*
X160743403Y-84496000D02*
X163191403Y-82048000D01*
X159800000Y-84397000D02*
X159899000Y-84496000D01*
%TO.N,STATUS*%
X161100603Y-100225000D02*
X159684267Y-100225000D01*
X163375603Y-97950000D02*
X161100603Y-100225000D01*
%TO.N,Curr_fdbk1_OPAmp+*%
X171075603Y-103050000D02*
X169475603Y-104650000D01*
X169475603Y-104650000D02*
X169075603Y-104650000D01*
X171075603Y-97850000D02*
X171075603Y-103050000D01*
X172675603Y-96250000D02*
X171075603Y-97850000D01*
%TO.N,Curr_fdbk2_OPAmp+*%
X170675603Y-102450000D02*
X170375603Y-102750000D01*
X171875603Y-96050000D02*
X171775603Y-96050000D01*
X171575603Y-96250000D02*
X171575603Y-96830443D01*
X171575603Y-96830443D02*
X170675603Y-97730443D01*
X171775603Y-96050000D02*
X171575603Y-96250000D01*
X170675603Y-97730443D02*
X170675603Y-102450000D01*
%TO.N,Curr_fdbk3_OPAmp+*%
X171075603Y-96904765D02*
X170374603Y-97605765D01*
X170374603Y-97605765D02*
X170374603Y-99951000D01*
X171075603Y-95850000D02*
X171075603Y-96904765D01*
X170374603Y-99951000D02*
X169375603Y-100950000D01*
%TO.N,VCC_5V*%
X146950000Y-94924397D02*
X148275603Y-96250000D01*
X140675603Y-92250000D02*
X146675603Y-92250000D01*
X138275603Y-97450000D02*
X138275603Y-94638000D01*
X146945000Y-93405000D02*
X146950000Y-93400000D01*
X146950000Y-92524397D02*
X146950000Y-94924397D01*
X144275603Y-114450000D02*
X131075603Y-114450000D01*
X139508603Y-93405000D02*
X139915603Y-93405000D01*
X139915603Y-93010000D02*
X140675603Y-92250000D01*
X152875603Y-104250000D02*
X152875603Y-103184200D01*
X148275603Y-96250000D02*
X151475603Y-96250000D01*
X139915603Y-93405000D02*
X139915603Y-93010000D01*
X150675603Y-101017100D02*
X148310503Y-98652000D01*
X147875603Y-110250000D02*
X147875603Y-109250000D01*
X144875603Y-113850000D02*
X144275603Y-114450000D01*
X131075603Y-114450000D02*
X130675603Y-114850000D01*
X130675603Y-111850000D02*
X130275603Y-111450000D01*
X147875603Y-109250000D02*
X152875603Y-104250000D01*
X150708503Y-101017100D02*
X150675603Y-101017100D01*
X138275603Y-94638000D02*
X139508603Y-93405000D01*
X146675603Y-92250000D02*
X146950000Y-92524397D01*
X130675603Y-114850000D02*
X130675603Y-111850000D01*
X145315603Y-93405000D02*
X146945000Y-93405000D01*
X148310503Y-98652000D02*
X139477603Y-98652000D01*
X139477603Y-98652000D02*
X138275603Y-97450000D01*
X152875603Y-103184200D02*
X150708503Y-101017100D01*
%TO.N,CAN_TX*%
X158275603Y-115650000D02*
X152875603Y-121050000D01*
X146675603Y-117650000D02*
X127875603Y-117650000D01*
X152875603Y-121050000D02*
X150075603Y-121050000D01*
X127875603Y-117650000D02*
X127475603Y-117250000D01*
X150075603Y-121050000D02*
X146675603Y-117650000D01*
X158275603Y-114650000D02*
X158275603Y-115650000D01*
%TO.N,CAN_RX*%
X147227073Y-105450000D02*
X141475603Y-105450000D01*
X141475603Y-105450000D02*
X133275603Y-113650000D01*
X148151338Y-104525735D02*
X147227073Y-105450000D01*
X133275603Y-113650000D02*
X131875603Y-113650000D01*
%TO.N,VBUS*%
X173344349Y-100234015D02*
X172992292Y-100586072D01*
X172992292Y-100586072D02*
X172992292Y-102783254D01*
X170275603Y-81650000D02*
X170275603Y-85850000D01*
X169085603Y-80460000D02*
X170275603Y-81650000D01*
X173344349Y-88918746D02*
X173344349Y-100234015D01*
X172992292Y-102783254D02*
X171500868Y-104274678D01*
X171500868Y-104274678D02*
X171500868Y-107024735D01*
X171500868Y-107024735D02*
X170875603Y-107650000D01*
X167978103Y-80460000D02*
X169085603Y-80460000D01*
X170275603Y-85850000D02*
X173344349Y-88918746D01*
%TO.N,TEMP_FEEDBACK*%
X146190912Y-88600000D02*
X151225000Y-88600000D01*
X162075546Y-94450000D02*
X163475603Y-95850057D01*
X121520000Y-84445000D02*
X122555000Y-85480000D01*
X156075603Y-94450000D02*
X162075546Y-94450000D01*
X151225000Y-88600000D02*
X151575000Y-88950000D01*
X121520000Y-82460000D02*
X121520000Y-84445000D01*
X151575000Y-89949397D02*
X156075603Y-94450000D01*
X122555000Y-85480000D02*
X132880000Y-85480000D01*
X163475603Y-95850057D02*
X163475603Y-96850000D01*
X132880000Y-85480000D02*
X134800000Y-87400000D01*
X151575000Y-88950000D02*
X151575000Y-89949397D01*
X134800000Y-87400000D02*
X144990912Y-87400000D01*
X144990912Y-87400000D02*
X146190912Y-88600000D01*
%TO.N,HIN2*%
X157425603Y-98900000D02*
X156375603Y-97850000D01*
X156375603Y-97850000D02*
X156275603Y-97850000D01*
X157475603Y-98900000D02*
X157425603Y-98900000D01*
%TO.N,LIN2*%
X157075603Y-102150000D02*
X157075603Y-101417100D01*
X157075603Y-101417100D02*
X159625603Y-98867100D01*
X159625603Y-98867100D02*
X159625603Y-98850000D01*
X157275603Y-102350000D02*
X157075603Y-102150000D01*
X159625603Y-98850000D02*
X162125603Y-96350000D01*
%TO.N,HIN1*%
X158214067Y-98188464D02*
X156875603Y-96850000D01*
X158214067Y-98592307D02*
X158214067Y-98188464D01*
%TO.N,LIN1*%
X157276603Y-103452000D02*
X156675603Y-102851000D01*
X157276603Y-103651000D02*
X157276603Y-103452000D01*
X156675603Y-102851000D02*
X156675603Y-101250000D01*
X159224603Y-98683900D02*
X161475603Y-96432900D01*
X156675603Y-101250000D02*
X159224603Y-98701000D01*
X163801310Y-110175707D02*
X157276603Y-103651000D01*
X159224603Y-98701000D02*
X159224603Y-98683900D01*
X161475603Y-96432900D02*
X161475603Y-96000000D01*
X161475603Y-96000000D02*
X162125603Y-95350000D01*
%TD*%
M02*
