%TF.GenerationSoftware,KiCad,Pcbnew,9.0.6*%
%TF.CreationDate,2026-02-05T15:53:56-08:00*%
%TF.ProjectId,BHL S1 copied,42484c20-5331-4206-936f-706965642e6b,rev?*%
%TF.SameCoordinates,Original*%
%TF.FileFunction,Copper,L2,Inr*%
%TF.FilePolarity,Positive*%
%FSLAX46Y46*%
G04 Gerber Fmt 4.6, Leading zero omitted, Abs format (unit mm)*
G04 Created by KiCad (PCBNEW 9.0.6) date 2026-02-05 15:53:56*
%MOMM*%
%LPD*%
G01*
G04 APERTURE LIST*
%TA.AperFunction,ComponentPad*%
%ADD10R,1.700000X1.700000*%
%TD*%
%TA.AperFunction,ComponentPad*%
%ADD11C,1.700000*%
%TD*%
%TA.AperFunction,ComponentPad*%
%ADD12R,2.150000X2.150000*%
%TD*%
%TA.AperFunction,ComponentPad*%
%ADD13C,2.150000*%
%TD*%
%TA.AperFunction,ViaPad*%
%ADD14C,0.600000*%
%TD*%
G04 APERTURE END LIST*
D10*
%TO.N,GND*%
%TO.C,J2*%
X145665603Y-124850000D03*
D11*
%TO.N,SWCLK*%
X143125603Y-124850000D03*
%TO.N,SWDIO*%
X140585603Y-124850000D03*
%TD*%
D12*
%TO.N,CAN_L*%
%TO.C,J1*%
X122070000Y-91710000D03*
D13*
%TO.N,CAN_H*%
X122070000Y-87510000D03*
%TO.N,GND*%
X127570000Y-91710000D03*
%TO.N,DCBUS*%
X127570000Y-87510000D03*
%TD*%
D10*
%TO.N,GND*%
%TO.C,J3*%
X145665603Y-121100000D03*
D11*
%TO.N,Net-(J3-Pin_2)*%
X143125603Y-121100000D03*
%TO.N,USART2_TX*%
X140585603Y-121100000D03*
%TD*%
D12*
%TO.N,CAN_L*%
%TO.C,J4*%
X121960000Y-103050000D03*
D13*
%TO.N,CAN_H*%
X121960000Y-98850000D03*
%TO.N,GND*%
X127460000Y-103050000D03*
%TO.N,DCBUS*%
X127460000Y-98850000D03*
%TD*%
D14*
%TO.N,SDA*%
X159835540Y-109409937D03*
%TO.N,+3.3V*%
X142075603Y-118650000D03*
X157475603Y-110450000D03*
X161675603Y-111050000D03*
X155199868Y-103525735D03*
X170899868Y-106274265D03*
X163475603Y-98850000D03*
X137875603Y-119850000D03*
%TO.N,SCLK*%
X159275603Y-108450000D03*
%TO.N,GND*%
X149475603Y-94450000D03*
X165075603Y-112050000D03*
X144275603Y-104450000D03*
X148675603Y-92850000D03*
X147900000Y-92050000D03*
X136800000Y-83160000D03*
X124700000Y-81070000D03*
X165625603Y-91600000D03*
X151425603Y-97350000D03*
X136875603Y-106050000D03*
X162380603Y-104390000D03*
X163200000Y-105200000D03*
X147900000Y-94450000D03*
X128476590Y-116949013D03*
X142275603Y-101050000D03*
X114230000Y-77380000D03*
X163200000Y-104400000D03*
X161600000Y-103600000D03*
X148675603Y-93650000D03*
X124700000Y-81820000D03*
X136800000Y-82360000D03*
X162400000Y-105200000D03*
X147475603Y-103450000D03*
X162400000Y-90700000D03*
X132275603Y-115250000D03*
X149475603Y-92850000D03*
X163078103Y-77860000D03*
X149475603Y-91250000D03*
X124700000Y-83370000D03*
X162778103Y-81260000D03*
X161600000Y-105200000D03*
X147475603Y-100650000D03*
X137075603Y-104550000D03*
X124700000Y-82570000D03*
X149475603Y-93650000D03*
X161600000Y-104400000D03*
X136800000Y-81560000D03*
X136800000Y-83960000D03*
X147900000Y-93650000D03*
X149604397Y-82525712D03*
X137075603Y-115250000D03*
X169843103Y-97250000D03*
X142275603Y-102850000D03*
X143675603Y-113850000D03*
X148675603Y-91250000D03*
X172743349Y-99985072D03*
X149604397Y-83325712D03*
X161400000Y-91600000D03*
X142451338Y-104425735D03*
X163300000Y-91600000D03*
X143275603Y-100050000D03*
X170320000Y-112500000D03*
X149475603Y-92050000D03*
X169875603Y-92100000D03*
X148675603Y-92050000D03*
X146875603Y-104450000D03*
X145475603Y-104450000D03*
X127675603Y-119850000D03*
X120475603Y-111650000D03*
X147725603Y-102250000D03*
X154475603Y-96800000D03*
X149604397Y-81725712D03*
X162400000Y-103600000D03*
X168075603Y-105250000D03*
X171875603Y-103050000D03*
X167475603Y-100450000D03*
X162375603Y-91600000D03*
X144475603Y-100050000D03*
X147900000Y-91250000D03*
X154125603Y-101574265D03*
X145475603Y-99650000D03*
X163200000Y-103600000D03*
X149604397Y-80925712D03*
X149075603Y-117250000D03*
X169675603Y-109050000D03*
X162400000Y-92500000D03*
X139475603Y-104650000D03*
X148675603Y-94450000D03*
X147900000Y-92850000D03*
X169075603Y-103450000D03*
%TO.N,BUTTON*%
X138075603Y-112050000D03*
X148675603Y-106450000D03*
%TO.N,VCC_12V*%
X168625603Y-93600000D03*
X163875603Y-83450000D03*
X153525603Y-100050000D03*
X159575603Y-86600000D03*
X139675603Y-109050000D03*
X155075603Y-90450000D03*
X159875603Y-115050000D03*
X140875603Y-112650000D03*
%TO.N,Net-(D2-K)*%
X142875603Y-107050000D03*
X151475603Y-119650000D03*
%TO.N,SH_B*%
X146500000Y-81453554D03*
X145880000Y-72200421D03*
%TO.N,DCBUS*%
X139179397Y-77840000D03*
X130250000Y-91300000D03*
X162078103Y-79460000D03*
X127330000Y-76150000D03*
X129770000Y-100950000D03*
X148354397Y-78520000D03*
X114030000Y-82230000D03*
X149304397Y-77920000D03*
X139179397Y-76190000D03*
X150154397Y-77920000D03*
X138304397Y-77840000D03*
X131850000Y-94400000D03*
X114030000Y-81430000D03*
X150204397Y-76270000D03*
X129955000Y-78500000D03*
X140029397Y-76190000D03*
X141004397Y-78490000D03*
X113430000Y-81830000D03*
X137354397Y-75540000D03*
X129980000Y-75550000D03*
X131050000Y-91300000D03*
X150180000Y-77106000D03*
X128180000Y-77900000D03*
X129030000Y-76175000D03*
X126380000Y-78500000D03*
X137329397Y-78490000D03*
X129030000Y-77875000D03*
X131850000Y-92050000D03*
X131050000Y-92050000D03*
X128180603Y-77036000D03*
X151004397Y-77120000D03*
X130300000Y-94400000D03*
X131850000Y-91300000D03*
X131850000Y-92850000D03*
X151004397Y-76270000D03*
X136275603Y-99450000D03*
X131050000Y-94400000D03*
X140029397Y-77015000D03*
X140029397Y-77840000D03*
X126380000Y-75550000D03*
X127330000Y-77900000D03*
X139180000Y-77026000D03*
X149304397Y-77120000D03*
X138304397Y-76190000D03*
X129030000Y-77025000D03*
X131050000Y-92850000D03*
X130275603Y-93650000D03*
X130275603Y-92050000D03*
X152004397Y-75620000D03*
X148379397Y-75595000D03*
X131050000Y-93650000D03*
X152029397Y-78570000D03*
X128180000Y-76150000D03*
X131850000Y-93650000D03*
X130275603Y-92850000D03*
X127330000Y-77025000D03*
X151004397Y-77920000D03*
X138304397Y-77015000D03*
X141004397Y-75540000D03*
X149304397Y-76270000D03*
%TO.N,SH_A*%
X135075000Y-72030000D03*
X156375603Y-89600000D03*
%TO.N,GH_C*%
X160375603Y-86850000D03*
X161475603Y-88100000D03*
%TO.N,SH_C*%
X156690000Y-72060000D03*
X159400000Y-81440000D03*
%TO.N,GH_B*%
X146875603Y-86850000D03*
X159625603Y-89100000D03*
%TO.N,GH_A*%
X159125603Y-91850000D03*
X122080000Y-80580000D03*
%TO.N,Vshunt_1+*%
X169275603Y-82850000D03*
X134400000Y-84200000D03*
%TO.N,Net-(Q1-G)*%
X134200000Y-82200000D03*
X164875603Y-84350000D03*
%TO.N,Vshunt_2+*%
X145875000Y-84125000D03*
X168275603Y-82250000D03*
%TO.N,Net-(Q3-G)*%
X147000000Y-85325000D03*
X165875603Y-83600000D03*
%TO.N,Vshunt_3+*%
X167075603Y-81650000D03*
X159800000Y-84397000D03*
%TO.N,STATUS*%
X163375603Y-97950000D03*
X159684267Y-100225000D03*
%TO.N,Curr_fdbk1_OPAmp+*%
X169075603Y-104650000D03*
X172675603Y-96250000D03*
%TO.N,Curr_fdbk2_OPAmp+*%
X171875603Y-96050000D03*
X170375603Y-102750000D03*
%TO.N,Curr_fdbk3_OPAmp+*%
X169375603Y-100950000D03*
X171075603Y-95850000D03*
%TO.N,VCC_5V*%
X144875603Y-113850000D03*
X130275603Y-111450000D03*
X130675603Y-114850000D03*
X151475603Y-96250000D03*
X147875603Y-110250000D03*
%TO.N,CAN_TX*%
X158275603Y-114650000D03*
X127475603Y-117250000D03*
%TO.N,CAN_RX*%
X131875603Y-113650000D03*
X148151338Y-104525735D03*
%TO.N,VBUS*%
X170875603Y-107650000D03*
X167978103Y-80460000D03*
%TO.N,TEMP_FEEDBACK*%
X156075603Y-94450000D03*
X163475603Y-96850000D03*
X121520000Y-82460000D03*
%TO.N,HIN2*%
X156275603Y-97850000D03*
X157475603Y-98900000D03*
%TO.N,LIN2*%
X162125603Y-96350000D03*
X157275603Y-102350000D03*
%TO.N,HIN1*%
X158214067Y-98592307D03*
X156875603Y-96850000D03*
%TO.N,LIN1*%
X163801310Y-110175707D03*
X162125603Y-95350000D03*
%TD*%
%TA.AperFunction,Conductor*%
%TO.N,GND*%
G36*
X142942091Y-60855184D02*
G01*
X144066409Y-60891990D01*
X144070434Y-60892189D01*
X145192926Y-60965762D01*
X145196967Y-60966092D01*
X146316484Y-61076354D01*
X146320416Y-61076807D01*
X147435730Y-61223641D01*
X147439697Y-61224229D01*
X148549636Y-61407481D01*
X148553578Y-61408199D01*
X149656885Y-61627661D01*
X149660748Y-61628494D01*
X150756317Y-61883945D01*
X150760252Y-61884931D01*
X151234490Y-62012002D01*
X151846843Y-62176081D01*
X151850669Y-62177174D01*
X152927203Y-62503737D01*
X152931009Y-62504960D01*
X153996231Y-62866555D01*
X154000024Y-62867912D01*
X155024855Y-63253631D01*
X155052809Y-63264152D01*
X155056578Y-63265641D01*
X156095869Y-63696129D01*
X156099557Y-63697728D01*
X156253562Y-63767507D01*
X157124195Y-64161985D01*
X157127863Y-64163720D01*
X158136743Y-64661245D01*
X158140352Y-64663099D01*
X159132428Y-65193374D01*
X159135925Y-65195317D01*
X160110151Y-65757787D01*
X160113617Y-65759865D01*
X161068862Y-66353874D01*
X161072273Y-66356073D01*
X162007588Y-66981032D01*
X162010924Y-66983341D01*
X162925280Y-67638559D01*
X162928539Y-67640976D01*
X163820971Y-68325763D01*
X163824150Y-68328286D01*
X164693716Y-69041920D01*
X164696773Y-69044513D01*
X165185860Y-69473432D01*
X165542534Y-69786227D01*
X165545540Y-69788952D01*
X166366543Y-70557904D01*
X166369459Y-70560726D01*
X167164876Y-71356143D01*
X167167698Y-71359059D01*
X167936650Y-72180062D01*
X167939375Y-72183068D01*
X168278959Y-72570289D01*
X168655341Y-72999470D01*
X168681073Y-73028811D01*
X168683687Y-73031892D01*
X168932916Y-73335578D01*
X169397316Y-73901452D01*
X169399839Y-73904631D01*
X170084626Y-74797063D01*
X170087043Y-74800322D01*
X170742261Y-75714678D01*
X170744570Y-75718014D01*
X171369529Y-76653329D01*
X171371728Y-76656740D01*
X171965737Y-77611985D01*
X171967823Y-77615465D01*
X172113746Y-77868211D01*
X172524031Y-78578846D01*
X172530271Y-78589653D01*
X172532239Y-78593195D01*
X172557958Y-78641312D01*
X173062503Y-79585250D01*
X173064357Y-79588859D01*
X173561882Y-80597739D01*
X173563617Y-80601407D01*
X174027866Y-81626028D01*
X174029480Y-81629751D01*
X174459959Y-82669019D01*
X174461450Y-82672793D01*
X174857685Y-83725565D01*
X174859052Y-83729385D01*
X175220632Y-84794564D01*
X175221874Y-84798428D01*
X175333600Y-85166738D01*
X175534877Y-85830261D01*
X175548415Y-85874888D01*
X175549529Y-85878790D01*
X175840671Y-86965350D01*
X175841657Y-86969285D01*
X176020626Y-87736841D01*
X176090533Y-88036656D01*
X176097095Y-88064796D01*
X176097951Y-88068763D01*
X176317398Y-89171999D01*
X176318125Y-89175991D01*
X176501369Y-90285882D01*
X176501964Y-90289896D01*
X176648789Y-91405137D01*
X176649253Y-91409168D01*
X176759509Y-92528632D01*
X176759840Y-92532676D01*
X176833413Y-93655168D01*
X176833613Y-93659221D01*
X176870419Y-94783511D01*
X176870485Y-94787568D01*
X176870485Y-95912431D01*
X176870419Y-95916488D01*
X176833613Y-97040778D01*
X176833413Y-97044831D01*
X176759840Y-98167323D01*
X176759509Y-98171367D01*
X176649253Y-99290831D01*
X176648789Y-99294862D01*
X176501964Y-100410103D01*
X176501369Y-100414117D01*
X176318125Y-101524008D01*
X176317398Y-101528000D01*
X176097951Y-102631236D01*
X176097095Y-102635203D01*
X175841657Y-103730714D01*
X175840671Y-103734649D01*
X175549529Y-104821209D01*
X175548415Y-104825111D01*
X175221874Y-105901571D01*
X175220632Y-105905435D01*
X174859052Y-106970614D01*
X174857685Y-106974434D01*
X174461450Y-108027206D01*
X174459959Y-108030980D01*
X174029480Y-109070248D01*
X174027866Y-109073971D01*
X173563617Y-110098592D01*
X173561882Y-110102260D01*
X173064357Y-111111140D01*
X173062503Y-111114749D01*
X172532242Y-112106799D01*
X172530271Y-112110346D01*
X171967823Y-113084534D01*
X171965737Y-113088014D01*
X171371728Y-114043259D01*
X171369529Y-114046670D01*
X170744570Y-114981985D01*
X170742261Y-114985321D01*
X170087043Y-115899677D01*
X170084626Y-115902936D01*
X169399839Y-116795368D01*
X169397316Y-116798547D01*
X168683698Y-117668094D01*
X168681073Y-117671188D01*
X167939375Y-118516931D01*
X167936650Y-118519937D01*
X167167698Y-119340940D01*
X167164876Y-119343856D01*
X166369459Y-120139273D01*
X166366543Y-120142095D01*
X165545540Y-120911047D01*
X165542534Y-120913772D01*
X164696791Y-121655470D01*
X164693697Y-121658095D01*
X163824150Y-122371713D01*
X163820971Y-122374236D01*
X162928539Y-123059023D01*
X162925280Y-123061440D01*
X162010924Y-123716658D01*
X162007588Y-123718967D01*
X161072273Y-124343926D01*
X161068862Y-124346125D01*
X160113617Y-124940134D01*
X160110137Y-124942220D01*
X159135949Y-125504668D01*
X159132402Y-125506639D01*
X158140352Y-126036900D01*
X158136743Y-126038754D01*
X157127863Y-126536279D01*
X157124195Y-126538014D01*
X156099574Y-127002263D01*
X156095851Y-127003877D01*
X155056583Y-127434356D01*
X155052809Y-127435847D01*
X154000037Y-127832082D01*
X153996217Y-127833449D01*
X152931038Y-128195029D01*
X152927174Y-128196271D01*
X151850714Y-128522812D01*
X151846812Y-128523926D01*
X150760252Y-128815068D01*
X150756317Y-128816054D01*
X149660806Y-129071492D01*
X149656839Y-129072348D01*
X148553603Y-129291795D01*
X148549611Y-129292522D01*
X147439720Y-129475766D01*
X147435706Y-129476361D01*
X146320465Y-129623186D01*
X146316434Y-129623650D01*
X145196970Y-129733906D01*
X145192926Y-129734237D01*
X144070434Y-129807810D01*
X144066381Y-129808010D01*
X142942091Y-129844816D01*
X142938034Y-129844882D01*
X141813172Y-129844882D01*
X141809115Y-129844816D01*
X140684824Y-129808010D01*
X140680771Y-129807810D01*
X139558279Y-129734237D01*
X139554235Y-129733906D01*
X138434771Y-129623650D01*
X138430740Y-129623186D01*
X137315499Y-129476361D01*
X137311485Y-129475766D01*
X136201594Y-129292522D01*
X136197602Y-129291795D01*
X135094366Y-129072348D01*
X135090412Y-129071494D01*
X134801175Y-129004054D01*
X133994888Y-128816054D01*
X133990953Y-128815068D01*
X132904393Y-128523926D01*
X132900491Y-128522812D01*
X131824031Y-128196271D01*
X131820167Y-128195029D01*
X130754988Y-127833449D01*
X130751168Y-127832082D01*
X129698396Y-127435847D01*
X129694622Y-127434356D01*
X128655354Y-127003877D01*
X128651631Y-127002263D01*
X127627010Y-126538014D01*
X127623342Y-126536279D01*
X126614462Y-126038754D01*
X126610853Y-126036900D01*
X125618803Y-125506639D01*
X125615256Y-125504668D01*
X124641068Y-124942220D01*
X124637588Y-124940134D01*
X124483220Y-124844142D01*
X124321717Y-124743713D01*
X139235103Y-124743713D01*
X139235103Y-124956287D01*
X139268357Y-125166243D01*
X139276184Y-125190333D01*
X139334047Y-125368414D01*
X139430554Y-125557820D01*
X139555493Y-125729786D01*
X139705816Y-125880109D01*
X139877782Y-126005048D01*
X139877784Y-126005049D01*
X139877787Y-126005051D01*
X140067191Y-126101557D01*
X140269360Y-126167246D01*
X140479316Y-126200500D01*
X140479317Y-126200500D01*
X140691889Y-126200500D01*
X140691890Y-126200500D01*
X140901846Y-126167246D01*
X141104015Y-126101557D01*
X141293419Y-126005051D01*
X141380081Y-125942088D01*
X141465389Y-125880109D01*
X141465391Y-125880106D01*
X141465395Y-125880104D01*
X141615707Y-125729792D01*
X141615709Y-125729788D01*
X141615712Y-125729786D01*
X141740651Y-125557820D01*
X141740650Y-125557820D01*
X141740654Y-125557816D01*
X141745117Y-125549054D01*
X141793091Y-125498259D01*
X141860911Y-125481463D01*
X141927047Y-125503999D01*
X141966089Y-125549056D01*
X141970554Y-125557820D01*
X142095493Y-125729786D01*
X142245816Y-125880109D01*
X142417782Y-126005048D01*
X142417784Y-126005049D01*
X142417787Y-126005051D01*
X142607191Y-126101557D01*
X142809360Y-126167246D01*
X143019316Y-126200500D01*
X143019317Y-126200500D01*
X143231889Y-126200500D01*
X143231890Y-126200500D01*
X143441846Y-126167246D01*
X143644015Y-126101557D01*
X143833419Y-126005051D01*
X143920081Y-125942088D01*
X144005387Y-125880110D01*
X144005387Y-125880109D01*
X144005395Y-125880104D01*
X144119320Y-125766178D01*
X144180639Y-125732696D01*
X144250331Y-125737680D01*
X144306265Y-125779551D01*
X144323180Y-125810528D01*
X144372249Y-125942088D01*
X144372252Y-125942093D01*
X144458412Y-126057187D01*
X144458415Y-126057190D01*
X144573509Y-126143350D01*
X144573516Y-126143354D01*
X144708223Y-126193596D01*
X144708230Y-126193598D01*
X144767758Y-126199999D01*
X144767775Y-126200000D01*
X145165603Y-126200000D01*
X146165603Y-126200000D01*
X146563431Y-126200000D01*
X146563447Y-126199999D01*
X146622975Y-126193598D01*
X146622982Y-126193596D01*
X146757689Y-126143354D01*
X146757696Y-126143350D01*
X146872790Y-126057190D01*
X146872793Y-126057187D01*
X146958953Y-125942093D01*
X146958957Y-125942086D01*
X147009199Y-125807379D01*
X147009201Y-125807372D01*
X147015602Y-125747844D01*
X147015603Y-125747827D01*
X147015603Y-125350000D01*
X146165603Y-125350000D01*
X146165603Y-126200000D01*
X145165603Y-126200000D01*
X145165603Y-124915826D01*
X145199678Y-125042993D01*
X145265504Y-125157007D01*
X145358596Y-125250099D01*
X145472610Y-125315925D01*
X145599777Y-125350000D01*
X145731429Y-125350000D01*
X145858596Y-125315925D01*
X145972610Y-125250099D01*
X146065702Y-125157007D01*
X146131528Y-125042993D01*
X146165603Y-124915826D01*
X146165603Y-124784174D01*
X146131528Y-124657007D01*
X146065702Y-124542993D01*
X145972610Y-124449901D01*
X145858596Y-124384075D01*
X145731429Y-124350000D01*
X146165603Y-124350000D01*
X147015603Y-124350000D01*
X147015603Y-123952172D01*
X147015602Y-123952155D01*
X147009201Y-123892627D01*
X147009199Y-123892620D01*
X146958957Y-123757913D01*
X146958953Y-123757906D01*
X146872793Y-123642812D01*
X146872790Y-123642809D01*
X146757696Y-123556649D01*
X146757689Y-123556645D01*
X146622982Y-123506403D01*
X146622975Y-123506401D01*
X146563447Y-123500000D01*
X146165603Y-123500000D01*
X146165603Y-124350000D01*
X145731429Y-124350000D01*
X145599777Y-124350000D01*
X145472610Y-124384075D01*
X145358596Y-124449901D01*
X145265504Y-124542993D01*
X145199678Y-124657007D01*
X145165603Y-124784174D01*
X145165603Y-123500000D01*
X144767758Y-123500000D01*
X144708230Y-123506401D01*
X144708223Y-123506403D01*
X144573516Y-123556645D01*
X144573509Y-123556649D01*
X144458415Y-123642809D01*
X144458412Y-123642812D01*
X144372252Y-123757906D01*
X144372249Y-123757912D01*
X144323180Y-123889471D01*
X144281308Y-123945404D01*
X144215844Y-123969821D01*
X144147571Y-123954969D01*
X144119317Y-123933818D01*
X144005389Y-123819890D01*
X143833423Y-123694951D01*
X143644017Y-123598444D01*
X143644016Y-123598443D01*
X143644015Y-123598443D01*
X143441846Y-123532754D01*
X143441844Y-123532753D01*
X143441843Y-123532753D01*
X143280560Y-123507208D01*
X143231890Y-123499500D01*
X143019316Y-123499500D01*
X142970645Y-123507208D01*
X142809363Y-123532753D01*
X142607188Y-123598444D01*
X142417782Y-123694951D01*
X142245816Y-123819890D01*
X142095493Y-123970213D01*
X141970552Y-124142182D01*
X141966087Y-124150946D01*
X141918112Y-124201742D01*
X141850291Y-124218536D01*
X141784156Y-124195998D01*
X141745119Y-124150946D01*
X141740653Y-124142182D01*
X141615712Y-123970213D01*
X141465389Y-123819890D01*
X141293423Y-123694951D01*
X141104017Y-123598444D01*
X141104016Y-123598443D01*
X141104015Y-123598443D01*
X140901846Y-123532754D01*
X140901844Y-123532753D01*
X140901843Y-123532753D01*
X140740560Y-123507208D01*
X140691890Y-123499500D01*
X140479316Y-123499500D01*
X140430645Y-123507208D01*
X140269363Y-123532753D01*
X140067188Y-123598444D01*
X139877782Y-123694951D01*
X139705816Y-123819890D01*
X139555493Y-123970213D01*
X139430554Y-124142179D01*
X139334047Y-124331585D01*
X139268356Y-124533760D01*
X139266894Y-124542993D01*
X139235103Y-124743713D01*
X124321717Y-124743713D01*
X123682343Y-124346125D01*
X123678932Y-124343926D01*
X122743617Y-123718967D01*
X122740281Y-123716658D01*
X121825925Y-123061440D01*
X121822666Y-123059023D01*
X120930234Y-122374236D01*
X120927055Y-122371713D01*
X120229270Y-121799056D01*
X120057495Y-121658084D01*
X120054414Y-121655470D01*
X119400577Y-121082069D01*
X119299826Y-120993713D01*
X139235103Y-120993713D01*
X139235103Y-121206286D01*
X139268356Y-121416239D01*
X139334047Y-121618414D01*
X139430554Y-121807820D01*
X139555493Y-121979786D01*
X139705816Y-122130109D01*
X139877782Y-122255048D01*
X139877784Y-122255049D01*
X139877787Y-122255051D01*
X140067191Y-122351557D01*
X140269360Y-122417246D01*
X140479316Y-122450500D01*
X140479317Y-122450500D01*
X140691889Y-122450500D01*
X140691890Y-122450500D01*
X140901846Y-122417246D01*
X141104015Y-122351557D01*
X141293419Y-122255051D01*
X141380081Y-122192088D01*
X141465389Y-122130109D01*
X141465391Y-122130106D01*
X141465395Y-122130104D01*
X141615707Y-121979792D01*
X141615709Y-121979788D01*
X141615712Y-121979786D01*
X141740651Y-121807820D01*
X141740650Y-121807820D01*
X141740654Y-121807816D01*
X141745117Y-121799054D01*
X141793091Y-121748259D01*
X141860911Y-121731463D01*
X141927047Y-121753999D01*
X141966089Y-121799056D01*
X141970554Y-121807820D01*
X142095493Y-121979786D01*
X142245816Y-122130109D01*
X142417782Y-122255048D01*
X142417784Y-122255049D01*
X142417787Y-122255051D01*
X142607191Y-122351557D01*
X142809360Y-122417246D01*
X143019316Y-122450500D01*
X143019317Y-122450500D01*
X143231889Y-122450500D01*
X143231890Y-122450500D01*
X143441846Y-122417246D01*
X143644015Y-122351557D01*
X143833419Y-122255051D01*
X143920081Y-122192088D01*
X144005387Y-122130110D01*
X144005387Y-122130109D01*
X144005395Y-122130104D01*
X144119320Y-122016178D01*
X144180639Y-121982696D01*
X144250331Y-121987680D01*
X144306265Y-122029551D01*
X144323180Y-122060528D01*
X144372249Y-122192088D01*
X144372252Y-122192093D01*
X144458412Y-122307187D01*
X144458415Y-122307190D01*
X144573509Y-122393350D01*
X144573516Y-122393354D01*
X144708223Y-122443596D01*
X144708230Y-122443598D01*
X144767758Y-122449999D01*
X144767775Y-122450000D01*
X145165603Y-122450000D01*
X146165603Y-122450000D01*
X146563431Y-122450000D01*
X146563447Y-122449999D01*
X146622975Y-122443598D01*
X146622982Y-122443596D01*
X146757689Y-122393354D01*
X146757696Y-122393350D01*
X146872790Y-122307190D01*
X146872793Y-122307187D01*
X146958953Y-122192093D01*
X146958957Y-122192086D01*
X147009199Y-122057379D01*
X147009201Y-122057372D01*
X147015602Y-121997844D01*
X147015603Y-121997827D01*
X147015603Y-121600000D01*
X146165603Y-121600000D01*
X146165603Y-122450000D01*
X145165603Y-122450000D01*
X145165603Y-121165826D01*
X145199678Y-121292993D01*
X145265504Y-121407007D01*
X145358596Y-121500099D01*
X145472610Y-121565925D01*
X145599777Y-121600000D01*
X145731429Y-121600000D01*
X145858596Y-121565925D01*
X145972610Y-121500099D01*
X146065702Y-121407007D01*
X146131528Y-121292993D01*
X146165603Y-121165826D01*
X146165603Y-121034174D01*
X146131528Y-120907007D01*
X146065702Y-120792993D01*
X145972610Y-120699901D01*
X145858596Y-120634075D01*
X145731429Y-120600000D01*
X146165603Y-120600000D01*
X147015603Y-120600000D01*
X147015603Y-120202172D01*
X147015602Y-120202155D01*
X147009201Y-120142627D01*
X147009199Y-120142620D01*
X146958957Y-120007913D01*
X146958953Y-120007906D01*
X146872793Y-119892812D01*
X146872790Y-119892809D01*
X146757696Y-119806649D01*
X146757689Y-119806645D01*
X146622982Y-119756403D01*
X146622975Y-119756401D01*
X146563447Y-119750000D01*
X146165603Y-119750000D01*
X146165603Y-120600000D01*
X145731429Y-120600000D01*
X145599777Y-120600000D01*
X145472610Y-120634075D01*
X145358596Y-120699901D01*
X145265504Y-120792993D01*
X145199678Y-120907007D01*
X145165603Y-121034174D01*
X145165603Y-119750000D01*
X144767758Y-119750000D01*
X144708230Y-119756401D01*
X144708223Y-119756403D01*
X144573516Y-119806645D01*
X144573509Y-119806649D01*
X144458415Y-119892809D01*
X144458412Y-119892812D01*
X144372252Y-120007906D01*
X144372249Y-120007912D01*
X144323180Y-120139471D01*
X144281308Y-120195404D01*
X144215844Y-120219821D01*
X144147571Y-120204969D01*
X144119317Y-120183818D01*
X144005389Y-120069890D01*
X143833423Y-119944951D01*
X143644017Y-119848444D01*
X143644016Y-119848443D01*
X143644015Y-119848443D01*
X143441846Y-119782754D01*
X143441844Y-119782753D01*
X143441843Y-119782753D01*
X143280560Y-119757208D01*
X143231890Y-119749500D01*
X143019316Y-119749500D01*
X142970645Y-119757208D01*
X142809363Y-119782753D01*
X142607188Y-119848444D01*
X142417782Y-119944951D01*
X142245816Y-120069890D01*
X142095493Y-120220213D01*
X141970552Y-120392182D01*
X141966087Y-120400946D01*
X141918112Y-120451742D01*
X141850291Y-120468536D01*
X141784156Y-120445998D01*
X141745119Y-120400946D01*
X141740653Y-120392182D01*
X141615712Y-120220213D01*
X141465389Y-120069890D01*
X141293423Y-119944951D01*
X141104017Y-119848444D01*
X141104016Y-119848443D01*
X141104015Y-119848443D01*
X140901846Y-119782754D01*
X140901844Y-119782753D01*
X140901843Y-119782753D01*
X140740560Y-119757208D01*
X140691890Y-119749500D01*
X140479316Y-119749500D01*
X140430645Y-119757208D01*
X140269363Y-119782753D01*
X140067188Y-119848444D01*
X139877782Y-119944951D01*
X139705816Y-120069890D01*
X139555493Y-120220213D01*
X139430554Y-120392179D01*
X139334047Y-120581585D01*
X139268356Y-120783760D01*
X139235103Y-120993713D01*
X119299826Y-120993713D01*
X119208671Y-120913772D01*
X119205665Y-120911047D01*
X118384662Y-120142095D01*
X118381746Y-120139273D01*
X118013626Y-119771153D01*
X137075103Y-119771153D01*
X137075103Y-119928846D01*
X137105864Y-120083489D01*
X137105867Y-120083501D01*
X137166205Y-120229172D01*
X137166212Y-120229185D01*
X137253813Y-120360288D01*
X137253816Y-120360292D01*
X137365310Y-120471786D01*
X137365314Y-120471789D01*
X137496417Y-120559390D01*
X137496430Y-120559397D01*
X137550005Y-120581588D01*
X137642106Y-120619737D01*
X137796756Y-120650499D01*
X137796759Y-120650500D01*
X137796761Y-120650500D01*
X137954447Y-120650500D01*
X137954448Y-120650499D01*
X138109100Y-120619737D01*
X138254782Y-120559394D01*
X138385892Y-120471789D01*
X138497392Y-120360289D01*
X138584997Y-120229179D01*
X138645340Y-120083497D01*
X138676103Y-119928842D01*
X138676103Y-119771158D01*
X138676103Y-119771155D01*
X138676102Y-119771153D01*
X138671795Y-119749500D01*
X138645340Y-119616503D01*
X138626558Y-119571158D01*
X138626556Y-119571153D01*
X150675103Y-119571153D01*
X150675103Y-119728846D01*
X150705864Y-119883489D01*
X150705867Y-119883501D01*
X150766205Y-120029172D01*
X150766212Y-120029185D01*
X150853813Y-120160288D01*
X150853816Y-120160292D01*
X150965310Y-120271786D01*
X150965314Y-120271789D01*
X151096417Y-120359390D01*
X151096430Y-120359397D01*
X151196740Y-120400946D01*
X151242106Y-120419737D01*
X151374128Y-120445998D01*
X151396756Y-120450499D01*
X151396759Y-120450500D01*
X151396761Y-120450500D01*
X151554447Y-120450500D01*
X151554448Y-120450499D01*
X151709100Y-120419737D01*
X151854782Y-120359394D01*
X151985892Y-120271789D01*
X152097392Y-120160289D01*
X152184997Y-120029179D01*
X152193809Y-120007906D01*
X152226557Y-119928844D01*
X152245340Y-119883497D01*
X152276103Y-119728842D01*
X152276103Y-119571158D01*
X152276103Y-119571155D01*
X152276102Y-119571153D01*
X152256146Y-119470827D01*
X152245340Y-119416503D01*
X152221315Y-119358500D01*
X152185000Y-119270827D01*
X152184993Y-119270814D01*
X152097392Y-119139711D01*
X152097389Y-119139707D01*
X151985895Y-119028213D01*
X151985891Y-119028210D01*
X151854788Y-118940609D01*
X151854775Y-118940602D01*
X151709104Y-118880264D01*
X151709092Y-118880261D01*
X151554448Y-118849500D01*
X151554445Y-118849500D01*
X151396761Y-118849500D01*
X151396758Y-118849500D01*
X151242113Y-118880261D01*
X151242101Y-118880264D01*
X151096430Y-118940602D01*
X151096417Y-118940609D01*
X150965314Y-119028210D01*
X150965310Y-119028213D01*
X150853816Y-119139707D01*
X150853813Y-119139711D01*
X150766212Y-119270814D01*
X150766205Y-119270827D01*
X150705867Y-119416498D01*
X150705864Y-119416510D01*
X150675103Y-119571153D01*
X138626556Y-119571153D01*
X138585000Y-119470827D01*
X138584993Y-119470814D01*
X138497392Y-119339711D01*
X138497389Y-119339707D01*
X138385895Y-119228213D01*
X138385891Y-119228210D01*
X138254788Y-119140609D01*
X138254775Y-119140602D01*
X138109104Y-119080264D01*
X138109092Y-119080261D01*
X137954448Y-119049500D01*
X137954445Y-119049500D01*
X137796761Y-119049500D01*
X137796758Y-119049500D01*
X137642113Y-119080261D01*
X137642101Y-119080264D01*
X137496430Y-119140602D01*
X137496417Y-119140609D01*
X137365314Y-119228210D01*
X137365310Y-119228213D01*
X137253816Y-119339707D01*
X137253813Y-119339711D01*
X137166212Y-119470814D01*
X137166205Y-119470827D01*
X137105867Y-119616498D01*
X137105864Y-119616510D01*
X137075103Y-119771153D01*
X118013626Y-119771153D01*
X117586329Y-119343856D01*
X117583507Y-119340940D01*
X116814555Y-118519937D01*
X116811830Y-118516931D01*
X116402780Y-118050500D01*
X116070116Y-117671170D01*
X116067523Y-117668113D01*
X115622695Y-117126088D01*
X118254793Y-117126088D01*
X118254793Y-117414531D01*
X118254794Y-117414548D01*
X118292442Y-117700516D01*
X118292443Y-117700521D01*
X118292444Y-117700527D01*
X118356772Y-117940602D01*
X118367102Y-117979154D01*
X118367107Y-117979170D01*
X118477484Y-118245646D01*
X118477492Y-118245662D01*
X118621713Y-118495458D01*
X118621724Y-118495474D01*
X118797317Y-118724312D01*
X118797323Y-118724319D01*
X119001283Y-118928279D01*
X119001289Y-118928284D01*
X119230137Y-119103885D01*
X119230144Y-119103889D01*
X119479940Y-119248110D01*
X119479956Y-119248118D01*
X119746432Y-119358495D01*
X119746438Y-119358496D01*
X119746448Y-119358501D01*
X120025076Y-119433159D01*
X120311065Y-119470810D01*
X120311072Y-119470810D01*
X120599514Y-119470810D01*
X120599521Y-119470810D01*
X120885510Y-119433159D01*
X121164138Y-119358501D01*
X121164150Y-119358495D01*
X121164153Y-119358495D01*
X121430629Y-119248118D01*
X121430632Y-119248116D01*
X121430638Y-119248114D01*
X121680449Y-119103885D01*
X121909297Y-118928284D01*
X122113267Y-118724314D01*
X122230791Y-118571153D01*
X141275103Y-118571153D01*
X141275103Y-118728846D01*
X141305864Y-118883489D01*
X141305867Y-118883501D01*
X141366205Y-119029172D01*
X141366212Y-119029185D01*
X141453813Y-119160288D01*
X141453816Y-119160292D01*
X141565310Y-119271786D01*
X141565314Y-119271789D01*
X141696417Y-119359390D01*
X141696430Y-119359397D01*
X141834286Y-119416498D01*
X141842106Y-119419737D01*
X141996756Y-119450499D01*
X141996759Y-119450500D01*
X141996761Y-119450500D01*
X142154447Y-119450500D01*
X142154448Y-119450499D01*
X142164782Y-119448443D01*
X142189890Y-119443450D01*
X142189895Y-119443449D01*
X142275403Y-119426439D01*
X142309100Y-119419737D01*
X142454782Y-119359394D01*
X142585892Y-119271789D01*
X142697392Y-119160289D01*
X142784997Y-119029179D01*
X142845340Y-118883497D01*
X142876103Y-118728842D01*
X142876103Y-118571158D01*
X142876103Y-118571155D01*
X142876102Y-118571153D01*
X142865618Y-118518448D01*
X142845340Y-118416503D01*
X142805509Y-118320342D01*
X142785000Y-118270827D01*
X142784993Y-118270814D01*
X142697392Y-118139711D01*
X142697389Y-118139707D01*
X142585895Y-118028213D01*
X142585891Y-118028210D01*
X142454788Y-117940609D01*
X142454775Y-117940602D01*
X142309104Y-117880264D01*
X142309092Y-117880261D01*
X142154448Y-117849500D01*
X142154445Y-117849500D01*
X141996761Y-117849500D01*
X141996758Y-117849500D01*
X141842113Y-117880261D01*
X141842101Y-117880264D01*
X141696430Y-117940602D01*
X141696417Y-117940609D01*
X141565314Y-118028210D01*
X141565310Y-118028213D01*
X141453816Y-118139707D01*
X141453813Y-118139711D01*
X141366212Y-118270814D01*
X141366205Y-118270827D01*
X141305867Y-118416498D01*
X141305864Y-118416510D01*
X141275103Y-118571153D01*
X122230791Y-118571153D01*
X122288868Y-118495466D01*
X122433097Y-118245655D01*
X122526676Y-118019735D01*
X122543478Y-117979170D01*
X122543478Y-117979167D01*
X122543484Y-117979155D01*
X122618142Y-117700527D01*
X122655793Y-117414538D01*
X122655793Y-117171153D01*
X126675103Y-117171153D01*
X126675103Y-117328846D01*
X126705864Y-117483489D01*
X126705867Y-117483501D01*
X126766205Y-117629172D01*
X126766212Y-117629185D01*
X126853813Y-117760288D01*
X126853816Y-117760292D01*
X126965310Y-117871786D01*
X126965314Y-117871789D01*
X127096417Y-117959390D01*
X127096430Y-117959397D01*
X127242101Y-118019735D01*
X127242106Y-118019737D01*
X127390844Y-118049323D01*
X127396756Y-118050499D01*
X127396759Y-118050500D01*
X127396761Y-118050500D01*
X127554447Y-118050500D01*
X127554448Y-118050499D01*
X127709100Y-118019737D01*
X127854782Y-117959394D01*
X127985892Y-117871789D01*
X128097392Y-117760289D01*
X128184997Y-117629179D01*
X128245340Y-117483497D01*
X128276103Y-117328842D01*
X128276103Y-117171158D01*
X128276103Y-117171155D01*
X128276102Y-117171153D01*
X128271142Y-117146214D01*
X128267139Y-117126088D01*
X162095413Y-117126088D01*
X162095413Y-117414531D01*
X162095414Y-117414548D01*
X162133062Y-117700516D01*
X162133063Y-117700521D01*
X162133064Y-117700527D01*
X162197392Y-117940602D01*
X162207722Y-117979154D01*
X162207727Y-117979170D01*
X162318104Y-118245646D01*
X162318112Y-118245662D01*
X162462333Y-118495458D01*
X162462344Y-118495474D01*
X162637937Y-118724312D01*
X162637943Y-118724319D01*
X162841903Y-118928279D01*
X162841909Y-118928284D01*
X163070757Y-119103885D01*
X163070764Y-119103889D01*
X163320560Y-119248110D01*
X163320576Y-119248118D01*
X163587052Y-119358495D01*
X163587058Y-119358496D01*
X163587068Y-119358501D01*
X163865696Y-119433159D01*
X164151685Y-119470810D01*
X164151692Y-119470810D01*
X164440134Y-119470810D01*
X164440141Y-119470810D01*
X164726130Y-119433159D01*
X165004758Y-119358501D01*
X165004770Y-119358495D01*
X165004773Y-119358495D01*
X165271249Y-119248118D01*
X165271252Y-119248116D01*
X165271258Y-119248114D01*
X165521069Y-119103885D01*
X165749917Y-118928284D01*
X165953887Y-118724314D01*
X166129488Y-118495466D01*
X166273717Y-118245655D01*
X166367296Y-118019735D01*
X166384098Y-117979170D01*
X166384098Y-117979167D01*
X166384104Y-117979155D01*
X166458762Y-117700527D01*
X166496413Y-117414538D01*
X166496413Y-117126082D01*
X166458762Y-116840093D01*
X166384104Y-116561465D01*
X166384099Y-116561455D01*
X166384098Y-116561449D01*
X166273721Y-116294973D01*
X166273713Y-116294957D01*
X166129492Y-116045161D01*
X166129488Y-116045154D01*
X166078928Y-115979263D01*
X165953888Y-115816307D01*
X165953882Y-115816300D01*
X165749922Y-115612340D01*
X165749915Y-115612334D01*
X165521077Y-115436741D01*
X165521075Y-115436739D01*
X165521069Y-115436735D01*
X165521064Y-115436732D01*
X165521061Y-115436730D01*
X165271265Y-115292509D01*
X165271249Y-115292501D01*
X165004773Y-115182124D01*
X165004761Y-115182120D01*
X165004758Y-115182119D01*
X164726130Y-115107461D01*
X164726124Y-115107460D01*
X164726119Y-115107459D01*
X164440151Y-115069811D01*
X164440146Y-115069810D01*
X164440141Y-115069810D01*
X164151685Y-115069810D01*
X164151679Y-115069810D01*
X164151674Y-115069811D01*
X163865706Y-115107459D01*
X163865699Y-115107460D01*
X163865696Y-115107461D01*
X163668543Y-115160288D01*
X163587068Y-115182119D01*
X163587052Y-115182124D01*
X163320576Y-115292501D01*
X163320560Y-115292509D01*
X163070764Y-115436730D01*
X163070748Y-115436741D01*
X162841910Y-115612334D01*
X162841903Y-115612340D01*
X162637943Y-115816300D01*
X162637937Y-115816307D01*
X162462344Y-116045145D01*
X162462333Y-116045161D01*
X162318112Y-116294957D01*
X162318104Y-116294973D01*
X162207727Y-116561449D01*
X162207722Y-116561465D01*
X162144617Y-116796979D01*
X162133065Y-116840090D01*
X162133062Y-116840103D01*
X162095414Y-117126071D01*
X162095413Y-117126088D01*
X128267139Y-117126088D01*
X128245341Y-117016508D01*
X128245340Y-117016507D01*
X128245340Y-117016503D01*
X128234483Y-116990292D01*
X128185000Y-116870827D01*
X128184993Y-116870814D01*
X128097392Y-116739711D01*
X128097389Y-116739707D01*
X127985895Y-116628213D01*
X127985891Y-116628210D01*
X127854788Y-116540609D01*
X127854775Y-116540602D01*
X127709104Y-116480264D01*
X127709092Y-116480261D01*
X127554448Y-116449500D01*
X127554445Y-116449500D01*
X127396761Y-116449500D01*
X127396758Y-116449500D01*
X127242113Y-116480261D01*
X127242101Y-116480264D01*
X127096430Y-116540602D01*
X127096417Y-116540609D01*
X126965314Y-116628210D01*
X126965310Y-116628213D01*
X126853816Y-116739707D01*
X126853813Y-116739711D01*
X126766212Y-116870814D01*
X126766205Y-116870827D01*
X126705867Y-117016498D01*
X126705864Y-117016510D01*
X126675103Y-117171153D01*
X122655793Y-117171153D01*
X122655793Y-117126082D01*
X122618142Y-116840093D01*
X122543484Y-116561465D01*
X122543479Y-116561455D01*
X122543478Y-116561449D01*
X122433101Y-116294973D01*
X122433093Y-116294957D01*
X122288872Y-116045161D01*
X122288868Y-116045154D01*
X122238308Y-115979263D01*
X122113268Y-115816307D01*
X122113262Y-115816300D01*
X121909302Y-115612340D01*
X121909295Y-115612334D01*
X121680457Y-115436741D01*
X121680455Y-115436739D01*
X121680449Y-115436735D01*
X121680444Y-115436732D01*
X121680441Y-115436730D01*
X121430645Y-115292509D01*
X121430629Y-115292501D01*
X121164153Y-115182124D01*
X121164141Y-115182120D01*
X121164138Y-115182119D01*
X120885510Y-115107461D01*
X120885504Y-115107460D01*
X120885499Y-115107459D01*
X120599531Y-115069811D01*
X120599526Y-115069810D01*
X120599521Y-115069810D01*
X120311065Y-115069810D01*
X120311059Y-115069810D01*
X120311054Y-115069811D01*
X120025086Y-115107459D01*
X120025079Y-115107460D01*
X120025076Y-115107461D01*
X119827923Y-115160288D01*
X119746448Y-115182119D01*
X119746432Y-115182124D01*
X119479956Y-115292501D01*
X119479940Y-115292509D01*
X119230144Y-115436730D01*
X119230128Y-115436741D01*
X119001290Y-115612334D01*
X119001283Y-115612340D01*
X118797323Y-115816300D01*
X118797317Y-115816307D01*
X118621724Y-116045145D01*
X118621713Y-116045161D01*
X118477492Y-116294957D01*
X118477484Y-116294973D01*
X118367107Y-116561449D01*
X118367102Y-116561465D01*
X118303997Y-116796979D01*
X118292445Y-116840090D01*
X118292442Y-116840103D01*
X118254794Y-117126071D01*
X118254793Y-117126088D01*
X115622695Y-117126088D01*
X115458023Y-116925434D01*
X115353889Y-116798547D01*
X115351366Y-116795368D01*
X114666579Y-115902936D01*
X114664162Y-115899677D01*
X114069488Y-115069810D01*
X114008941Y-114985317D01*
X114006635Y-114981985D01*
X113907726Y-114833957D01*
X113865762Y-114771153D01*
X129875103Y-114771153D01*
X129875103Y-114928846D01*
X129905864Y-115083489D01*
X129905867Y-115083501D01*
X129966205Y-115229172D01*
X129966212Y-115229185D01*
X130053813Y-115360288D01*
X130053816Y-115360292D01*
X130165310Y-115471786D01*
X130165314Y-115471789D01*
X130296417Y-115559390D01*
X130296430Y-115559397D01*
X130424233Y-115612334D01*
X130442106Y-115619737D01*
X130596756Y-115650499D01*
X130596759Y-115650500D01*
X130596761Y-115650500D01*
X130754447Y-115650500D01*
X130754448Y-115650499D01*
X130909100Y-115619737D01*
X131054782Y-115559394D01*
X131185892Y-115471789D01*
X131297392Y-115360289D01*
X131384997Y-115229179D01*
X131445340Y-115083497D01*
X131476103Y-114928842D01*
X131476103Y-114771158D01*
X131476103Y-114771155D01*
X131476102Y-114771153D01*
X131445340Y-114616503D01*
X131420765Y-114557175D01*
X131413297Y-114487708D01*
X131444572Y-114425228D01*
X131504661Y-114389576D01*
X131574486Y-114392069D01*
X131582766Y-114395157D01*
X131642106Y-114419737D01*
X131796756Y-114450499D01*
X131796759Y-114450500D01*
X131796761Y-114450500D01*
X131954447Y-114450500D01*
X131954448Y-114450499D01*
X132109100Y-114419737D01*
X132254782Y-114359394D01*
X132385892Y-114271789D01*
X132497392Y-114160289D01*
X132584997Y-114029179D01*
X132645340Y-113883497D01*
X132667686Y-113771158D01*
X132667687Y-113771153D01*
X144075103Y-113771153D01*
X144075103Y-113928846D01*
X144105864Y-114083489D01*
X144105867Y-114083501D01*
X144166205Y-114229172D01*
X144166212Y-114229185D01*
X144253813Y-114360288D01*
X144253816Y-114360292D01*
X144365310Y-114471786D01*
X144365314Y-114471789D01*
X144496417Y-114559390D01*
X144496430Y-114559397D01*
X144634286Y-114616498D01*
X144642106Y-114619737D01*
X144796756Y-114650499D01*
X144796759Y-114650500D01*
X144796761Y-114650500D01*
X144954447Y-114650500D01*
X144954448Y-114650499D01*
X145109100Y-114619737D01*
X145226393Y-114571153D01*
X157475103Y-114571153D01*
X157475103Y-114728846D01*
X157505864Y-114883489D01*
X157505867Y-114883501D01*
X157566205Y-115029172D01*
X157566212Y-115029185D01*
X157653813Y-115160288D01*
X157653816Y-115160292D01*
X157765310Y-115271786D01*
X157765314Y-115271789D01*
X157896417Y-115359390D01*
X157896430Y-115359397D01*
X158042101Y-115419735D01*
X158042106Y-115419737D01*
X158196756Y-115450499D01*
X158196759Y-115450500D01*
X158196761Y-115450500D01*
X158354447Y-115450500D01*
X158354448Y-115450499D01*
X158509100Y-115419737D01*
X158654782Y-115359394D01*
X158785892Y-115271789D01*
X158886797Y-115170883D01*
X158948118Y-115137400D01*
X159017810Y-115142384D01*
X159073744Y-115184255D01*
X159096094Y-115234374D01*
X159105864Y-115283491D01*
X159105867Y-115283501D01*
X159166205Y-115429172D01*
X159166212Y-115429185D01*
X159253813Y-115560288D01*
X159253816Y-115560292D01*
X159365310Y-115671786D01*
X159365314Y-115671789D01*
X159496417Y-115759390D01*
X159496430Y-115759397D01*
X159633808Y-115816300D01*
X159642106Y-115819737D01*
X159796756Y-115850499D01*
X159796759Y-115850500D01*
X159796761Y-115850500D01*
X159954447Y-115850500D01*
X159954448Y-115850499D01*
X160109100Y-115819737D01*
X160254782Y-115759394D01*
X160385892Y-115671789D01*
X160497392Y-115560289D01*
X160584997Y-115429179D01*
X160645340Y-115283497D01*
X160676103Y-115128842D01*
X160676103Y-114971158D01*
X160676103Y-114971155D01*
X160676102Y-114971153D01*
X160645340Y-114816503D01*
X160626558Y-114771158D01*
X160585000Y-114670827D01*
X160584993Y-114670814D01*
X160497392Y-114539711D01*
X160497389Y-114539707D01*
X160385895Y-114428213D01*
X160385891Y-114428210D01*
X160254788Y-114340609D01*
X160254775Y-114340602D01*
X160109104Y-114280264D01*
X160109092Y-114280261D01*
X159954448Y-114249500D01*
X159954445Y-114249500D01*
X159796761Y-114249500D01*
X159796758Y-114249500D01*
X159642113Y-114280261D01*
X159642101Y-114280264D01*
X159496430Y-114340602D01*
X159496417Y-114340609D01*
X159365314Y-114428210D01*
X159264409Y-114529115D01*
X159203086Y-114562599D01*
X159133394Y-114557615D01*
X159077461Y-114515743D01*
X159055111Y-114465624D01*
X159047669Y-114428210D01*
X159045340Y-114416503D01*
X159013532Y-114339711D01*
X158985000Y-114270827D01*
X158984993Y-114270814D01*
X158897392Y-114139711D01*
X158897389Y-114139707D01*
X158785895Y-114028213D01*
X158785891Y-114028210D01*
X158654788Y-113940609D01*
X158654775Y-113940602D01*
X158509104Y-113880264D01*
X158509092Y-113880261D01*
X158354448Y-113849500D01*
X158354445Y-113849500D01*
X158196761Y-113849500D01*
X158196758Y-113849500D01*
X158042113Y-113880261D01*
X158042101Y-113880264D01*
X157896430Y-113940602D01*
X157896417Y-113940609D01*
X157765314Y-114028210D01*
X157765310Y-114028213D01*
X157653816Y-114139707D01*
X157653813Y-114139711D01*
X157566212Y-114270814D01*
X157566205Y-114270827D01*
X157505867Y-114416498D01*
X157505864Y-114416510D01*
X157475103Y-114571153D01*
X145226393Y-114571153D01*
X145254775Y-114559397D01*
X145254775Y-114559396D01*
X145254782Y-114559394D01*
X145385892Y-114471789D01*
X145497392Y-114360289D01*
X145584997Y-114229179D01*
X145645340Y-114083497D01*
X145676103Y-113928842D01*
X145676103Y-113771158D01*
X145676103Y-113771155D01*
X145676102Y-113771153D01*
X145670079Y-113740874D01*
X145645340Y-113616503D01*
X145626558Y-113571158D01*
X145585000Y-113470827D01*
X145584993Y-113470814D01*
X145497392Y-113339711D01*
X145497389Y-113339707D01*
X145385895Y-113228213D01*
X145385891Y-113228210D01*
X145254788Y-113140609D01*
X145254775Y-113140602D01*
X145109104Y-113080264D01*
X145109092Y-113080261D01*
X144954448Y-113049500D01*
X144954445Y-113049500D01*
X144796761Y-113049500D01*
X144796758Y-113049500D01*
X144642113Y-113080261D01*
X144642101Y-113080264D01*
X144496430Y-113140602D01*
X144496417Y-113140609D01*
X144365314Y-113228210D01*
X144365310Y-113228213D01*
X144253816Y-113339707D01*
X144253813Y-113339711D01*
X144166212Y-113470814D01*
X144166205Y-113470827D01*
X144105867Y-113616498D01*
X144105864Y-113616510D01*
X144075103Y-113771153D01*
X132667687Y-113771153D01*
X132673710Y-113740875D01*
X132673710Y-113740874D01*
X132676103Y-113728844D01*
X132676103Y-113571155D01*
X132676102Y-113571153D01*
X132656146Y-113470827D01*
X132645340Y-113416503D01*
X132613532Y-113339711D01*
X132585000Y-113270827D01*
X132584993Y-113270814D01*
X132497392Y-113139711D01*
X132497389Y-113139707D01*
X132385895Y-113028213D01*
X132385891Y-113028210D01*
X132254788Y-112940609D01*
X132254775Y-112940602D01*
X132109104Y-112880264D01*
X132109092Y-112880261D01*
X131954448Y-112849500D01*
X131954445Y-112849500D01*
X131796761Y-112849500D01*
X131796758Y-112849500D01*
X131642113Y-112880261D01*
X131642101Y-112880264D01*
X131496430Y-112940602D01*
X131496417Y-112940609D01*
X131365314Y-113028210D01*
X131365310Y-113028213D01*
X131253816Y-113139707D01*
X131253813Y-113139711D01*
X131166212Y-113270814D01*
X131166205Y-113270827D01*
X131105867Y-113416498D01*
X131105864Y-113416510D01*
X131075103Y-113571153D01*
X131075103Y-113728846D01*
X131105864Y-113883489D01*
X131105867Y-113883501D01*
X131130439Y-113942823D01*
X131137908Y-114012292D01*
X131106632Y-114074771D01*
X131046543Y-114110423D01*
X130976718Y-114107929D01*
X130968426Y-114104836D01*
X130909104Y-114080264D01*
X130909092Y-114080261D01*
X130754448Y-114049500D01*
X130754445Y-114049500D01*
X130596761Y-114049500D01*
X130596758Y-114049500D01*
X130442113Y-114080261D01*
X130442101Y-114080264D01*
X130296430Y-114140602D01*
X130296417Y-114140609D01*
X130165314Y-114228210D01*
X130165310Y-114228213D01*
X130053816Y-114339707D01*
X130053813Y-114339711D01*
X129966212Y-114470814D01*
X129966205Y-114470827D01*
X129905867Y-114616498D01*
X129905864Y-114616510D01*
X129875103Y-114771153D01*
X113865762Y-114771153D01*
X113590632Y-114359394D01*
X113381670Y-114046661D01*
X113379477Y-114043259D01*
X113370119Y-114028210D01*
X112785460Y-113088000D01*
X112783382Y-113084534D01*
X112763155Y-113049500D01*
X112220920Y-112110322D01*
X112218977Y-112106825D01*
X111910039Y-111528842D01*
X111853743Y-111423519D01*
X111825753Y-111371153D01*
X129475103Y-111371153D01*
X129475103Y-111528846D01*
X129505864Y-111683489D01*
X129505867Y-111683501D01*
X129566205Y-111829172D01*
X129566212Y-111829185D01*
X129653813Y-111960288D01*
X129653816Y-111960292D01*
X129765310Y-112071786D01*
X129765314Y-112071789D01*
X129896417Y-112159390D01*
X129896430Y-112159397D01*
X130042101Y-112219735D01*
X130042106Y-112219737D01*
X130196756Y-112250499D01*
X130196759Y-112250500D01*
X130196761Y-112250500D01*
X130354447Y-112250500D01*
X130354448Y-112250499D01*
X130509100Y-112219737D01*
X130654782Y-112159394D01*
X130785892Y-112071789D01*
X130886528Y-111971153D01*
X137275103Y-111971153D01*
X137275103Y-112128846D01*
X137305864Y-112283489D01*
X137305867Y-112283501D01*
X137366205Y-112429172D01*
X137366212Y-112429185D01*
X137453813Y-112560288D01*
X137453816Y-112560292D01*
X137565310Y-112671786D01*
X137565314Y-112671789D01*
X137696417Y-112759390D01*
X137696430Y-112759397D01*
X137842101Y-112819735D01*
X137842106Y-112819737D01*
X137991734Y-112849500D01*
X137996756Y-112850499D01*
X137996759Y-112850500D01*
X137996761Y-112850500D01*
X138154447Y-112850500D01*
X138154448Y-112850499D01*
X138309100Y-112819737D01*
X138454782Y-112759394D01*
X138585892Y-112671789D01*
X138686528Y-112571153D01*
X140075103Y-112571153D01*
X140075103Y-112728846D01*
X140105864Y-112883489D01*
X140105867Y-112883501D01*
X140166205Y-113029172D01*
X140166212Y-113029185D01*
X140253813Y-113160288D01*
X140253816Y-113160292D01*
X140365310Y-113271786D01*
X140365314Y-113271789D01*
X140496417Y-113359390D01*
X140496430Y-113359397D01*
X140634286Y-113416498D01*
X140642106Y-113419737D01*
X140796756Y-113450499D01*
X140796759Y-113450500D01*
X140796761Y-113450500D01*
X140954447Y-113450500D01*
X140954448Y-113450499D01*
X141109100Y-113419737D01*
X141254782Y-113359394D01*
X141385892Y-113271789D01*
X141497392Y-113160289D01*
X141584997Y-113029179D01*
X141645340Y-112883497D01*
X141676103Y-112728842D01*
X141676103Y-112571158D01*
X141676103Y-112571155D01*
X141676102Y-112571153D01*
X141661188Y-112496175D01*
X141645340Y-112416503D01*
X141645338Y-112416498D01*
X141585000Y-112270827D01*
X141584993Y-112270814D01*
X141497392Y-112139711D01*
X141497389Y-112139707D01*
X141385895Y-112028213D01*
X141385891Y-112028210D01*
X141254788Y-111940609D01*
X141254775Y-111940602D01*
X141109104Y-111880264D01*
X141109092Y-111880261D01*
X140954448Y-111849500D01*
X140954445Y-111849500D01*
X140796761Y-111849500D01*
X140796758Y-111849500D01*
X140642113Y-111880261D01*
X140642101Y-111880264D01*
X140496430Y-111940602D01*
X140496417Y-111940609D01*
X140365314Y-112028210D01*
X140365310Y-112028213D01*
X140253816Y-112139707D01*
X140253813Y-112139711D01*
X140166212Y-112270814D01*
X140166205Y-112270827D01*
X140105867Y-112416498D01*
X140105864Y-112416510D01*
X140075103Y-112571153D01*
X138686528Y-112571153D01*
X138697392Y-112560289D01*
X138784997Y-112429179D01*
X138845340Y-112283497D01*
X138876103Y-112128842D01*
X138876103Y-111971158D01*
X138876103Y-111971155D01*
X138876102Y-111971153D01*
X138852102Y-111850499D01*
X138845340Y-111816503D01*
X138821683Y-111759390D01*
X138785000Y-111670827D01*
X138784993Y-111670814D01*
X138697392Y-111539711D01*
X138697389Y-111539707D01*
X138585895Y-111428213D01*
X138585891Y-111428210D01*
X138454788Y-111340609D01*
X138454775Y-111340602D01*
X138309104Y-111280264D01*
X138309092Y-111280261D01*
X138154448Y-111249500D01*
X138154445Y-111249500D01*
X137996761Y-111249500D01*
X137996758Y-111249500D01*
X137842113Y-111280261D01*
X137842101Y-111280264D01*
X137696430Y-111340602D01*
X137696417Y-111340609D01*
X137565314Y-111428210D01*
X137565310Y-111428213D01*
X137453816Y-111539707D01*
X137453813Y-111539711D01*
X137366212Y-111670814D01*
X137366205Y-111670827D01*
X137305867Y-111816498D01*
X137305864Y-111816510D01*
X137275103Y-111971153D01*
X130886528Y-111971153D01*
X130897392Y-111960289D01*
X130970752Y-111850499D01*
X130984993Y-111829185D01*
X130984993Y-111829184D01*
X130984997Y-111829179D01*
X131045340Y-111683497D01*
X131076103Y-111528842D01*
X131076103Y-111371158D01*
X131076103Y-111371155D01*
X131076102Y-111371153D01*
X131052102Y-111250499D01*
X131045340Y-111216503D01*
X131009030Y-111128842D01*
X130985000Y-111070827D01*
X130984993Y-111070814D01*
X130897392Y-110939711D01*
X130897389Y-110939707D01*
X130785895Y-110828213D01*
X130785891Y-110828210D01*
X130654788Y-110740609D01*
X130654775Y-110740602D01*
X130509104Y-110680264D01*
X130509092Y-110680261D01*
X130354448Y-110649500D01*
X130354445Y-110649500D01*
X130196761Y-110649500D01*
X130196758Y-110649500D01*
X130042113Y-110680261D01*
X130042101Y-110680264D01*
X129896430Y-110740602D01*
X129896417Y-110740609D01*
X129765314Y-110828210D01*
X129765310Y-110828213D01*
X129653816Y-110939707D01*
X129653813Y-110939711D01*
X129566212Y-111070814D01*
X129566205Y-111070827D01*
X129505867Y-111216498D01*
X129505864Y-111216510D01*
X129475103Y-111371153D01*
X111825753Y-111371153D01*
X111688702Y-111114749D01*
X111686848Y-111111140D01*
X111247342Y-110219910D01*
X111223298Y-110171153D01*
X147075103Y-110171153D01*
X147075103Y-110328846D01*
X147105864Y-110483489D01*
X147105867Y-110483501D01*
X147166205Y-110629172D01*
X147166212Y-110629185D01*
X147253813Y-110760288D01*
X147253816Y-110760292D01*
X147365310Y-110871786D01*
X147365314Y-110871789D01*
X147496417Y-110959390D01*
X147496430Y-110959397D01*
X147537014Y-110976207D01*
X147642106Y-111019737D01*
X147796756Y-111050499D01*
X147796759Y-111050500D01*
X147796761Y-111050500D01*
X147954447Y-111050500D01*
X147954448Y-111050499D01*
X148109100Y-111019737D01*
X148254782Y-110959394D01*
X148385892Y-110871789D01*
X148497392Y-110760289D01*
X148584997Y-110629179D01*
X148645340Y-110483497D01*
X148667686Y-110371158D01*
X148667687Y-110371153D01*
X156675103Y-110371153D01*
X156675103Y-110528846D01*
X156705864Y-110683489D01*
X156705867Y-110683501D01*
X156766205Y-110829172D01*
X156766212Y-110829185D01*
X156853813Y-110960288D01*
X156853816Y-110960292D01*
X156965310Y-111071786D01*
X156965314Y-111071789D01*
X157096417Y-111159390D01*
X157096430Y-111159397D01*
X157234286Y-111216498D01*
X157242106Y-111219737D01*
X157391734Y-111249500D01*
X157396756Y-111250499D01*
X157396759Y-111250500D01*
X157396761Y-111250500D01*
X157554447Y-111250500D01*
X157554448Y-111250499D01*
X157709100Y-111219737D01*
X157854782Y-111159394D01*
X157985892Y-111071789D01*
X158086528Y-110971153D01*
X160875103Y-110971153D01*
X160875103Y-111128846D01*
X160905864Y-111283489D01*
X160905867Y-111283501D01*
X160966205Y-111429172D01*
X160966212Y-111429185D01*
X161053813Y-111560288D01*
X161053816Y-111560292D01*
X161165310Y-111671786D01*
X161165314Y-111671789D01*
X161296417Y-111759390D01*
X161296430Y-111759397D01*
X161434286Y-111816498D01*
X161442106Y-111819737D01*
X161591734Y-111849500D01*
X161596756Y-111850499D01*
X161596759Y-111850500D01*
X161596761Y-111850500D01*
X161754447Y-111850500D01*
X161754448Y-111850499D01*
X161909100Y-111819737D01*
X162054782Y-111759394D01*
X162185892Y-111671789D01*
X162297392Y-111560289D01*
X162384997Y-111429179D01*
X162387342Y-111423519D01*
X162409032Y-111371153D01*
X162445340Y-111283497D01*
X162476103Y-111128842D01*
X162476103Y-110971158D01*
X162476103Y-110971155D01*
X162476102Y-110971153D01*
X162461188Y-110896175D01*
X162445340Y-110816503D01*
X162391283Y-110685996D01*
X162385000Y-110670827D01*
X162384993Y-110670814D01*
X162297392Y-110539711D01*
X162297389Y-110539707D01*
X162185895Y-110428213D01*
X162185891Y-110428210D01*
X162054788Y-110340609D01*
X162054775Y-110340602D01*
X161909104Y-110280264D01*
X161909092Y-110280261D01*
X161754448Y-110249500D01*
X161754445Y-110249500D01*
X161596761Y-110249500D01*
X161596758Y-110249500D01*
X161442113Y-110280261D01*
X161442101Y-110280264D01*
X161296430Y-110340602D01*
X161296417Y-110340609D01*
X161165314Y-110428210D01*
X161165310Y-110428213D01*
X161053816Y-110539707D01*
X161053813Y-110539711D01*
X160966212Y-110670814D01*
X160966205Y-110670827D01*
X160905867Y-110816498D01*
X160905864Y-110816510D01*
X160875103Y-110971153D01*
X158086528Y-110971153D01*
X158097392Y-110960289D01*
X158184997Y-110829179D01*
X158245340Y-110683497D01*
X158276103Y-110528842D01*
X158276103Y-110371158D01*
X158276103Y-110371155D01*
X158276102Y-110371153D01*
X158270025Y-110340602D01*
X158245340Y-110216503D01*
X158242827Y-110210436D01*
X158185000Y-110070827D01*
X158184993Y-110070814D01*
X158097392Y-109939711D01*
X158097389Y-109939707D01*
X157985895Y-109828213D01*
X157985891Y-109828210D01*
X157854788Y-109740609D01*
X157854775Y-109740602D01*
X157709104Y-109680264D01*
X157709092Y-109680261D01*
X157554448Y-109649500D01*
X157554445Y-109649500D01*
X157396761Y-109649500D01*
X157396758Y-109649500D01*
X157242113Y-109680261D01*
X157242101Y-109680264D01*
X157096430Y-109740602D01*
X157096417Y-109740609D01*
X156965314Y-109828210D01*
X156965310Y-109828213D01*
X156853816Y-109939707D01*
X156853813Y-109939711D01*
X156766212Y-110070814D01*
X156766205Y-110070827D01*
X156705867Y-110216498D01*
X156705864Y-110216510D01*
X156675103Y-110371153D01*
X148667687Y-110371153D01*
X148673710Y-110340875D01*
X148673710Y-110340874D01*
X148676103Y-110328844D01*
X148676103Y-110171155D01*
X148676102Y-110171153D01*
X148662398Y-110102260D01*
X148645340Y-110016503D01*
X148613532Y-109939711D01*
X148585000Y-109870827D01*
X148584993Y-109870814D01*
X148497392Y-109739711D01*
X148497389Y-109739707D01*
X148385895Y-109628213D01*
X148385891Y-109628210D01*
X148254788Y-109540609D01*
X148254775Y-109540602D01*
X148109104Y-109480264D01*
X148109092Y-109480261D01*
X147954448Y-109449500D01*
X147954445Y-109449500D01*
X147796761Y-109449500D01*
X147796758Y-109449500D01*
X147642113Y-109480261D01*
X147642101Y-109480264D01*
X147496430Y-109540602D01*
X147496417Y-109540609D01*
X147365314Y-109628210D01*
X147365310Y-109628213D01*
X147253816Y-109739707D01*
X147253813Y-109739711D01*
X147166212Y-109870814D01*
X147166205Y-109870827D01*
X147105867Y-110016498D01*
X147105864Y-110016510D01*
X147075103Y-110171153D01*
X111223298Y-110171153D01*
X111189323Y-110102260D01*
X111187588Y-110098592D01*
X111175002Y-110070814D01*
X110723331Y-109073954D01*
X110721725Y-109070248D01*
X110705370Y-109030764D01*
X110680678Y-108971153D01*
X138875103Y-108971153D01*
X138875103Y-109128846D01*
X138905864Y-109283489D01*
X138905867Y-109283501D01*
X138966205Y-109429172D01*
X138966212Y-109429185D01*
X139053813Y-109560288D01*
X139053816Y-109560292D01*
X139165310Y-109671786D01*
X139165314Y-109671789D01*
X139296417Y-109759390D01*
X139296430Y-109759397D01*
X139442101Y-109819735D01*
X139442106Y-109819737D01*
X139596756Y-109850499D01*
X139596759Y-109850500D01*
X139596761Y-109850500D01*
X139754447Y-109850500D01*
X139754448Y-109850499D01*
X139909100Y-109819737D01*
X140054782Y-109759394D01*
X140185892Y-109671789D01*
X140297392Y-109560289D01*
X140384997Y-109429179D01*
X140445340Y-109283497D01*
X140476103Y-109128842D01*
X140476103Y-108971158D01*
X140476103Y-108971155D01*
X140476102Y-108971153D01*
X140473941Y-108960288D01*
X140445340Y-108816503D01*
X140433595Y-108788147D01*
X140385000Y-108670827D01*
X140384993Y-108670814D01*
X140297392Y-108539711D01*
X140297389Y-108539707D01*
X140185895Y-108428213D01*
X140185891Y-108428210D01*
X140100500Y-108371153D01*
X158475103Y-108371153D01*
X158475103Y-108528846D01*
X158505864Y-108683489D01*
X158505867Y-108683501D01*
X158566205Y-108829172D01*
X158566212Y-108829185D01*
X158653813Y-108960288D01*
X158653816Y-108960292D01*
X158765310Y-109071786D01*
X158765314Y-109071789D01*
X158896417Y-109159390D01*
X158896430Y-109159397D01*
X158962023Y-109186566D01*
X159016427Y-109230406D01*
X159038492Y-109296700D01*
X159036190Y-109325312D01*
X159035040Y-109331094D01*
X159035040Y-109488783D01*
X159065801Y-109643426D01*
X159065804Y-109643438D01*
X159126142Y-109789109D01*
X159126149Y-109789122D01*
X159213750Y-109920225D01*
X159213753Y-109920229D01*
X159325247Y-110031723D01*
X159325251Y-110031726D01*
X159456354Y-110119327D01*
X159456367Y-110119334D01*
X159581471Y-110171153D01*
X159602043Y-110179674D01*
X159756693Y-110210436D01*
X159756696Y-110210437D01*
X159756698Y-110210437D01*
X159914384Y-110210437D01*
X159914385Y-110210436D01*
X160069037Y-110179674D01*
X160214719Y-110119331D01*
X160248349Y-110096860D01*
X163000810Y-110096860D01*
X163000810Y-110254553D01*
X163031571Y-110409196D01*
X163031574Y-110409208D01*
X163091912Y-110554879D01*
X163091919Y-110554892D01*
X163179520Y-110685995D01*
X163179523Y-110685999D01*
X163291017Y-110797493D01*
X163291021Y-110797496D01*
X163422124Y-110885097D01*
X163422137Y-110885104D01*
X163553972Y-110939711D01*
X163567813Y-110945444D01*
X163697060Y-110971153D01*
X163722463Y-110976206D01*
X163722466Y-110976207D01*
X163722468Y-110976207D01*
X163880154Y-110976207D01*
X163880155Y-110976206D01*
X164034807Y-110945444D01*
X164180489Y-110885101D01*
X164311599Y-110797496D01*
X164423099Y-110685996D01*
X164510704Y-110554886D01*
X164571047Y-110409204D01*
X164601810Y-110254549D01*
X164601810Y-110096865D01*
X164601810Y-110096862D01*
X164601809Y-110096860D01*
X164571048Y-109942217D01*
X164571047Y-109942210D01*
X164561941Y-109920225D01*
X164510707Y-109796534D01*
X164510700Y-109796521D01*
X164423099Y-109665418D01*
X164423096Y-109665414D01*
X164311602Y-109553920D01*
X164311598Y-109553917D01*
X164180495Y-109466316D01*
X164180482Y-109466309D01*
X164034811Y-109405971D01*
X164034799Y-109405968D01*
X163880155Y-109375207D01*
X163880152Y-109375207D01*
X163722468Y-109375207D01*
X163722465Y-109375207D01*
X163567820Y-109405968D01*
X163567808Y-109405971D01*
X163422137Y-109466309D01*
X163422124Y-109466316D01*
X163291021Y-109553917D01*
X163291017Y-109553920D01*
X163179523Y-109665414D01*
X163179520Y-109665418D01*
X163091919Y-109796521D01*
X163091912Y-109796534D01*
X163031574Y-109942205D01*
X163031571Y-109942217D01*
X163000810Y-110096860D01*
X160248349Y-110096860D01*
X160345829Y-110031726D01*
X160345832Y-110031723D01*
X160374464Y-110003092D01*
X160457326Y-109920229D01*
X160457329Y-109920226D01*
X160544934Y-109789116D01*
X160605277Y-109643434D01*
X160636040Y-109488779D01*
X160636040Y-109331095D01*
X160636040Y-109331094D01*
X160636040Y-109331092D01*
X160636039Y-109331090D01*
X160626572Y-109283497D01*
X160605277Y-109176440D01*
X160585562Y-109128844D01*
X160544937Y-109030764D01*
X160544930Y-109030751D01*
X160457329Y-108899648D01*
X160457326Y-108899644D01*
X160345832Y-108788150D01*
X160345828Y-108788147D01*
X160214725Y-108700546D01*
X160214716Y-108700541D01*
X160149118Y-108673370D01*
X160094715Y-108629529D01*
X160072650Y-108563235D01*
X160074954Y-108534615D01*
X160076103Y-108528842D01*
X160076103Y-108371158D01*
X160076103Y-108371155D01*
X160076102Y-108371153D01*
X160056337Y-108271789D01*
X160045340Y-108216503D01*
X160022055Y-108160288D01*
X159985000Y-108070827D01*
X159984993Y-108070814D01*
X159897392Y-107939711D01*
X159897389Y-107939707D01*
X159785895Y-107828213D01*
X159785891Y-107828210D01*
X159654788Y-107740609D01*
X159654775Y-107740602D01*
X159509104Y-107680264D01*
X159509092Y-107680261D01*
X159354448Y-107649500D01*
X159354445Y-107649500D01*
X159196761Y-107649500D01*
X159196758Y-107649500D01*
X159042113Y-107680261D01*
X159042101Y-107680264D01*
X158896430Y-107740602D01*
X158896417Y-107740609D01*
X158765314Y-107828210D01*
X158765310Y-107828213D01*
X158653816Y-107939707D01*
X158653813Y-107939711D01*
X158566212Y-108070814D01*
X158566205Y-108070827D01*
X158505867Y-108216498D01*
X158505864Y-108216510D01*
X158475103Y-108371153D01*
X140100500Y-108371153D01*
X140054788Y-108340609D01*
X140054775Y-108340602D01*
X139909104Y-108280264D01*
X139909092Y-108280261D01*
X139754448Y-108249500D01*
X139754445Y-108249500D01*
X139596761Y-108249500D01*
X139596758Y-108249500D01*
X139442113Y-108280261D01*
X139442101Y-108280264D01*
X139296430Y-108340602D01*
X139296417Y-108340609D01*
X139165314Y-108428210D01*
X139165310Y-108428213D01*
X139053816Y-108539707D01*
X139053813Y-108539711D01*
X138966212Y-108670814D01*
X138966205Y-108670827D01*
X138905867Y-108816498D01*
X138905864Y-108816510D01*
X138875103Y-108971153D01*
X110680678Y-108971153D01*
X110291244Y-108030975D01*
X110289755Y-108027206D01*
X110223247Y-107850499D01*
X109893515Y-106974421D01*
X109892346Y-106971153D01*
X142075103Y-106971153D01*
X142075103Y-107128846D01*
X142105864Y-107283489D01*
X142105867Y-107283501D01*
X142166205Y-107429172D01*
X142166212Y-107429185D01*
X142253813Y-107560288D01*
X142253816Y-107560292D01*
X142365310Y-107671786D01*
X142365314Y-107671789D01*
X142496417Y-107759390D01*
X142496430Y-107759397D01*
X142642101Y-107819735D01*
X142642106Y-107819737D01*
X142796756Y-107850499D01*
X142796759Y-107850500D01*
X142796761Y-107850500D01*
X142954447Y-107850500D01*
X142954448Y-107850499D01*
X143109100Y-107819737D01*
X143254782Y-107759394D01*
X143385892Y-107671789D01*
X143486528Y-107571153D01*
X170075103Y-107571153D01*
X170075103Y-107728846D01*
X170105864Y-107883489D01*
X170105867Y-107883501D01*
X170166205Y-108029172D01*
X170166212Y-108029185D01*
X170253813Y-108160288D01*
X170253816Y-108160292D01*
X170365310Y-108271786D01*
X170365314Y-108271789D01*
X170496417Y-108359390D01*
X170496430Y-108359397D01*
X170642101Y-108419735D01*
X170642106Y-108419737D01*
X170796756Y-108450499D01*
X170796759Y-108450500D01*
X170796761Y-108450500D01*
X170954447Y-108450500D01*
X170954448Y-108450499D01*
X171109100Y-108419737D01*
X171254782Y-108359394D01*
X171385892Y-108271789D01*
X171497392Y-108160289D01*
X171584997Y-108029179D01*
X171645340Y-107883497D01*
X171676103Y-107728842D01*
X171676103Y-107571158D01*
X171676103Y-107571155D01*
X171676102Y-107571153D01*
X171673941Y-107560288D01*
X171645340Y-107416503D01*
X171645338Y-107416498D01*
X171585000Y-107270827D01*
X171584993Y-107270814D01*
X171497392Y-107139711D01*
X171497389Y-107139707D01*
X171419628Y-107061946D01*
X171386143Y-107000623D01*
X171391127Y-106930931D01*
X171419628Y-106886584D01*
X171521654Y-106784557D01*
X171521657Y-106784554D01*
X171609262Y-106653444D01*
X171669605Y-106507762D01*
X171700368Y-106353107D01*
X171700368Y-106195423D01*
X171700368Y-106195420D01*
X171700367Y-106195418D01*
X171675583Y-106070821D01*
X171669605Y-106040768D01*
X171669603Y-106040763D01*
X171609265Y-105895092D01*
X171609258Y-105895079D01*
X171521657Y-105763976D01*
X171521654Y-105763972D01*
X171410160Y-105652478D01*
X171410156Y-105652475D01*
X171279053Y-105564874D01*
X171279040Y-105564867D01*
X171133369Y-105504529D01*
X171133357Y-105504526D01*
X170978713Y-105473765D01*
X170978710Y-105473765D01*
X170821026Y-105473765D01*
X170821023Y-105473765D01*
X170666378Y-105504526D01*
X170666366Y-105504529D01*
X170520695Y-105564867D01*
X170520682Y-105564874D01*
X170389579Y-105652475D01*
X170389575Y-105652478D01*
X170278081Y-105763972D01*
X170278078Y-105763976D01*
X170190477Y-105895079D01*
X170190470Y-105895092D01*
X170130132Y-106040763D01*
X170130129Y-106040775D01*
X170099368Y-106195418D01*
X170099368Y-106353111D01*
X170130129Y-106507754D01*
X170130132Y-106507766D01*
X170190470Y-106653437D01*
X170190477Y-106653450D01*
X170278078Y-106784553D01*
X170278081Y-106784557D01*
X170355843Y-106862319D01*
X170389328Y-106923642D01*
X170384344Y-106993334D01*
X170355843Y-107037681D01*
X170253816Y-107139707D01*
X170253813Y-107139711D01*
X170166212Y-107270814D01*
X170166205Y-107270827D01*
X170105867Y-107416498D01*
X170105864Y-107416510D01*
X170075103Y-107571153D01*
X143486528Y-107571153D01*
X143497392Y-107560289D01*
X143584997Y-107429179D01*
X143645340Y-107283497D01*
X143676103Y-107128842D01*
X143676103Y-106971158D01*
X143676103Y-106971155D01*
X143676102Y-106971153D01*
X143654453Y-106862319D01*
X143645340Y-106816503D01*
X143632108Y-106784557D01*
X143585000Y-106670827D01*
X143584993Y-106670814D01*
X143497392Y-106539711D01*
X143497389Y-106539707D01*
X143385895Y-106428213D01*
X143385891Y-106428210D01*
X143300500Y-106371153D01*
X147875103Y-106371153D01*
X147875103Y-106528846D01*
X147905864Y-106683489D01*
X147905867Y-106683501D01*
X147966205Y-106829172D01*
X147966212Y-106829185D01*
X148053813Y-106960288D01*
X148053816Y-106960292D01*
X148165310Y-107071786D01*
X148165314Y-107071789D01*
X148296417Y-107159390D01*
X148296430Y-107159397D01*
X148442101Y-107219735D01*
X148442106Y-107219737D01*
X148596756Y-107250499D01*
X148596759Y-107250500D01*
X148596761Y-107250500D01*
X148754447Y-107250500D01*
X148754448Y-107250499D01*
X148909100Y-107219737D01*
X149054782Y-107159394D01*
X149185892Y-107071789D01*
X149297392Y-106960289D01*
X149384997Y-106829179D01*
X149445340Y-106683497D01*
X149476103Y-106528842D01*
X149476103Y-106371158D01*
X149476103Y-106371155D01*
X149476102Y-106371153D01*
X149458022Y-106280261D01*
X149445340Y-106216503D01*
X149443129Y-106211164D01*
X149385000Y-106070827D01*
X149384993Y-106070814D01*
X149297392Y-105939711D01*
X149297389Y-105939707D01*
X149185895Y-105828213D01*
X149185891Y-105828210D01*
X149054788Y-105740609D01*
X149054775Y-105740602D01*
X148909104Y-105680264D01*
X148909092Y-105680261D01*
X148754448Y-105649500D01*
X148754445Y-105649500D01*
X148596761Y-105649500D01*
X148596758Y-105649500D01*
X148442113Y-105680261D01*
X148442101Y-105680264D01*
X148296430Y-105740602D01*
X148296417Y-105740609D01*
X148165314Y-105828210D01*
X148165310Y-105828213D01*
X148053816Y-105939707D01*
X148053813Y-105939711D01*
X147966212Y-106070814D01*
X147966205Y-106070827D01*
X147905867Y-106216498D01*
X147905864Y-106216510D01*
X147875103Y-106371153D01*
X143300500Y-106371153D01*
X143254788Y-106340609D01*
X143254775Y-106340602D01*
X143109104Y-106280264D01*
X143109092Y-106280261D01*
X142954448Y-106249500D01*
X142954445Y-106249500D01*
X142796761Y-106249500D01*
X142796758Y-106249500D01*
X142642113Y-106280261D01*
X142642101Y-106280264D01*
X142496430Y-106340602D01*
X142496417Y-106340609D01*
X142365314Y-106428210D01*
X142365310Y-106428213D01*
X142253816Y-106539707D01*
X142253813Y-106539711D01*
X142166212Y-106670814D01*
X142166205Y-106670827D01*
X142105867Y-106816498D01*
X142105864Y-106816510D01*
X142075103Y-106971153D01*
X109892346Y-106971153D01*
X109892153Y-106970614D01*
X109886522Y-106954025D01*
X109530563Y-105905406D01*
X109529340Y-105901600D01*
X109202777Y-104825066D01*
X109201684Y-104821240D01*
X108968237Y-103950000D01*
X108910534Y-103734649D01*
X108909548Y-103730714D01*
X108654097Y-102635145D01*
X108653264Y-102631282D01*
X108433802Y-101527975D01*
X108433080Y-101524008D01*
X108425964Y-101480909D01*
X108319367Y-100835258D01*
X112909500Y-100835258D01*
X112909500Y-101064741D01*
X112925136Y-101183501D01*
X112939452Y-101292238D01*
X112988288Y-101474500D01*
X112998842Y-101513887D01*
X113086650Y-101725876D01*
X113086657Y-101725890D01*
X113087997Y-101728211D01*
X113165127Y-101861805D01*
X113201392Y-101924617D01*
X113341081Y-102106661D01*
X113341089Y-102106670D01*
X113503330Y-102268911D01*
X113503338Y-102268918D01*
X113503339Y-102268919D01*
X113506253Y-102271155D01*
X113685382Y-102408607D01*
X113685385Y-102408608D01*
X113685388Y-102408611D01*
X113884112Y-102523344D01*
X113884117Y-102523346D01*
X113884123Y-102523349D01*
X113975480Y-102561190D01*
X114096113Y-102611158D01*
X114317762Y-102670548D01*
X114545266Y-102700500D01*
X114545273Y-102700500D01*
X114774727Y-102700500D01*
X114774734Y-102700500D01*
X115002238Y-102670548D01*
X115223887Y-102611158D01*
X115435888Y-102523344D01*
X115634612Y-102408611D01*
X115816661Y-102268919D01*
X115816665Y-102268914D01*
X115816670Y-102268911D01*
X115978911Y-102106670D01*
X115978914Y-102106665D01*
X115978919Y-102106661D01*
X116116675Y-101927135D01*
X120384500Y-101927135D01*
X120384500Y-104172870D01*
X120384501Y-104172876D01*
X120390908Y-104232483D01*
X120441202Y-104367328D01*
X120441206Y-104367335D01*
X120527452Y-104482544D01*
X120527455Y-104482547D01*
X120642664Y-104568793D01*
X120642671Y-104568797D01*
X120777517Y-104619091D01*
X120777516Y-104619091D01*
X120784444Y-104619835D01*
X120837127Y-104625500D01*
X123082872Y-104625499D01*
X123142483Y-104619091D01*
X123277331Y-104568796D01*
X123392546Y-104482546D01*
X123478796Y-104367331D01*
X123529091Y-104232483D01*
X123535500Y-104172873D01*
X123535499Y-102926045D01*
X125885000Y-102926045D01*
X125885000Y-103173954D01*
X125923782Y-103418814D01*
X126000389Y-103654589D01*
X126050315Y-103752577D01*
X126050316Y-103752577D01*
X126577296Y-103225597D01*
X126594586Y-103312520D01*
X126662430Y-103476310D01*
X126760924Y-103623717D01*
X126886283Y-103749076D01*
X127033690Y-103847570D01*
X127197480Y-103915414D01*
X127284401Y-103932703D01*
X126757422Y-104459682D01*
X126855409Y-104509610D01*
X126855412Y-104509611D01*
X127091185Y-104586217D01*
X127336046Y-104625000D01*
X127583954Y-104625000D01*
X127828814Y-104586217D01*
X128064587Y-104509611D01*
X128064590Y-104509610D01*
X128162576Y-104459682D01*
X128149782Y-104446888D01*
X147350838Y-104446888D01*
X147350838Y-104604581D01*
X147381599Y-104759224D01*
X147381602Y-104759236D01*
X147441940Y-104904907D01*
X147441947Y-104904920D01*
X147529548Y-105036023D01*
X147529551Y-105036027D01*
X147641045Y-105147521D01*
X147641049Y-105147524D01*
X147772152Y-105235125D01*
X147772165Y-105235132D01*
X147917836Y-105295470D01*
X147917841Y-105295472D01*
X148072491Y-105326234D01*
X148072494Y-105326235D01*
X148072496Y-105326235D01*
X148230182Y-105326235D01*
X148230183Y-105326234D01*
X148384835Y-105295472D01*
X148530517Y-105235129D01*
X148661627Y-105147524D01*
X148773127Y-105036024D01*
X148860732Y-104904914D01*
X148869602Y-104883501D01*
X148921073Y-104759236D01*
X148921075Y-104759232D01*
X148951838Y-104604577D01*
X148951838Y-104571153D01*
X168275103Y-104571153D01*
X168275103Y-104728846D01*
X168305864Y-104883489D01*
X168305867Y-104883501D01*
X168366205Y-105029172D01*
X168366212Y-105029185D01*
X168453813Y-105160288D01*
X168453816Y-105160292D01*
X168565310Y-105271786D01*
X168565314Y-105271789D01*
X168696417Y-105359390D01*
X168696430Y-105359397D01*
X168842101Y-105419735D01*
X168842106Y-105419737D01*
X168996756Y-105450499D01*
X168996759Y-105450500D01*
X168996761Y-105450500D01*
X169154447Y-105450500D01*
X169154448Y-105450499D01*
X169309100Y-105419737D01*
X169454782Y-105359394D01*
X169585892Y-105271789D01*
X169697392Y-105160289D01*
X169784997Y-105029179D01*
X169845340Y-104883497D01*
X169876103Y-104728842D01*
X169876103Y-104571158D01*
X169876103Y-104571155D01*
X169876102Y-104571153D01*
X169845341Y-104416510D01*
X169845340Y-104416503D01*
X169824974Y-104367335D01*
X169785000Y-104270827D01*
X169784993Y-104270814D01*
X169697392Y-104139711D01*
X169697389Y-104139707D01*
X169585895Y-104028213D01*
X169585891Y-104028210D01*
X169454788Y-103940609D01*
X169454775Y-103940602D01*
X169309104Y-103880264D01*
X169309092Y-103880261D01*
X169154448Y-103849500D01*
X169154445Y-103849500D01*
X168996761Y-103849500D01*
X168996758Y-103849500D01*
X168842113Y-103880261D01*
X168842101Y-103880264D01*
X168696430Y-103940602D01*
X168696417Y-103940609D01*
X168565314Y-104028210D01*
X168565310Y-104028213D01*
X168453816Y-104139707D01*
X168453813Y-104139711D01*
X168366212Y-104270814D01*
X168366205Y-104270827D01*
X168305867Y-104416498D01*
X168305864Y-104416510D01*
X168275103Y-104571153D01*
X148951838Y-104571153D01*
X148951838Y-104446893D01*
X148951838Y-104446890D01*
X148951837Y-104446888D01*
X148921076Y-104292245D01*
X148921075Y-104292238D01*
X148896324Y-104232483D01*
X148860735Y-104146562D01*
X148860728Y-104146549D01*
X148773127Y-104015446D01*
X148773124Y-104015442D01*
X148661630Y-103903948D01*
X148661626Y-103903945D01*
X148530523Y-103816344D01*
X148530510Y-103816337D01*
X148384839Y-103755999D01*
X148384827Y-103755996D01*
X148230183Y-103725235D01*
X148230180Y-103725235D01*
X148072496Y-103725235D01*
X148072493Y-103725235D01*
X147917848Y-103755996D01*
X147917836Y-103755999D01*
X147772165Y-103816337D01*
X147772152Y-103816344D01*
X147641049Y-103903945D01*
X147641045Y-103903948D01*
X147529551Y-104015442D01*
X147529548Y-104015446D01*
X147441947Y-104146549D01*
X147441940Y-104146562D01*
X147381602Y-104292233D01*
X147381599Y-104292245D01*
X147350838Y-104446888D01*
X128149782Y-104446888D01*
X127635598Y-103932703D01*
X127722520Y-103915414D01*
X127886310Y-103847570D01*
X128033717Y-103749076D01*
X128159076Y-103623717D01*
X128257570Y-103476310D01*
X128325414Y-103312520D01*
X128342703Y-103225597D01*
X128869682Y-103752576D01*
X128919610Y-103654590D01*
X128919611Y-103654587D01*
X128987096Y-103446888D01*
X154399368Y-103446888D01*
X154399368Y-103604581D01*
X154430129Y-103759224D01*
X154430132Y-103759236D01*
X154490470Y-103904907D01*
X154490477Y-103904920D01*
X154578078Y-104036023D01*
X154578081Y-104036027D01*
X154689575Y-104147521D01*
X154689579Y-104147524D01*
X154820682Y-104235125D01*
X154820695Y-104235132D01*
X154906872Y-104270827D01*
X154966371Y-104295472D01*
X155121021Y-104326234D01*
X155121024Y-104326235D01*
X155121026Y-104326235D01*
X155278712Y-104326235D01*
X155278713Y-104326234D01*
X155433365Y-104295472D01*
X155579047Y-104235129D01*
X155710157Y-104147524D01*
X155821657Y-104036024D01*
X155909262Y-103904914D01*
X155969605Y-103759232D01*
X156000368Y-103604577D01*
X156000368Y-103446893D01*
X156000368Y-103446890D01*
X156000367Y-103446888D01*
X155994783Y-103418814D01*
X155969605Y-103292238D01*
X155956373Y-103260292D01*
X155909265Y-103146562D01*
X155909258Y-103146549D01*
X155821657Y-103015446D01*
X155821654Y-103015442D01*
X155710160Y-102903948D01*
X155710156Y-102903945D01*
X155579053Y-102816344D01*
X155579040Y-102816337D01*
X155433369Y-102755999D01*
X155433357Y-102755996D01*
X155278713Y-102725235D01*
X155278710Y-102725235D01*
X155121026Y-102725235D01*
X155121023Y-102725235D01*
X154966378Y-102755996D01*
X154966366Y-102755999D01*
X154820695Y-102816337D01*
X154820682Y-102816344D01*
X154689579Y-102903945D01*
X154689575Y-102903948D01*
X154578081Y-103015442D01*
X154578078Y-103015446D01*
X154490477Y-103146549D01*
X154490470Y-103146562D01*
X154430132Y-103292233D01*
X154430129Y-103292245D01*
X154399368Y-103446888D01*
X128987096Y-103446888D01*
X128996218Y-103418813D01*
X129035000Y-103173954D01*
X129035000Y-102926045D01*
X128996217Y-102681185D01*
X128919611Y-102445412D01*
X128919610Y-102445409D01*
X128869682Y-102347422D01*
X128342703Y-102874401D01*
X128325414Y-102787480D01*
X128257570Y-102623690D01*
X128159076Y-102476283D01*
X128033717Y-102350924D01*
X127914331Y-102271153D01*
X156475103Y-102271153D01*
X156475103Y-102428846D01*
X156505864Y-102583489D01*
X156505867Y-102583501D01*
X156566205Y-102729172D01*
X156566212Y-102729185D01*
X156653813Y-102860288D01*
X156653816Y-102860292D01*
X156765310Y-102971786D01*
X156765314Y-102971789D01*
X156896417Y-103059390D01*
X156896430Y-103059397D01*
X157042101Y-103119735D01*
X157042106Y-103119737D01*
X157196756Y-103150499D01*
X157196759Y-103150500D01*
X157196761Y-103150500D01*
X157354447Y-103150500D01*
X157354448Y-103150499D01*
X157509100Y-103119737D01*
X157654782Y-103059394D01*
X157785892Y-102971789D01*
X157897392Y-102860289D01*
X157984997Y-102729179D01*
X158009032Y-102671153D01*
X169575103Y-102671153D01*
X169575103Y-102828846D01*
X169605864Y-102983489D01*
X169605867Y-102983501D01*
X169666205Y-103129172D01*
X169666212Y-103129185D01*
X169753813Y-103260288D01*
X169753816Y-103260292D01*
X169865310Y-103371786D01*
X169865314Y-103371789D01*
X169996417Y-103459390D01*
X169996430Y-103459397D01*
X170142101Y-103519735D01*
X170142106Y-103519737D01*
X170296756Y-103550499D01*
X170296759Y-103550500D01*
X170296761Y-103550500D01*
X170454447Y-103550500D01*
X170454448Y-103550499D01*
X170609100Y-103519737D01*
X170754782Y-103459394D01*
X170885892Y-103371789D01*
X170997392Y-103260289D01*
X171084997Y-103129179D01*
X171145340Y-102983497D01*
X171176103Y-102828842D01*
X171176103Y-102671158D01*
X171176103Y-102671155D01*
X171176102Y-102671153D01*
X171158664Y-102583489D01*
X171145340Y-102516503D01*
X171145338Y-102516498D01*
X171085000Y-102370827D01*
X171084993Y-102370814D01*
X170997392Y-102239711D01*
X170997389Y-102239707D01*
X170885895Y-102128213D01*
X170885891Y-102128210D01*
X170754788Y-102040609D01*
X170754775Y-102040602D01*
X170609104Y-101980264D01*
X170609092Y-101980261D01*
X170454448Y-101949500D01*
X170454445Y-101949500D01*
X170296761Y-101949500D01*
X170296758Y-101949500D01*
X170142113Y-101980261D01*
X170142101Y-101980264D01*
X169996430Y-102040602D01*
X169996417Y-102040609D01*
X169865314Y-102128210D01*
X169865310Y-102128213D01*
X169753816Y-102239707D01*
X169753813Y-102239711D01*
X169666212Y-102370814D01*
X169666205Y-102370827D01*
X169605867Y-102516498D01*
X169605864Y-102516510D01*
X169575103Y-102671153D01*
X158009032Y-102671153D01*
X158009283Y-102670548D01*
X158031206Y-102617621D01*
X158031208Y-102617614D01*
X158045340Y-102583497D01*
X158076103Y-102428842D01*
X158076103Y-102271158D01*
X158076103Y-102271155D01*
X158076102Y-102271153D01*
X158069847Y-102239707D01*
X158045340Y-102116503D01*
X158013901Y-102040602D01*
X157985000Y-101970827D01*
X157984993Y-101970814D01*
X157897392Y-101839711D01*
X157897389Y-101839707D01*
X157785895Y-101728213D01*
X157785891Y-101728210D01*
X157654788Y-101640609D01*
X157654775Y-101640602D01*
X157509104Y-101580264D01*
X157509092Y-101580261D01*
X157354448Y-101549500D01*
X157354445Y-101549500D01*
X157196761Y-101549500D01*
X157196758Y-101549500D01*
X157042113Y-101580261D01*
X157042101Y-101580264D01*
X156896430Y-101640602D01*
X156896417Y-101640609D01*
X156765314Y-101728210D01*
X156765310Y-101728213D01*
X156653816Y-101839707D01*
X156653813Y-101839711D01*
X156566212Y-101970814D01*
X156566205Y-101970827D01*
X156505867Y-102116498D01*
X156505864Y-102116510D01*
X156475103Y-102271153D01*
X127914331Y-102271153D01*
X127886310Y-102252430D01*
X127722520Y-102184586D01*
X127635598Y-102167296D01*
X128162577Y-101640316D01*
X128162577Y-101640315D01*
X128064589Y-101590389D01*
X127828814Y-101513782D01*
X127583954Y-101475000D01*
X127336046Y-101475000D01*
X127091185Y-101513782D01*
X126855410Y-101590389D01*
X126757421Y-101640315D01*
X127284402Y-102167296D01*
X127197480Y-102184586D01*
X127033690Y-102252430D01*
X126886283Y-102350924D01*
X126760924Y-102476283D01*
X126662430Y-102623690D01*
X126594586Y-102787480D01*
X126577296Y-102874402D01*
X126050315Y-102347421D01*
X126000389Y-102445410D01*
X125923782Y-102681185D01*
X125885000Y-102926045D01*
X123535499Y-102926045D01*
X123535499Y-101927128D01*
X123529091Y-101867517D01*
X123478796Y-101732669D01*
X123478795Y-101732668D01*
X123478793Y-101732664D01*
X123392547Y-101617455D01*
X123392544Y-101617452D01*
X123277335Y-101531206D01*
X123277328Y-101531202D01*
X123142482Y-101480908D01*
X123142483Y-101480908D01*
X123082883Y-101474501D01*
X123082881Y-101474500D01*
X123082873Y-101474500D01*
X123082864Y-101474500D01*
X120837129Y-101474500D01*
X120837123Y-101474501D01*
X120777516Y-101480908D01*
X120642671Y-101531202D01*
X120642664Y-101531206D01*
X120527455Y-101617452D01*
X120527452Y-101617455D01*
X120441206Y-101732664D01*
X120441202Y-101732671D01*
X120390908Y-101867517D01*
X120384501Y-101927116D01*
X120384501Y-101927123D01*
X120384500Y-101927135D01*
X116116675Y-101927135D01*
X116116680Y-101927129D01*
X116118605Y-101924620D01*
X116118607Y-101924617D01*
X116118611Y-101924612D01*
X116233344Y-101725888D01*
X116321158Y-101513887D01*
X116380548Y-101292238D01*
X116410500Y-101064734D01*
X116410500Y-100871153D01*
X128969500Y-100871153D01*
X128969500Y-101028846D01*
X129000261Y-101183489D01*
X129000264Y-101183501D01*
X129060602Y-101329172D01*
X129060609Y-101329185D01*
X129148210Y-101460288D01*
X129148213Y-101460292D01*
X129259707Y-101571786D01*
X129259711Y-101571789D01*
X129390814Y-101659390D01*
X129390827Y-101659397D01*
X129536498Y-101719735D01*
X129536503Y-101719737D01*
X129691153Y-101750499D01*
X129691156Y-101750500D01*
X129691158Y-101750500D01*
X129848844Y-101750500D01*
X129848845Y-101750499D01*
X130003497Y-101719737D01*
X130149179Y-101659394D01*
X130280289Y-101571789D01*
X130391789Y-101460289D01*
X130479394Y-101329179D01*
X130539737Y-101183497D01*
X130570500Y-101028842D01*
X130570500Y-100871158D01*
X130570500Y-100871155D01*
X130570499Y-100871153D01*
X130563362Y-100835272D01*
X130539737Y-100716503D01*
X130494699Y-100607770D01*
X130479397Y-100570827D01*
X130479390Y-100570814D01*
X130391789Y-100439711D01*
X130391786Y-100439707D01*
X130280292Y-100328213D01*
X130280288Y-100328210D01*
X130149185Y-100240609D01*
X130149172Y-100240602D01*
X130003501Y-100180264D01*
X130003489Y-100180261D01*
X129848845Y-100149500D01*
X129848842Y-100149500D01*
X129691158Y-100149500D01*
X129691155Y-100149500D01*
X129536510Y-100180261D01*
X129536498Y-100180264D01*
X129390827Y-100240602D01*
X129390814Y-100240609D01*
X129259711Y-100328210D01*
X129259707Y-100328213D01*
X129148213Y-100439707D01*
X129148210Y-100439711D01*
X129060609Y-100570814D01*
X129060602Y-100570827D01*
X129000264Y-100716498D01*
X129000261Y-100716510D01*
X128969500Y-100871153D01*
X116410500Y-100871153D01*
X116410500Y-100835266D01*
X116380548Y-100607762D01*
X116321158Y-100386113D01*
X116243027Y-100197488D01*
X116233349Y-100174123D01*
X116233346Y-100174117D01*
X116233344Y-100174112D01*
X116118611Y-99975388D01*
X116118608Y-99975385D01*
X116118607Y-99975382D01*
X115978918Y-99793338D01*
X115978911Y-99793330D01*
X115816670Y-99631089D01*
X115816661Y-99631081D01*
X115634617Y-99491392D01*
X115600658Y-99471786D01*
X115525182Y-99428210D01*
X115435890Y-99376657D01*
X115435876Y-99376650D01*
X115223887Y-99288842D01*
X115187824Y-99279179D01*
X115002238Y-99229452D01*
X114964215Y-99224446D01*
X114774741Y-99199500D01*
X114774734Y-99199500D01*
X114545266Y-99199500D01*
X114545258Y-99199500D01*
X114328715Y-99228009D01*
X114317762Y-99229452D01*
X114242941Y-99249500D01*
X114096112Y-99288842D01*
X113884123Y-99376650D01*
X113884109Y-99376657D01*
X113685382Y-99491392D01*
X113503338Y-99631081D01*
X113341081Y-99793338D01*
X113201392Y-99975382D01*
X113086657Y-100174109D01*
X113086650Y-100174123D01*
X112998842Y-100386112D01*
X112979449Y-100458489D01*
X112940411Y-100604185D01*
X112939453Y-100607759D01*
X112939451Y-100607770D01*
X112909500Y-100835258D01*
X108319367Y-100835258D01*
X108249832Y-100414094D01*
X108249241Y-100410103D01*
X108236072Y-100310073D01*
X108102410Y-99294813D01*
X108101957Y-99290881D01*
X108046321Y-98725999D01*
X120384500Y-98725999D01*
X120384500Y-98974000D01*
X120423293Y-99218927D01*
X120423293Y-99218929D01*
X120423294Y-99218931D01*
X120499927Y-99454782D01*
X120612511Y-99675742D01*
X120758276Y-99876370D01*
X120933630Y-100051724D01*
X121134258Y-100197489D01*
X121355218Y-100310073D01*
X121591069Y-100386706D01*
X121682920Y-100401253D01*
X121836000Y-100425500D01*
X121836005Y-100425500D01*
X122084000Y-100425500D01*
X122220070Y-100403947D01*
X122328931Y-100386706D01*
X122564782Y-100310073D01*
X122785742Y-100197489D01*
X122986370Y-100051724D01*
X123161724Y-99876370D01*
X123307489Y-99675742D01*
X123420073Y-99454782D01*
X123496706Y-99218931D01*
X123518158Y-99083489D01*
X123535500Y-98974000D01*
X123535500Y-98725999D01*
X125884500Y-98725999D01*
X125884500Y-98974000D01*
X125923293Y-99218927D01*
X125923293Y-99218929D01*
X125923294Y-99218931D01*
X125999927Y-99454782D01*
X126112511Y-99675742D01*
X126258276Y-99876370D01*
X126433630Y-100051724D01*
X126634258Y-100197489D01*
X126855218Y-100310073D01*
X127091069Y-100386706D01*
X127182920Y-100401253D01*
X127336000Y-100425500D01*
X127336005Y-100425500D01*
X127584000Y-100425500D01*
X127720070Y-100403947D01*
X127828931Y-100386706D01*
X128064782Y-100310073D01*
X128285742Y-100197489D01*
X128486370Y-100051724D01*
X128661724Y-99876370D01*
X128807489Y-99675742D01*
X128920073Y-99454782D01*
X128947246Y-99371153D01*
X135475103Y-99371153D01*
X135475103Y-99528846D01*
X135505864Y-99683489D01*
X135505867Y-99683501D01*
X135566205Y-99829172D01*
X135566212Y-99829185D01*
X135653813Y-99960288D01*
X135653816Y-99960292D01*
X135765310Y-100071786D01*
X135765314Y-100071789D01*
X135896417Y-100159390D01*
X135896430Y-100159397D01*
X135988394Y-100197489D01*
X136042106Y-100219737D01*
X136196756Y-100250499D01*
X136196759Y-100250500D01*
X136196761Y-100250500D01*
X136354447Y-100250500D01*
X136354448Y-100250499D01*
X136509100Y-100219737D01*
X136654782Y-100159394D01*
X136785892Y-100071789D01*
X136886528Y-99971153D01*
X152725103Y-99971153D01*
X152725103Y-100128846D01*
X152755864Y-100283489D01*
X152755867Y-100283501D01*
X152816205Y-100429172D01*
X152816212Y-100429185D01*
X152903813Y-100560288D01*
X152903816Y-100560292D01*
X153015310Y-100671786D01*
X153015314Y-100671789D01*
X153146417Y-100759390D01*
X153146430Y-100759397D01*
X153189858Y-100777385D01*
X153292106Y-100819737D01*
X153428090Y-100846786D01*
X153446756Y-100850499D01*
X153446759Y-100850500D01*
X153446761Y-100850500D01*
X153604447Y-100850500D01*
X153604448Y-100850499D01*
X153759100Y-100819737D01*
X153904782Y-100759394D01*
X154035892Y-100671789D01*
X154147392Y-100560289D01*
X154234997Y-100429179D01*
X154242899Y-100410103D01*
X154295338Y-100283501D01*
X154295340Y-100283497D01*
X154312448Y-100197488D01*
X154322660Y-100146153D01*
X158883767Y-100146153D01*
X158883767Y-100303846D01*
X158914528Y-100458489D01*
X158914531Y-100458501D01*
X158974869Y-100604172D01*
X158974876Y-100604185D01*
X159062477Y-100735288D01*
X159062480Y-100735292D01*
X159173974Y-100846786D01*
X159173978Y-100846789D01*
X159305081Y-100934390D01*
X159305094Y-100934397D01*
X159450765Y-100994735D01*
X159450770Y-100994737D01*
X159605420Y-101025499D01*
X159605423Y-101025500D01*
X159605425Y-101025500D01*
X159763111Y-101025500D01*
X159763112Y-101025499D01*
X159917764Y-100994737D01*
X160063446Y-100934394D01*
X160158093Y-100871153D01*
X168575103Y-100871153D01*
X168575103Y-101028846D01*
X168605864Y-101183489D01*
X168605867Y-101183501D01*
X168666205Y-101329172D01*
X168666212Y-101329185D01*
X168753813Y-101460288D01*
X168753816Y-101460292D01*
X168865310Y-101571786D01*
X168865314Y-101571789D01*
X168996417Y-101659390D01*
X168996430Y-101659397D01*
X169142101Y-101719735D01*
X169142106Y-101719737D01*
X169296756Y-101750499D01*
X169296759Y-101750500D01*
X169296761Y-101750500D01*
X169454447Y-101750500D01*
X169454448Y-101750499D01*
X169609100Y-101719737D01*
X169754782Y-101659394D01*
X169885892Y-101571789D01*
X169997392Y-101460289D01*
X170084997Y-101329179D01*
X170145340Y-101183497D01*
X170176103Y-101028842D01*
X170176103Y-100871158D01*
X170176103Y-100871155D01*
X170176102Y-100871153D01*
X170168965Y-100835272D01*
X170145340Y-100716503D01*
X170100302Y-100607770D01*
X170085000Y-100570827D01*
X170084993Y-100570814D01*
X169997392Y-100439711D01*
X169997389Y-100439707D01*
X169885895Y-100328213D01*
X169885891Y-100328210D01*
X169754788Y-100240609D01*
X169754775Y-100240602D01*
X169609104Y-100180264D01*
X169609092Y-100180261D01*
X169454448Y-100149500D01*
X169454445Y-100149500D01*
X169296761Y-100149500D01*
X169296758Y-100149500D01*
X169142113Y-100180261D01*
X169142101Y-100180264D01*
X168996430Y-100240602D01*
X168996417Y-100240609D01*
X168865314Y-100328210D01*
X168865310Y-100328213D01*
X168753816Y-100439707D01*
X168753813Y-100439711D01*
X168666212Y-100570814D01*
X168666205Y-100570827D01*
X168605867Y-100716498D01*
X168605864Y-100716510D01*
X168575103Y-100871153D01*
X160158093Y-100871153D01*
X160194556Y-100846789D01*
X160221610Y-100819735D01*
X160263961Y-100777385D01*
X160306053Y-100735292D01*
X160306056Y-100735289D01*
X160393661Y-100604179D01*
X160454004Y-100458497D01*
X160484767Y-100303842D01*
X160484767Y-100146158D01*
X160484767Y-100146155D01*
X160484766Y-100146153D01*
X160454005Y-99991510D01*
X160454004Y-99991503D01*
X160441075Y-99960289D01*
X160393664Y-99845827D01*
X160393657Y-99845814D01*
X160306056Y-99714711D01*
X160306053Y-99714707D01*
X160194559Y-99603213D01*
X160194555Y-99603210D01*
X160063452Y-99515609D01*
X160063439Y-99515602D01*
X159917768Y-99455264D01*
X159917756Y-99455261D01*
X159763112Y-99424500D01*
X159763109Y-99424500D01*
X159605425Y-99424500D01*
X159605422Y-99424500D01*
X159450777Y-99455261D01*
X159450765Y-99455264D01*
X159305094Y-99515602D01*
X159305081Y-99515609D01*
X159173978Y-99603210D01*
X159173974Y-99603213D01*
X159062480Y-99714707D01*
X159062477Y-99714711D01*
X158974876Y-99845814D01*
X158974869Y-99845827D01*
X158914531Y-99991498D01*
X158914528Y-99991510D01*
X158883767Y-100146153D01*
X154322660Y-100146153D01*
X154326103Y-100128845D01*
X154326103Y-99971155D01*
X154326102Y-99971153D01*
X154307249Y-99876372D01*
X154295340Y-99816503D01*
X154253175Y-99714707D01*
X154235000Y-99670827D01*
X154234993Y-99670814D01*
X154147392Y-99539711D01*
X154147389Y-99539707D01*
X154035895Y-99428213D01*
X154035891Y-99428210D01*
X153904788Y-99340609D01*
X153904775Y-99340602D01*
X153759104Y-99280264D01*
X153759092Y-99280261D01*
X153604448Y-99249500D01*
X153604445Y-99249500D01*
X153446761Y-99249500D01*
X153446758Y-99249500D01*
X153292113Y-99280261D01*
X153292101Y-99280264D01*
X153146430Y-99340602D01*
X153146417Y-99340609D01*
X153015314Y-99428210D01*
X153015310Y-99428213D01*
X152903816Y-99539707D01*
X152903813Y-99539711D01*
X152816212Y-99670814D01*
X152816205Y-99670827D01*
X152755867Y-99816498D01*
X152755864Y-99816510D01*
X152725103Y-99971153D01*
X136886528Y-99971153D01*
X136897392Y-99960289D01*
X136953465Y-99876371D01*
X136984993Y-99829185D01*
X136984993Y-99829184D01*
X136984997Y-99829179D01*
X137045340Y-99683497D01*
X137076103Y-99528842D01*
X137076103Y-99371158D01*
X137076103Y-99371155D01*
X137076102Y-99371153D01*
X137067269Y-99326746D01*
X137045340Y-99216503D01*
X136998159Y-99102596D01*
X136985000Y-99070827D01*
X136984993Y-99070814D01*
X136897392Y-98939711D01*
X136897389Y-98939707D01*
X136785895Y-98828213D01*
X136785891Y-98828210D01*
X136654788Y-98740609D01*
X136654775Y-98740602D01*
X136509104Y-98680264D01*
X136509092Y-98680261D01*
X136354448Y-98649500D01*
X136354445Y-98649500D01*
X136196761Y-98649500D01*
X136196758Y-98649500D01*
X136042113Y-98680261D01*
X136042101Y-98680264D01*
X135896430Y-98740602D01*
X135896417Y-98740609D01*
X135765314Y-98828210D01*
X135765310Y-98828213D01*
X135653816Y-98939707D01*
X135653813Y-98939711D01*
X135566212Y-99070814D01*
X135566205Y-99070827D01*
X135505867Y-99216498D01*
X135505864Y-99216510D01*
X135475103Y-99371153D01*
X128947246Y-99371153D01*
X128996706Y-99218931D01*
X129018158Y-99083489D01*
X129035500Y-98974000D01*
X129035500Y-98725999D01*
X129001837Y-98513465D01*
X128996706Y-98481069D01*
X128920073Y-98245218D01*
X128807489Y-98024258D01*
X128661724Y-97823630D01*
X128609247Y-97771153D01*
X155475103Y-97771153D01*
X155475103Y-97928846D01*
X155505864Y-98083489D01*
X155505867Y-98083501D01*
X155566205Y-98229172D01*
X155566212Y-98229185D01*
X155653813Y-98360288D01*
X155653816Y-98360292D01*
X155765310Y-98471786D01*
X155765314Y-98471789D01*
X155896417Y-98559390D01*
X155896430Y-98559397D01*
X156042101Y-98619735D01*
X156042106Y-98619737D01*
X156191734Y-98649500D01*
X156196756Y-98650499D01*
X156196759Y-98650500D01*
X156196761Y-98650500D01*
X156354447Y-98650500D01*
X156354448Y-98650499D01*
X156509100Y-98619737D01*
X156519341Y-98615494D01*
X156588809Y-98608025D01*
X156651289Y-98639298D01*
X156686943Y-98699386D01*
X156688412Y-98754246D01*
X156675103Y-98821153D01*
X156675103Y-98978846D01*
X156705864Y-99133489D01*
X156705867Y-99133501D01*
X156766205Y-99279172D01*
X156766212Y-99279185D01*
X156853813Y-99410288D01*
X156853816Y-99410292D01*
X156965310Y-99521786D01*
X156965314Y-99521789D01*
X157096417Y-99609390D01*
X157096430Y-99609397D01*
X157195663Y-99650500D01*
X157242106Y-99669737D01*
X157396756Y-99700499D01*
X157396759Y-99700500D01*
X157396761Y-99700500D01*
X157554447Y-99700500D01*
X157554448Y-99700499D01*
X157709100Y-99669737D01*
X157854782Y-99609394D01*
X157985892Y-99521789D01*
X158078556Y-99429124D01*
X158139877Y-99395641D01*
X158166236Y-99392807D01*
X158292911Y-99392807D01*
X158292912Y-99392806D01*
X158447564Y-99362044D01*
X158593246Y-99301701D01*
X158724356Y-99214096D01*
X158835856Y-99102596D01*
X158923461Y-98971486D01*
X158983804Y-98825804D01*
X159014567Y-98671149D01*
X159014567Y-98513465D01*
X159014567Y-98513462D01*
X159014566Y-98513460D01*
X159006086Y-98470827D01*
X158983804Y-98358810D01*
X158944116Y-98262993D01*
X158923464Y-98213134D01*
X158923457Y-98213121D01*
X158835856Y-98082018D01*
X158835853Y-98082014D01*
X158724359Y-97970520D01*
X158724355Y-97970517D01*
X158593252Y-97882916D01*
X158593239Y-97882909D01*
X158447568Y-97822571D01*
X158447556Y-97822568D01*
X158292912Y-97791807D01*
X158292909Y-97791807D01*
X158135225Y-97791807D01*
X158135222Y-97791807D01*
X157980577Y-97822568D01*
X157980565Y-97822571D01*
X157834894Y-97882909D01*
X157834881Y-97882916D01*
X157703778Y-97970517D01*
X157703774Y-97970520D01*
X157611114Y-98063181D01*
X157549791Y-98096666D01*
X157523433Y-98099500D01*
X157396758Y-98099500D01*
X157242113Y-98130261D01*
X157242106Y-98130262D01*
X157231857Y-98134508D01*
X157162387Y-98141973D01*
X157099909Y-98110694D01*
X157064260Y-98050604D01*
X157062793Y-97995754D01*
X157076103Y-97928842D01*
X157076103Y-97771158D01*
X157070641Y-97743700D01*
X157076867Y-97674110D01*
X157119729Y-97618932D01*
X157144806Y-97604947D01*
X157254776Y-97559397D01*
X157254779Y-97559395D01*
X157254782Y-97559394D01*
X157385892Y-97471789D01*
X157497392Y-97360289D01*
X157584997Y-97229179D01*
X157645340Y-97083497D01*
X157676103Y-96928842D01*
X157676103Y-96771158D01*
X157676103Y-96771155D01*
X157676102Y-96771153D01*
X157656337Y-96671789D01*
X157645340Y-96616503D01*
X157621683Y-96559390D01*
X157585000Y-96470827D01*
X157584993Y-96470814D01*
X157497392Y-96339711D01*
X157497389Y-96339707D01*
X157385895Y-96228213D01*
X157385891Y-96228210D01*
X157254788Y-96140609D01*
X157254775Y-96140602D01*
X157109104Y-96080264D01*
X157109092Y-96080261D01*
X156954448Y-96049500D01*
X156954445Y-96049500D01*
X156796761Y-96049500D01*
X156796758Y-96049500D01*
X156642113Y-96080261D01*
X156642101Y-96080264D01*
X156496430Y-96140602D01*
X156496417Y-96140609D01*
X156365314Y-96228210D01*
X156365310Y-96228213D01*
X156253816Y-96339707D01*
X156253813Y-96339711D01*
X156166212Y-96470814D01*
X156166205Y-96470827D01*
X156105867Y-96616498D01*
X156105864Y-96616510D01*
X156075103Y-96771153D01*
X156075103Y-96771158D01*
X156075103Y-96928842D01*
X156075104Y-96928846D01*
X156080565Y-96956301D01*
X156074336Y-97025892D01*
X156031473Y-97081069D01*
X156006400Y-97095052D01*
X155896427Y-97140604D01*
X155896417Y-97140609D01*
X155765314Y-97228210D01*
X155765310Y-97228213D01*
X155653816Y-97339707D01*
X155653813Y-97339711D01*
X155566212Y-97470814D01*
X155566205Y-97470827D01*
X155505867Y-97616498D01*
X155505864Y-97616510D01*
X155475103Y-97771153D01*
X128609247Y-97771153D01*
X128486370Y-97648276D01*
X128285742Y-97502511D01*
X128064782Y-97389927D01*
X127828931Y-97313294D01*
X127828929Y-97313293D01*
X127828927Y-97313293D01*
X127584000Y-97274500D01*
X127583995Y-97274500D01*
X127336005Y-97274500D01*
X127336000Y-97274500D01*
X127091072Y-97313293D01*
X126855215Y-97389928D01*
X126634257Y-97502511D01*
X126540237Y-97570821D01*
X126433630Y-97648276D01*
X126433628Y-97648278D01*
X126433627Y-97648278D01*
X126258278Y-97823627D01*
X126258278Y-97823628D01*
X126258276Y-97823630D01*
X126223747Y-97871155D01*
X126112511Y-98024257D01*
X125999928Y-98245215D01*
X125923293Y-98481072D01*
X125884500Y-98725999D01*
X123535500Y-98725999D01*
X123501837Y-98513465D01*
X123496706Y-98481069D01*
X123420073Y-98245218D01*
X123307489Y-98024258D01*
X123161724Y-97823630D01*
X122986370Y-97648276D01*
X122785742Y-97502511D01*
X122564782Y-97389927D01*
X122328931Y-97313294D01*
X122328929Y-97313293D01*
X122328927Y-97313293D01*
X122084000Y-97274500D01*
X122083995Y-97274500D01*
X121836005Y-97274500D01*
X121836000Y-97274500D01*
X121591072Y-97313293D01*
X121355215Y-97389928D01*
X121134257Y-97502511D01*
X121040237Y-97570821D01*
X120933630Y-97648276D01*
X120933628Y-97648278D01*
X120933627Y-97648278D01*
X120758278Y-97823627D01*
X120758278Y-97823628D01*
X120758276Y-97823630D01*
X120723747Y-97871155D01*
X120612511Y-98024257D01*
X120499928Y-98245215D01*
X120423293Y-98481072D01*
X120384500Y-98725999D01*
X108046321Y-98725999D01*
X107991695Y-98171364D01*
X107991365Y-98167323D01*
X107917792Y-97044831D01*
X107917592Y-97040778D01*
X107917499Y-97037946D01*
X107889124Y-96171153D01*
X150675103Y-96171153D01*
X150675103Y-96328846D01*
X150705864Y-96483489D01*
X150705867Y-96483501D01*
X150766205Y-96629172D01*
X150766212Y-96629185D01*
X150853813Y-96760288D01*
X150853816Y-96760292D01*
X150965310Y-96871786D01*
X150965314Y-96871789D01*
X151096417Y-96959390D01*
X151096430Y-96959397D01*
X151242101Y-97019735D01*
X151242106Y-97019737D01*
X151396756Y-97050499D01*
X151396759Y-97050500D01*
X151396761Y-97050500D01*
X151554447Y-97050500D01*
X151554448Y-97050499D01*
X151709100Y-97019737D01*
X151854782Y-96959394D01*
X151985892Y-96871789D01*
X152097392Y-96760289D01*
X152184997Y-96629179D01*
X152245340Y-96483497D01*
X152276103Y-96328842D01*
X152276103Y-96171158D01*
X152276103Y-96171155D01*
X152276102Y-96171153D01*
X152273697Y-96159063D01*
X152245340Y-96016503D01*
X152203078Y-95914472D01*
X152185000Y-95870827D01*
X152184993Y-95870814D01*
X152097392Y-95739711D01*
X152097389Y-95739707D01*
X151985895Y-95628213D01*
X151985891Y-95628210D01*
X151854788Y-95540609D01*
X151854775Y-95540602D01*
X151709104Y-95480264D01*
X151709092Y-95480261D01*
X151554448Y-95449500D01*
X151554445Y-95449500D01*
X151396761Y-95449500D01*
X151396758Y-95449500D01*
X151242113Y-95480261D01*
X151242101Y-95480264D01*
X151096430Y-95540602D01*
X151096417Y-95540609D01*
X150965314Y-95628210D01*
X150965310Y-95628213D01*
X150853816Y-95739707D01*
X150853813Y-95739711D01*
X150766212Y-95870814D01*
X150766205Y-95870827D01*
X150705867Y-96016498D01*
X150705864Y-96016510D01*
X150675103Y-96171153D01*
X107889124Y-96171153D01*
X107880787Y-95916488D01*
X107880721Y-95912431D01*
X107880721Y-95271153D01*
X161325103Y-95271153D01*
X161325103Y-95428846D01*
X161355864Y-95583489D01*
X161355867Y-95583501D01*
X161416205Y-95729172D01*
X161416212Y-95729185D01*
X161450907Y-95781109D01*
X161471785Y-95847786D01*
X161453301Y-95915167D01*
X161450907Y-95918891D01*
X161416212Y-95970814D01*
X161416205Y-95970827D01*
X161355867Y-96116498D01*
X161355864Y-96116510D01*
X161325103Y-96271153D01*
X161325103Y-96428846D01*
X161355864Y-96583489D01*
X161355867Y-96583501D01*
X161416205Y-96729172D01*
X161416212Y-96729185D01*
X161503813Y-96860288D01*
X161503816Y-96860292D01*
X161615310Y-96971786D01*
X161615314Y-96971789D01*
X161746417Y-97059390D01*
X161746430Y-97059397D01*
X161892101Y-97119735D01*
X161892106Y-97119737D01*
X162046756Y-97150499D01*
X162046759Y-97150500D01*
X162046761Y-97150500D01*
X162204447Y-97150500D01*
X162204448Y-97150499D01*
X162359100Y-97119737D01*
X162483556Y-97068186D01*
X162504775Y-97059397D01*
X162504775Y-97059396D01*
X162504782Y-97059394D01*
X162528825Y-97043328D01*
X162546012Y-97037946D01*
X162561016Y-97027986D01*
X162578660Y-97027723D01*
X162595501Y-97022450D01*
X162612868Y-97027214D01*
X162630878Y-97026946D01*
X162645864Y-97036265D01*
X162662881Y-97040933D01*
X162674915Y-97054330D01*
X162690212Y-97063842D01*
X162705899Y-97088822D01*
X162709573Y-97092911D01*
X162709733Y-97093247D01*
X162711077Y-97096079D01*
X162766209Y-97229179D01*
X162794065Y-97270868D01*
X162797948Y-97279047D01*
X162802069Y-97304971D01*
X162809912Y-97330017D01*
X162807468Y-97338924D01*
X162808919Y-97348050D01*
X162798370Y-97372087D01*
X162791427Y-97397397D01*
X162782078Y-97409212D01*
X162780842Y-97412030D01*
X162778750Y-97413418D01*
X162773615Y-97419909D01*
X162753815Y-97439708D01*
X162753811Y-97439714D01*
X162666212Y-97570814D01*
X162666205Y-97570827D01*
X162605867Y-97716498D01*
X162605864Y-97716510D01*
X162575103Y-97871153D01*
X162575103Y-98028846D01*
X162605864Y-98183489D01*
X162605867Y-98183501D01*
X162666205Y-98329172D01*
X162666215Y-98329190D01*
X162727335Y-98420663D01*
X162748213Y-98487340D01*
X162738795Y-98537004D01*
X162705865Y-98616506D01*
X162705863Y-98616511D01*
X162675103Y-98771153D01*
X162675103Y-98928846D01*
X162705864Y-99083489D01*
X162705867Y-99083501D01*
X162766205Y-99229172D01*
X162766212Y-99229185D01*
X162853813Y-99360288D01*
X162853816Y-99360292D01*
X162965310Y-99471786D01*
X162965314Y-99471789D01*
X163096417Y-99559390D01*
X163096430Y-99559397D01*
X163242101Y-99619735D01*
X163242106Y-99619737D01*
X163396756Y-99650499D01*
X163396759Y-99650500D01*
X163396761Y-99650500D01*
X163554447Y-99650500D01*
X163554448Y-99650499D01*
X163709100Y-99619737D01*
X163854782Y-99559394D01*
X163985892Y-99471789D01*
X164097392Y-99360289D01*
X164184997Y-99229179D01*
X164189244Y-99218927D01*
X164224633Y-99133489D01*
X164245340Y-99083497D01*
X164276103Y-98928842D01*
X164276103Y-98771158D01*
X164276103Y-98771155D01*
X164276102Y-98771153D01*
X164267120Y-98725999D01*
X164245340Y-98616503D01*
X164245338Y-98616498D01*
X164185000Y-98470827D01*
X164184993Y-98470814D01*
X164123870Y-98379337D01*
X164102992Y-98312659D01*
X164112411Y-98262993D01*
X164145340Y-98183497D01*
X164176103Y-98028842D01*
X164176103Y-97871158D01*
X164176103Y-97871155D01*
X164176102Y-97871153D01*
X164160319Y-97791807D01*
X164145340Y-97716503D01*
X164145338Y-97716498D01*
X164085000Y-97570827D01*
X164084995Y-97570818D01*
X164077364Y-97559397D01*
X164062171Y-97536660D01*
X164041293Y-97469985D01*
X164059776Y-97402604D01*
X164077591Y-97380089D01*
X164097392Y-97360289D01*
X164184997Y-97229179D01*
X164245340Y-97083497D01*
X164276103Y-96928842D01*
X164276103Y-96771158D01*
X164276103Y-96771155D01*
X164276102Y-96771153D01*
X164256337Y-96671789D01*
X164245340Y-96616503D01*
X164221683Y-96559390D01*
X164185000Y-96470827D01*
X164184993Y-96470814D01*
X164097392Y-96339711D01*
X164097389Y-96339707D01*
X163985895Y-96228213D01*
X163985891Y-96228210D01*
X163854788Y-96140609D01*
X163854775Y-96140602D01*
X163709104Y-96080264D01*
X163709092Y-96080261D01*
X163554448Y-96049500D01*
X163554445Y-96049500D01*
X163396761Y-96049500D01*
X163396758Y-96049500D01*
X163242113Y-96080261D01*
X163242101Y-96080264D01*
X163096430Y-96140602D01*
X163096414Y-96140611D01*
X163072377Y-96156672D01*
X163055987Y-96161803D01*
X163041807Y-96171500D01*
X163023333Y-96172027D01*
X163005699Y-96177549D01*
X162989134Y-96173004D01*
X162971965Y-96173495D01*
X162956139Y-96163952D01*
X162938319Y-96159063D01*
X162926566Y-96146119D01*
X162912132Y-96137415D01*
X162896728Y-96113255D01*
X162892211Y-96108281D01*
X162890455Y-96104709D01*
X162834997Y-95970821D01*
X162795737Y-95912066D01*
X162792122Y-95904712D01*
X162787506Y-95878041D01*
X162779419Y-95852215D01*
X162781637Y-95844128D01*
X162780207Y-95835865D01*
X162790744Y-95810931D01*
X162797903Y-95784835D01*
X162800279Y-95781136D01*
X162806950Y-95771153D01*
X170275103Y-95771153D01*
X170275103Y-95928846D01*
X170305864Y-96083489D01*
X170305867Y-96083501D01*
X170366205Y-96229172D01*
X170366212Y-96229185D01*
X170453813Y-96360288D01*
X170453816Y-96360292D01*
X170565310Y-96471786D01*
X170565314Y-96471789D01*
X170696417Y-96559390D01*
X170696430Y-96559397D01*
X170842101Y-96619735D01*
X170842106Y-96619737D01*
X170996756Y-96650499D01*
X170996759Y-96650500D01*
X170996761Y-96650500D01*
X171154446Y-96650500D01*
X171187937Y-96643837D01*
X171247565Y-96631977D01*
X171317155Y-96638204D01*
X171359437Y-96665913D01*
X171365310Y-96671786D01*
X171365314Y-96671789D01*
X171496417Y-96759390D01*
X171496430Y-96759397D01*
X171642101Y-96819735D01*
X171642106Y-96819737D01*
X171796756Y-96850499D01*
X171796759Y-96850500D01*
X171796761Y-96850500D01*
X171954446Y-96850500D01*
X171987937Y-96843837D01*
X172047565Y-96831977D01*
X172117155Y-96838204D01*
X172159437Y-96865913D01*
X172165310Y-96871786D01*
X172165314Y-96871789D01*
X172296417Y-96959390D01*
X172296430Y-96959397D01*
X172442101Y-97019735D01*
X172442106Y-97019737D01*
X172596756Y-97050499D01*
X172596759Y-97050500D01*
X172596761Y-97050500D01*
X172754447Y-97050500D01*
X172754448Y-97050499D01*
X172909100Y-97019737D01*
X173054782Y-96959394D01*
X173185892Y-96871789D01*
X173297392Y-96760289D01*
X173384997Y-96629179D01*
X173445340Y-96483497D01*
X173476103Y-96328842D01*
X173476103Y-96171158D01*
X173476103Y-96171155D01*
X173476102Y-96171153D01*
X173473697Y-96159063D01*
X173445340Y-96016503D01*
X173403078Y-95914472D01*
X173385000Y-95870827D01*
X173384993Y-95870814D01*
X173297392Y-95739711D01*
X173297389Y-95739707D01*
X173185895Y-95628213D01*
X173185891Y-95628210D01*
X173054788Y-95540609D01*
X173054775Y-95540602D01*
X172909104Y-95480264D01*
X172909092Y-95480261D01*
X172754448Y-95449500D01*
X172754445Y-95449500D01*
X172596761Y-95449500D01*
X172596756Y-95449500D01*
X172503640Y-95468022D01*
X172434048Y-95461795D01*
X172391768Y-95434086D01*
X172385895Y-95428213D01*
X172385891Y-95428210D01*
X172254788Y-95340609D01*
X172254775Y-95340602D01*
X172109104Y-95280264D01*
X172109092Y-95280261D01*
X171954448Y-95249500D01*
X171954445Y-95249500D01*
X171796761Y-95249500D01*
X171796756Y-95249500D01*
X171703640Y-95268022D01*
X171634048Y-95261795D01*
X171591768Y-95234086D01*
X171585895Y-95228213D01*
X171585891Y-95228210D01*
X171454788Y-95140609D01*
X171454775Y-95140602D01*
X171309104Y-95080264D01*
X171309092Y-95080261D01*
X171154448Y-95049500D01*
X171154445Y-95049500D01*
X170996761Y-95049500D01*
X170996758Y-95049500D01*
X170842113Y-95080261D01*
X170842101Y-95080264D01*
X170696430Y-95140602D01*
X170696417Y-95140609D01*
X170565314Y-95228210D01*
X170565310Y-95228213D01*
X170453816Y-95339707D01*
X170453813Y-95339711D01*
X170366212Y-95470814D01*
X170366205Y-95470827D01*
X170305867Y-95616498D01*
X170305864Y-95616510D01*
X170275103Y-95771153D01*
X162806950Y-95771153D01*
X162834997Y-95729179D01*
X162895340Y-95583497D01*
X162926103Y-95428842D01*
X162926103Y-95271158D01*
X162926103Y-95271155D01*
X162926102Y-95271153D01*
X162905929Y-95169737D01*
X162895340Y-95116503D01*
X162892394Y-95109390D01*
X162835000Y-94970827D01*
X162834993Y-94970814D01*
X162747392Y-94839711D01*
X162747389Y-94839707D01*
X162635895Y-94728213D01*
X162635891Y-94728210D01*
X162504788Y-94640609D01*
X162504775Y-94640602D01*
X162359104Y-94580264D01*
X162359092Y-94580261D01*
X162204448Y-94549500D01*
X162204445Y-94549500D01*
X162046761Y-94549500D01*
X162046758Y-94549500D01*
X161892113Y-94580261D01*
X161892101Y-94580264D01*
X161746430Y-94640602D01*
X161746417Y-94640609D01*
X161615314Y-94728210D01*
X161615310Y-94728213D01*
X161503816Y-94839707D01*
X161503813Y-94839711D01*
X161416212Y-94970814D01*
X161416205Y-94970827D01*
X161355867Y-95116498D01*
X161355864Y-95116510D01*
X161325103Y-95271153D01*
X107880721Y-95271153D01*
X107880721Y-94787568D01*
X107880787Y-94783511D01*
X107890761Y-94478842D01*
X107917593Y-93659190D01*
X107917792Y-93655168D01*
X107991365Y-92532676D01*
X107991696Y-92528632D01*
X108101958Y-91409111D01*
X108102409Y-91405193D01*
X108249245Y-90289863D01*
X108249831Y-90285914D01*
X108380369Y-89495258D01*
X113019500Y-89495258D01*
X113019500Y-89724741D01*
X113037120Y-89858570D01*
X113049452Y-89952238D01*
X113091801Y-90110288D01*
X113108842Y-90173887D01*
X113196650Y-90385876D01*
X113196656Y-90385888D01*
X113275127Y-90521805D01*
X113311392Y-90584617D01*
X113451081Y-90766661D01*
X113451089Y-90766670D01*
X113613330Y-90928911D01*
X113613338Y-90928918D01*
X113795382Y-91068607D01*
X113795385Y-91068608D01*
X113795388Y-91068611D01*
X113994112Y-91183344D01*
X113994117Y-91183346D01*
X113994123Y-91183349D01*
X114081967Y-91219735D01*
X114206113Y-91271158D01*
X114427762Y-91330548D01*
X114655266Y-91360500D01*
X114655273Y-91360500D01*
X114884727Y-91360500D01*
X114884734Y-91360500D01*
X115112238Y-91330548D01*
X115333887Y-91271158D01*
X115545888Y-91183344D01*
X115744612Y-91068611D01*
X115926661Y-90928919D01*
X115926665Y-90928914D01*
X115926670Y-90928911D01*
X116088911Y-90766670D01*
X116088914Y-90766665D01*
X116088919Y-90766661D01*
X116211595Y-90606787D01*
X116226675Y-90587135D01*
X120494500Y-90587135D01*
X120494500Y-92832870D01*
X120494501Y-92832876D01*
X120500908Y-92892483D01*
X120551202Y-93027328D01*
X120551206Y-93027335D01*
X120637452Y-93142544D01*
X120637455Y-93142547D01*
X120752664Y-93228793D01*
X120752671Y-93228797D01*
X120887517Y-93279091D01*
X120887516Y-93279091D01*
X120894444Y-93279835D01*
X120947127Y-93285500D01*
X123192872Y-93285499D01*
X123252483Y-93279091D01*
X123387331Y-93228796D01*
X123502546Y-93142546D01*
X123588796Y-93027331D01*
X123639091Y-92892483D01*
X123645500Y-92832873D01*
X123645499Y-91586045D01*
X125995000Y-91586045D01*
X125995000Y-91833954D01*
X126033782Y-92078814D01*
X126110389Y-92314589D01*
X126160315Y-92412577D01*
X126160316Y-92412577D01*
X126687296Y-91885597D01*
X126704586Y-91972520D01*
X126772430Y-92136310D01*
X126870924Y-92283717D01*
X126996283Y-92409076D01*
X127143690Y-92507570D01*
X127307480Y-92575414D01*
X127394401Y-92592703D01*
X126867422Y-93119682D01*
X126965409Y-93169610D01*
X126965412Y-93169611D01*
X127201185Y-93246217D01*
X127446046Y-93285000D01*
X127693954Y-93285000D01*
X127938814Y-93246217D01*
X128174587Y-93169611D01*
X128174590Y-93169610D01*
X128272576Y-93119682D01*
X127745598Y-92592703D01*
X127832520Y-92575414D01*
X127996310Y-92507570D01*
X128143717Y-92409076D01*
X128269076Y-92283717D01*
X128367570Y-92136310D01*
X128435414Y-91972520D01*
X128452703Y-91885597D01*
X128979682Y-92412576D01*
X129029610Y-92314590D01*
X129029611Y-92314587D01*
X129106217Y-92078814D01*
X129145000Y-91833954D01*
X129145000Y-91586045D01*
X129106217Y-91341183D01*
X129077690Y-91253383D01*
X129067218Y-91221153D01*
X129449500Y-91221153D01*
X129449500Y-91378846D01*
X129480261Y-91533489D01*
X129480264Y-91533501D01*
X129532021Y-91658454D01*
X129539490Y-91727923D01*
X129532021Y-91753358D01*
X129505866Y-91816501D01*
X129505863Y-91816511D01*
X129475103Y-91971153D01*
X129475103Y-92128846D01*
X129505864Y-92283489D01*
X129505867Y-92283501D01*
X129555177Y-92402548D01*
X129562646Y-92472018D01*
X129555177Y-92497452D01*
X129505867Y-92616498D01*
X129505864Y-92616510D01*
X129475103Y-92771153D01*
X129475103Y-92928846D01*
X129505864Y-93083489D01*
X129505867Y-93083501D01*
X129555177Y-93202548D01*
X129562646Y-93272018D01*
X129555177Y-93297452D01*
X129505867Y-93416498D01*
X129505864Y-93416510D01*
X129475103Y-93571153D01*
X129475103Y-93728846D01*
X129505864Y-93883489D01*
X129505867Y-93883501D01*
X129557020Y-94006997D01*
X129564489Y-94076467D01*
X129557021Y-94101900D01*
X129530263Y-94166502D01*
X129530261Y-94166505D01*
X129499500Y-94321153D01*
X129499500Y-94478846D01*
X129530261Y-94633489D01*
X129530264Y-94633501D01*
X129590602Y-94779172D01*
X129590609Y-94779185D01*
X129678210Y-94910288D01*
X129678213Y-94910292D01*
X129789707Y-95021786D01*
X129789711Y-95021789D01*
X129920814Y-95109390D01*
X129920827Y-95109397D01*
X130066498Y-95169735D01*
X130066503Y-95169737D01*
X130221153Y-95200499D01*
X130221156Y-95200500D01*
X130221158Y-95200500D01*
X130378844Y-95200500D01*
X130378845Y-95200499D01*
X130533497Y-95169737D01*
X130627550Y-95130778D01*
X130697016Y-95123310D01*
X130722443Y-95130775D01*
X130816503Y-95169737D01*
X130971153Y-95200499D01*
X130971156Y-95200500D01*
X130971158Y-95200500D01*
X131128844Y-95200500D01*
X131128845Y-95200499D01*
X131283497Y-95169737D01*
X131402548Y-95120425D01*
X131472017Y-95112956D01*
X131497452Y-95120425D01*
X131591540Y-95159397D01*
X131616503Y-95169737D01*
X131771153Y-95200499D01*
X131771156Y-95200500D01*
X131771158Y-95200500D01*
X131928844Y-95200500D01*
X131928845Y-95200499D01*
X132083497Y-95169737D01*
X132220580Y-95112956D01*
X132229172Y-95109397D01*
X132229172Y-95109396D01*
X132229179Y-95109394D01*
X132360289Y-95021789D01*
X132471789Y-94910289D01*
X132559394Y-94779179D01*
X132619737Y-94633497D01*
X132650500Y-94478842D01*
X132650500Y-94371153D01*
X155275103Y-94371153D01*
X155275103Y-94528846D01*
X155305864Y-94683489D01*
X155305867Y-94683501D01*
X155366205Y-94829172D01*
X155366212Y-94829185D01*
X155453813Y-94960288D01*
X155453816Y-94960292D01*
X155565310Y-95071786D01*
X155565314Y-95071789D01*
X155696417Y-95159390D01*
X155696430Y-95159397D01*
X155795663Y-95200500D01*
X155842106Y-95219737D01*
X155991734Y-95249500D01*
X155996756Y-95250499D01*
X155996759Y-95250500D01*
X155996761Y-95250500D01*
X156154447Y-95250500D01*
X156154448Y-95250499D01*
X156309100Y-95219737D01*
X156454782Y-95159394D01*
X156585892Y-95071789D01*
X156697392Y-94960289D01*
X156784997Y-94829179D01*
X156845340Y-94683497D01*
X156876103Y-94528842D01*
X156876103Y-94371158D01*
X156876103Y-94371155D01*
X156876102Y-94371153D01*
X156846391Y-94221789D01*
X156845340Y-94216503D01*
X156845338Y-94216498D01*
X156785000Y-94070827D01*
X156784993Y-94070814D01*
X156697392Y-93939711D01*
X156697389Y-93939707D01*
X156585895Y-93828213D01*
X156585891Y-93828210D01*
X156454788Y-93740609D01*
X156454775Y-93740602D01*
X156309104Y-93680264D01*
X156309092Y-93680261D01*
X156154448Y-93649500D01*
X156154445Y-93649500D01*
X155996761Y-93649500D01*
X155996758Y-93649500D01*
X155842113Y-93680261D01*
X155842101Y-93680264D01*
X155696430Y-93740602D01*
X155696417Y-93740609D01*
X155565314Y-93828210D01*
X155565310Y-93828213D01*
X155453816Y-93939707D01*
X155453813Y-93939711D01*
X155366212Y-94070814D01*
X155366205Y-94070827D01*
X155305867Y-94216498D01*
X155305864Y-94216510D01*
X155275103Y-94371153D01*
X132650500Y-94371153D01*
X132650500Y-94321158D01*
X132650500Y-94321155D01*
X132650499Y-94321153D01*
X132630734Y-94221789D01*
X132619737Y-94166503D01*
X132580778Y-94072449D01*
X132573310Y-94002984D01*
X132580775Y-93977556D01*
X132619737Y-93883497D01*
X132650500Y-93728842D01*
X132650500Y-93571158D01*
X132650500Y-93571155D01*
X132644155Y-93539258D01*
X132644155Y-93539257D01*
X132640554Y-93521153D01*
X167825103Y-93521153D01*
X167825103Y-93678846D01*
X167855864Y-93833489D01*
X167855867Y-93833501D01*
X167916205Y-93979172D01*
X167916212Y-93979185D01*
X168003813Y-94110288D01*
X168003816Y-94110292D01*
X168115310Y-94221786D01*
X168115314Y-94221789D01*
X168246417Y-94309390D01*
X168246430Y-94309397D01*
X168392101Y-94369735D01*
X168392106Y-94369737D01*
X168546756Y-94400499D01*
X168546759Y-94400500D01*
X168546761Y-94400500D01*
X168704447Y-94400500D01*
X168704448Y-94400499D01*
X168859100Y-94369737D01*
X169004782Y-94309394D01*
X169135892Y-94221789D01*
X169247392Y-94110289D01*
X169334997Y-93979179D01*
X169335674Y-93977546D01*
X169395338Y-93833501D01*
X169395340Y-93833497D01*
X169426103Y-93678842D01*
X169426103Y-93521158D01*
X169426103Y-93521155D01*
X169426102Y-93521153D01*
X169405287Y-93416510D01*
X169395340Y-93366503D01*
X169395338Y-93366498D01*
X169335000Y-93220827D01*
X169334993Y-93220814D01*
X169247392Y-93089711D01*
X169247389Y-93089707D01*
X169135895Y-92978213D01*
X169135891Y-92978210D01*
X169004788Y-92890609D01*
X169004775Y-92890602D01*
X168859104Y-92830264D01*
X168859092Y-92830261D01*
X168704448Y-92799500D01*
X168704445Y-92799500D01*
X168546761Y-92799500D01*
X168546758Y-92799500D01*
X168392113Y-92830261D01*
X168392101Y-92830264D01*
X168246430Y-92890602D01*
X168246417Y-92890609D01*
X168115314Y-92978210D01*
X168115310Y-92978213D01*
X168003816Y-93089707D01*
X168003813Y-93089711D01*
X167916212Y-93220814D01*
X167916205Y-93220827D01*
X167855867Y-93366498D01*
X167855864Y-93366510D01*
X167825103Y-93521153D01*
X132640554Y-93521153D01*
X132619738Y-93416510D01*
X132619737Y-93416503D01*
X132599029Y-93366510D01*
X132570425Y-93297452D01*
X132562956Y-93227983D01*
X132570425Y-93202548D01*
X132617163Y-93089711D01*
X132619737Y-93083497D01*
X132650500Y-92928842D01*
X132650500Y-92771158D01*
X132650500Y-92771155D01*
X132650499Y-92771153D01*
X132619738Y-92616510D01*
X132619737Y-92616503D01*
X132570425Y-92497452D01*
X132562956Y-92427983D01*
X132570425Y-92402548D01*
X132619735Y-92283501D01*
X132619737Y-92283497D01*
X132650500Y-92128842D01*
X132650500Y-91971158D01*
X132650500Y-91971155D01*
X132650499Y-91971153D01*
X132619737Y-91816503D01*
X132600952Y-91771153D01*
X158325103Y-91771153D01*
X158325103Y-91928846D01*
X158355864Y-92083489D01*
X158355867Y-92083501D01*
X158416205Y-92229172D01*
X158416212Y-92229185D01*
X158503813Y-92360288D01*
X158503816Y-92360292D01*
X158615310Y-92471786D01*
X158615314Y-92471789D01*
X158746417Y-92559390D01*
X158746430Y-92559397D01*
X158884286Y-92616498D01*
X158892106Y-92619737D01*
X159046756Y-92650499D01*
X159046759Y-92650500D01*
X159046761Y-92650500D01*
X159204447Y-92650500D01*
X159204448Y-92650499D01*
X159359100Y-92619737D01*
X159504782Y-92559394D01*
X159635892Y-92471789D01*
X159747392Y-92360289D01*
X159834997Y-92229179D01*
X159895340Y-92083497D01*
X159926103Y-91928842D01*
X159926103Y-91771158D01*
X159926103Y-91771155D01*
X159926102Y-91771153D01*
X159913938Y-91710000D01*
X159895340Y-91616503D01*
X159860958Y-91533497D01*
X159835000Y-91470827D01*
X159834993Y-91470814D01*
X159747392Y-91339711D01*
X159747389Y-91339707D01*
X159635895Y-91228213D01*
X159635891Y-91228210D01*
X159504788Y-91140609D01*
X159504775Y-91140602D01*
X159359104Y-91080264D01*
X159359092Y-91080261D01*
X159204448Y-91049500D01*
X159204445Y-91049500D01*
X159046761Y-91049500D01*
X159046758Y-91049500D01*
X158892113Y-91080261D01*
X158892101Y-91080264D01*
X158746430Y-91140602D01*
X158746417Y-91140609D01*
X158615314Y-91228210D01*
X158615310Y-91228213D01*
X158503816Y-91339707D01*
X158503813Y-91339711D01*
X158416212Y-91470814D01*
X158416205Y-91470827D01*
X158355867Y-91616498D01*
X158355864Y-91616510D01*
X158325103Y-91771153D01*
X132600952Y-91771153D01*
X132580778Y-91722450D01*
X132573310Y-91652984D01*
X132580775Y-91627556D01*
X132619737Y-91533497D01*
X132650500Y-91378842D01*
X132650500Y-91221158D01*
X132650500Y-91221155D01*
X132650499Y-91221153D01*
X132638213Y-91159390D01*
X132619737Y-91066503D01*
X132595265Y-91007421D01*
X132559397Y-90920827D01*
X132559390Y-90920814D01*
X132471789Y-90789711D01*
X132471786Y-90789707D01*
X132360292Y-90678213D01*
X132360288Y-90678210D01*
X132229185Y-90590609D01*
X132229172Y-90590602D01*
X132083501Y-90530264D01*
X132083489Y-90530261D01*
X131928845Y-90499500D01*
X131928842Y-90499500D01*
X131771158Y-90499500D01*
X131771155Y-90499500D01*
X131616510Y-90530261D01*
X131616498Y-90530264D01*
X131497452Y-90579574D01*
X131427982Y-90587043D01*
X131402548Y-90579574D01*
X131283501Y-90530264D01*
X131283489Y-90530261D01*
X131128845Y-90499500D01*
X131128842Y-90499500D01*
X130971158Y-90499500D01*
X130971155Y-90499500D01*
X130816510Y-90530261D01*
X130816498Y-90530264D01*
X130697452Y-90579574D01*
X130627982Y-90587043D01*
X130602548Y-90579574D01*
X130483501Y-90530264D01*
X130483489Y-90530261D01*
X130328845Y-90499500D01*
X130328842Y-90499500D01*
X130171158Y-90499500D01*
X130171155Y-90499500D01*
X130016510Y-90530261D01*
X130016498Y-90530264D01*
X129870827Y-90590602D01*
X129870814Y-90590609D01*
X129739711Y-90678210D01*
X129739707Y-90678213D01*
X129628213Y-90789707D01*
X129628210Y-90789711D01*
X129540609Y-90920814D01*
X129540602Y-90920827D01*
X129480264Y-91066498D01*
X129480261Y-91066510D01*
X129449500Y-91221153D01*
X129067218Y-91221153D01*
X129029611Y-91105412D01*
X129029610Y-91105409D01*
X128979682Y-91007422D01*
X128452703Y-91534401D01*
X128435414Y-91447480D01*
X128367570Y-91283690D01*
X128269076Y-91136283D01*
X128143717Y-91010924D01*
X127996310Y-90912430D01*
X127832520Y-90844586D01*
X127745597Y-90827296D01*
X128201739Y-90371153D01*
X154275103Y-90371153D01*
X154275103Y-90528846D01*
X154305864Y-90683489D01*
X154305867Y-90683501D01*
X154366205Y-90829172D01*
X154366212Y-90829185D01*
X154453813Y-90960288D01*
X154453816Y-90960292D01*
X154565310Y-91071786D01*
X154565314Y-91071789D01*
X154696417Y-91159390D01*
X154696430Y-91159397D01*
X154842101Y-91219735D01*
X154842106Y-91219737D01*
X154996756Y-91250499D01*
X154996759Y-91250500D01*
X154996761Y-91250500D01*
X155154447Y-91250500D01*
X155154448Y-91250499D01*
X155309100Y-91219737D01*
X155454782Y-91159394D01*
X155585892Y-91071789D01*
X155697392Y-90960289D01*
X155784997Y-90829179D01*
X155845340Y-90683497D01*
X155876103Y-90528842D01*
X155876103Y-90445134D01*
X155895788Y-90378095D01*
X155948592Y-90332340D01*
X156017750Y-90322396D01*
X156047553Y-90330572D01*
X156142106Y-90369737D01*
X156296756Y-90400499D01*
X156296759Y-90400500D01*
X156296761Y-90400500D01*
X156454447Y-90400500D01*
X156454448Y-90400499D01*
X156609100Y-90369737D01*
X156754782Y-90309394D01*
X156885892Y-90221789D01*
X156997392Y-90110289D01*
X157084997Y-89979179D01*
X157145340Y-89833497D01*
X157176103Y-89678842D01*
X157176103Y-89521158D01*
X157176103Y-89521155D01*
X157176102Y-89521153D01*
X157145341Y-89366510D01*
X157145340Y-89366503D01*
X157104444Y-89267770D01*
X157085000Y-89220827D01*
X157084993Y-89220814D01*
X156997393Y-89089712D01*
X156997387Y-89089705D01*
X156928835Y-89021153D01*
X158825103Y-89021153D01*
X158825103Y-89178846D01*
X158855864Y-89333489D01*
X158855867Y-89333501D01*
X158916205Y-89479172D01*
X158916212Y-89479185D01*
X159003813Y-89610288D01*
X159003816Y-89610292D01*
X159115310Y-89721786D01*
X159115314Y-89721789D01*
X159246417Y-89809390D01*
X159246430Y-89809397D01*
X159365146Y-89858570D01*
X159392106Y-89869737D01*
X159546756Y-89900499D01*
X159546759Y-89900500D01*
X159546761Y-89900500D01*
X159704447Y-89900500D01*
X159704448Y-89900499D01*
X159859100Y-89869737D01*
X160004782Y-89809394D01*
X160135892Y-89721789D01*
X160247392Y-89610289D01*
X160334997Y-89479179D01*
X160395340Y-89333497D01*
X160426103Y-89178842D01*
X160426103Y-89021158D01*
X160426103Y-89021155D01*
X160426102Y-89021153D01*
X160400134Y-88890606D01*
X160395340Y-88866503D01*
X160381922Y-88834109D01*
X160335000Y-88720827D01*
X160334993Y-88720814D01*
X160247392Y-88589711D01*
X160247389Y-88589707D01*
X160135895Y-88478213D01*
X160135891Y-88478210D01*
X160004788Y-88390609D01*
X160004775Y-88390602D01*
X159859104Y-88330264D01*
X159859092Y-88330261D01*
X159704448Y-88299500D01*
X159704445Y-88299500D01*
X159546761Y-88299500D01*
X159546758Y-88299500D01*
X159392113Y-88330261D01*
X159392101Y-88330264D01*
X159246430Y-88390602D01*
X159246417Y-88390609D01*
X159115314Y-88478210D01*
X159115310Y-88478213D01*
X159003816Y-88589707D01*
X159003813Y-88589711D01*
X158916212Y-88720814D01*
X158916205Y-88720827D01*
X158855867Y-88866498D01*
X158855864Y-88866510D01*
X158825103Y-89021153D01*
X156928835Y-89021153D01*
X156885895Y-88978213D01*
X156885891Y-88978210D01*
X156754788Y-88890609D01*
X156754775Y-88890602D01*
X156609104Y-88830264D01*
X156609092Y-88830261D01*
X156454448Y-88799500D01*
X156454445Y-88799500D01*
X156296761Y-88799500D01*
X156296758Y-88799500D01*
X156142113Y-88830261D01*
X156142101Y-88830264D01*
X155996430Y-88890602D01*
X155996417Y-88890609D01*
X155865314Y-88978210D01*
X155865310Y-88978213D01*
X155753816Y-89089707D01*
X155753813Y-89089711D01*
X155666212Y-89220814D01*
X155666205Y-89220827D01*
X155605867Y-89366498D01*
X155605864Y-89366510D01*
X155575103Y-89521153D01*
X155575103Y-89604865D01*
X155555418Y-89671904D01*
X155502614Y-89717659D01*
X155433456Y-89727603D01*
X155403651Y-89719427D01*
X155399383Y-89717659D01*
X155309100Y-89680263D01*
X155309097Y-89680262D01*
X155309094Y-89680261D01*
X155154448Y-89649500D01*
X155154445Y-89649500D01*
X154996761Y-89649500D01*
X154996758Y-89649500D01*
X154842113Y-89680261D01*
X154842101Y-89680264D01*
X154696430Y-89740602D01*
X154696417Y-89740609D01*
X154565314Y-89828210D01*
X154565310Y-89828213D01*
X154453816Y-89939707D01*
X154453813Y-89939711D01*
X154366212Y-90070814D01*
X154366205Y-90070827D01*
X154305867Y-90216498D01*
X154305864Y-90216510D01*
X154275103Y-90371153D01*
X128201739Y-90371153D01*
X128272577Y-90300315D01*
X128174589Y-90250389D01*
X127938814Y-90173782D01*
X127693954Y-90135000D01*
X127446046Y-90135000D01*
X127201185Y-90173782D01*
X126965410Y-90250389D01*
X126867421Y-90300315D01*
X127394402Y-90827296D01*
X127307480Y-90844586D01*
X127143690Y-90912430D01*
X126996283Y-91010924D01*
X126870924Y-91136283D01*
X126772430Y-91283690D01*
X126704586Y-91447480D01*
X126687296Y-91534401D01*
X126160315Y-91007421D01*
X126110389Y-91105410D01*
X126033782Y-91341185D01*
X125995000Y-91586045D01*
X123645499Y-91586045D01*
X123645499Y-90587128D01*
X123639234Y-90528844D01*
X123639091Y-90527516D01*
X123588797Y-90392671D01*
X123588793Y-90392664D01*
X123502547Y-90277455D01*
X123502544Y-90277452D01*
X123387335Y-90191206D01*
X123387328Y-90191202D01*
X123252482Y-90140908D01*
X123252483Y-90140908D01*
X123192883Y-90134501D01*
X123192881Y-90134500D01*
X123192873Y-90134500D01*
X123192864Y-90134500D01*
X120947129Y-90134500D01*
X120947123Y-90134501D01*
X120887516Y-90140908D01*
X120752671Y-90191202D01*
X120752664Y-90191206D01*
X120637455Y-90277452D01*
X120637452Y-90277455D01*
X120551206Y-90392664D01*
X120551202Y-90392671D01*
X120500908Y-90527517D01*
X120494509Y-90587043D01*
X120494501Y-90587123D01*
X120494500Y-90587135D01*
X116226675Y-90587135D01*
X116228605Y-90584620D01*
X116228607Y-90584617D01*
X116228611Y-90584612D01*
X116343344Y-90385888D01*
X116431158Y-90173887D01*
X116490548Y-89952238D01*
X116520500Y-89724734D01*
X116520500Y-89495266D01*
X116490548Y-89267762D01*
X116431158Y-89046113D01*
X116370843Y-88900500D01*
X116343349Y-88834123D01*
X116343346Y-88834117D01*
X116343344Y-88834112D01*
X116228611Y-88635388D01*
X116228608Y-88635385D01*
X116228607Y-88635382D01*
X116108741Y-88479172D01*
X116088919Y-88453339D01*
X116088918Y-88453338D01*
X116088911Y-88453330D01*
X115926670Y-88291089D01*
X115926661Y-88291081D01*
X115744617Y-88151392D01*
X115545890Y-88036657D01*
X115545876Y-88036650D01*
X115333887Y-87948842D01*
X115112238Y-87889452D01*
X115074215Y-87884446D01*
X114884741Y-87859500D01*
X114884734Y-87859500D01*
X114655266Y-87859500D01*
X114655258Y-87859500D01*
X114438715Y-87888009D01*
X114427762Y-87889452D01*
X114334076Y-87914554D01*
X114206112Y-87948842D01*
X113994123Y-88036650D01*
X113994109Y-88036657D01*
X113795382Y-88151392D01*
X113613338Y-88291081D01*
X113451081Y-88453338D01*
X113311392Y-88635382D01*
X113196657Y-88834109D01*
X113196650Y-88834123D01*
X113108842Y-89046112D01*
X113049453Y-89267759D01*
X113049451Y-89267770D01*
X113019500Y-89495258D01*
X108380369Y-89495258D01*
X108433086Y-89175955D01*
X108433800Y-89172035D01*
X108653266Y-88068704D01*
X108654094Y-88064867D01*
X108812384Y-87385999D01*
X120494500Y-87385999D01*
X120494500Y-87634000D01*
X120533293Y-87878927D01*
X120533294Y-87878931D01*
X120609927Y-88114782D01*
X120722511Y-88335742D01*
X120868276Y-88536370D01*
X121043630Y-88711724D01*
X121244258Y-88857489D01*
X121465218Y-88970073D01*
X121701069Y-89046706D01*
X121792920Y-89061253D01*
X121946000Y-89085500D01*
X121946005Y-89085500D01*
X122194000Y-89085500D01*
X122330070Y-89063947D01*
X122438931Y-89046706D01*
X122674782Y-88970073D01*
X122895742Y-88857489D01*
X123096370Y-88711724D01*
X123271724Y-88536370D01*
X123417489Y-88335742D01*
X123530073Y-88114782D01*
X123606706Y-87878931D01*
X123631748Y-87720821D01*
X123645500Y-87634000D01*
X123645500Y-87385999D01*
X125994500Y-87385999D01*
X125994500Y-87634000D01*
X126033293Y-87878927D01*
X126033294Y-87878931D01*
X126109927Y-88114782D01*
X126222511Y-88335742D01*
X126368276Y-88536370D01*
X126543630Y-88711724D01*
X126744258Y-88857489D01*
X126965218Y-88970073D01*
X127201069Y-89046706D01*
X127292920Y-89061253D01*
X127446000Y-89085500D01*
X127446005Y-89085500D01*
X127694000Y-89085500D01*
X127830070Y-89063947D01*
X127938931Y-89046706D01*
X128174782Y-88970073D01*
X128395742Y-88857489D01*
X128596370Y-88711724D01*
X128771724Y-88536370D01*
X128917489Y-88335742D01*
X129030073Y-88114782D01*
X129106706Y-87878931D01*
X129131748Y-87720821D01*
X129145500Y-87634000D01*
X129145500Y-87385999D01*
X129118124Y-87213157D01*
X129106706Y-87141069D01*
X129030073Y-86905218D01*
X128917489Y-86684258D01*
X128771724Y-86483630D01*
X128596370Y-86308276D01*
X128395742Y-86162511D01*
X128286318Y-86106757D01*
X128174784Y-86049928D01*
X128174783Y-86049927D01*
X128174782Y-86049927D01*
X127938931Y-85973294D01*
X127938929Y-85973293D01*
X127938927Y-85973293D01*
X127694000Y-85934500D01*
X127693995Y-85934500D01*
X127446005Y-85934500D01*
X127446000Y-85934500D01*
X127201072Y-85973293D01*
X126965215Y-86049928D01*
X126744257Y-86162511D01*
X126653831Y-86228210D01*
X126543630Y-86308276D01*
X126543628Y-86308278D01*
X126543627Y-86308278D01*
X126368278Y-86483627D01*
X126368278Y-86483628D01*
X126368276Y-86483630D01*
X126310961Y-86562517D01*
X126222511Y-86684257D01*
X126109928Y-86905215D01*
X126109927Y-86905217D01*
X126109927Y-86905218D01*
X126085894Y-86979185D01*
X126033293Y-87141072D01*
X125994500Y-87385999D01*
X123645500Y-87385999D01*
X123618124Y-87213157D01*
X123606706Y-87141069D01*
X123530073Y-86905218D01*
X123417489Y-86684258D01*
X123271724Y-86483630D01*
X123096370Y-86308276D01*
X122895742Y-86162511D01*
X122786318Y-86106757D01*
X122674784Y-86049928D01*
X122674783Y-86049927D01*
X122674782Y-86049927D01*
X122438931Y-85973294D01*
X122438929Y-85973293D01*
X122438927Y-85973293D01*
X122194000Y-85934500D01*
X122193995Y-85934500D01*
X121946005Y-85934500D01*
X121946000Y-85934500D01*
X121701072Y-85973293D01*
X121465215Y-86049928D01*
X121244257Y-86162511D01*
X121153831Y-86228210D01*
X121043630Y-86308276D01*
X121043628Y-86308278D01*
X121043627Y-86308278D01*
X120868278Y-86483627D01*
X120868278Y-86483628D01*
X120868276Y-86483630D01*
X120810961Y-86562517D01*
X120722511Y-86684257D01*
X120609928Y-86905215D01*
X120609927Y-86905217D01*
X120609927Y-86905218D01*
X120585894Y-86979185D01*
X120533293Y-87141072D01*
X120494500Y-87385999D01*
X108812384Y-87385999D01*
X108909549Y-86969280D01*
X108910534Y-86965350D01*
X108985852Y-86684258D01*
X109201689Y-85878743D01*
X109202772Y-85874949D01*
X109529346Y-84798381D01*
X109530557Y-84794610D01*
X109759165Y-84121153D01*
X133599500Y-84121153D01*
X133599500Y-84278846D01*
X133630261Y-84433489D01*
X133630264Y-84433501D01*
X133690602Y-84579172D01*
X133690609Y-84579185D01*
X133778210Y-84710288D01*
X133778213Y-84710292D01*
X133889707Y-84821786D01*
X133889711Y-84821789D01*
X134020814Y-84909390D01*
X134020827Y-84909397D01*
X134166498Y-84969735D01*
X134166503Y-84969737D01*
X134321153Y-85000499D01*
X134321156Y-85000500D01*
X134321158Y-85000500D01*
X134478844Y-85000500D01*
X134478845Y-85000499D01*
X134633497Y-84969737D01*
X134779179Y-84909394D01*
X134910289Y-84821789D01*
X135021789Y-84710289D01*
X135109394Y-84579179D01*
X135169737Y-84433497D01*
X135200500Y-84278842D01*
X135200500Y-84121158D01*
X135200500Y-84121155D01*
X135189182Y-84064258D01*
X135189182Y-84064257D01*
X135185581Y-84046153D01*
X145074500Y-84046153D01*
X145074500Y-84203846D01*
X145105261Y-84358489D01*
X145105264Y-84358501D01*
X145165602Y-84504172D01*
X145165609Y-84504185D01*
X145253210Y-84635288D01*
X145253213Y-84635292D01*
X145364707Y-84746786D01*
X145364711Y-84746789D01*
X145495814Y-84834390D01*
X145495827Y-84834397D01*
X145641498Y-84894735D01*
X145641503Y-84894737D01*
X145796153Y-84925499D01*
X145796156Y-84925500D01*
X145796158Y-84925500D01*
X145953843Y-84925500D01*
X145987858Y-84918733D01*
X146102488Y-84895932D01*
X146172077Y-84902159D01*
X146227255Y-84945021D01*
X146250500Y-85010911D01*
X146241241Y-85064998D01*
X146230263Y-85091503D01*
X146230261Y-85091510D01*
X146199500Y-85246153D01*
X146199500Y-85403846D01*
X146230261Y-85558489D01*
X146230264Y-85558501D01*
X146290602Y-85704172D01*
X146290609Y-85704185D01*
X146378210Y-85835288D01*
X146378213Y-85835292D01*
X146489710Y-85946789D01*
X146493659Y-85950030D01*
X146532993Y-86007776D01*
X146534862Y-86077621D01*
X146498674Y-86137389D01*
X146483884Y-86148984D01*
X146365314Y-86228210D01*
X146365310Y-86228213D01*
X146253816Y-86339707D01*
X146253813Y-86339711D01*
X146166212Y-86470814D01*
X146166205Y-86470827D01*
X146105867Y-86616498D01*
X146105864Y-86616510D01*
X146075103Y-86771153D01*
X146075103Y-86928846D01*
X146105864Y-87083489D01*
X146105867Y-87083501D01*
X146166205Y-87229172D01*
X146166212Y-87229185D01*
X146253813Y-87360288D01*
X146253816Y-87360292D01*
X146365310Y-87471786D01*
X146365314Y-87471789D01*
X146496417Y-87559390D01*
X146496430Y-87559397D01*
X146569616Y-87589711D01*
X146642106Y-87619737D01*
X146796756Y-87650499D01*
X146796759Y-87650500D01*
X146796761Y-87650500D01*
X146954447Y-87650500D01*
X146954448Y-87650499D01*
X147109100Y-87619737D01*
X147254782Y-87559394D01*
X147385892Y-87471789D01*
X147497392Y-87360289D01*
X147584997Y-87229179D01*
X147591634Y-87213157D01*
X147645338Y-87083501D01*
X147645340Y-87083497D01*
X147676103Y-86928842D01*
X147676103Y-86771158D01*
X147676103Y-86771155D01*
X147676102Y-86771153D01*
X147645341Y-86616510D01*
X147645340Y-86616503D01*
X147605845Y-86521153D01*
X158775103Y-86521153D01*
X158775103Y-86678846D01*
X158805864Y-86833489D01*
X158805867Y-86833501D01*
X158866205Y-86979172D01*
X158866212Y-86979185D01*
X158953813Y-87110288D01*
X158953816Y-87110292D01*
X159065310Y-87221786D01*
X159065314Y-87221789D01*
X159196417Y-87309390D01*
X159196430Y-87309397D01*
X159342101Y-87369735D01*
X159342106Y-87369737D01*
X159476642Y-87396498D01*
X159496756Y-87400499D01*
X159496759Y-87400500D01*
X159496761Y-87400500D01*
X159654445Y-87400500D01*
X159705862Y-87390272D01*
X159775450Y-87396498D01*
X159817734Y-87424209D01*
X159865310Y-87471786D01*
X159865314Y-87471789D01*
X159996417Y-87559390D01*
X159996430Y-87559397D01*
X160069616Y-87589711D01*
X160142106Y-87619737D01*
X160296756Y-87650499D01*
X160296759Y-87650500D01*
X160296761Y-87650500D01*
X160454447Y-87650500D01*
X160512314Y-87638988D01*
X160598416Y-87621862D01*
X160668005Y-87628089D01*
X160723183Y-87670951D01*
X160746428Y-87736841D01*
X160737168Y-87790930D01*
X160705866Y-87866502D01*
X160705864Y-87866510D01*
X160675103Y-88021153D01*
X160675103Y-88178846D01*
X160705864Y-88333489D01*
X160705867Y-88333501D01*
X160766205Y-88479172D01*
X160766212Y-88479185D01*
X160853813Y-88610288D01*
X160853816Y-88610292D01*
X160965310Y-88721786D01*
X160965314Y-88721789D01*
X161096417Y-88809390D01*
X161096430Y-88809397D01*
X161212534Y-88857488D01*
X161242106Y-88869737D01*
X161396756Y-88900499D01*
X161396759Y-88900500D01*
X161396761Y-88900500D01*
X161554447Y-88900500D01*
X161554448Y-88900499D01*
X161709100Y-88869737D01*
X161854782Y-88809394D01*
X161985892Y-88721789D01*
X162097392Y-88610289D01*
X162184997Y-88479179D01*
X162245340Y-88333497D01*
X162276103Y-88178842D01*
X162276103Y-88021158D01*
X162276103Y-88021155D01*
X162276102Y-88021153D01*
X162249905Y-87889452D01*
X162245340Y-87866503D01*
X162191633Y-87736841D01*
X162185000Y-87720827D01*
X162184993Y-87720814D01*
X162097392Y-87589711D01*
X162097389Y-87589707D01*
X161985895Y-87478213D01*
X161985891Y-87478210D01*
X161854788Y-87390609D01*
X161854775Y-87390602D01*
X161709104Y-87330264D01*
X161709092Y-87330261D01*
X161554448Y-87299500D01*
X161554445Y-87299500D01*
X161396761Y-87299500D01*
X161396758Y-87299500D01*
X161252790Y-87328137D01*
X161183199Y-87321910D01*
X161128021Y-87279047D01*
X161104777Y-87213157D01*
X161114038Y-87159068D01*
X161145338Y-87083501D01*
X161145340Y-87083497D01*
X161176103Y-86928842D01*
X161176103Y-86771158D01*
X161176103Y-86771155D01*
X161176102Y-86771153D01*
X161145341Y-86616510D01*
X161145340Y-86616503D01*
X161145338Y-86616498D01*
X161085000Y-86470827D01*
X161084993Y-86470814D01*
X160997392Y-86339711D01*
X160997389Y-86339707D01*
X160885895Y-86228213D01*
X160885891Y-86228210D01*
X160754788Y-86140609D01*
X160754775Y-86140602D01*
X160609104Y-86080264D01*
X160609092Y-86080261D01*
X160454448Y-86049500D01*
X160454445Y-86049500D01*
X160296761Y-86049500D01*
X160245341Y-86059727D01*
X160175749Y-86053498D01*
X160133470Y-86025789D01*
X160085895Y-85978213D01*
X160085891Y-85978210D01*
X159954788Y-85890609D01*
X159954775Y-85890602D01*
X159809104Y-85830264D01*
X159809092Y-85830261D01*
X159654448Y-85799500D01*
X159654445Y-85799500D01*
X159496761Y-85799500D01*
X159496758Y-85799500D01*
X159342113Y-85830261D01*
X159342101Y-85830264D01*
X159196430Y-85890602D01*
X159196417Y-85890609D01*
X159065314Y-85978210D01*
X159065310Y-85978213D01*
X158953816Y-86089707D01*
X158953813Y-86089711D01*
X158866212Y-86220814D01*
X158866205Y-86220827D01*
X158805867Y-86366498D01*
X158805864Y-86366510D01*
X158775103Y-86521153D01*
X147605845Y-86521153D01*
X147590302Y-86483628D01*
X147585000Y-86470827D01*
X147584993Y-86470814D01*
X147497392Y-86339711D01*
X147497389Y-86339707D01*
X147385891Y-86228209D01*
X147381942Y-86224968D01*
X147342609Y-86167221D01*
X147340740Y-86097377D01*
X147376929Y-86037609D01*
X147391710Y-86026020D01*
X147510289Y-85946789D01*
X147621789Y-85835289D01*
X147709394Y-85704179D01*
X147769737Y-85558497D01*
X147800500Y-85403842D01*
X147800500Y-85246158D01*
X147800500Y-85246155D01*
X147800499Y-85246153D01*
X147784702Y-85166737D01*
X147769737Y-85091503D01*
X147769735Y-85091498D01*
X147709397Y-84945827D01*
X147709390Y-84945814D01*
X147621789Y-84814711D01*
X147621786Y-84814707D01*
X147510292Y-84703213D01*
X147510288Y-84703210D01*
X147379185Y-84615609D01*
X147379172Y-84615602D01*
X147233501Y-84555264D01*
X147233489Y-84555261D01*
X147078845Y-84524500D01*
X147078842Y-84524500D01*
X146921158Y-84524500D01*
X146921155Y-84524500D01*
X146772512Y-84554067D01*
X146770693Y-84553904D01*
X146769051Y-84554705D01*
X146736027Y-84550802D01*
X146702921Y-84547840D01*
X146701478Y-84546719D01*
X146699664Y-84546505D01*
X146673997Y-84525371D01*
X146647743Y-84504977D01*
X146647135Y-84503254D01*
X146645725Y-84502093D01*
X146635556Y-84470430D01*
X146624499Y-84439087D01*
X146624740Y-84436756D01*
X146624360Y-84435570D01*
X146625502Y-84429425D01*
X146628503Y-84400520D01*
X146630617Y-84392583D01*
X146644737Y-84358497D01*
X146652762Y-84318153D01*
X158999500Y-84318153D01*
X158999500Y-84475846D01*
X159030261Y-84630489D01*
X159030264Y-84630501D01*
X159090602Y-84776172D01*
X159090609Y-84776185D01*
X159178210Y-84907288D01*
X159178213Y-84907292D01*
X159289707Y-85018786D01*
X159289711Y-85018789D01*
X159420814Y-85106390D01*
X159420827Y-85106397D01*
X159527303Y-85150500D01*
X159566503Y-85166737D01*
X159721153Y-85197499D01*
X159721156Y-85197500D01*
X159721158Y-85197500D01*
X159878844Y-85197500D01*
X159878845Y-85197499D01*
X160033497Y-85166737D01*
X160179179Y-85106394D01*
X160310289Y-85018789D01*
X160421789Y-84907289D01*
X160509394Y-84776179D01*
X160569737Y-84630497D01*
X160600500Y-84475842D01*
X160600500Y-84318158D01*
X160600500Y-84318155D01*
X160600499Y-84318153D01*
X160598756Y-84309390D01*
X160569737Y-84163503D01*
X160552195Y-84121153D01*
X160509397Y-84017827D01*
X160509390Y-84017814D01*
X160421789Y-83886711D01*
X160421786Y-83886707D01*
X160310292Y-83775213D01*
X160310288Y-83775210D01*
X160179185Y-83687609D01*
X160179172Y-83687602D01*
X160033501Y-83627264D01*
X160033489Y-83627261D01*
X159878845Y-83596500D01*
X159878842Y-83596500D01*
X159721158Y-83596500D01*
X159721155Y-83596500D01*
X159566510Y-83627261D01*
X159566498Y-83627264D01*
X159420827Y-83687602D01*
X159420814Y-83687609D01*
X159289711Y-83775210D01*
X159289707Y-83775213D01*
X159178213Y-83886707D01*
X159178210Y-83886711D01*
X159090609Y-84017814D01*
X159090602Y-84017827D01*
X159030264Y-84163498D01*
X159030261Y-84163510D01*
X158999500Y-84318153D01*
X146652762Y-84318153D01*
X146672339Y-84219735D01*
X146675500Y-84203844D01*
X146675500Y-84046155D01*
X146675499Y-84046153D01*
X146644737Y-83891503D01*
X146642752Y-83886711D01*
X146584397Y-83745827D01*
X146584390Y-83745814D01*
X146496789Y-83614711D01*
X146496786Y-83614707D01*
X146385292Y-83503213D01*
X146385288Y-83503210D01*
X146332844Y-83468168D01*
X146254185Y-83415609D01*
X146254172Y-83415602D01*
X146146861Y-83371153D01*
X163075103Y-83371153D01*
X163075103Y-83528846D01*
X163105864Y-83683489D01*
X163105867Y-83683501D01*
X163166205Y-83829172D01*
X163166212Y-83829185D01*
X163253813Y-83960288D01*
X163253816Y-83960292D01*
X163365310Y-84071786D01*
X163365314Y-84071789D01*
X163496417Y-84159390D01*
X163496430Y-84159397D01*
X163603741Y-84203846D01*
X163642106Y-84219737D01*
X163796756Y-84250499D01*
X163796759Y-84250500D01*
X163951103Y-84250500D01*
X164018142Y-84270185D01*
X164063897Y-84322989D01*
X164075103Y-84374500D01*
X164075103Y-84428846D01*
X164105864Y-84583489D01*
X164105867Y-84583501D01*
X164166205Y-84729172D01*
X164166212Y-84729185D01*
X164253813Y-84860288D01*
X164253816Y-84860292D01*
X164365310Y-84971786D01*
X164365314Y-84971789D01*
X164496417Y-85059390D01*
X164496430Y-85059397D01*
X164609900Y-85106397D01*
X164642106Y-85119737D01*
X164796756Y-85150499D01*
X164796759Y-85150500D01*
X164796761Y-85150500D01*
X164954447Y-85150500D01*
X164954448Y-85150499D01*
X165109100Y-85119737D01*
X165254782Y-85059394D01*
X165385892Y-84971789D01*
X165497392Y-84860289D01*
X165584997Y-84729179D01*
X165645340Y-84583497D01*
X165661116Y-84504185D01*
X165662025Y-84499617D01*
X165694409Y-84437706D01*
X165755125Y-84403132D01*
X165790669Y-84400748D01*
X165790669Y-84400500D01*
X165794377Y-84400500D01*
X165795794Y-84400405D01*
X165796759Y-84400500D01*
X165796761Y-84400500D01*
X165954447Y-84400500D01*
X165954448Y-84400499D01*
X166109100Y-84369737D01*
X166254782Y-84309394D01*
X166385892Y-84221789D01*
X166497392Y-84110289D01*
X166584997Y-83979179D01*
X166645340Y-83833497D01*
X166676103Y-83678842D01*
X166676103Y-83521158D01*
X166676103Y-83521155D01*
X166676102Y-83521153D01*
X166667663Y-83478726D01*
X166645340Y-83366503D01*
X166640684Y-83355263D01*
X166585000Y-83220827D01*
X166584993Y-83220814D01*
X166497392Y-83089711D01*
X166497389Y-83089707D01*
X166385895Y-82978213D01*
X166385891Y-82978210D01*
X166254788Y-82890609D01*
X166254775Y-82890602D01*
X166109104Y-82830264D01*
X166109092Y-82830261D01*
X165954448Y-82799500D01*
X165954445Y-82799500D01*
X165796761Y-82799500D01*
X165796758Y-82799500D01*
X165642113Y-82830261D01*
X165642101Y-82830264D01*
X165496430Y-82890602D01*
X165496417Y-82890609D01*
X165365314Y-82978210D01*
X165365310Y-82978213D01*
X165253816Y-83089707D01*
X165253813Y-83089711D01*
X165166212Y-83220814D01*
X165166205Y-83220827D01*
X165105867Y-83366498D01*
X165105864Y-83366508D01*
X165089180Y-83450383D01*
X165074353Y-83478726D01*
X165060940Y-83507780D01*
X165058263Y-83509484D01*
X165056794Y-83512294D01*
X165028996Y-83528122D01*
X165002007Y-83545311D01*
X164998196Y-83545661D01*
X164996078Y-83546868D01*
X164967051Y-83550190D01*
X164957720Y-83550151D01*
X164954445Y-83549500D01*
X164799833Y-83549500D01*
X164799591Y-83549499D01*
X164766268Y-83539564D01*
X164733064Y-83529815D01*
X164732890Y-83529614D01*
X164732634Y-83529538D01*
X164709922Y-83503107D01*
X164687309Y-83477011D01*
X164687245Y-83476718D01*
X164687097Y-83476546D01*
X164686898Y-83475124D01*
X164676103Y-83425500D01*
X164676103Y-83371155D01*
X164676102Y-83371153D01*
X164666822Y-83324500D01*
X164645340Y-83216503D01*
X164625827Y-83169394D01*
X164585000Y-83070827D01*
X164584993Y-83070814D01*
X164497392Y-82939711D01*
X164497389Y-82939707D01*
X164385895Y-82828213D01*
X164385891Y-82828210D01*
X164254788Y-82740609D01*
X164254775Y-82740602D01*
X164109104Y-82680264D01*
X164109092Y-82680261D01*
X163954448Y-82649500D01*
X163954445Y-82649500D01*
X163796761Y-82649500D01*
X163796758Y-82649500D01*
X163642113Y-82680261D01*
X163642101Y-82680264D01*
X163496430Y-82740602D01*
X163496417Y-82740609D01*
X163365314Y-82828210D01*
X163365310Y-82828213D01*
X163253816Y-82939707D01*
X163253813Y-82939711D01*
X163166212Y-83070814D01*
X163166205Y-83070827D01*
X163105867Y-83216498D01*
X163105864Y-83216510D01*
X163075103Y-83371153D01*
X146146861Y-83371153D01*
X146108501Y-83355264D01*
X146108489Y-83355261D01*
X145953845Y-83324500D01*
X145953842Y-83324500D01*
X145796158Y-83324500D01*
X145796155Y-83324500D01*
X145641510Y-83355261D01*
X145641498Y-83355264D01*
X145495827Y-83415602D01*
X145495814Y-83415609D01*
X145364711Y-83503210D01*
X145364707Y-83503213D01*
X145253213Y-83614707D01*
X145253210Y-83614711D01*
X145165609Y-83745814D01*
X145165602Y-83745827D01*
X145105264Y-83891498D01*
X145105261Y-83891510D01*
X145074500Y-84046153D01*
X135185581Y-84046153D01*
X135179501Y-84015590D01*
X135169737Y-83966503D01*
X135138674Y-83891510D01*
X135109397Y-83820827D01*
X135109390Y-83820814D01*
X135021789Y-83689711D01*
X135021786Y-83689707D01*
X134910292Y-83578213D01*
X134910288Y-83578210D01*
X134779185Y-83490609D01*
X134779172Y-83490602D01*
X134633501Y-83430264D01*
X134633489Y-83430261D01*
X134478845Y-83399500D01*
X134478842Y-83399500D01*
X134321158Y-83399500D01*
X134321155Y-83399500D01*
X134166510Y-83430261D01*
X134166498Y-83430264D01*
X134020827Y-83490602D01*
X134020814Y-83490609D01*
X133889711Y-83578210D01*
X133889707Y-83578213D01*
X133778213Y-83689707D01*
X133778210Y-83689711D01*
X133690609Y-83820814D01*
X133690602Y-83820827D01*
X133630264Y-83966498D01*
X133630261Y-83966510D01*
X133599500Y-84121153D01*
X109759165Y-84121153D01*
X109892164Y-83729352D01*
X109893508Y-83725598D01*
X110289765Y-82672766D01*
X110291235Y-82669045D01*
X110671438Y-81751153D01*
X112629500Y-81751153D01*
X112629500Y-81908846D01*
X112660261Y-82063489D01*
X112660264Y-82063501D01*
X112720602Y-82209172D01*
X112720609Y-82209185D01*
X112808210Y-82340288D01*
X112808213Y-82340292D01*
X112919707Y-82451786D01*
X112919711Y-82451789D01*
X113050814Y-82539390D01*
X113050827Y-82539397D01*
X113146854Y-82579172D01*
X113196503Y-82599737D01*
X113281979Y-82616739D01*
X113343886Y-82649122D01*
X113360887Y-82669464D01*
X113408210Y-82740289D01*
X113519707Y-82851786D01*
X113519711Y-82851789D01*
X113650814Y-82939390D01*
X113650827Y-82939397D01*
X113744534Y-82978211D01*
X113796503Y-82999737D01*
X113951153Y-83030499D01*
X113951156Y-83030500D01*
X113951158Y-83030500D01*
X114108844Y-83030500D01*
X114108845Y-83030499D01*
X114263497Y-82999737D01*
X114408414Y-82939711D01*
X114409172Y-82939397D01*
X114409172Y-82939396D01*
X114409179Y-82939394D01*
X114540289Y-82851789D01*
X114651789Y-82740289D01*
X114739394Y-82609179D01*
X114799737Y-82463497D01*
X114808441Y-82419738D01*
X114816117Y-82381153D01*
X120719500Y-82381153D01*
X120719500Y-82538846D01*
X120750261Y-82693489D01*
X120750264Y-82693501D01*
X120810602Y-82839172D01*
X120810609Y-82839185D01*
X120898210Y-82970288D01*
X120898213Y-82970292D01*
X121009707Y-83081786D01*
X121009711Y-83081789D01*
X121140814Y-83169390D01*
X121140827Y-83169397D01*
X121285156Y-83229179D01*
X121286503Y-83229737D01*
X121441153Y-83260499D01*
X121441156Y-83260500D01*
X121441158Y-83260500D01*
X121598844Y-83260500D01*
X121598845Y-83260499D01*
X121753497Y-83229737D01*
X121899179Y-83169394D01*
X122030289Y-83081789D01*
X122141789Y-82970289D01*
X122229394Y-82839179D01*
X122233938Y-82828210D01*
X122270224Y-82740606D01*
X122289737Y-82693497D01*
X122320500Y-82538842D01*
X122320500Y-82381158D01*
X122320500Y-82381155D01*
X122320499Y-82381153D01*
X122312371Y-82340292D01*
X122289737Y-82226503D01*
X122262312Y-82160292D01*
X122246100Y-82121153D01*
X133399500Y-82121153D01*
X133399500Y-82278846D01*
X133430261Y-82433489D01*
X133430264Y-82433501D01*
X133490602Y-82579172D01*
X133490609Y-82579185D01*
X133578210Y-82710288D01*
X133578213Y-82710292D01*
X133689707Y-82821786D01*
X133689711Y-82821789D01*
X133820814Y-82909390D01*
X133820827Y-82909397D01*
X133966498Y-82969735D01*
X133966503Y-82969737D01*
X134117312Y-82999735D01*
X134121153Y-83000499D01*
X134121156Y-83000500D01*
X134121158Y-83000500D01*
X134278844Y-83000500D01*
X134278845Y-83000499D01*
X134433497Y-82969737D01*
X134579179Y-82909394D01*
X134710289Y-82821789D01*
X134821789Y-82710289D01*
X134909394Y-82579179D01*
X134969737Y-82433497D01*
X135000500Y-82278842D01*
X135000500Y-82121158D01*
X135000500Y-82121155D01*
X135000499Y-82121153D01*
X134992365Y-82080261D01*
X134969737Y-81966503D01*
X134969735Y-81966498D01*
X134909397Y-81820827D01*
X134909390Y-81820814D01*
X134821789Y-81689711D01*
X134821786Y-81689707D01*
X134710292Y-81578213D01*
X134710288Y-81578210D01*
X134579185Y-81490609D01*
X134579175Y-81490604D01*
X134561254Y-81483181D01*
X134561252Y-81483180D01*
X134433501Y-81430264D01*
X134433489Y-81430261D01*
X134278845Y-81399500D01*
X134278842Y-81399500D01*
X134121158Y-81399500D01*
X134121155Y-81399500D01*
X133966510Y-81430261D01*
X133966498Y-81430264D01*
X133820827Y-81490602D01*
X133820814Y-81490609D01*
X133689711Y-81578210D01*
X133689707Y-81578213D01*
X133578213Y-81689707D01*
X133578210Y-81689711D01*
X133490609Y-81820814D01*
X133490602Y-81820827D01*
X133430264Y-81966498D01*
X133430261Y-81966510D01*
X133399500Y-82121153D01*
X122246100Y-82121153D01*
X122229397Y-82080827D01*
X122229390Y-82080814D01*
X122141789Y-81949711D01*
X122141786Y-81949707D01*
X122030292Y-81838213D01*
X122030288Y-81838210D01*
X121899185Y-81750609D01*
X121899172Y-81750602D01*
X121753501Y-81690264D01*
X121753489Y-81690261D01*
X121598845Y-81659500D01*
X121598842Y-81659500D01*
X121441158Y-81659500D01*
X121441155Y-81659500D01*
X121286510Y-81690261D01*
X121286498Y-81690264D01*
X121140827Y-81750602D01*
X121140814Y-81750609D01*
X121009711Y-81838210D01*
X121009707Y-81838213D01*
X120898213Y-81949707D01*
X120898210Y-81949711D01*
X120810609Y-82080814D01*
X120810602Y-82080827D01*
X120750264Y-82226498D01*
X120750261Y-82226510D01*
X120719500Y-82381153D01*
X114816117Y-82381153D01*
X114822140Y-82350874D01*
X114822140Y-82350873D01*
X114830499Y-82308846D01*
X114830500Y-82308844D01*
X114830500Y-82151155D01*
X114830499Y-82151153D01*
X114816509Y-82080821D01*
X114799737Y-81996503D01*
X114786209Y-81963843D01*
X114750425Y-81877452D01*
X114742956Y-81807983D01*
X114750425Y-81782548D01*
X114788879Y-81689711D01*
X114799737Y-81663497D01*
X114830500Y-81508842D01*
X114830500Y-81351158D01*
X114830500Y-81351155D01*
X114830499Y-81351153D01*
X114806938Y-81232705D01*
X114799737Y-81196503D01*
X114799735Y-81196498D01*
X114739397Y-81050827D01*
X114739390Y-81050814D01*
X114651789Y-80919711D01*
X114651786Y-80919707D01*
X114540292Y-80808213D01*
X114540288Y-80808210D01*
X114409185Y-80720609D01*
X114409172Y-80720602D01*
X114263501Y-80660264D01*
X114263489Y-80660261D01*
X114108845Y-80629500D01*
X114108842Y-80629500D01*
X113951158Y-80629500D01*
X113951155Y-80629500D01*
X113796510Y-80660261D01*
X113796498Y-80660264D01*
X113650827Y-80720602D01*
X113650814Y-80720609D01*
X113519711Y-80808210D01*
X113519707Y-80808213D01*
X113408217Y-80919704D01*
X113408214Y-80919707D01*
X113408211Y-80919710D01*
X113408211Y-80919711D01*
X113387131Y-80951257D01*
X113360886Y-80990536D01*
X113307273Y-81035340D01*
X113281977Y-81043260D01*
X113196508Y-81060261D01*
X113196498Y-81060264D01*
X113050827Y-81120602D01*
X113050814Y-81120609D01*
X112919711Y-81208210D01*
X112919707Y-81208213D01*
X112808213Y-81319707D01*
X112808210Y-81319711D01*
X112720609Y-81450814D01*
X112720602Y-81450827D01*
X112660264Y-81596498D01*
X112660261Y-81596510D01*
X112629500Y-81751153D01*
X110671438Y-81751153D01*
X110721732Y-81629733D01*
X110723322Y-81626067D01*
X111187599Y-80601382D01*
X111189323Y-80597739D01*
X111236954Y-80501153D01*
X121279500Y-80501153D01*
X121279500Y-80658846D01*
X121310261Y-80813489D01*
X121310264Y-80813501D01*
X121370602Y-80959172D01*
X121370609Y-80959185D01*
X121458210Y-81090288D01*
X121458213Y-81090292D01*
X121569707Y-81201786D01*
X121569711Y-81201789D01*
X121700814Y-81289390D01*
X121700827Y-81289397D01*
X121774013Y-81319711D01*
X121846503Y-81349737D01*
X121972035Y-81374707D01*
X122001153Y-81380499D01*
X122001156Y-81380500D01*
X122001158Y-81380500D01*
X122158844Y-81380500D01*
X122158845Y-81380499D01*
X122187964Y-81374707D01*
X145699500Y-81374707D01*
X145699500Y-81532400D01*
X145730261Y-81687043D01*
X145730264Y-81687055D01*
X145790602Y-81832726D01*
X145790609Y-81832739D01*
X145878210Y-81963842D01*
X145878213Y-81963846D01*
X145989707Y-82075340D01*
X145989711Y-82075343D01*
X146120814Y-82162944D01*
X146120827Y-82162951D01*
X146233780Y-82209737D01*
X146266503Y-82223291D01*
X146421153Y-82254053D01*
X146421156Y-82254054D01*
X146421158Y-82254054D01*
X146578844Y-82254054D01*
X146578845Y-82254053D01*
X146733497Y-82223291D01*
X146879179Y-82162948D01*
X147010289Y-82075343D01*
X147121789Y-81963843D01*
X147209394Y-81832733D01*
X147269737Y-81687051D01*
X147300500Y-81532396D01*
X147300500Y-81374712D01*
X147300500Y-81374709D01*
X147300499Y-81374707D01*
X147297803Y-81361153D01*
X158599500Y-81361153D01*
X158599500Y-81518846D01*
X158630261Y-81673489D01*
X158630264Y-81673501D01*
X158690602Y-81819172D01*
X158690609Y-81819185D01*
X158778210Y-81950288D01*
X158778213Y-81950292D01*
X158889707Y-82061786D01*
X158889711Y-82061789D01*
X159020814Y-82149390D01*
X159020827Y-82149397D01*
X159165139Y-82209172D01*
X159166503Y-82209737D01*
X159321153Y-82240499D01*
X159321156Y-82240500D01*
X159321158Y-82240500D01*
X159478844Y-82240500D01*
X159478845Y-82240499D01*
X159633497Y-82209737D01*
X159746449Y-82162951D01*
X159779172Y-82149397D01*
X159779172Y-82149396D01*
X159779179Y-82149394D01*
X159910289Y-82061789D01*
X160021789Y-81950289D01*
X160109394Y-81819179D01*
X160114032Y-81807983D01*
X160146811Y-81728846D01*
X160169737Y-81673497D01*
X160185053Y-81596498D01*
X160190095Y-81571153D01*
X166275103Y-81571153D01*
X166275103Y-81728846D01*
X166305864Y-81883489D01*
X166305867Y-81883501D01*
X166366205Y-82029172D01*
X166366212Y-82029185D01*
X166453813Y-82160288D01*
X166453816Y-82160292D01*
X166565310Y-82271786D01*
X166565314Y-82271789D01*
X166696417Y-82359390D01*
X166696430Y-82359397D01*
X166810885Y-82406805D01*
X166842106Y-82419737D01*
X166996756Y-82450499D01*
X166996759Y-82450500D01*
X166996761Y-82450500D01*
X167154447Y-82450500D01*
X167154448Y-82450499D01*
X167309100Y-82419737D01*
X167340322Y-82406804D01*
X167409787Y-82399335D01*
X167472267Y-82430608D01*
X167502123Y-82478454D01*
X167503535Y-82477870D01*
X167566205Y-82629172D01*
X167566212Y-82629185D01*
X167653813Y-82760288D01*
X167653816Y-82760292D01*
X167765310Y-82871786D01*
X167765314Y-82871789D01*
X167896417Y-82959390D01*
X167896430Y-82959397D01*
X167995663Y-83000500D01*
X168042106Y-83019737D01*
X168169302Y-83045038D01*
X168196756Y-83050499D01*
X168196759Y-83050500D01*
X168196761Y-83050500D01*
X168354444Y-83050500D01*
X168354445Y-83050500D01*
X168381902Y-83045038D01*
X168451491Y-83051264D01*
X168506670Y-83094125D01*
X168520655Y-83119202D01*
X168566207Y-83229176D01*
X168566212Y-83229185D01*
X168653813Y-83360288D01*
X168653816Y-83360292D01*
X168765310Y-83471786D01*
X168765314Y-83471789D01*
X168896417Y-83559390D01*
X168896430Y-83559397D01*
X168941857Y-83578213D01*
X169042106Y-83619737D01*
X169196756Y-83650499D01*
X169196759Y-83650500D01*
X169196761Y-83650500D01*
X169354447Y-83650500D01*
X169354448Y-83650499D01*
X169509100Y-83619737D01*
X169654782Y-83559394D01*
X169785892Y-83471789D01*
X169897392Y-83360289D01*
X169984997Y-83229179D01*
X169988457Y-83220827D01*
X170009759Y-83169397D01*
X170045340Y-83083497D01*
X170076103Y-82928842D01*
X170076103Y-82771158D01*
X170076103Y-82771155D01*
X170076102Y-82771153D01*
X170069963Y-82740289D01*
X170045340Y-82616503D01*
X170042306Y-82609179D01*
X169985000Y-82470827D01*
X169984993Y-82470814D01*
X169897392Y-82339711D01*
X169897389Y-82339707D01*
X169785895Y-82228213D01*
X169785891Y-82228210D01*
X169654788Y-82140609D01*
X169654775Y-82140602D01*
X169509104Y-82080264D01*
X169509092Y-82080261D01*
X169354448Y-82049500D01*
X169354445Y-82049500D01*
X169196761Y-82049500D01*
X169169301Y-82054962D01*
X169099709Y-82048733D01*
X169044532Y-82005870D01*
X169030550Y-81980796D01*
X168985000Y-81870827D01*
X168984993Y-81870814D01*
X168897392Y-81739711D01*
X168897389Y-81739707D01*
X168785895Y-81628213D01*
X168785891Y-81628210D01*
X168654788Y-81540609D01*
X168654775Y-81540602D01*
X168509104Y-81480264D01*
X168509092Y-81480261D01*
X168354448Y-81449500D01*
X168354445Y-81449500D01*
X168304436Y-81449500D01*
X168237397Y-81429815D01*
X168191642Y-81377011D01*
X168181698Y-81307853D01*
X168210723Y-81244297D01*
X168256984Y-81210939D01*
X168357275Y-81169397D01*
X168357275Y-81169396D01*
X168357282Y-81169394D01*
X168488392Y-81081789D01*
X168599892Y-80970289D01*
X168687497Y-80839179D01*
X168747840Y-80693497D01*
X168778603Y-80538842D01*
X168778603Y-80381158D01*
X168778603Y-80381155D01*
X168778602Y-80381153D01*
X168747841Y-80226510D01*
X168747840Y-80226503D01*
X168687897Y-80081786D01*
X168687500Y-80080827D01*
X168687493Y-80080814D01*
X168599892Y-79949711D01*
X168599889Y-79949707D01*
X168488395Y-79838213D01*
X168488391Y-79838210D01*
X168357288Y-79750609D01*
X168357275Y-79750602D01*
X168211604Y-79690264D01*
X168211592Y-79690261D01*
X168056948Y-79659500D01*
X168056945Y-79659500D01*
X167899261Y-79659500D01*
X167899258Y-79659500D01*
X167744613Y-79690261D01*
X167744601Y-79690264D01*
X167598930Y-79750602D01*
X167598917Y-79750609D01*
X167467814Y-79838210D01*
X167467810Y-79838213D01*
X167356316Y-79949707D01*
X167356313Y-79949711D01*
X167268712Y-80080814D01*
X167268705Y-80080827D01*
X167208367Y-80226498D01*
X167208364Y-80226510D01*
X167177603Y-80381153D01*
X167177603Y-80538846D01*
X167209554Y-80699472D01*
X167207250Y-80699930D01*
X167207774Y-80759386D01*
X167170518Y-80818495D01*
X167107221Y-80848078D01*
X167088494Y-80849500D01*
X166996758Y-80849500D01*
X166842113Y-80880261D01*
X166842101Y-80880264D01*
X166696430Y-80940602D01*
X166696417Y-80940609D01*
X166565314Y-81028210D01*
X166565310Y-81028213D01*
X166453816Y-81139707D01*
X166453813Y-81139711D01*
X166366212Y-81270814D01*
X166366205Y-81270827D01*
X166305867Y-81416498D01*
X166305864Y-81416510D01*
X166275103Y-81571153D01*
X160190095Y-81571153D01*
X160196118Y-81540875D01*
X160200499Y-81518846D01*
X160200500Y-81518844D01*
X160200500Y-81361155D01*
X160200499Y-81361153D01*
X160182529Y-81270814D01*
X160169737Y-81206503D01*
X160154366Y-81169394D01*
X160109397Y-81060827D01*
X160109390Y-81060814D01*
X160021789Y-80929711D01*
X160021786Y-80929707D01*
X159910292Y-80818213D01*
X159910288Y-80818210D01*
X159779185Y-80730609D01*
X159779172Y-80730602D01*
X159633501Y-80670264D01*
X159633489Y-80670261D01*
X159478845Y-80639500D01*
X159478842Y-80639500D01*
X159321158Y-80639500D01*
X159321155Y-80639500D01*
X159166510Y-80670261D01*
X159166498Y-80670264D01*
X159020827Y-80730602D01*
X159020814Y-80730609D01*
X158889711Y-80818210D01*
X158889707Y-80818213D01*
X158778213Y-80929707D01*
X158778210Y-80929711D01*
X158690609Y-81060814D01*
X158690602Y-81060827D01*
X158630264Y-81206498D01*
X158630261Y-81206510D01*
X158599500Y-81361153D01*
X147297803Y-81361153D01*
X147269738Y-81220062D01*
X147269737Y-81220061D01*
X147269737Y-81220057D01*
X147236457Y-81139711D01*
X147209397Y-81074381D01*
X147209390Y-81074368D01*
X147121789Y-80943265D01*
X147121786Y-80943261D01*
X147010292Y-80831767D01*
X147010288Y-80831764D01*
X146879185Y-80744163D01*
X146879172Y-80744156D01*
X146733501Y-80683818D01*
X146733489Y-80683815D01*
X146578845Y-80653054D01*
X146578842Y-80653054D01*
X146421158Y-80653054D01*
X146421155Y-80653054D01*
X146266510Y-80683815D01*
X146266498Y-80683818D01*
X146120827Y-80744156D01*
X146120814Y-80744163D01*
X145989711Y-80831764D01*
X145989707Y-80831767D01*
X145878213Y-80943261D01*
X145878210Y-80943265D01*
X145790609Y-81074368D01*
X145790602Y-81074381D01*
X145730264Y-81220052D01*
X145730261Y-81220064D01*
X145699500Y-81374707D01*
X122187964Y-81374707D01*
X122313497Y-81349737D01*
X122459179Y-81289394D01*
X122590289Y-81201789D01*
X122701789Y-81090289D01*
X122789394Y-80959179D01*
X122849737Y-80813497D01*
X122880500Y-80658842D01*
X122880500Y-80501158D01*
X122880500Y-80501155D01*
X122880499Y-80501153D01*
X122856630Y-80381158D01*
X122849737Y-80346503D01*
X122814114Y-80260500D01*
X122789397Y-80200827D01*
X122789390Y-80200814D01*
X122701789Y-80069711D01*
X122701786Y-80069707D01*
X122590292Y-79958213D01*
X122590288Y-79958210D01*
X122459185Y-79870609D01*
X122459172Y-79870602D01*
X122313501Y-79810264D01*
X122313489Y-79810261D01*
X122158845Y-79779500D01*
X122158842Y-79779500D01*
X122001158Y-79779500D01*
X122001155Y-79779500D01*
X121846510Y-79810261D01*
X121846498Y-79810264D01*
X121700827Y-79870602D01*
X121700814Y-79870609D01*
X121569711Y-79958210D01*
X121569707Y-79958213D01*
X121458213Y-80069707D01*
X121458210Y-80069711D01*
X121370609Y-80200814D01*
X121370602Y-80200827D01*
X121310264Y-80346498D01*
X121310261Y-80346510D01*
X121279500Y-80501153D01*
X111236954Y-80501153D01*
X111267002Y-80440222D01*
X111686858Y-79588837D01*
X111688702Y-79585250D01*
X111797794Y-79381153D01*
X161277603Y-79381153D01*
X161277603Y-79538846D01*
X161308364Y-79693489D01*
X161308367Y-79693501D01*
X161368705Y-79839172D01*
X161368712Y-79839185D01*
X161456313Y-79970288D01*
X161456316Y-79970292D01*
X161567810Y-80081786D01*
X161567814Y-80081789D01*
X161698917Y-80169390D01*
X161698930Y-80169397D01*
X161836786Y-80226498D01*
X161844606Y-80229737D01*
X161999256Y-80260499D01*
X161999259Y-80260500D01*
X161999261Y-80260500D01*
X162156947Y-80260500D01*
X162156948Y-80260499D01*
X162311600Y-80229737D01*
X162457282Y-80169394D01*
X162588392Y-80081789D01*
X162699892Y-79970289D01*
X162787497Y-79839179D01*
X162847840Y-79693497D01*
X162878603Y-79538842D01*
X162878603Y-79381158D01*
X162878603Y-79381155D01*
X162878602Y-79381153D01*
X162860570Y-79290500D01*
X162847840Y-79226503D01*
X162840752Y-79209390D01*
X162787500Y-79080827D01*
X162787493Y-79080814D01*
X162699892Y-78949711D01*
X162699889Y-78949707D01*
X162588395Y-78838213D01*
X162588391Y-78838210D01*
X162457288Y-78750609D01*
X162457275Y-78750602D01*
X162311604Y-78690264D01*
X162311592Y-78690261D01*
X162156948Y-78659500D01*
X162156945Y-78659500D01*
X161999261Y-78659500D01*
X161999258Y-78659500D01*
X161844613Y-78690261D01*
X161844601Y-78690264D01*
X161698930Y-78750602D01*
X161698917Y-78750609D01*
X161567814Y-78838210D01*
X161567810Y-78838213D01*
X161456316Y-78949707D01*
X161456313Y-78949711D01*
X161368712Y-79080814D01*
X161368705Y-79080827D01*
X161308367Y-79226498D01*
X161308364Y-79226510D01*
X161277603Y-79381153D01*
X111797794Y-79381153D01*
X112218991Y-78593148D01*
X112220905Y-78589703D01*
X112783406Y-77615424D01*
X112785443Y-77612025D01*
X113379500Y-76656703D01*
X113381651Y-76653366D01*
X114006657Y-75717981D01*
X114008921Y-75714710D01*
X114664180Y-74800296D01*
X114666560Y-74797087D01*
X115351384Y-73904608D01*
X115353870Y-73901475D01*
X115859414Y-73285468D01*
X118254793Y-73285468D01*
X118254793Y-73573911D01*
X118254794Y-73573928D01*
X118292442Y-73859896D01*
X118292443Y-73859901D01*
X118292444Y-73859907D01*
X118367102Y-74138534D01*
X118367107Y-74138550D01*
X118477484Y-74405026D01*
X118477492Y-74405042D01*
X118621713Y-74654838D01*
X118621724Y-74654854D01*
X118797317Y-74883692D01*
X118797323Y-74883699D01*
X119001283Y-75087659D01*
X119001289Y-75087664D01*
X119230137Y-75263265D01*
X119230144Y-75263269D01*
X119479940Y-75407490D01*
X119479956Y-75407498D01*
X119746432Y-75517875D01*
X119746438Y-75517876D01*
X119746448Y-75517881D01*
X120025076Y-75592539D01*
X120311065Y-75630190D01*
X120311072Y-75630190D01*
X120599514Y-75630190D01*
X120599521Y-75630190D01*
X120885510Y-75592539D01*
X121164138Y-75517881D01*
X121164150Y-75517875D01*
X121164153Y-75517875D01*
X121276951Y-75471153D01*
X125579500Y-75471153D01*
X125579500Y-75628846D01*
X125610261Y-75783489D01*
X125610264Y-75783501D01*
X125670602Y-75929172D01*
X125670609Y-75929185D01*
X125758210Y-76060288D01*
X125758213Y-76060292D01*
X125869707Y-76171786D01*
X125869711Y-76171789D01*
X126000814Y-76259390D01*
X126000827Y-76259397D01*
X126122363Y-76309738D01*
X126146503Y-76319737D01*
X126279244Y-76346141D01*
X126301153Y-76350499D01*
X126301156Y-76350500D01*
X126463741Y-76350500D01*
X126482646Y-76356051D01*
X126502341Y-76356661D01*
X126515482Y-76365693D01*
X126530780Y-76370185D01*
X126543681Y-76385073D01*
X126559922Y-76396236D01*
X126574436Y-76420567D01*
X126576535Y-76422989D01*
X126578075Y-76426504D01*
X126578221Y-76426853D01*
X126620606Y-76529179D01*
X126622141Y-76531476D01*
X126625511Y-76539504D01*
X126628789Y-76568693D01*
X126634777Y-76597456D01*
X126632783Y-76604246D01*
X126633310Y-76608937D01*
X126628623Y-76618411D01*
X126622304Y-76639931D01*
X126622937Y-76640193D01*
X126560264Y-76791498D01*
X126560261Y-76791510D01*
X126529500Y-76946153D01*
X126529500Y-77103846D01*
X126560261Y-77258489D01*
X126560264Y-77258501D01*
X126621720Y-77406869D01*
X126622323Y-77407523D01*
X126622567Y-77408914D01*
X126622937Y-77409807D01*
X126622738Y-77409889D01*
X126628037Y-77440080D01*
X126634777Y-77472456D01*
X126634162Y-77474977D01*
X126634402Y-77476340D01*
X126631761Y-77484836D01*
X126625511Y-77510496D01*
X126622141Y-77518523D01*
X126620606Y-77520821D01*
X126578221Y-77623146D01*
X126578075Y-77623496D01*
X126556208Y-77650370D01*
X126534461Y-77677356D01*
X126534171Y-77677452D01*
X126533977Y-77677691D01*
X126500979Y-77688499D01*
X126468167Y-77699421D01*
X126467608Y-77699430D01*
X126467578Y-77699441D01*
X126467543Y-77699432D01*
X126463741Y-77699500D01*
X126301155Y-77699500D01*
X126146510Y-77730261D01*
X126146498Y-77730264D01*
X126000827Y-77790602D01*
X126000814Y-77790609D01*
X125869711Y-77878210D01*
X125869707Y-77878213D01*
X125758213Y-77989707D01*
X125758210Y-77989711D01*
X125670609Y-78120814D01*
X125670602Y-78120827D01*
X125610264Y-78266498D01*
X125610261Y-78266510D01*
X125579500Y-78421153D01*
X125579500Y-78578846D01*
X125610261Y-78733489D01*
X125610264Y-78733501D01*
X125670602Y-78879172D01*
X125670609Y-78879185D01*
X125758210Y-79010288D01*
X125758213Y-79010292D01*
X125869707Y-79121786D01*
X125869711Y-79121789D01*
X126000814Y-79209390D01*
X126000827Y-79209397D01*
X126122363Y-79259738D01*
X126146503Y-79269737D01*
X126301153Y-79300499D01*
X126301156Y-79300500D01*
X126301158Y-79300500D01*
X126458844Y-79300500D01*
X126458845Y-79300499D01*
X126613497Y-79269737D01*
X126759179Y-79209394D01*
X126890289Y-79121789D01*
X127001789Y-79010289D01*
X127089394Y-78879179D01*
X127106363Y-78838213D01*
X127131698Y-78777048D01*
X127175538Y-78722644D01*
X127241833Y-78700579D01*
X127246259Y-78700500D01*
X127408844Y-78700500D01*
X127408845Y-78700499D01*
X127563497Y-78669737D01*
X127634084Y-78640499D01*
X127707548Y-78610070D01*
X127777017Y-78602601D01*
X127802452Y-78610070D01*
X127930441Y-78663084D01*
X127946503Y-78669737D01*
X128049699Y-78690264D01*
X128101153Y-78700499D01*
X128101156Y-78700500D01*
X128101158Y-78700500D01*
X128258844Y-78700500D01*
X128258845Y-78700499D01*
X128413497Y-78669737D01*
X128559179Y-78609394D01*
X128562231Y-78607354D01*
X128564074Y-78606776D01*
X128564546Y-78606525D01*
X128564593Y-78606614D01*
X128628905Y-78586473D01*
X128678578Y-78595892D01*
X128759461Y-78629394D01*
X128796503Y-78644737D01*
X128951153Y-78675499D01*
X128951156Y-78675500D01*
X129078386Y-78675500D01*
X129145425Y-78695185D01*
X129191180Y-78747989D01*
X129192947Y-78752048D01*
X129245602Y-78879172D01*
X129245609Y-78879185D01*
X129333210Y-79010288D01*
X129333213Y-79010292D01*
X129444707Y-79121786D01*
X129444711Y-79121789D01*
X129575814Y-79209390D01*
X129575827Y-79209397D01*
X129697363Y-79259738D01*
X129721503Y-79269737D01*
X129876153Y-79300499D01*
X129876156Y-79300500D01*
X129876158Y-79300500D01*
X130033844Y-79300500D01*
X130033845Y-79300499D01*
X130188497Y-79269737D01*
X130334179Y-79209394D01*
X130465289Y-79121789D01*
X130576789Y-79010289D01*
X130664394Y-78879179D01*
X130724737Y-78733497D01*
X130755500Y-78578842D01*
X130755500Y-78421158D01*
X130753510Y-78411153D01*
X136528897Y-78411153D01*
X136528897Y-78568846D01*
X136559658Y-78723489D01*
X136559661Y-78723501D01*
X136619999Y-78869172D01*
X136620006Y-78869185D01*
X136707607Y-79000288D01*
X136707610Y-79000292D01*
X136819104Y-79111786D01*
X136819108Y-79111789D01*
X136950211Y-79199390D01*
X136950224Y-79199397D01*
X137095895Y-79259735D01*
X137095900Y-79259737D01*
X137246709Y-79289735D01*
X137250550Y-79290499D01*
X137250553Y-79290500D01*
X137250555Y-79290500D01*
X137408241Y-79290500D01*
X137408242Y-79290499D01*
X137562894Y-79259737D01*
X137675563Y-79213067D01*
X137708569Y-79199397D01*
X137708569Y-79199396D01*
X137708576Y-79199394D01*
X137839686Y-79111789D01*
X137951186Y-79000289D01*
X138038791Y-78869179D01*
X138099134Y-78723497D01*
X138099134Y-78723496D01*
X138101465Y-78717869D01*
X138103844Y-78718854D01*
X138135960Y-78669798D01*
X138199759Y-78641312D01*
X138219463Y-78640955D01*
X138219463Y-78640500D01*
X138383241Y-78640500D01*
X138383242Y-78640499D01*
X138537894Y-78609737D01*
X138612639Y-78578777D01*
X138689205Y-78547063D01*
X138689663Y-78548170D01*
X138751844Y-78535223D01*
X138794326Y-78547696D01*
X138794589Y-78547063D01*
X138928672Y-78602601D01*
X138945900Y-78609737D01*
X139100550Y-78640499D01*
X139100553Y-78640500D01*
X139100555Y-78640500D01*
X139258241Y-78640500D01*
X139258242Y-78640499D01*
X139412894Y-78609737D01*
X139487639Y-78578777D01*
X139556945Y-78550070D01*
X139626414Y-78542601D01*
X139651849Y-78550070D01*
X139778672Y-78602601D01*
X139795900Y-78609737D01*
X139950550Y-78640499D01*
X139950553Y-78640500D01*
X140114331Y-78640500D01*
X140114331Y-78642511D01*
X140173912Y-78653808D01*
X140224625Y-78701870D01*
X140231703Y-78718128D01*
X140232329Y-78717870D01*
X140294999Y-78869172D01*
X140295006Y-78869185D01*
X140382607Y-79000288D01*
X140382610Y-79000292D01*
X140494104Y-79111786D01*
X140494108Y-79111789D01*
X140625211Y-79199390D01*
X140625224Y-79199397D01*
X140770895Y-79259735D01*
X140770900Y-79259737D01*
X140921709Y-79289735D01*
X140925550Y-79290499D01*
X140925553Y-79290500D01*
X140925555Y-79290500D01*
X141083241Y-79290500D01*
X141083242Y-79290499D01*
X141237894Y-79259737D01*
X141350563Y-79213067D01*
X141383569Y-79199397D01*
X141383569Y-79199396D01*
X141383576Y-79199394D01*
X141514686Y-79111789D01*
X141626186Y-79000289D01*
X141713791Y-78869179D01*
X141774134Y-78723497D01*
X141804897Y-78568842D01*
X141804897Y-78441153D01*
X147553897Y-78441153D01*
X147553897Y-78598846D01*
X147584658Y-78753489D01*
X147584661Y-78753501D01*
X147644999Y-78899172D01*
X147645006Y-78899185D01*
X147732607Y-79030288D01*
X147732610Y-79030292D01*
X147844104Y-79141786D01*
X147844108Y-79141789D01*
X147975211Y-79229390D01*
X147975224Y-79229397D01*
X148120895Y-79289735D01*
X148120900Y-79289737D01*
X148275550Y-79320499D01*
X148275553Y-79320500D01*
X148275555Y-79320500D01*
X148433241Y-79320500D01*
X148433242Y-79320499D01*
X148587894Y-79289737D01*
X148733576Y-79229394D01*
X148864686Y-79141789D01*
X148976186Y-79030289D01*
X149063791Y-78899179D01*
X149103422Y-78803501D01*
X149106095Y-78797048D01*
X149149935Y-78742644D01*
X149216230Y-78720579D01*
X149220656Y-78720500D01*
X149383241Y-78720500D01*
X149383242Y-78720499D01*
X149537894Y-78689737D01*
X149624635Y-78653808D01*
X149681945Y-78630070D01*
X149751414Y-78622601D01*
X149776849Y-78630070D01*
X149920895Y-78689735D01*
X149920900Y-78689737D01*
X150043144Y-78714053D01*
X150075550Y-78720499D01*
X150075553Y-78720500D01*
X150075555Y-78720500D01*
X150233241Y-78720500D01*
X150233242Y-78720499D01*
X150387894Y-78689737D01*
X150474635Y-78653808D01*
X150531945Y-78630070D01*
X150601414Y-78622601D01*
X150626849Y-78630070D01*
X150770895Y-78689735D01*
X150770900Y-78689737D01*
X150893144Y-78714053D01*
X150925550Y-78720499D01*
X150925553Y-78720500D01*
X150925555Y-78720500D01*
X151083239Y-78720500D01*
X151115648Y-78714053D01*
X151185238Y-78720279D01*
X151240416Y-78763141D01*
X151258500Y-78799674D01*
X151259659Y-78803496D01*
X151319999Y-78949172D01*
X151320006Y-78949185D01*
X151407607Y-79080288D01*
X151407610Y-79080292D01*
X151519104Y-79191786D01*
X151519108Y-79191789D01*
X151650211Y-79279390D01*
X151650224Y-79279397D01*
X151749457Y-79320500D01*
X151795900Y-79339737D01*
X151950550Y-79370499D01*
X151950553Y-79370500D01*
X151950555Y-79370500D01*
X152108241Y-79370500D01*
X152108242Y-79370499D01*
X152262894Y-79339737D01*
X152408576Y-79279394D01*
X152413025Y-79276420D01*
X152419698Y-79271963D01*
X152419698Y-79271962D01*
X152539686Y-79191789D01*
X152651186Y-79080289D01*
X152738791Y-78949179D01*
X152799134Y-78803497D01*
X152829897Y-78648842D01*
X152829897Y-78491158D01*
X152829897Y-78491155D01*
X152829896Y-78491153D01*
X152799135Y-78336510D01*
X152799134Y-78336503D01*
X152799132Y-78336498D01*
X152738794Y-78190827D01*
X152738787Y-78190814D01*
X152651186Y-78059711D01*
X152651183Y-78059707D01*
X152539689Y-77948213D01*
X152539685Y-77948210D01*
X152408582Y-77860609D01*
X152408569Y-77860602D01*
X152262898Y-77800264D01*
X152262886Y-77800261D01*
X152108242Y-77769500D01*
X152108239Y-77769500D01*
X151950555Y-77769500D01*
X151950550Y-77769500D01*
X151918140Y-77775946D01*
X151886128Y-77773080D01*
X151853992Y-77771713D01*
X151851537Y-77769983D01*
X151848548Y-77769716D01*
X151823164Y-77749995D01*
X151796873Y-77731474D01*
X151795188Y-77728261D01*
X151793373Y-77726851D01*
X151779071Y-77700998D01*
X151775046Y-77691092D01*
X151774134Y-77686503D01*
X151724657Y-77567056D01*
X151724501Y-77566670D01*
X151721043Y-77532304D01*
X151717353Y-77497983D01*
X151717529Y-77497382D01*
X151717506Y-77497152D01*
X151717721Y-77496729D01*
X151724822Y-77472548D01*
X151753141Y-77404179D01*
X151774134Y-77353497D01*
X151804897Y-77198842D01*
X151804897Y-77041158D01*
X151804897Y-77041155D01*
X151804896Y-77041153D01*
X151786000Y-76946158D01*
X151774134Y-76886503D01*
X151734787Y-76791510D01*
X151714467Y-76742451D01*
X151711205Y-76712118D01*
X151705699Y-76682120D01*
X151707301Y-76675802D01*
X151706998Y-76672982D01*
X151714323Y-76647896D01*
X151714388Y-76647736D01*
X151774134Y-76503497D01*
X151774616Y-76501069D01*
X151777825Y-76493257D01*
X151796111Y-76470422D01*
X151812151Y-76445939D01*
X151817702Y-76443462D01*
X151821500Y-76438720D01*
X151849233Y-76429395D01*
X151875959Y-76417472D01*
X151883953Y-76417721D01*
X151887726Y-76416453D01*
X151894002Y-76418034D01*
X151916721Y-76418742D01*
X151925555Y-76420500D01*
X151925557Y-76420500D01*
X152083241Y-76420500D01*
X152083242Y-76420499D01*
X152237894Y-76389737D01*
X152383576Y-76329394D01*
X152514686Y-76241789D01*
X152626186Y-76130289D01*
X152713791Y-75999179D01*
X152774134Y-75853497D01*
X152804897Y-75698842D01*
X152804897Y-75541158D01*
X152804897Y-75541155D01*
X152804896Y-75541153D01*
X152795671Y-75494777D01*
X152774134Y-75386503D01*
X152771549Y-75380263D01*
X152713794Y-75240827D01*
X152713787Y-75240814D01*
X152626186Y-75109711D01*
X152626183Y-75109707D01*
X152514689Y-74998213D01*
X152514685Y-74998210D01*
X152383582Y-74910609D01*
X152383569Y-74910602D01*
X152237898Y-74850264D01*
X152237886Y-74850261D01*
X152083242Y-74819500D01*
X152083239Y-74819500D01*
X151925555Y-74819500D01*
X151925552Y-74819500D01*
X151770907Y-74850261D01*
X151770895Y-74850264D01*
X151625224Y-74910602D01*
X151625211Y-74910609D01*
X151494108Y-74998210D01*
X151494104Y-74998213D01*
X151382610Y-75109707D01*
X151382607Y-75109711D01*
X151295006Y-75240814D01*
X151294999Y-75240827D01*
X151232329Y-75392130D01*
X151231025Y-75391590D01*
X151196606Y-75444089D01*
X151132788Y-75472533D01*
X151092073Y-75471257D01*
X151083239Y-75469500D01*
X150925555Y-75469500D01*
X150925552Y-75469500D01*
X150770907Y-75500261D01*
X150770895Y-75500264D01*
X150651849Y-75549574D01*
X150582379Y-75557043D01*
X150556945Y-75549574D01*
X150437898Y-75500264D01*
X150437886Y-75500261D01*
X150283242Y-75469500D01*
X150283239Y-75469500D01*
X150125555Y-75469500D01*
X150125552Y-75469500D01*
X149970907Y-75500261D01*
X149970895Y-75500264D01*
X149825219Y-75560604D01*
X149825217Y-75560605D01*
X149823282Y-75561899D01*
X149822114Y-75562264D01*
X149819848Y-75563476D01*
X149819618Y-75563045D01*
X149756603Y-75582773D01*
X149689224Y-75564285D01*
X149685512Y-75561899D01*
X149683576Y-75560605D01*
X149683574Y-75560604D01*
X149537898Y-75500264D01*
X149537886Y-75500261D01*
X149383242Y-75469500D01*
X149383239Y-75469500D01*
X149272380Y-75469500D01*
X149205341Y-75449815D01*
X149159586Y-75397011D01*
X149150763Y-75369694D01*
X149149134Y-75361503D01*
X149130705Y-75317011D01*
X149088794Y-75215827D01*
X149088787Y-75215814D01*
X149001186Y-75084711D01*
X149001183Y-75084707D01*
X148889689Y-74973213D01*
X148889685Y-74973210D01*
X148758582Y-74885609D01*
X148758569Y-74885602D01*
X148612898Y-74825264D01*
X148612886Y-74825261D01*
X148458242Y-74794500D01*
X148458239Y-74794500D01*
X148300555Y-74794500D01*
X148300552Y-74794500D01*
X148145907Y-74825261D01*
X148145895Y-74825264D01*
X148000224Y-74885602D01*
X148000211Y-74885609D01*
X147869108Y-74973210D01*
X147869104Y-74973213D01*
X147757610Y-75084707D01*
X147757607Y-75084711D01*
X147670006Y-75215814D01*
X147669999Y-75215827D01*
X147609661Y-75361498D01*
X147609658Y-75361510D01*
X147578897Y-75516153D01*
X147578897Y-75673846D01*
X147609658Y-75828489D01*
X147609661Y-75828501D01*
X147669999Y-75974172D01*
X147670006Y-75974185D01*
X147757607Y-76105288D01*
X147757610Y-76105292D01*
X147869104Y-76216786D01*
X147869108Y-76216789D01*
X148000211Y-76304390D01*
X148000224Y-76304397D01*
X148134910Y-76360185D01*
X148145900Y-76364737D01*
X148271573Y-76389735D01*
X148300550Y-76395499D01*
X148300553Y-76395500D01*
X148411414Y-76395500D01*
X148478453Y-76415185D01*
X148524208Y-76467989D01*
X148526960Y-76474498D01*
X148530907Y-76484634D01*
X148534660Y-76503497D01*
X148594835Y-76648775D01*
X148595312Y-76649998D01*
X148598196Y-76683542D01*
X148601796Y-76717017D01*
X148601239Y-76718913D01*
X148601299Y-76719611D01*
X148600701Y-76720743D01*
X148594327Y-76742452D01*
X148534661Y-76886498D01*
X148534658Y-76886510D01*
X148503897Y-77041153D01*
X148503897Y-77198846D01*
X148534658Y-77353489D01*
X148534661Y-77353501D01*
X148583971Y-77472548D01*
X148587250Y-77503053D01*
X148592700Y-77533253D01*
X148591150Y-77539324D01*
X148591440Y-77542018D01*
X148583972Y-77567451D01*
X148567797Y-77606503D01*
X148553300Y-77641503D01*
X148552700Y-77642951D01*
X148508859Y-77697355D01*
X148442565Y-77719421D01*
X148438138Y-77719500D01*
X148275552Y-77719500D01*
X148120907Y-77750261D01*
X148120895Y-77750264D01*
X147975224Y-77810602D01*
X147975211Y-77810609D01*
X147844108Y-77898210D01*
X147844104Y-77898213D01*
X147732610Y-78009707D01*
X147732607Y-78009711D01*
X147645006Y-78140814D01*
X147644999Y-78140827D01*
X147584661Y-78286498D01*
X147584658Y-78286510D01*
X147553897Y-78441153D01*
X141804897Y-78441153D01*
X141804897Y-78411158D01*
X141804897Y-78411155D01*
X141804896Y-78411153D01*
X141790046Y-78336498D01*
X141774134Y-78256503D01*
X141774132Y-78256498D01*
X141713794Y-78110827D01*
X141713787Y-78110814D01*
X141626186Y-77979711D01*
X141626183Y-77979707D01*
X141514689Y-77868213D01*
X141514685Y-77868210D01*
X141383582Y-77780609D01*
X141383569Y-77780602D01*
X141237898Y-77720264D01*
X141237886Y-77720261D01*
X141083242Y-77689500D01*
X141083239Y-77689500D01*
X140925555Y-77689500D01*
X140919463Y-77689500D01*
X140919463Y-77687497D01*
X140903017Y-77684373D01*
X140877117Y-77683428D01*
X140869252Y-77677958D01*
X140859842Y-77676171D01*
X140841034Y-77658334D01*
X140819755Y-77643535D01*
X140814059Y-77632750D01*
X140809146Y-77628091D01*
X140801769Y-77613168D01*
X140799245Y-77607061D01*
X140799134Y-77606503D01*
X140744606Y-77474861D01*
X140740870Y-77439851D01*
X140737175Y-77405483D01*
X140737194Y-77405415D01*
X140737192Y-77405389D01*
X140737217Y-77405338D01*
X140744644Y-77380048D01*
X140799134Y-77248497D01*
X140829897Y-77093842D01*
X140829897Y-76936158D01*
X140829897Y-76936155D01*
X140829896Y-76936153D01*
X140820019Y-76886498D01*
X140799134Y-76781503D01*
X140755352Y-76675802D01*
X140744644Y-76649951D01*
X140741368Y-76619489D01*
X140735905Y-76589339D01*
X140737467Y-76583206D01*
X140737175Y-76580482D01*
X140744604Y-76555144D01*
X140799134Y-76423497D01*
X140799245Y-76422936D01*
X140801769Y-76416831D01*
X140820016Y-76394151D01*
X140835960Y-76369798D01*
X140841657Y-76367253D01*
X140845568Y-76362394D01*
X140873177Y-76353180D01*
X140899759Y-76341312D01*
X140909258Y-76341140D01*
X140911845Y-76340277D01*
X140914841Y-76341039D01*
X140919463Y-76340955D01*
X140919463Y-76340500D01*
X141083241Y-76340500D01*
X141083242Y-76340499D01*
X141237894Y-76309737D01*
X141350563Y-76263067D01*
X141383569Y-76249397D01*
X141383569Y-76249396D01*
X141383576Y-76249394D01*
X141514686Y-76161789D01*
X141626186Y-76050289D01*
X141713791Y-75919179D01*
X141774134Y-75773497D01*
X141804897Y-75618842D01*
X141804897Y-75461158D01*
X141804897Y-75461155D01*
X141804896Y-75461153D01*
X141793779Y-75405263D01*
X141774134Y-75306503D01*
X141756226Y-75263269D01*
X141713794Y-75160827D01*
X141713787Y-75160814D01*
X141626186Y-75029711D01*
X141626183Y-75029707D01*
X141514689Y-74918213D01*
X141514685Y-74918210D01*
X141383582Y-74830609D01*
X141383569Y-74830602D01*
X141237898Y-74770264D01*
X141237886Y-74770261D01*
X141083242Y-74739500D01*
X141083239Y-74739500D01*
X140925555Y-74739500D01*
X140925552Y-74739500D01*
X140770907Y-74770261D01*
X140770895Y-74770264D01*
X140625224Y-74830602D01*
X140625211Y-74830609D01*
X140494108Y-74918210D01*
X140494104Y-74918213D01*
X140382610Y-75029707D01*
X140382607Y-75029711D01*
X140295006Y-75160814D01*
X140294999Y-75160827D01*
X140232329Y-75312130D01*
X140229967Y-75311151D01*
X140197756Y-75360266D01*
X140133934Y-75388700D01*
X140114331Y-75389049D01*
X140114331Y-75389500D01*
X139950552Y-75389500D01*
X139795907Y-75420261D01*
X139795895Y-75420264D01*
X139651849Y-75479930D01*
X139582380Y-75487399D01*
X139556945Y-75479930D01*
X139412898Y-75420264D01*
X139412886Y-75420261D01*
X139258242Y-75389500D01*
X139258239Y-75389500D01*
X139100555Y-75389500D01*
X139100552Y-75389500D01*
X138945907Y-75420261D01*
X138945895Y-75420264D01*
X138794590Y-75482937D01*
X138794131Y-75481831D01*
X138731941Y-75494777D01*
X138689465Y-75482304D01*
X138689204Y-75482937D01*
X138537898Y-75420264D01*
X138537886Y-75420261D01*
X138383242Y-75389500D01*
X138383239Y-75389500D01*
X138241275Y-75389500D01*
X138174236Y-75369815D01*
X138128481Y-75317011D01*
X138126613Y-75312068D01*
X138126465Y-75312130D01*
X138063794Y-75160827D01*
X138063787Y-75160814D01*
X137976186Y-75029711D01*
X137976183Y-75029707D01*
X137864689Y-74918213D01*
X137864685Y-74918210D01*
X137733582Y-74830609D01*
X137733569Y-74830602D01*
X137587898Y-74770264D01*
X137587886Y-74770261D01*
X137433242Y-74739500D01*
X137433239Y-74739500D01*
X137275555Y-74739500D01*
X137275552Y-74739500D01*
X137120907Y-74770261D01*
X137120895Y-74770264D01*
X136975224Y-74830602D01*
X136975211Y-74830609D01*
X136844108Y-74918210D01*
X136844104Y-74918213D01*
X136732610Y-75029707D01*
X136732607Y-75029711D01*
X136645006Y-75160814D01*
X136644999Y-75160827D01*
X136584661Y-75306498D01*
X136584658Y-75306510D01*
X136553897Y-75461153D01*
X136553897Y-75618846D01*
X136584658Y-75773489D01*
X136584661Y-75773501D01*
X136644999Y-75919172D01*
X136645006Y-75919185D01*
X136732607Y-76050288D01*
X136732610Y-76050292D01*
X136844104Y-76161786D01*
X136844108Y-76161789D01*
X136975211Y-76249390D01*
X136975224Y-76249397D01*
X137108008Y-76304397D01*
X137120900Y-76309737D01*
X137274434Y-76340277D01*
X137275550Y-76340499D01*
X137275553Y-76340500D01*
X137417519Y-76340500D01*
X137436732Y-76346141D01*
X137456745Y-76346868D01*
X137469571Y-76355784D01*
X137484558Y-76360185D01*
X137497670Y-76375317D01*
X137514115Y-76386749D01*
X137524323Y-76406076D01*
X137530313Y-76412989D01*
X137532107Y-76417113D01*
X137534579Y-76423091D01*
X137534660Y-76423497D01*
X137588731Y-76554038D01*
X137589176Y-76555113D01*
X137592836Y-76589339D01*
X137596618Y-76624517D01*
X137596603Y-76624567D01*
X137596605Y-76624586D01*
X137596587Y-76624620D01*
X137589149Y-76649952D01*
X137534661Y-76781498D01*
X137534658Y-76781510D01*
X137503897Y-76936153D01*
X137503897Y-77093846D01*
X137534658Y-77248489D01*
X137534661Y-77248501D01*
X137589149Y-77380048D01*
X137592424Y-77410509D01*
X137597888Y-77440660D01*
X137596325Y-77446792D01*
X137596618Y-77449517D01*
X137589186Y-77474864D01*
X137534660Y-77606503D01*
X137534549Y-77607056D01*
X137532024Y-77613168D01*
X137513746Y-77635885D01*
X137497756Y-77660266D01*
X137492103Y-77662784D01*
X137488225Y-77667605D01*
X137460565Y-77676835D01*
X137433934Y-77688700D01*
X137424507Y-77688867D01*
X137421948Y-77689722D01*
X137418978Y-77688966D01*
X137414331Y-77689049D01*
X137414331Y-77689500D01*
X137250552Y-77689500D01*
X137095907Y-77720261D01*
X137095895Y-77720264D01*
X136950224Y-77780602D01*
X136950211Y-77780609D01*
X136819108Y-77868210D01*
X136819104Y-77868213D01*
X136707610Y-77979707D01*
X136707607Y-77979711D01*
X136620006Y-78110814D01*
X136619999Y-78110827D01*
X136559661Y-78256498D01*
X136559658Y-78256510D01*
X136528897Y-78411153D01*
X130753510Y-78411153D01*
X130724737Y-78266503D01*
X130720593Y-78256498D01*
X130664397Y-78120827D01*
X130664390Y-78120814D01*
X130576789Y-77989711D01*
X130576786Y-77989707D01*
X130465292Y-77878213D01*
X130465288Y-77878210D01*
X130334185Y-77790609D01*
X130334172Y-77790602D01*
X130188501Y-77730264D01*
X130188489Y-77730261D01*
X130033845Y-77699500D01*
X130033842Y-77699500D01*
X129906614Y-77699500D01*
X129887432Y-77693867D01*
X129867454Y-77693154D01*
X129854593Y-77684225D01*
X129839575Y-77679815D01*
X129826485Y-77664709D01*
X129810062Y-77653306D01*
X129795853Y-77629357D01*
X129793820Y-77627011D01*
X129792053Y-77622952D01*
X129740070Y-77497452D01*
X129732601Y-77427983D01*
X129740070Y-77402548D01*
X129799735Y-77258501D01*
X129799737Y-77258497D01*
X129830500Y-77103842D01*
X129830500Y-76946158D01*
X129830500Y-76946155D01*
X129830499Y-76946153D01*
X129799738Y-76791510D01*
X129799737Y-76791503D01*
X129778744Y-76740821D01*
X129740070Y-76647451D01*
X129736790Y-76616946D01*
X129731341Y-76586744D01*
X129732890Y-76580673D01*
X129732601Y-76577982D01*
X129740070Y-76552547D01*
X129792053Y-76427048D01*
X129835894Y-76372644D01*
X129902188Y-76350579D01*
X129906614Y-76350500D01*
X130058844Y-76350500D01*
X130058845Y-76350499D01*
X130213497Y-76319737D01*
X130359179Y-76259394D01*
X130490289Y-76171789D01*
X130601789Y-76060289D01*
X130689394Y-75929179D01*
X130749737Y-75783497D01*
X130780500Y-75628842D01*
X130780500Y-75471158D01*
X130780500Y-75471155D01*
X130780499Y-75471153D01*
X130778510Y-75461153D01*
X130749737Y-75316503D01*
X130727685Y-75263265D01*
X130689397Y-75170827D01*
X130689390Y-75170814D01*
X130601789Y-75039711D01*
X130601786Y-75039707D01*
X130490292Y-74928213D01*
X130490288Y-74928210D01*
X130359185Y-74840609D01*
X130359172Y-74840602D01*
X130213501Y-74780264D01*
X130213489Y-74780261D01*
X130058845Y-74749500D01*
X130058842Y-74749500D01*
X129901158Y-74749500D01*
X129901155Y-74749500D01*
X129746510Y-74780261D01*
X129746498Y-74780264D01*
X129600827Y-74840602D01*
X129600814Y-74840609D01*
X129469711Y-74928210D01*
X129469707Y-74928213D01*
X129358213Y-75039707D01*
X129358210Y-75039711D01*
X129270609Y-75170814D01*
X129270602Y-75170827D01*
X129217947Y-75297952D01*
X129174107Y-75352356D01*
X129107813Y-75374421D01*
X129103386Y-75374500D01*
X128951155Y-75374500D01*
X128796510Y-75405261D01*
X128796507Y-75405262D01*
X128796506Y-75405262D01*
X128796503Y-75405263D01*
X128719391Y-75437203D01*
X128678579Y-75454108D01*
X128609109Y-75461576D01*
X128562242Y-75442652D01*
X128559187Y-75440611D01*
X128559183Y-75440609D01*
X128559179Y-75440606D01*
X128559175Y-75440604D01*
X128559171Y-75440602D01*
X128413501Y-75380264D01*
X128413489Y-75380261D01*
X128258845Y-75349500D01*
X128258842Y-75349500D01*
X128101158Y-75349500D01*
X128101155Y-75349500D01*
X127946510Y-75380261D01*
X127946498Y-75380264D01*
X127802452Y-75439930D01*
X127732983Y-75447399D01*
X127707548Y-75439930D01*
X127563501Y-75380264D01*
X127563489Y-75380261D01*
X127408845Y-75349500D01*
X127408842Y-75349500D01*
X127251158Y-75349500D01*
X127246259Y-75349500D01*
X127179220Y-75329815D01*
X127133465Y-75277011D01*
X127131698Y-75272952D01*
X127089397Y-75170827D01*
X127089390Y-75170814D01*
X127001789Y-75039711D01*
X127001786Y-75039707D01*
X126890292Y-74928213D01*
X126890288Y-74928210D01*
X126759185Y-74840609D01*
X126759172Y-74840602D01*
X126613501Y-74780264D01*
X126613489Y-74780261D01*
X126458845Y-74749500D01*
X126458842Y-74749500D01*
X126301158Y-74749500D01*
X126301155Y-74749500D01*
X126146510Y-74780261D01*
X126146498Y-74780264D01*
X126000827Y-74840602D01*
X126000814Y-74840609D01*
X125869711Y-74928210D01*
X125869707Y-74928213D01*
X125758213Y-75039707D01*
X125758210Y-75039711D01*
X125670609Y-75170814D01*
X125670602Y-75170827D01*
X125610264Y-75316498D01*
X125610261Y-75316510D01*
X125579500Y-75471153D01*
X121276951Y-75471153D01*
X121430629Y-75407498D01*
X121430630Y-75407496D01*
X121430638Y-75407494D01*
X121680449Y-75263265D01*
X121909297Y-75087664D01*
X122113267Y-74883694D01*
X122288868Y-74654846D01*
X122433097Y-74405035D01*
X122543484Y-74138535D01*
X122618142Y-73859907D01*
X122655793Y-73573918D01*
X122655793Y-73285468D01*
X162095413Y-73285468D01*
X162095413Y-73573911D01*
X162095414Y-73573928D01*
X162133062Y-73859896D01*
X162133063Y-73859901D01*
X162133064Y-73859907D01*
X162207722Y-74138534D01*
X162207727Y-74138550D01*
X162318104Y-74405026D01*
X162318112Y-74405042D01*
X162462333Y-74654838D01*
X162462344Y-74654854D01*
X162637937Y-74883692D01*
X162637943Y-74883699D01*
X162841903Y-75087659D01*
X162841909Y-75087664D01*
X163070757Y-75263265D01*
X163070764Y-75263269D01*
X163320560Y-75407490D01*
X163320576Y-75407498D01*
X163587052Y-75517875D01*
X163587058Y-75517876D01*
X163587068Y-75517881D01*
X163865696Y-75592539D01*
X164151685Y-75630190D01*
X164151692Y-75630190D01*
X164440134Y-75630190D01*
X164440141Y-75630190D01*
X164726130Y-75592539D01*
X165004758Y-75517881D01*
X165004770Y-75517875D01*
X165004773Y-75517875D01*
X165271249Y-75407498D01*
X165271252Y-75407496D01*
X165271258Y-75407494D01*
X165521069Y-75263265D01*
X165749917Y-75087664D01*
X165953887Y-74883694D01*
X166129488Y-74654846D01*
X166273717Y-74405035D01*
X166384104Y-74138535D01*
X166458762Y-73859907D01*
X166496413Y-73573918D01*
X166496413Y-73285462D01*
X166458762Y-72999473D01*
X166384104Y-72720845D01*
X166384099Y-72720835D01*
X166384098Y-72720829D01*
X166273721Y-72454353D01*
X166273713Y-72454337D01*
X166129492Y-72204541D01*
X166129488Y-72204534D01*
X166078928Y-72138643D01*
X165953888Y-71975687D01*
X165953882Y-71975680D01*
X165749922Y-71771720D01*
X165749915Y-71771714D01*
X165521077Y-71596121D01*
X165521075Y-71596119D01*
X165521069Y-71596115D01*
X165521064Y-71596112D01*
X165521061Y-71596110D01*
X165271265Y-71451889D01*
X165271249Y-71451881D01*
X165004773Y-71341504D01*
X165004761Y-71341500D01*
X165004758Y-71341499D01*
X164726130Y-71266841D01*
X164726124Y-71266840D01*
X164726119Y-71266839D01*
X164440151Y-71229191D01*
X164440146Y-71229190D01*
X164440141Y-71229190D01*
X164151685Y-71229190D01*
X164151679Y-71229190D01*
X164151674Y-71229191D01*
X163865706Y-71266839D01*
X163865699Y-71266840D01*
X163865696Y-71266841D01*
X163665057Y-71320602D01*
X163587068Y-71341499D01*
X163587052Y-71341504D01*
X163320576Y-71451881D01*
X163320560Y-71451889D01*
X163070764Y-71596110D01*
X163070748Y-71596121D01*
X162841910Y-71771714D01*
X162841903Y-71771720D01*
X162637943Y-71975680D01*
X162637937Y-71975687D01*
X162462344Y-72204525D01*
X162462333Y-72204541D01*
X162318112Y-72454337D01*
X162318104Y-72454353D01*
X162207727Y-72720829D01*
X162207722Y-72720845D01*
X162140920Y-72970156D01*
X162133065Y-72999470D01*
X162133062Y-72999483D01*
X162095414Y-73285451D01*
X162095413Y-73285468D01*
X122655793Y-73285468D01*
X122655793Y-73285462D01*
X122618142Y-72999473D01*
X122543484Y-72720845D01*
X122543479Y-72720835D01*
X122543478Y-72720829D01*
X122433101Y-72454353D01*
X122433093Y-72454337D01*
X122288872Y-72204541D01*
X122288868Y-72204534D01*
X122147694Y-72020552D01*
X122113268Y-71975687D01*
X122113262Y-71975680D01*
X122088735Y-71951153D01*
X134274500Y-71951153D01*
X134274500Y-72108846D01*
X134305261Y-72263489D01*
X134305264Y-72263501D01*
X134365602Y-72409172D01*
X134365609Y-72409185D01*
X134453210Y-72540288D01*
X134453213Y-72540292D01*
X134564707Y-72651786D01*
X134564711Y-72651789D01*
X134695814Y-72739390D01*
X134695827Y-72739397D01*
X134841498Y-72799735D01*
X134841503Y-72799737D01*
X134954467Y-72822207D01*
X134996153Y-72830499D01*
X134996156Y-72830500D01*
X134996158Y-72830500D01*
X135153844Y-72830500D01*
X135153845Y-72830499D01*
X135308497Y-72799737D01*
X135454179Y-72739394D01*
X135585289Y-72651789D01*
X135696789Y-72540289D01*
X135784394Y-72409179D01*
X135844737Y-72263497D01*
X135869533Y-72138842D01*
X135872968Y-72121574D01*
X145079500Y-72121574D01*
X145079500Y-72279267D01*
X145110261Y-72433910D01*
X145110264Y-72433922D01*
X145170602Y-72579593D01*
X145170609Y-72579606D01*
X145258210Y-72710709D01*
X145258213Y-72710713D01*
X145369707Y-72822207D01*
X145369711Y-72822210D01*
X145500814Y-72909811D01*
X145500827Y-72909818D01*
X145646498Y-72970156D01*
X145646503Y-72970158D01*
X145793929Y-72999483D01*
X145801153Y-73000920D01*
X145801156Y-73000921D01*
X145801158Y-73000921D01*
X145958844Y-73000921D01*
X145958845Y-73000920D01*
X146113497Y-72970158D01*
X146259179Y-72909815D01*
X146390289Y-72822210D01*
X146501789Y-72710710D01*
X146589394Y-72579600D01*
X146593250Y-72570292D01*
X146615082Y-72517583D01*
X146649737Y-72433918D01*
X146680500Y-72279263D01*
X146680500Y-72121579D01*
X146680500Y-72121576D01*
X146656169Y-71999258D01*
X146656169Y-71999257D01*
X146652567Y-71981153D01*
X155889500Y-71981153D01*
X155889500Y-72138846D01*
X155920261Y-72293489D01*
X155920264Y-72293501D01*
X155980602Y-72439172D01*
X155980609Y-72439185D01*
X156068210Y-72570288D01*
X156068213Y-72570292D01*
X156179707Y-72681786D01*
X156179711Y-72681789D01*
X156310814Y-72769390D01*
X156310827Y-72769397D01*
X156384078Y-72799738D01*
X156456503Y-72829737D01*
X156611153Y-72860499D01*
X156611156Y-72860500D01*
X156611158Y-72860500D01*
X156768844Y-72860500D01*
X156768845Y-72860499D01*
X156923497Y-72829737D01*
X157069179Y-72769394D01*
X157200289Y-72681789D01*
X157311789Y-72570289D01*
X157399394Y-72439179D01*
X157401577Y-72433910D01*
X157459735Y-72293501D01*
X157459737Y-72293497D01*
X157490500Y-72138842D01*
X157490500Y-71981158D01*
X157490500Y-71981155D01*
X157490499Y-71981153D01*
X157459738Y-71826510D01*
X157459737Y-71826503D01*
X157447309Y-71796498D01*
X157399397Y-71680827D01*
X157399390Y-71680814D01*
X157311789Y-71549711D01*
X157311786Y-71549707D01*
X157200292Y-71438213D01*
X157200288Y-71438210D01*
X157069185Y-71350609D01*
X157069172Y-71350602D01*
X156923501Y-71290264D01*
X156923489Y-71290261D01*
X156768845Y-71259500D01*
X156768842Y-71259500D01*
X156611158Y-71259500D01*
X156611155Y-71259500D01*
X156456510Y-71290261D01*
X156456498Y-71290264D01*
X156310827Y-71350602D01*
X156310814Y-71350609D01*
X156179711Y-71438210D01*
X156179707Y-71438213D01*
X156068213Y-71549707D01*
X156068210Y-71549711D01*
X155980609Y-71680814D01*
X155980602Y-71680827D01*
X155920264Y-71826498D01*
X155920261Y-71826510D01*
X155889500Y-71981153D01*
X146652567Y-71981153D01*
X146649738Y-71966931D01*
X146649737Y-71966924D01*
X146643205Y-71951155D01*
X146589397Y-71821248D01*
X146589390Y-71821235D01*
X146501789Y-71690132D01*
X146501786Y-71690128D01*
X146390292Y-71578634D01*
X146390288Y-71578631D01*
X146259185Y-71491030D01*
X146259172Y-71491023D01*
X146113501Y-71430685D01*
X146113489Y-71430682D01*
X145958845Y-71399921D01*
X145958842Y-71399921D01*
X145801158Y-71399921D01*
X145801155Y-71399921D01*
X145646510Y-71430682D01*
X145646498Y-71430685D01*
X145500827Y-71491023D01*
X145500814Y-71491030D01*
X145369711Y-71578631D01*
X145369707Y-71578634D01*
X145258213Y-71690128D01*
X145258210Y-71690132D01*
X145170609Y-71821235D01*
X145170602Y-71821248D01*
X145110264Y-71966919D01*
X145110261Y-71966931D01*
X145079500Y-72121574D01*
X135872968Y-72121574D01*
X135875499Y-72108848D01*
X135875500Y-72108841D01*
X135875500Y-71951155D01*
X135875499Y-71951153D01*
X135844737Y-71796503D01*
X135800677Y-71690132D01*
X135784397Y-71650827D01*
X135784390Y-71650814D01*
X135696789Y-71519711D01*
X135696786Y-71519707D01*
X135585292Y-71408213D01*
X135585288Y-71408210D01*
X135454185Y-71320609D01*
X135454172Y-71320602D01*
X135308501Y-71260264D01*
X135308489Y-71260261D01*
X135153845Y-71229500D01*
X135153842Y-71229500D01*
X134996158Y-71229500D01*
X134996155Y-71229500D01*
X134841510Y-71260261D01*
X134841498Y-71260264D01*
X134695827Y-71320602D01*
X134695814Y-71320609D01*
X134564711Y-71408210D01*
X134564707Y-71408213D01*
X134453213Y-71519707D01*
X134453210Y-71519711D01*
X134365609Y-71650814D01*
X134365602Y-71650827D01*
X134305264Y-71796498D01*
X134305261Y-71796510D01*
X134274500Y-71951153D01*
X122088735Y-71951153D01*
X121909302Y-71771720D01*
X121909295Y-71771714D01*
X121680457Y-71596121D01*
X121680455Y-71596119D01*
X121680449Y-71596115D01*
X121680444Y-71596112D01*
X121680441Y-71596110D01*
X121430645Y-71451889D01*
X121430629Y-71451881D01*
X121164153Y-71341504D01*
X121164141Y-71341500D01*
X121164138Y-71341499D01*
X120885510Y-71266841D01*
X120885504Y-71266840D01*
X120885499Y-71266839D01*
X120599531Y-71229191D01*
X120599526Y-71229190D01*
X120599521Y-71229190D01*
X120311065Y-71229190D01*
X120311059Y-71229190D01*
X120311054Y-71229191D01*
X120025086Y-71266839D01*
X120025079Y-71266840D01*
X120025076Y-71266841D01*
X119824437Y-71320602D01*
X119746448Y-71341499D01*
X119746432Y-71341504D01*
X119479956Y-71451881D01*
X119479940Y-71451889D01*
X119230144Y-71596110D01*
X119230128Y-71596121D01*
X119001290Y-71771714D01*
X119001283Y-71771720D01*
X118797323Y-71975680D01*
X118797317Y-71975687D01*
X118621724Y-72204525D01*
X118621713Y-72204541D01*
X118477492Y-72454337D01*
X118477484Y-72454353D01*
X118367107Y-72720829D01*
X118367102Y-72720845D01*
X118300300Y-72970156D01*
X118292445Y-72999470D01*
X118292442Y-72999483D01*
X118254794Y-73285451D01*
X118254793Y-73285468D01*
X115859414Y-73285468D01*
X116067548Y-73031856D01*
X116070090Y-73028859D01*
X116811845Y-72183050D01*
X116814538Y-72180079D01*
X117583536Y-71359028D01*
X117586298Y-71356174D01*
X118381777Y-70560695D01*
X118384631Y-70557933D01*
X119205682Y-69788935D01*
X119208653Y-69786242D01*
X120054462Y-69044487D01*
X120057459Y-69041945D01*
X120927078Y-68328267D01*
X120930211Y-68325781D01*
X121822690Y-67640957D01*
X121825899Y-67638577D01*
X122740313Y-66983318D01*
X122743584Y-66981054D01*
X123678969Y-66356048D01*
X123682306Y-66353897D01*
X124637628Y-65759840D01*
X124641027Y-65757803D01*
X125615306Y-65195302D01*
X125618751Y-65193388D01*
X126610874Y-64663087D01*
X126614440Y-64661255D01*
X127623366Y-64163708D01*
X127626985Y-64161996D01*
X128651670Y-63697718D01*
X128655314Y-63696139D01*
X129694648Y-63265632D01*
X129698369Y-63264162D01*
X130751201Y-62867905D01*
X130754955Y-62866561D01*
X131820213Y-62504954D01*
X131823984Y-62503743D01*
X132900552Y-62177169D01*
X132904346Y-62176086D01*
X133814243Y-61932280D01*
X133990953Y-61884931D01*
X133994869Y-61883949D01*
X135090470Y-61628491D01*
X135094307Y-61627663D01*
X136197638Y-61408197D01*
X136201558Y-61407483D01*
X137311517Y-61224228D01*
X137315466Y-61223642D01*
X138430796Y-61076806D01*
X138434714Y-61076355D01*
X139554242Y-60966092D01*
X139558279Y-60965762D01*
X140680771Y-60892189D01*
X140684793Y-60891990D01*
X141809115Y-60855184D01*
X141813172Y-60855118D01*
X142938034Y-60855118D01*
X142942091Y-60855184D01*
G37*
%TD.AperFunction*%
%TD*%
M02*
